<?xml version="1.0" encoding="UTF-8" standalone="no"?>
<svg width="47px" height="72px" viewBox="0 0 47 72" version="1.1" xmlns="http://www.w3.org/2000/svg" xmlns:xlink="http://www.w3.org/1999/xlink" xmlns:sketch="http://www.bohemiancoding.com/sketch/ns">
    <!-- Generator: Sketch 3.2.2 (9983) - http://www.bohemiancoding.com/sketch -->
    <title>Imported Layers + Group + Imported Layers + Group</title>
    <desc>Created with Sketch.</desc>
    <defs></defs>
    <g id="Page-1" stroke="none" stroke-width="1" fill="none" fill-rule="evenodd" sketch:type="MSPage">
        <g id="Imported-Layers-+-Group-+-Imported-Layers-+-Group" sketch:type="MSLayerGroup">
            <g id="Imported-Layers-+-Group" transform="translate(0.261000, 36.000000)" sketch:type="MSShapeGroup">
                <g id="Imported-Layers" transform="translate(0.500000, 0.500000)">
                    <path d="M17.207,0.855 C21.656,0.855 25.838,2.587 28.984,5.733 C32.13,8.879 33.862,13.061 33.862,17.51 C33.862,21.959 32.13,26.141 28.984,29.287 C25.838,32.433 21.656,34.166 17.207,34.166 C12.758,34.166 8.575,32.433 5.429,29.287 C2.284,26.141 0.551,21.959 0.551,17.51 C0.551,13.061 2.284,8.879 5.429,5.733 C8.575,2.587 12.758,0.855 17.207,0.855" id="Fill-1" fill="#E1E3E3"></path>
                    <path d="M17.207,0.855 C21.656,0.855 25.838,2.587 28.984,5.733 C32.13,8.879 33.862,13.061 33.862,17.51 C33.862,21.959 32.13,26.141 28.984,29.287 C25.838,32.433 21.656,34.166 17.207,34.166 C12.758,34.166 8.575,32.433 5.429,29.287 C2.284,26.141 0.551,21.959 0.551,17.51 C0.551,13.061 2.284,8.879 5.429,5.733 C8.575,2.587 12.758,0.855 17.207,0.855" id="Stroke-2" stroke="#858D93"></path>
                    <path d="M27.839,30.199 C27.203,26.717 24.138,24 20.48,24 L14.137,24 C10.461,24 7.384,26.76 6.769,30.266" id="Stroke-3" stroke="#858D93"></path>
                    <path d="M15.187,26.362 L15.187,24.548 C15.187,23.37 16.152,22.406 17.33,22.406 C18.509,22.406 19.473,23.37 19.473,24.548 L19.473,26.362 C19.473,27.54 18.509,28.505 17.33,28.505 C16.152,28.505 15.187,27.54 15.187,26.362 Z" id="Fill-4" fill="#FFFFFF"></path>
                    <path d="M17.33,28.505 L17.33,28.505 C16.152,28.505 15.187,27.54 15.187,26.362 L15.187,24.548 C15.187,23.37 16.152,22.406 17.33,22.406 C18.509,22.406 19.473,23.37 19.473,24.548 L19.473,26.362 C19.473,27.54 18.509,28.505 17.33,28.505 L17.33,28.505 Z" id="Stroke-5" stroke="#858D93"></path>
                    <path d="M26.285,14.468 C26.285,19.922 22.276,24.343 17.33,24.343 C12.385,24.343 8.376,19.922 8.376,14.468 C8.376,9.015 12.385,4.594 17.33,4.594 C22.276,4.594 26.285,9.015 26.285,14.468 L26.285,14.468 Z" id="Fill-6" fill="#FFFFFF"></path>
                    <path d="M17.33,24.343 C12.385,24.343 8.376,19.922 8.376,14.468 C8.376,9.015 12.385,4.594 17.33,4.594 C22.276,4.594 26.285,9.015 26.285,14.468 C26.285,19.922 22.276,24.343 17.33,24.343 Z" id="Stroke-7" stroke="#858D93"></path>
                    <path d="M15.384,14.814 C15.384,15.314 14.978,15.72 14.477,15.72 C13.977,15.72 13.571,15.314 13.571,14.814 C13.571,14.313 13.977,13.907 14.477,13.907 C14.978,13.907 15.384,14.313 15.384,14.814" id="Fill-8" fill="#858D93"></path>
                    <path d="M20.989,14.814 C20.989,15.314 20.583,15.72 20.082,15.72 C19.581,15.72 19.175,15.314 19.175,14.814 C19.175,14.313 19.581,13.907 20.082,13.907 C20.583,13.907 20.989,14.313 20.989,14.814" id="Fill-9" fill="#858D93"></path>
                </g>
                <g id="Group" transform="translate(23.000000, 1.000000)" stroke="#BD1900">
                    <rect id="Rectangle-115" fill="#FFFFFF" x="0.5" y="0" width="22.5" height="20" rx="4"></rect>
                    <path d="M12,6.17485894 L12,13.8251411" id="Line" stroke-linecap="square"></path>
                    <path d="M16.1502821,9.82711884 L8.5,9.82711884" id="Line" stroke-linecap="square"></path>
                </g>
            </g>
            <g id="Imported-Layers-+-Group" transform="translate(0.261000, 0.000000)" sketch:type="MSShapeGroup">
                <g id="Imported-Layers" transform="translate(0.500000, 0.500000)">
                    <path d="M17.207,0.855 C21.656,0.855 25.838,2.587 28.984,5.733 C32.13,8.879 33.862,13.061 33.862,17.51 C33.862,21.959 32.13,26.141 28.984,29.287 C25.838,32.433 21.656,34.166 17.207,34.166 C12.758,34.166 8.575,32.433 5.429,29.287 C2.284,26.141 0.551,21.959 0.551,17.51 C0.551,13.061 2.284,8.879 5.429,5.733 C8.575,2.587 12.758,0.855 17.207,0.855" id="Fill-1" fill="#E1E3E3"></path>
                    <path d="M17.207,0.855 C21.656,0.855 25.838,2.587 28.984,5.733 C32.13,8.879 33.862,13.061 33.862,17.51 C33.862,21.959 32.13,26.141 28.984,29.287 C25.838,32.433 21.656,34.166 17.207,34.166 C12.758,34.166 8.575,32.433 5.429,29.287 C2.284,26.141 0.551,21.959 0.551,17.51 C0.551,13.061 2.284,8.879 5.429,5.733 C8.575,2.587 12.758,0.855 17.207,0.855" id="Stroke-2" stroke="#858D93"></path>
                    <path d="M27.839,30.199 C27.203,26.717 24.138,24 20.48,24 L14.137,24 C10.461,24 7.384,26.76 6.769,30.266" id="Stroke-3" stroke="#858D93"></path>
                    <path d="M15.187,26.362 L15.187,24.548 C15.187,23.37 16.152,22.406 17.33,22.406 C18.509,22.406 19.473,23.37 19.473,24.548 L19.473,26.362 C19.473,27.54 18.509,28.505 17.33,28.505 C16.152,28.505 15.187,27.54 15.187,26.362 Z" id="Fill-4" fill="#FFFFFF"></path>
                    <path d="M17.33,28.505 L17.33,28.505 C16.152,28.505 15.187,27.54 15.187,26.362 L15.187,24.548 C15.187,23.37 16.152,22.406 17.33,22.406 C18.509,22.406 19.473,23.37 19.473,24.548 L19.473,26.362 C19.473,27.54 18.509,28.505 17.33,28.505 L17.33,28.505 Z" id="Stroke-5" stroke="#858D93"></path>
                    <path d="M26.285,14.468 C26.285,19.922 22.276,24.343 17.33,24.343 C12.385,24.343 8.376,19.922 8.376,14.468 C8.376,9.015 12.385,4.594 17.33,4.594 C22.276,4.594 26.285,9.015 26.285,14.468 L26.285,14.468 Z" id="Fill-6" fill="#FFFFFF"></path>
                    <path d="M17.33,24.343 C12.385,24.343 8.376,19.922 8.376,14.468 C8.376,9.015 12.385,4.594 17.33,4.594 C22.276,4.594 26.285,9.015 26.285,14.468 C26.285,19.922 22.276,24.343 17.33,24.343 Z" id="Stroke-7" stroke="#858D93"></path>
                    <path d="M15.384,14.814 C15.384,15.314 14.978,15.72 14.477,15.72 C13.977,15.72 13.571,15.314 13.571,14.814 C13.571,14.313 13.977,13.907 14.477,13.907 C14.978,13.907 15.384,14.313 15.384,14.814" id="Fill-8" fill="#858D93"></path>
                    <path d="M20.989,14.814 C20.989,15.314 20.583,15.72 20.082,15.72 C19.581,15.72 19.175,15.314 19.175,14.814 C19.175,14.313 19.581,13.907 20.082,13.907 C20.583,13.907 20.989,14.313 20.989,14.814" id="Fill-9" fill="#858D93"></path>
                </g>
                <g id="Group" transform="translate(23.000000, 1.000000)" stroke="#979797">
                    <rect id="Rectangle-115" fill="#FFFFFF" x="0.5" y="0" width="22.5" height="20" rx="4"></rect>
                    <path d="M12,6.17485894 L12,13.8251411" id="Line" stroke-linecap="square"></path>
                    <path d="M16.1502821,9.82711884 L8.5,9.82711884" id="Line" stroke-linecap="square"></path>
                </g>
            </g>
        </g>
    </g>
</svg>