<?xml version="1.0" encoding="UTF-8" standalone="no"?>
<svg width="27px" height="54px" viewBox="0 0 27 54" version="1.1" xmlns="http://www.w3.org/2000/svg" xmlns:xlink="http://www.w3.org/1999/xlink" xmlns:sketch="http://www.bohemiancoding.com/sketch/ns">
    <!-- Generator: Sketch 3.2.2 (9983) - http://www.bohemiancoding.com/sketch -->
    <title>Artboard 8</title>
    <desc>Created with Sketch.</desc>
    <defs></defs>
    <g id="Page-1" stroke="none" stroke-width="1" fill="none" fill-rule="evenodd" sketch:type="MSPage">
        <g id="Artboard-8" sketch:type="MSArtboardGroup">
            <g id="Imported-Layers" sketch:type="MSLayerGroup" transform="translate(4.000000, 3.000000)">
                <path d="M6,0.123 L0.403,5.322 L6,10.338 L6,8 L18,8 L18,3 L6,3 L6,0.123 Z" id="Fill-1" fill="#1A1918" sketch:type="MSShapeGroup"></path>
                <path d="M18.597,14.178 L13,9.162 L13,12 L1,12 L1,17 L13,17 L13,19.377 L18.597,14.178" id="Fill-2" fill="#1A1919" sketch:type="MSShapeGroup"></path>
            </g>
            <g id="Imported-Layers" sketch:type="MSLayerGroup" transform="translate(4.000000, 30.000000)" fill="#BD1900">
                <path d="M6,0.123 L0.403,5.322 L6,10.338 L6,8 L18,8 L18,3 L6,3 L6,0.123 Z" id="Fill-1" sketch:type="MSShapeGroup"></path>
                <path d="M18.597,14.178 L13,9.162 L13,12 L1,12 L1,17 L13,17 L13,19.377 L18.597,14.178" id="Fill-2" sketch:type="MSShapeGroup"></path>
            </g>
        </g>
    </g>
</svg>