<?xml version="1.0" encoding="UTF-8" standalone="no"?>
<svg width="102px" height="28px" viewBox="0 0 102 28" version="1.1" xmlns="http://www.w3.org/2000/svg" xmlns:xlink="http://www.w3.org/1999/xlink" xmlns:sketch="http://www.bohemiancoding.com/sketch/ns">
    <!-- Generator: Sketch 3.2.2 (9983) - http://www.bohemiancoding.com/sketch -->
    <title>Fill 1</title>
    <desc>Created with Sketch.</desc>
    <defs></defs>
    <g id="Page-1" stroke="none" stroke-width="1" fill="none" fill-rule="evenodd" sketch:type="MSPage">
        <path d="M95.7600331,12.4118471 C94.6799813,12.4118471 93.7325898,12.8378234 92.9175404,13.6913665 C92.102491,14.5439553 91.567078,15.6720447 91.3135282,17.0746805 C92.6264513,17.0275972 93.6845521,16.9054352 94.4891032,16.7062858 C95.2946087,16.5080907 95.91878,16.2679025 96.3632078,15.9873117 C96.8079538,15.7076753 97.1041329,15.403861 97.2523816,15.076187 C97.4006302,14.748513 97.4747545,14.4217933 97.4747545,14.0941193 C97.4747545,12.9723924 96.9040291,12.4118471 95.7600331,12.4118471 L95.7600331,12.4118471 Z M86.5173984,19.9849349 C86.5173984,18.4887689 86.7553597,17.0390499 87.2322368,15.6364142 C87.7091138,14.2350509 88.3810047,12.9902077 89.2494999,11.9028389 C90.1164045,10.8164245 91.1706878,9.93965786 92.4091684,9.27412963 C93.6479672,8.60701074 95.019108,8.27424662 96.5219548,8.27424662 C97.2638342,8.27424662 97.9516316,8.39100038 98.5872556,8.62482603 C99.2216071,8.85865167 99.7776985,9.1977784 100.254894,9.6412518 C100.730498,10.0859977 101.10112,10.6296821 101.366122,11.272305 C101.63017,11.915246 101.762512,12.6456728 101.762512,13.4639035 C101.762512,14.7723727 101.498783,15.882965 100.96846,16.7937716 C100.439409,17.7058507 99.7035742,18.4480483 98.7612728,19.0210006 C97.8189713,19.5926805 96.7023346,20.0081584 95.4104081,20.2648895 C94.1184816,20.5225749 92.7107558,20.6507813 91.1862762,20.6507813 C91.3345248,21.632849 91.657745,22.3279634 92.1556187,22.7370787 C92.652538,23.1461941 93.4411826,23.3504336 94.5215525,23.3504336 C95.1985334,23.3504336 95.8872852,23.2858532 96.5855808,23.1576467 C97.2848308,23.0291222 97.9411333,22.8360172 98.5548063,22.5792862 L98.9044313,26.6815742 C98.3117549,26.9383052 97.5539689,27.1721309 96.6336184,27.382733 C95.7119955,27.5926989 94.7114762,27.698 93.6323788,27.698 C92.3194557,27.698 91.2123629,27.4934423 90.3126908,27.084327 C89.413337,26.6752116 88.682592,26.1200745 88.1214105,25.4189157 C87.5608652,24.7177569 87.1527042,23.8995262 86.8991545,22.9645418 C86.6446504,22.0295573 86.5173984,21.0360369 86.5173984,19.9849349 L86.5173984,19.9849349 Z M85.4373466,13.2529832 C85.0135972,13.1362294 84.5962105,13.0255202 84.1829594,12.9202191 C83.7697084,12.814918 83.1611255,12.7627447 82.3565744,12.7627447 C82.0603952,12.7627447 81.7327212,12.7916945 81.3725979,12.8502304 C81.0124745,12.9087664 80.7162954,12.9723924 80.4824697,13.042381 L77.4016975,27.2074433 L72.6691937,27.2074433 L76.4813471,9.746871 C77.3915174,9.42015136 78.4130332,9.11029261 79.5462128,8.81793102 C80.678756,8.52588756 81.954776,8.37954769 83.3730001,8.37954769 C83.9020505,8.37954769 84.4896369,8.43172104 85.1357592,8.53734024 C85.7815634,8.64264131 86.3481531,8.81188654 86.8345741,9.04539406 L85.4373466,13.2529832 L85.4373466,13.2529832 Z M64.3478638,12.6918016 C63.6498863,12.6918016 63.0352589,12.9138565 62.5062085,13.3586024 C61.9771581,13.8020758 61.5324121,14.3635755 61.1726069,15.0405564 C60.8124836,15.719128 60.542073,16.4610075 60.3626476,17.2677855 C60.1822678,18.073291 60.092237,18.8393483 60.092237,19.5634125 C60.092237,20.7564005 60.2614822,21.6735697 60.600609,22.3165107 C60.9387813,22.9591335 61.5534087,23.2807631 62.4425824,23.2807631 C63.1415143,23.2807631 63.7551874,23.0583901 64.2842378,22.6136442 C64.8145607,22.1701708 65.2589885,21.6089893 65.6191118,20.9316902 C65.978917,20.2531186 66.2483732,19.5112392 66.428753,18.7047793 C66.6081784,17.8989557 66.6991636,17.1328983 66.6991636,16.4088341 C66.6991636,15.2161642 66.528964,14.2986769 66.1907917,13.6557359 C65.8516649,13.0131131 65.2370375,12.6918016 64.3478638,12.6918016 L64.3478638,12.6918016 Z M61.9978365,27.698 C60.8761097,27.698 59.9013589,27.5112576 59.0758112,27.1365003 C58.2505817,26.7630155 57.56692,26.2371464 57.0273713,25.558893 C56.4878226,24.8815939 56.0799798,24.0811785 55.8044791,23.1576467 C55.5289784,22.2337968 55.3921824,21.212281 55.3921824,20.0895997 C55.3921824,18.6879184 55.5976945,17.2852826 56.0109455,15.882965 C56.4241966,14.4803292 57.0327795,13.2176708 57.8373306,12.0956258 C58.6418817,10.9738989 59.6258582,10.0567298 60.7905327,9.34380013 C61.9561615,8.63118863 63.289763,8.27424662 64.7926097,8.27424662 C65.8936581,8.27424662 66.8630006,8.46098901 67.6987285,8.8357463 C68.5357289,9.20923108 69.2235262,9.73510019 69.7630749,10.4136718 C70.303578,11.0909708 70.7104665,11.8913862 70.9859672,12.814918 C71.2614678,13.7384498 71.3992182,14.76092 71.3992182,15.882965 C71.3992182,17.2852826 71.1978418,18.6879184 70.7960435,20.0895997 C70.3932907,21.4919174 69.8006143,22.7545759 69.0167416,23.8766208 C68.2331871,24.9983477 67.2543007,25.9155169 66.079128,26.6284465 C64.9042734,27.341058 63.5433127,27.698 61.9978365,27.698 L61.9978365,27.698 Z M40.9398486,19.8443214 C40.9398486,18.2549433 41.1727199,16.7594135 41.6390987,15.3567778 C42.1045231,13.9544601 42.7713238,12.7271141 43.6395009,11.6753759 C44.5079962,10.6233195 45.5619613,9.79363613 46.8004419,9.18632571 C48.0392407,8.5780609 49.4208798,8.27424662 50.9456776,8.27424662 C51.8984773,8.27424662 52.7497936,8.37350322 53.5021713,8.57265268 C54.2535947,8.77084776 54.9359838,9.03394138 55.5509294,9.36161541 L53.9300563,13.4282729 C53.5075795,13.2415305 53.0682418,13.071649 52.6120432,12.9202191 C52.1571171,12.7678347 51.60198,12.6918016 50.9456776,12.6918016 C49.3572538,12.6918016 48.1082749,13.2822512 47.1971502,14.462514 C46.2869799,15.6427768 45.8310994,17.2499702 45.8310994,19.2837761 C45.8310994,20.4754916 46.0639707,21.439744 46.5303495,22.175579 C46.9957738,22.9123684 47.8534527,23.2807631 49.1027497,23.2807631 C49.7173771,23.2807631 50.3100536,23.2098201 50.8820515,23.0698428 C51.452777,22.9301837 51.9621033,22.7545759 52.4065311,22.5439737 L52.7552018,26.7159323 C52.1622072,26.9739358 51.511313,27.2013989 50.802519,27.3995939 C50.0930888,27.5987434 49.2300018,27.698 48.213576,27.698 C46.9006529,27.698 45.7894244,27.4870797 44.8782997,27.0665117 C43.9684475,26.6462618 43.2170241,26.0793539 42.6243477,25.3667424 C42.0303987,24.6541309 41.6025137,23.8180849 41.3375113,22.8589226 C41.0725089,21.9010327 40.9398486,20.8960596 40.9398486,19.8443214 L40.9398486,19.8443214 Z M31.7932892,4.17195856 L36.7157167,3.33082249 L35.5093673,8.76575768 L40.7814198,8.76575768 L39.8286201,13.042381 L34.5877443,13.042381 L33.1905167,19.493742 C33.0632647,20.0310638 32.9837322,20.5340275 32.9525554,21.0013607 C32.9201061,21.469012 32.973552,21.8717648 33.1113023,22.2108915 C33.2490527,22.5500182 33.487014,22.8131118 33.8261407,22.9998542 C34.1639949,23.1865966 34.6306919,23.2807631 35.2233683,23.2807631 C35.7314221,23.2807631 36.2242057,23.2273172 36.7001284,23.1229706 C37.1770054,23.0176695 37.6580182,22.8716478 38.1453936,22.6849054 L38.4950186,26.6815742 C37.8593946,26.9383052 37.1715972,27.1606782 36.4297178,27.3474206 C35.6887927,27.534163 34.8101172,27.6280114 33.7946459,27.6280114 C32.3325198,27.6280114 31.2002946,27.3881413 30.3957435,26.9090373 C29.5911924,26.4299333 29.0195126,25.7758577 28.6800677,24.9461744 C28.3422135,24.1155366 28.1939649,23.1636912 28.2356399,22.0877751 C28.2785875,21.0131315 28.426518,19.8796339 28.6800677,18.6879184 L31.7932892,4.17195856 L31.7932892,4.17195856 Z M25.2499886,6.52103146 C24.5936862,6.52103146 24.0010097,6.3050211 23.4719593,5.87300038 C22.9425908,5.44002527 22.6775884,4.7805415 22.6775884,3.89136778 C22.6775884,3.40081112 22.7673011,2.93952243 22.947999,2.50654732 C23.1274244,2.0745266 23.3653857,1.70104182 23.6628374,1.38482047 C23.9580622,1.06955351 24.3025971,0.817912571 24.6938972,0.631170183 C25.0861516,0.444427795 25.5048109,0.350579406 25.9492387,0.350579406 C26.6055411,0.350579406 27.1985357,0.566589766 27.7275861,0.999564877 C28.2575909,1.4315856 28.5216389,2.09234188 28.5216389,2.98024308 C28.5216389,3.47079975 28.4319262,3.93304283 28.2512283,4.36506355 C28.0718029,4.79708427 27.8338416,5.17184157 27.5376624,5.48710853 C27.2411651,5.80301175 26.8969483,6.05369829 26.5053301,6.24044068 C26.1130757,6.42813746 25.6947346,6.52103146 25.2499886,6.52103146 L25.2499886,6.52103146 Z M22.9635874,27.2074433 L18.2635328,27.2074433 L22.2331606,8.76575768 L26.9656644,8.76575768 L22.9635874,27.2074433 L22.9635874,27.2074433 Z M6.95527909,23.3860642 C7.69747669,23.3860642 8.3954542,23.1865966 9.05207479,22.7892521 C9.70837726,22.3925438 10.274967,21.8603121 10.7508897,21.1944657 C11.2277668,20.5276649 11.6034785,19.7743328 11.8789792,18.9331967 C12.1544798,18.0911063 12.2922302,17.2143396 12.2922302,16.303533 C12.2922302,15.1814881 12.1220306,14.3050395 11.7838582,13.6735512 C11.4447315,13.042381 10.8196058,12.7271141 9.90975363,12.7271141 C9.61325635,12.7271141 9.2273645,12.78565 8.75048743,12.9024038 C8.27361036,13.0194757 7.84572533,13.2644359 7.46365104,13.6382388 L5.36812786,23.2451325 C5.49442552,23.2689923 5.6060892,23.2922158 5.70121011,23.3151212 C5.79601289,23.3389809 5.89717827,23.3567962 6.00375186,23.3682489 C6.10905294,23.3797016 6.23630499,23.3860642 6.38455363,23.3860642 L6.95527909,23.3860642 L6.95527909,23.3860642 Z M11.0849263,8.37954769 C12.1013521,8.37954769 12.9800275,8.5780609 13.7209526,8.97540543 C14.4618777,9.3730681 15.0765051,9.91070802 15.562608,10.5889615 C16.0499833,11.2662605 16.4101066,12.0612677 16.6426598,12.9723924 C16.875531,13.8844715 16.9922848,14.8652667 16.9922848,15.9173231 C16.9922848,17.530561 16.7221923,19.0553587 16.1826436,20.4933069 C15.6421405,21.9303007 14.9063055,23.1805521 13.9754567,24.2450155 C13.0436536,25.3082064 11.9426052,26.1493425 10.6716753,26.7693781 C9.40138168,27.3881413 8.02515073,27.698 6.54330057,27.698 C6.35242249,27.698 6.01934024,27.6916374 5.54246317,27.6801847 C5.0655861,27.668732 4.52094732,27.6165587 3.90727429,27.5227103 C3.29264687,27.4288619 2.64143449,27.2888846 1.95363714,27.1021423 C1.26488541,26.9153999 0.614627416,26.6577145 0,26.3309948 L5.49442552,0.842090461 L10.4178075,0 L8.44890006,9.04539406 C8.87233127,8.8357463 9.29512622,8.67190929 9.71887555,8.5548374 C10.1426249,8.43808364 10.597551,8.37954769 11.0849263,8.37954769 L11.0849263,8.37954769 Z" id="Fill-1" fill="#FFFFFF" sketch:type="MSShapeGroup"></path>
    </g>
</svg>