<?xml version="1.0" encoding="UTF-8" standalone="no"?>
<svg width="27px" height="54px" viewBox="0 0 27 54" version="1.1" xmlns="http://www.w3.org/2000/svg" xmlns:xlink="http://www.w3.org/1999/xlink" xmlns:sketch="http://www.bohemiancoding.com/sketch/ns">
    <!-- Generator: Sketch 3.2.2 (9983) - http://www.bohemiancoding.com/sketch -->
    <title>Artboard 8</title>
    <desc>Created with Sketch.</desc>
    <defs></defs>
    <g id="Page-1" stroke="none" stroke-width="1" fill="none" fill-rule="evenodd" sketch:type="MSPage">
        <g id="Artboard-8" sketch:type="MSArtboardGroup">
            <path d="M19.8865,13.3655 C20.4975,12.7505 20.8775,11.9575 20.8775,11.0785 C20.8775,8.3145 18.9695,6.6555 15.7905,6.6555 L15.7925,6.6555 L15.7905,3.3375 C15.7905,3.2155 15.6765,3.1165 15.5355,3.1165 L14.0095,3.1165 C13.8725,3.1165 13.7625,3.2105 13.7565,3.3285 L13.7565,6.6555 L11.7225,6.6555 L11.7205,3.3375 C11.7205,3.2155 11.6065,3.1165 11.4655,3.1165 L9.9395,3.1165 C9.8025,3.1165 9.6925,3.2105 9.6865,3.3285 L9.6865,6.6555 L5.3585,6.6565 C5.2185,6.6565 5.1055,6.7545 5.1045,6.8765 L5.1045,8.2035 C5.1095,8.3215 5.2225,8.4245 5.3595,8.4245 L5.6145,8.4245 C6.7385,8.4245 7.6495,9.2165 7.6495,10.1935 L7.6515,17.2715 C7.6515,18.1965 6.8355,18.9555 5.7955,19.0345 C5.6875,19.0425 5.5975,19.1095 5.5705,19.2015 L5.1855,20.5355 C5.1665,20.6015 5.1835,20.6715 5.2315,20.7255 C5.2795,20.7795 5.3535,20.8105 5.4325,20.8105 L9.6865,20.8105 L9.6865,24.1375 C9.6925,24.2555 9.8025,24.3495 9.9395,24.3495 L11.4655,24.3495 C11.6065,24.3495 11.7205,24.2515 11.7205,24.1285 L11.7225,20.8105 L13.7565,20.8105 L13.7565,24.1375 C13.7625,24.2555 13.8725,24.3495 14.0095,24.3495 L15.5355,24.3495 C15.6765,24.3495 15.7905,24.2515 15.7905,24.1285 L15.7925,20.8105 L16.8075,20.8105 C19.9875,20.8105 21.8955,19.1515 21.8955,16.3875 C21.8955,15.0915 21.0825,13.9785 19.8865,13.3655 L19.8865,13.3655 Z M11.7205,9.3095 L14.7725,9.3095 C15.8965,9.3095 16.8075,10.1015 16.8075,11.0785 C16.8075,12.0565 15.8965,12.8485 14.7725,12.8485 L11.7205,12.8485 L11.7205,9.3095 L11.7205,9.3095 Z M15.7905,18.1565 L11.7205,18.1565 L11.7205,14.6175 L15.7905,14.6175 C16.9135,14.6175 17.8255,15.4095 17.8255,16.3875 C17.8255,17.3645 16.9135,18.1565 15.7905,18.1565 L15.7905,18.1565 Z" id="Fill-1" fill="#000000" sketch:type="MSShapeGroup"></path>
            <path d="M19.8865,40.3655 C20.4975,39.7505 20.8775,38.9575 20.8775,38.0785 C20.8775,35.3145 18.9695,33.6555 15.7905,33.6555 L15.7925,33.6555 L15.7905,30.3375 C15.7905,30.2155 15.6765,30.1165 15.5355,30.1165 L14.0095,30.1165 C13.8725,30.1165 13.7625,30.2105 13.7565,30.3285 L13.7565,33.6555 L11.7225,33.6555 L11.7205,30.3375 C11.7205,30.2155 11.6065,30.1165 11.4655,30.1165 L9.9395,30.1165 C9.8025,30.1165 9.6925,30.2105 9.6865,30.3285 L9.6865,33.6555 L5.3585,33.6565 C5.2185,33.6565 5.1055,33.7545 5.1045,33.8765 L5.1045,35.2035 C5.1095,35.3215 5.2225,35.4245 5.3595,35.4245 L5.6145,35.4245 C6.7385,35.4245 7.6495,36.2165 7.6495,37.1935 L7.6515,44.2715 C7.6515,45.1965 6.8355,45.9555 5.7955,46.0345 C5.6875,46.0425 5.5975,46.1095 5.5705,46.2015 L5.1855,47.5355 C5.1665,47.6015 5.1835,47.6715 5.2315,47.7255 C5.2795,47.7795 5.3535,47.8105 5.4325,47.8105 L9.6865,47.8105 L9.6865,51.1375 C9.6925,51.2555 9.8025,51.3495 9.9395,51.3495 L11.4655,51.3495 C11.6065,51.3495 11.7205,51.2515 11.7205,51.1285 L11.7225,47.8105 L13.7565,47.8105 L13.7565,51.1375 C13.7625,51.2555 13.8725,51.3495 14.0095,51.3495 L15.5355,51.3495 C15.6765,51.3495 15.7905,51.2515 15.7905,51.1285 L15.7925,47.8105 L16.8075,47.8105 C19.9875,47.8105 21.8955,46.1515 21.8955,43.3875 C21.8955,42.0915 21.0825,40.9785 19.8865,40.3655 L19.8865,40.3655 Z M11.7205,36.3095 L14.7725,36.3095 C15.8965,36.3095 16.8075,37.1015 16.8075,38.0785 C16.8075,39.0565 15.8965,39.8485 14.7725,39.8485 L11.7205,39.8485 L11.7205,36.3095 L11.7205,36.3095 Z M15.7905,45.1565 L11.7205,45.1565 L11.7205,41.6175 L15.7905,41.6175 C16.9135,41.6175 17.8255,42.4095 17.8255,43.3875 C17.8255,44.3645 16.9135,45.1565 15.7905,45.1565 L15.7905,45.1565 Z" id="Fill-1" fill="#BD1900" sketch:type="MSShapeGroup"></path>
        </g>
    </g>
</svg>