<?xml version="1.0" encoding="UTF-8" standalone="no"?>
<svg width="22px" height="49px" viewBox="0 0 22 49" version="1.1" xmlns="http://www.w3.org/2000/svg" xmlns:xlink="http://www.w3.org/1999/xlink" xmlns:sketch="http://www.bohemiancoding.com/sketch/ns">
    <!-- Generator: Sketch 3.2.2 (9983) - http://www.bohemiancoding.com/sketch -->
    <title>Oval 89 + Rectangle 383 + Rectangle 385 + Oval 89 + Rectangle 383 + Rectangle 385</title>
    <desc>Created with Sketch.</desc>
    <defs></defs>
    <g id="Page-1" stroke="none" stroke-width="1" fill="none" fill-rule="evenodd" sketch:type="MSPage">
        <g id="HD-Multisig-4" sketch:type="MSArtboardGroup" transform="translate(-456.000000, -307.000000)">
            <g id="Oval-89-+-Rectangle-383-+-Rectangle-385-+-Oval-89-+-Rectangle-383-+-Rectangle-385" sketch:type="MSLayerGroup" transform="translate(456.000000, 308.000000)">
                <g id="Oval-89-+-Rectangle-383-+-Rectangle-385" transform="translate(0.500000, 0.000000)" stroke="#979797" sketch:type="MSShapeGroup">
                    <circle id="Oval-89" fill="#F7F6F6" cx="10.5" cy="10.6865" r="10.5"></circle>
                    <g id="Rectangle-383-+-Rectangle-385" transform="translate(4.000000, 6.000000)">
                        <path d="M11,2 L11,8 L5,8" id="Rectangle-383" transform="translate(8.000000, 5.000000) rotate(-45.000000) translate(-8.000000, -5.000000) "></path>
                        <path d="M8,2 L8,8 L2,8" id="Rectangle-385" transform="translate(5.000000, 5.000000) scale(-1, 1) rotate(-45.000000) translate(-5.000000, -5.000000) "></path>
                    </g>
                </g>
                <g id="Oval-89-+-Rectangle-383-+-Rectangle-385" transform="translate(0.500000, 25.693500)" stroke="#BD1900" sketch:type="MSShapeGroup">
                    <circle id="Oval-89" fill="#F7F6F6" cx="10.5" cy="10.6865" r="10.5"></circle>
                    <g id="Rectangle-383-+-Rectangle-385" transform="translate(4.000000, 6.000000)">
                        <path d="M11,2 L11,8 L5,8" id="Rectangle-383" transform="translate(8.000000, 5.000000) rotate(-45.000000) translate(-8.000000, -5.000000) "></path>
                        <path d="M8,2 L8,8 L2,8" id="Rectangle-385" transform="translate(5.000000, 5.000000) scale(-1, 1) rotate(-45.000000) translate(-5.000000, -5.000000) "></path>
                    </g>
                </g>
            </g>
        </g>
    </g>
</svg>