<?xml version="1.0" encoding="UTF-8" standalone="no"?>
<svg width="14px" height="14px" viewBox="0 0 14 14" version="1.1" xmlns="http://www.w3.org/2000/svg" xmlns:xlink="http://www.w3.org/1999/xlink" xmlns:sketch="http://www.bohemiancoding.com/sketch/ns">
    <!-- Generator: Sketch 3.2.2 (9983) - http://www.bohemiancoding.com/sketch -->
    <title>Imported Layers</title>
    <desc>Created with Sketch.</desc>
    <defs></defs>
    <g id="Page-1" stroke="none" stroke-width="1" fill="none" fill-rule="evenodd" sketch:type="MSPage">
        <g id="HD-Keys" sketch:type="MSArtboardGroup" transform="translate(-1329.000000, -299.000000)">
            <g id="Group-4-+-Imported-Layers" sketch:type="MSLayerGroup" transform="translate(1322.000000, 296.000000)">
                <g id="Imported-Layers" transform="translate(7.000000, 3.000000)" sketch:type="MSShapeGroup">
                    <path d="M11.817,13.188 L2.001,13.188 C1.242,13.188 0.621,12.567 0.621,11.809 L0.621,1.992 C0.621,1.234 1.242,0.613 2.001,0.613 L11.817,0.613 C12.576,0.613 13.197,1.234 13.197,1.992 L13.197,11.809 C13.197,12.567 12.576,13.188 11.817,13.188 L11.817,13.188 Z" id="Stroke-1" stroke="#1A1918"></path>
                    <path d="M5.398,4.064 C5.398,4.778 4.82,5.356 4.106,5.356 C3.392,5.356 2.814,4.778 2.814,4.064 C2.814,3.35 3.392,2.772 4.106,2.772 C4.82,2.772 5.398,3.35 5.398,4.064" id="Fill-2" fill="#1A1918"></path>
                    <path d="M10.951,4.064 C10.951,4.778 10.373,5.356 9.659,5.356 C8.945,5.356 8.367,4.778 8.367,4.064 C8.367,3.35 8.945,2.772 9.659,2.772 C10.373,2.772 10.951,3.35 10.951,4.064" id="Fill-3" fill="#1A1918"></path>
                    <path d="M5.398,10.029 C5.398,10.742 4.82,11.321 4.106,11.321 C3.392,11.321 2.814,10.742 2.814,10.029 C2.814,9.315 3.392,8.736 4.106,8.736 C4.82,8.736 5.398,9.315 5.398,10.029" id="Fill-4" fill="#1A1918"></path>
                    <path d="M10.951,10.029 C10.951,10.742 10.373,11.321 9.659,11.321 C8.945,11.321 8.367,10.742 8.367,10.029 C8.367,9.315 8.945,8.736 9.659,8.736 C10.373,8.736 10.951,9.315 10.951,10.029" id="Fill-5" fill="#1A1918"></path>
                    <path d="M8.201,6.901 C8.201,7.614 7.623,8.193 6.909,8.193 C6.195,8.193 5.617,7.614 5.617,6.901 C5.617,6.187 6.195,5.608 6.909,5.608 C7.623,5.608 8.201,6.187 8.201,6.901" id="Fill-6" fill="#1A1918"></path>
                </g>
            </g>
        </g>
    </g>
</svg>