<?xml version="1.0" encoding="UTF-8" standalone="no"?>
<svg width="30px" height="30px" viewBox="0 0 30 30" version="1.1" xmlns="http://www.w3.org/2000/svg" xmlns:xlink="http://www.w3.org/1999/xlink" xmlns:sketch="http://www.bohemiancoding.com/sketch/ns">
    <!-- Generator: Sketch 3.2.2 (9983) - http://www.bohemiancoding.com/sketch -->
    <title>Imported Layers</title>
    <desc>Created with Sketch.</desc>
    <defs></defs>
    <g id="Page-1" stroke="none" stroke-width="1" fill="none" fill-rule="evenodd" sketch:type="MSPage">
        <g id="Imported-Layers" sketch:type="MSLayerGroup" transform="translate(1.000000, 1.000000)" stroke="#979797" stroke-width="2">
            <path d="M27.5667797,16.1041125 L27.5667797,11.58315 L23.5292506,11.58315 C23.2781722,10.5117125 22.8539899,9.50615 22.2851646,8.5982375 L25.1402076,5.760575 L21.9237519,2.5640875 L19.0690987,5.40175 C18.1556253,4.8363875 17.1442937,4.4147875 16.0655139,4.165625 L16.0655139,0.1519 L11.5172506,0.1519 L11.5172506,4.165625 C10.4384709,4.4147875 9.42713924,4.8363875 8.51366582,5.40175 L5.65862278,2.5640875 L2.44255696,5.760575 L5.2976,8.5982375 C4.72877468,9.50615 4.30459241,10.5117125 4.05351392,11.58315 L0.0159848101,11.58315 L0.0159848101,16.1041125 L4.05351392,16.1041125 C4.30459241,17.176325 4.72877468,18.1818875 5.2976,19.089025 L2.44255696,21.927075 L5.65862278,25.1235625 L8.51366582,22.2862875 C9.42713924,22.850875 10.4384709,23.2728625 11.5172506,23.5224125 L11.5172506,27.5353625 L16.0655139,27.5353625 L16.0655139,23.5224125 C17.1442937,23.2728625 18.1556253,22.850875 19.0690987,22.2862875 L21.9237519,25.1235625 L25.1402076,21.927075 L22.2851646,19.089025 C22.8539899,18.1818875 23.2781722,17.176325 23.5292506,16.1041125 L27.5667797,16.1041125 L27.5667797,16.1041125 Z M13.7913823,17.8478625 C11.5663747,17.8478625 9.76282025,16.0552875 9.76282025,13.843825 C9.76282025,11.6323625 11.5663747,9.8394 13.7913823,9.8394 C16.0163899,9.8394 17.8199443,11.6323625 17.8199443,13.843825 C17.8199443,16.0552875 16.0163899,17.8478625 13.7913823,17.8478625 L13.7913823,17.8478625 Z" id="Fill-1" sketch:type="MSShapeGroup"></path>
        </g>
    </g>
</svg>