<?xml version="1.0" encoding="UTF-8" standalone="no"?>
<svg width="27px" height="54px" viewBox="0 0 27 54" version="1.1" xmlns="http://www.w3.org/2000/svg" xmlns:xlink="http://www.w3.org/1999/xlink" xmlns:sketch="http://www.bohemiancoding.com/sketch/ns">
    <!-- Generator: Sketch 3.2.2 (9983) - http://www.bohemiancoding.com/sketch -->
    <title>Artboard 8</title>
    <desc>Created with Sketch.</desc>
    <defs></defs>
    <g id="Page-1" stroke="none" stroke-width="1" fill="none" fill-rule="evenodd" sketch:type="MSPage">
        <g id="Artboard-8" sketch:type="MSArtboardGroup">
            <path d="M18.237,9.119 C18.237,6.292 15.946,4.001 13.119,4 C10.292,4 8,6.292 8,9.119 C8,11.396 9.487,13.323 11.543,13.988 L11.556,22.849 L13.683,24.277 L15.281,22.537 L14.587,20.747 L15.281,19.545 L14.587,18.014 L15.281,16.377 L14.587,14.957 L14.712,13.981 C16.758,13.311 18.237,11.389 18.237,9.119 L18.237,9.119 Z M13.119,9.256 C12.355,9.256 11.736,8.636 11.736,7.873 C11.736,7.109 12.355,6.49 13.119,6.49 C13.882,6.49 14.501,7.109 14.501,7.873 C14.501,8.637 13.882,9.256 13.119,9.256 L13.119,9.256 Z" id="Fill-2" fill="#1A1918" sketch:type="MSShapeGroup"></path>
            <path d="M18.237,36.119 C18.237,33.292 15.946,31.001 13.119,31 C10.292,31 8,33.292 8,36.119 C8,38.396 9.487,40.323 11.543,40.988 L11.556,49.849 L13.683,51.277 L15.281,49.537 L14.587,47.747 L15.281,46.545 L14.587,45.014 L15.281,43.377 L14.587,41.957 L14.712,40.981 C16.758,40.311 18.237,38.389 18.237,36.119 L18.237,36.119 Z M13.119,36.256 C12.355,36.256 11.736,35.636 11.736,34.873 C11.736,34.109 12.355,33.49 13.119,33.49 C13.882,33.49 14.501,34.109 14.501,34.873 C14.501,35.637 13.882,36.256 13.119,36.256 L13.119,36.256 Z" id="Fill-2" fill="#BD1900" sketch:type="MSShapeGroup"></path>
        </g>
    </g>
</svg>