<?xml version="1.0" encoding="UTF-8" standalone="no"?>
<svg width="27px" height="54px" viewBox="0 0 27 54" version="1.1" xmlns="http://www.w3.org/2000/svg" xmlns:xlink="http://www.w3.org/1999/xlink" xmlns:sketch="http://www.bohemiancoding.com/sketch/ns">
    <!-- Generator: Sketch 3.2.2 (9983) - http://www.bohemiancoding.com/sketch -->
    <title>Artboard 8</title>
    <desc>Created with Sketch.</desc>
    <defs></defs>
    <g id="Page-1" stroke="none" stroke-width="1" fill="none" fill-rule="evenodd" sketch:type="MSPage">
        <g id="Artboard-8" sketch:type="MSArtboardGroup">
            <g id="Fill-13-+-Fill-14-+-Fill-15" sketch:type="MSLayerGroup" transform="translate(5.000000, 1.000000)" fill="#1A1918">
                <path d="M15.539,21.31 L16.41,19.425 L14.179,18.939 L14.833,16.676 L12.706,16.296 C12.198,16.771 11.615,17.166 10.976,17.462 L14.823,24.144 L17.378,24.324 L17.899,22.02 L15.539,21.31" id="Fill-13" sketch:type="MSShapeGroup"></path>
                <path d="M8.959,11.766 C8.915,11.771 8.872,11.774 8.828,11.775 C8.825,11.775 8.822,11.776 8.82,11.776 L8.82,11.775 C8.58,11.781 8.336,11.73 8.111,11.604 C7.445,11.23 7.208,10.387 7.581,9.721 C7.955,9.055 8.798,8.818 9.464,9.191 C9.959,9.469 10.216,10.007 10.162,10.539 C11.127,10.257 11.976,9.719 12.63,8.992 C12.185,8.195 11.536,7.499 10.681,7.02 C8.215,5.637 5.096,6.516 3.713,8.981 C2.6,10.968 2.955,13.376 4.423,14.962 L0.101,22.697 L1.258,24.983 L3.502,24.247 L2.901,21.857 L4.966,21.637 L4.237,19.473 L6.515,18.873 L5.732,16.806 L7.191,16.505 C9.303,16.921 11.533,15.968 12.643,13.988 C13.353,12.721 13.458,11.285 13.066,9.998 C11.991,11.035 10.551,11.695 8.959,11.766" id="Fill-14" sketch:type="MSShapeGroup"></path>
                <path d="M4.366,6.057 C4.332,5.841 4.308,5.621 4.308,5.395 C4.308,2.985 6.269,1.024 8.679,1.024 C11.089,1.024 13.049,2.985 13.049,5.395 C13.049,7.806 11.089,9.765 8.679,9.765 C8.492,9.765 8.313,9.733 8.132,9.71 C8.002,9.921 7.91,10.158 7.91,10.425 C7.91,10.519 7.94,10.604 7.958,10.692 C8.196,10.725 8.432,10.765 8.679,10.765 C11.64,10.765 14.049,8.356 14.049,5.395 C14.049,2.433 11.64,0.024 8.679,0.024 C5.717,0.024 3.308,2.433 3.308,5.395 C3.308,5.876 3.39,6.334 3.509,6.777 C3.773,6.513 4.061,6.274 4.366,6.057" id="Fill-15" sketch:type="MSShapeGroup"></path>
            </g>
            <g id="Fill-13-+-Fill-14-+-Fill-15" sketch:type="MSLayerGroup" transform="translate(5.000000, 28.000000)" fill="#BD1900">
                <path d="M15.539,21.31 L16.41,19.425 L14.179,18.939 L14.833,16.676 L12.706,16.296 C12.198,16.771 11.615,17.166 10.976,17.462 L14.823,24.144 L17.378,24.324 L17.899,22.02 L15.539,21.31" id="Fill-13" sketch:type="MSShapeGroup"></path>
                <path d="M8.959,11.766 C8.915,11.771 8.872,11.774 8.828,11.775 C8.825,11.775 8.822,11.776 8.82,11.776 L8.82,11.775 C8.58,11.781 8.336,11.73 8.111,11.604 C7.445,11.23 7.208,10.387 7.581,9.721 C7.955,9.055 8.798,8.818 9.464,9.191 C9.959,9.469 10.216,10.007 10.162,10.539 C11.127,10.257 11.976,9.719 12.63,8.992 C12.185,8.195 11.536,7.499 10.681,7.02 C8.215,5.637 5.096,6.516 3.713,8.981 C2.6,10.968 2.955,13.376 4.423,14.962 L0.101,22.697 L1.258,24.983 L3.502,24.247 L2.901,21.857 L4.966,21.637 L4.237,19.473 L6.515,18.873 L5.732,16.806 L7.191,16.505 C9.303,16.921 11.533,15.968 12.643,13.988 C13.353,12.721 13.458,11.285 13.066,9.998 C11.991,11.035 10.551,11.695 8.959,11.766" id="Fill-14" sketch:type="MSShapeGroup"></path>
                <path d="M4.366,6.057 C4.332,5.841 4.308,5.621 4.308,5.395 C4.308,2.985 6.269,1.024 8.679,1.024 C11.089,1.024 13.049,2.985 13.049,5.395 C13.049,7.806 11.089,9.765 8.679,9.765 C8.492,9.765 8.313,9.733 8.132,9.71 C8.002,9.921 7.91,10.158 7.91,10.425 C7.91,10.519 7.94,10.604 7.958,10.692 C8.196,10.725 8.432,10.765 8.679,10.765 C11.64,10.765 14.049,8.356 14.049,5.395 C14.049,2.433 11.64,0.024 8.679,0.024 C5.717,0.024 3.308,2.433 3.308,5.395 C3.308,5.876 3.39,6.334 3.509,6.777 C3.773,6.513 4.061,6.274 4.366,6.057" id="Fill-15" sketch:type="MSShapeGroup"></path>
            </g>
        </g>
    </g>
</svg>