<?xml version="1.0" encoding="utf-8"?>
<!-- Generator: Adobe Illustrator 18.1.1, SVG Export Plug-In . SVG Version: 6.00 Build 0)  -->
<svg version="1.1" id="Layer_1" xmlns:sketch="http://www.bohemiancoding.com/sketch/ns"
	 xmlns="http://www.w3.org/2000/svg" xmlns:xlink="http://www.w3.org/1999/xlink" x="0px" y="0px" viewBox="-240 242 30 30"
	 enable-background="new -240 242 30 30" xml:space="preserve">
<title>Imported Layers</title>
<desc>Created with Sketch.</desc>
<path fill="#979797" d="M-215,266.3v-2.1c0-1.1-0.6-1.9-1.4-1.9c-0.8,0-1.4,0.9-1.4,1.9v2.1H-215z"/>
<polyline fill="none" stroke="#979797" stroke-width="2" stroke-miterlimit="10" points="-217.4,252.2 -213.2,253.7 -225,257.6 
	-236.8,253.6 -225,249.6 -219,251.7 "/>
<line fill="none" stroke="#979797" stroke-width="2" stroke-linecap="round" stroke-miterlimit="10" x1="-225" y1="253.6" x2="-219" y2="251.7"/>
<line fill="none" stroke="#979797" stroke-width="2" stroke-linecap="round" stroke-miterlimit="10" x1="-216.4" y1="256.6" x2="-216.4" y2="263.3"/>
<path fill="none" stroke="#979797" stroke-width="2" stroke-miterlimit="10" d="M-230.7,255.6v4.9l0,0c0,1.2,2.6,2.1,5.8,2.1
	c3.2,0,5.8-1,5.8-2.1c0,0,0,0,0,0v-4.9"/>
</svg>
