<?xml version="1.0" encoding="UTF-8" standalone="no"?>
<svg width="17px" height="31px" viewBox="0 0 17 31" version="1.1" xmlns="http://www.w3.org/2000/svg" xmlns:xlink="http://www.w3.org/1999/xlink" xmlns:sketch="http://www.bohemiancoding.com/sketch/ns">
    <!-- Generator: Sketch 3.2.2 (9983) - http://www.bohemiancoding.com/sketch -->
    <title>Group</title>
    <desc>Created with Sketch.</desc>
    <defs></defs>
    <g id="Page-1" stroke="none" stroke-width="1" fill="none" fill-rule="evenodd" sketch:type="MSPage">
        <g id="HD-Multisig-4" sketch:type="MSArtboardGroup" transform="translate(-672.000000, -244.000000)">
            <g id="Group" sketch:type="MSLayerGroup" transform="translate(672.964466, 243.940000)">
                <path d="M9.249,30.438 L11.04,26.203 L9.269,24.677 L10.509,22.928 L9.282,20.93 L10.522,18.875 L10.534,15.631 L9.304,14.408 L10.544,12.467 L10.547,11.575 L5.361,11.558 L5.291,28.652 L9.249,30.438 L9.249,30.438 Z" id="Fill-1" fill="#F6F6F6" sketch:type="MSShapeGroup"></path>
                <path d="M9.249,30.438 L11.04,26.203 L9.269,24.677 L10.509,22.928 L9.282,20.93 L10.522,18.875 L10.534,15.631 L9.304,14.408 L10.544,12.467 L10.547,11.575 L5.361,11.558 L5.291,28.652 L9.249,30.438 L9.249,30.438 Z" id="Stroke-2" stroke="#858D93" sketch:type="MSShapeGroup"></path>
                <path d="M8.04,14.532 L6.371,12.751 L9.235,12.734 L8.04,14.532" id="Fill-3" fill="#E1E3E3" sketch:type="MSShapeGroup"></path>
                <path d="M0.173,2.377 L0.147,10.119 C0.144,11.01 0.871,11.742 1.762,11.745 L13.57,11.786 C14.461,11.789 15.193,11.062 15.196,10.171 L15.222,2.429 C15.225,1.538 14.499,0.806 13.607,0.803 L1.8,0.762 C0.908,0.759 0.177,1.486 0.173,2.377 L0.173,2.377 Z" id="Fill-4" fill="#E1E3E3" sketch:type="MSShapeGroup"></path>
                <path d="M0.173,2.377 L0.147,10.119 C0.144,11.01 0.871,11.742 1.762,11.745 L13.57,11.786 C14.461,11.789 15.193,11.062 15.196,10.171 L15.222,2.429 C15.225,1.538 14.499,0.806 13.607,0.803 L1.8,0.762 C0.908,0.759 0.177,1.486 0.173,2.377 L0.173,2.377 Z" id="Stroke-5" stroke="#858D93" sketch:type="MSShapeGroup"></path>
                <path d="M12.485,4.859 C12.484,5.404 12.037,5.848 11.492,5.846 L3.87,5.82 C3.326,5.818 2.882,5.371 2.884,4.826 C2.886,4.282 3.333,3.838 3.877,3.84 L11.499,3.866 C12.043,3.868 12.487,4.315 12.485,4.859 Z" id="Fill-6" fill="#858D93" sketch:type="MSShapeGroup"></path>
            </g>
        </g>
    </g>
</svg>