<?xml version="1.0" encoding="UTF-8" standalone="no"?>
<svg width="27px" height="54px" viewBox="0 0 27 54" version="1.1" xmlns="http://www.w3.org/2000/svg" xmlns:xlink="http://www.w3.org/1999/xlink" xmlns:sketch="http://www.bohemiancoding.com/sketch/ns">
    <!-- Generator: Sketch 3.2.2 (9983) - http://www.bohemiancoding.com/sketch -->
    <title>Artboard 8</title>
    <desc>Created with Sketch.</desc>
    <defs></defs>
    <g id="Page-1" stroke="none" stroke-width="1" fill="none" fill-rule="evenodd" sketch:type="MSPage">
        <g id="Artboard-8" sketch:type="MSArtboardGroup">
            <g id="Group" sketch:type="MSLayerGroup" transform="translate(4.000000, 4.000000)" fill="#141413">
                <path d="M16,10 L18.96,10 L18.96,12 L16,12 L16,10 Z" id="Fill-3" sketch:type="MSShapeGroup"></path>
                <path d="M3.609,13.606 L5.398,13.606 L5.398,15.394 L3.609,15.394 L3.609,13.606 Z" id="Fill-4" sketch:type="MSShapeGroup"></path>
                <path d="M16.292,15.394 L18.081,15.394 L18.081,17.183 L16.292,17.183 L16.292,15.394 Z" id="Fill-5" sketch:type="MSShapeGroup"></path>
                <path d="M0,19 L9,19 L9,10 L0,10 L0,19 Z M2,12 L7,12 L7,17 L2,17 L2,12 Z" id="Fill-6" sketch:type="MSShapeGroup"></path>
                <path d="M3.609,3.606 L5.398,3.606 L5.398,5.394 L3.609,5.394 L3.609,3.606 Z" id="Fill-7" sketch:type="MSShapeGroup"></path>
                <path d="M0,9 L9,9 L9,0 L0,0 L0,9 Z M2,2 L7,2 L7,7 L2,7 L2,2 Z" id="Fill-8" sketch:type="MSShapeGroup"></path>
                <path d="M13.61,3.606 L15.399,3.606 L15.399,5.394 L13.61,5.394 L13.61,3.606 Z" id="Fill-9" sketch:type="MSShapeGroup"></path>
                <path d="M10,9 L19,9 L19,0 L10,0 L10,9 Z M12,2 L17,2 L17,7 L12,7 L12,2 Z" id="Fill-10" sketch:type="MSShapeGroup"></path>
                <path d="M10,10 L13,10 L13,19 L10,19 L10,10 Z" id="Fill-11" sketch:type="MSShapeGroup"></path>
                <path d="M18,13 L18,17 L14,17 L14,19 L19,19 L19,13 L18,13" id="Fill-12" sketch:type="MSShapeGroup"></path>
            </g>
            <g id="Group" sketch:type="MSLayerGroup" transform="translate(4.000000, 31.000000)" fill="#BD1900">
                <path d="M16,10 L18.96,10 L18.96,12 L16,12 L16,10 Z" id="Fill-3" sketch:type="MSShapeGroup"></path>
                <path d="M3.609,13.606 L5.398,13.606 L5.398,15.394 L3.609,15.394 L3.609,13.606 Z" id="Fill-4" sketch:type="MSShapeGroup"></path>
                <path d="M16.292,15.394 L18.081,15.394 L18.081,17.183 L16.292,17.183 L16.292,15.394 Z" id="Fill-5" sketch:type="MSShapeGroup"></path>
                <path d="M0,19 L9,19 L9,10 L0,10 L0,19 Z M2,12 L7,12 L7,17 L2,17 L2,12 Z" id="Fill-6" sketch:type="MSShapeGroup"></path>
                <path d="M3.609,3.606 L5.398,3.606 L5.398,5.394 L3.609,5.394 L3.609,3.606 Z" id="Fill-7" sketch:type="MSShapeGroup"></path>
                <path d="M0,9 L9,9 L9,0 L0,0 L0,9 Z M2,2 L7,2 L7,7 L2,7 L2,2 Z" id="Fill-8" sketch:type="MSShapeGroup"></path>
                <path d="M13.61,3.606 L15.399,3.606 L15.399,5.394 L13.61,5.394 L13.61,3.606 Z" id="Fill-9" sketch:type="MSShapeGroup"></path>
                <path d="M10,9 L19,9 L19,0 L10,0 L10,9 Z M12,2 L17,2 L17,7 L12,7 L12,2 Z" id="Fill-10" sketch:type="MSShapeGroup"></path>
                <path d="M10,10 L13,10 L13,19 L10,19 L10,10 Z" id="Fill-11" sketch:type="MSShapeGroup"></path>
                <path d="M18,13 L18,17 L14,17 L14,19 L19,19 L19,13 L18,13" id="Fill-12" sketch:type="MSShapeGroup"></path>
            </g>
        </g>
    </g>
</svg>