<?xml version="1.0" encoding="UTF-8" standalone="no"?>
<svg width="31px" height="27px" viewBox="0 0 31 27" version="1.1" xmlns="http://www.w3.org/2000/svg" xmlns:xlink="http://www.w3.org/1999/xlink" xmlns:sketch="http://www.bohemiancoding.com/sketch/ns">
    <!-- Generator: Sketch 3.2.2 (9983) - http://www.bohemiancoding.com/sketch -->
    <title>Imported Layers</title>
    <desc>Created with Sketch.</desc>
    <defs></defs>
    <g id="Page-1" stroke="none" stroke-width="1" fill="none" fill-rule="evenodd" sketch:type="MSPage">
        <g id="HD-Tx-3" sketch:type="MSArtboardGroup" transform="translate(-271.000000, -731.000000)">
            <g id="Group" sketch:type="MSLayerGroup" transform="translate(249.000000, 714.000000)">
                <g id="Imported-Layers" transform="translate(22.000000, 17.000000)" sketch:type="MSShapeGroup">
                    <path d="M28.957,26.359 L2.027,26.359 C1.225,26.359 0.575,25.709 0.575,24.907 L0.575,1.811 C0.575,1.009 1.225,0.359 2.027,0.359 L28.957,0.359 C29.758,0.359 30.408,1.009 30.408,1.811 L30.408,24.907 C30.408,25.709 29.758,26.359 28.957,26.359" id="Fill-1" fill="#FFFFFF"></path>
                    <path d="M2.367,6.109 L28.617,6.109 L28.617,24.692 L2.367,24.692 L2.367,6.109 Z" id="Fill-2" fill="#1A1918"></path>
                    <path d="M5.108,3.254 C5.108,3.76 4.698,4.171 4.191,4.171 C3.685,4.171 3.275,3.76 3.275,3.254 C3.275,2.748 3.685,2.337 4.191,2.337 C4.698,2.337 5.108,2.748 5.108,3.254" id="Fill-3" fill="#1A1918"></path>
                    <path d="M8.108,3.254 C8.108,3.76 7.698,4.171 7.191,4.171 C6.685,4.171 6.275,3.76 6.275,3.254 C6.275,2.748 6.685,2.337 7.191,2.337 C7.698,2.337 8.108,2.748 8.108,3.254" id="Fill-4" fill="#1A1918"></path>
                    <path d="M11.108,3.254 C11.108,3.76 10.698,4.171 10.191,4.171 C9.685,4.171 9.275,3.76 9.275,3.254 C9.275,2.748 9.685,2.337 10.191,2.337 C10.698,2.337 11.108,2.748 11.108,3.254" id="Fill-5" fill="#1A1918"></path>
                    <path d="M3.391,8.147 L5.814,8.147 L5.814,10.571 L3.391,10.571 L3.391,8.147 Z" id="Fill-6" fill="#FFFFFF"></path>
                    <path d="M7.906,8.147 L17.549,8.147 L17.549,10.571 L7.906,10.571 L7.906,8.147 Z" id="Fill-7" fill="#FFFFFF"></path>
                    <path d="M3.391,12.147 L5.814,12.147 L5.814,14.571 L3.391,14.571 L3.391,12.147 Z" id="Fill-8" fill="#FFFFFF"></path>
                    <path d="M7.906,12.147 L23.077,12.147 L23.077,14.571 L7.906,14.571 L7.906,12.147 Z" id="Fill-9" fill="#FFFFFF"></path>
                    <path d="M3.391,16.147 L5.814,16.147 L5.814,18.571 L3.391,18.571 L3.391,16.147 Z" id="Fill-10" fill="#FFFFFF"></path>
                    <path d="M7.906,16.147 L11.964,16.147 L11.964,18.571 L7.906,18.571 L7.906,16.147 Z" id="Fill-11" fill="#FFFFFF"></path>
                    <path d="M3.391,20.147 L5.814,20.147 L5.814,22.571 L3.391,22.571 L3.391,20.147 Z" id="Fill-12" fill="#FFFFFF"></path>
                    <path d="M7.906,20.147 L12.4,20.147 L12.4,22.571 L7.906,22.571 L7.906,20.147 Z" id="Fill-13" fill="#FFFFFF"></path>
                    <path d="M14.357,20.147 L18.851,20.147 L18.851,22.571 L14.357,22.571 L14.357,20.147 Z" id="Fill-14" fill="#FFFFFF"></path>
                    <path d="M19.906,8.147 L26.247,8.147 L26.247,10.571 L19.906,10.571 L19.906,8.147 Z" id="Fill-15" fill="#FFFFFF"></path>
                </g>
            </g>
        </g>
    </g>
</svg>