<?xml version="1.0" encoding="UTF-8" standalone="no"?>
<svg width="24px" height="27px" viewBox="0 0 24 27" version="1.1" xmlns="http://www.w3.org/2000/svg" xmlns:xlink="http://www.w3.org/1999/xlink" xmlns:sketch="http://www.bohemiancoding.com/sketch/ns">
    <!-- Generator: Sketch 3.2.1 (9971) - http://www.bohemiancoding.com/sketch -->
    <title>Imported Layers + Line 2</title>
    <desc>Created with Sketch.</desc>
    <defs></defs>
    <g id="Page-1" stroke="none" stroke-width="1" fill="none" fill-rule="evenodd" sketch:type="MSPage">
        <g id="Imported-Layers-+-Line-2" sketch:type="MSLayerGroup">
            <g sketch:type="MSShapeGroup">
                <path d="M23.3416667,20.81025 L23.3444444,19.3266 L23.4013889,19.3266 L23.4013889,0 L5.77777778,0 C2.59166667,0 0,2.5191 0,5.616 L0,21.384 C0,23.45355 1.31944444,25.2234 3.18194444,25.9551 C3.71111111,26.18595 4.29305556,26.32095 4.90972222,26.32095 L5.07777778,26.32095 L5.07916667,26.32095 L22.0125,26.32095 L22.0125,26.29935 L23.3458333,26.298 L23.3416667,23.598 L22.2388889,23.59935 L22.2388889,20.80755 L23.3416667,20.81025 L23.3416667,20.81025 Z M5.77777778,2.7 L20.6236111,2.7 L20.6236111,18.10485 L4.90694444,18.0738 C4.12777778,18.0738 3.40555556,18.29385 2.77777778,18.6516 L2.77777778,5.616 C2.77777778,4.00815 4.12361111,2.7 5.77777778,2.7 L5.77777778,2.7 Z M19.4597222,23.6034 L5.07777778,23.62095 C4.95972222,23.62095 4.84861111,23.6034 4.73611111,23.5872 C4.65694444,23.57775 4.57916667,23.5629 4.50416667,23.5413 C4.43055556,23.5224 4.35833333,23.5008 4.2875,23.4765 C3.79166667,23.24835 3.44305556,22.76505 3.44305556,22.1967 C3.44305556,21.411 4.1,20.77245 4.90555556,20.77245 L19.4597222,20.80215 L19.4597222,23.6034 L19.4597222,23.6034 Z" id="Imported-Layers" fill="#6B6B6A"></path>
                <path d="M5.92105263,22.5 L19.0789474,22.5" id="Line" stroke="#6B6B6A" stroke-linecap="square"></path>
            </g>
        </g>
    </g>
</svg>