<?xml version="1.0" encoding="UTF-8" standalone="no"?>
<svg width="18px" height="53px" viewBox="0 0 18 53" version="1.1" xmlns="http://www.w3.org/2000/svg" xmlns:xlink="http://www.w3.org/1999/xlink" xmlns:sketch="http://www.bohemiancoding.com/sketch/ns">
    <!-- Generator: Sketch 3.2.1 (9971) - http://www.bohemiancoding.com/sketch -->
    <title>Imported Layers + Line + Imported Layers + Line</title>
    <desc>Created with Sketch.</desc>
    <defs></defs>
    <g id="Page-1" stroke="none" stroke-width="1" fill="none" fill-rule="evenodd" sketch:type="MSPage">
        <g id="Imported-Layers-+-Line-+-Imported-Layers-+-Line" sketch:type="MSLayerGroup">
            <g id="Imported-Layers-+-Line" sketch:type="MSShapeGroup">
                <path d="M17.7396667,16.18575 L17.7417778,15.0318 L17.7850556,15.0318 L17.7850556,0 L4.39111111,0 C1.96966667,0 0,1.9593 0,4.368 L0,16.632 C0,18.24165 1.00277778,19.6182 2.41827778,20.1873 C2.82044444,20.36685 3.26272222,20.47185 3.73138889,20.47185 L3.85911111,20.47185 L3.86016667,20.47185 L16.7295,20.47185 L16.7295,20.45505 L17.7428333,20.454 L17.7396667,18.354 L16.9015556,18.35505 L16.9015556,16.18365 L17.7396667,16.18575 L17.7396667,16.18575 Z M4.39111111,2.1 L15.6739444,2.1 L15.6739444,14.08155 L3.72927778,14.0574 C3.13711111,14.0574 2.58822222,14.22855 2.11111111,14.5068 L2.11111111,4.368 C2.11111111,3.11745 3.13394444,2.1 4.39111111,2.1 L4.39111111,2.1 Z M14.7893889,18.3582 L3.85911111,18.37185 C3.76938889,18.37185 3.68494444,18.3582 3.59944444,18.3456 C3.53927778,18.33825 3.48016667,18.3267 3.42316667,18.3099 C3.36722222,18.2952 3.31233333,18.2784 3.2585,18.2595 C2.88166667,18.08205 2.61672222,17.70615 2.61672222,17.2641 C2.61672222,16.653 3.116,16.15635 3.72822222,16.15635 L14.7893889,16.17945 L14.7893889,18.3582 L14.7893889,18.3582 Z" id="Imported-Layers" fill="#6B6B6A"></path>
                <path d="M4.5,17.5 L14.5,17.5" id="Line" stroke="#6B6B6A" stroke-linecap="square"></path>
            </g>
            <g id="Imported-Layers-+-Line" transform="translate(0.000000, 32.000000)" sketch:type="MSShapeGroup">
                <path d="M17.7396667,16.18575 L17.7417778,15.0318 L17.7850556,15.0318 L17.7850556,0 L4.39111111,0 C1.96966667,0 0,1.9593 0,4.368 L0,16.632 C0,18.24165 1.00277778,19.6182 2.41827778,20.1873 C2.82044444,20.36685 3.26272222,20.47185 3.73138889,20.47185 L3.85911111,20.47185 L3.86016667,20.47185 L16.7295,20.47185 L16.7295,20.45505 L17.7428333,20.454 L17.7396667,18.354 L16.9015556,18.35505 L16.9015556,16.18365 L17.7396667,16.18575 L17.7396667,16.18575 Z M4.39111111,2.1 L15.6739444,2.1 L15.6739444,14.08155 L3.72927778,14.0574 C3.13711111,14.0574 2.58822222,14.22855 2.11111111,14.5068 L2.11111111,4.368 C2.11111111,3.11745 3.13394444,2.1 4.39111111,2.1 L4.39111111,2.1 Z M14.7893889,18.3582 L3.85911111,18.37185 C3.76938889,18.37185 3.68494444,18.3582 3.59944444,18.3456 C3.53927778,18.33825 3.48016667,18.3267 3.42316667,18.3099 C3.36722222,18.2952 3.31233333,18.2784 3.2585,18.2595 C2.88166667,18.08205 2.61672222,17.70615 2.61672222,17.2641 C2.61672222,16.653 3.116,16.15635 3.72822222,16.15635 L14.7893889,16.17945 L14.7893889,18.3582 L14.7893889,18.3582 Z" id="Imported-Layers" fill="#A39F9A"></path>
                <path d="M4.5,17.5 L14.5,17.5" id="Line" stroke="#A39F9A" stroke-linecap="square"></path>
            </g>
        </g>
    </g>
</svg>