<?xml version="1.0" encoding="UTF-8" standalone="no"?>
<svg width="243px" height="45px" viewBox="0 0 243 45" version="1.1" xmlns="http://www.w3.org/2000/svg" xmlns:xlink="http://www.w3.org/1999/xlink" xmlns:sketch="http://www.bohemiancoding.com/sketch/ns">
    <!-- Generator: Sketch 3.2.2 (9983) - http://www.bohemiancoding.com/sketch -->
    <title>Group</title>
    <desc>Created with Sketch.</desc>
    <defs></defs>
    <g id="Page-1" stroke="none" stroke-width="1" fill="none" fill-rule="evenodd" sketch:type="MSPage">
        <g id="Group" sketch:type="MSLayerGroup">
            <path d="M222.759,42.184 L29.978,42.184 L44.647,3.363 L222.759,3.363 C233.479,3.363 242.169,12.053 242.169,22.773 C242.169,33.493 233.479,42.184 222.759,42.184" id="Fill-4" fill="#1A1918" sketch:type="MSShapeGroup"></path>
            <path d="M44.647,42.184 L20.247,42.184 C9.527,42.184 0.836,33.493 0.836,22.773 C0.836,12.053 9.527,3.363 20.247,3.363 L51.981,3.363 L44.647,42.184" id="Fill-5" fill="#D51E13" sketch:type="MSShapeGroup"></path>
            <path d="M12.642,41.093 C5.653,36.955 3.254,26.088 7.372,15.74 C10.971,6.697 18.371,0.622 25.785,0.622 C26.748,0.622 27.693,0.727 28.61,0.937 L38.021,4.524 C44.437,9.012 46.314,19.698 42.35,29.661 C38.752,38.7 31.352,44.774 23.939,44.774 L23.938,44.774 C23.299,44.774 22.666,44.728 22.045,44.635 L12.642,41.093" id="Fill-6" fill="#FFFFFF" sketch:type="MSShapeGroup"></path>
            <path d="M37.651,18.793 L42.021,20.474 C42.076,19.343 42.047,18.242 41.938,17.176 L37.479,15.339 C37.63,16.483 37.681,17.639 37.651,18.793" id="Fill-7" fill="#1A1918" sketch:type="MSShapeGroup"></path>
            <path d="M35.875,27.452 C35.853,27.511 35.835,27.573 35.812,27.632 C35.448,28.528 35.012,29.437 34.548,30.31 L38.697,31.932 C39.196,31.031 39.653,30.085 40.061,29.096 L35.875,27.452" id="Fill-8" fill="#1A1918" sketch:type="MSShapeGroup"></path>
            <path d="M37.034,23.663 C36.981,23.888 36.929,24.114 36.872,24.338 C36.667,25.135 36.416,25.918 36.144,26.694 L40.353,28.347 C40.728,27.354 41.045,26.358 41.294,25.367 L37.034,23.663" id="Fill-9" fill="#1A1918" sketch:type="MSShapeGroup"></path>
            <path d="M34.161,31.02 C33.64,31.934 33.082,32.828 32.446,33.667 C32.434,33.681 32.422,33.695 32.41,33.71 L36.445,35.344 C37.106,34.505 37.72,33.595 38.291,32.635 L34.161,31.02" id="Fill-12" fill="#1A1918" sketch:type="MSShapeGroup"></path>
            <path d="M15.606,39.913 L15.601,39.927 L18.424,41.05 C19.316,40.984 20.197,40.831 21.048,40.573 C22.097,40.27 23.107,39.846 24.062,39.325 C25.018,38.804 25.931,38.207 26.782,37.528 C28.478,36.165 29.985,34.567 31.238,32.784 C31.87,31.898 32.449,30.972 32.966,30.012 C33.487,29.044 33.932,28.084 34.345,27.048 C35.156,25.024 35.732,22.905 36.031,20.747 C36.344,18.59 36.351,16.393 36.054,14.237 C35.902,13.159 35.648,12.098 35.313,11.063 C34.977,10.027 34.533,9.026 33.98,8.084 C33.438,7.135 32.759,6.265 31.979,5.486 C31.267,4.782 30.458,4.177 29.576,3.665 C29.573,3.664 29.571,3.662 29.568,3.661 C22.47,0.836 13.499,6.629 9.531,16.599 C5.563,26.569 8.101,36.942 15.198,39.767 C15.333,39.82 15.47,39.865 15.606,39.913" id="Fill-13" fill="#1A1918" sketch:type="MSShapeGroup"></path>
            <path d="M37.615,19.643 C37.589,20.075 37.556,20.506 37.51,20.935 C37.441,21.584 37.334,22.228 37.206,22.867 L41.473,24.574 C41.713,23.476 41.884,22.388 41.974,21.319 L37.615,19.643" id="Fill-15" fill="#1A1918" sketch:type="MSShapeGroup"></path>
            <path d="M37.334,14.417 L41.837,16.271 C41.633,14.889 41.281,13.588 40.807,12.385 L36.228,10.59 C36.245,10.629 36.263,10.667 36.279,10.705 C36.722,11.775 37.035,12.895 37.264,14.029 C37.29,14.158 37.31,14.287 37.334,14.417" id="Fill-16" fill="#1A1918" sketch:type="MSShapeGroup"></path>
            <path d="M30.554,4.054 C31.155,4.368 31.733,4.735 32.267,5.16 C33.167,5.87 33.957,6.725 34.627,7.664 C35.044,8.256 35.409,8.883 35.735,9.53 L40.345,11.337 C39.145,8.868 37.35,6.925 35.007,5.846 L35.014,5.829 L30.554,4.054" id="Fill-17" fill="#1A1918" sketch:type="MSShapeGroup"></path>
            <path d="M23.206,25.638 L21.168,24.827 L22.188,22.264 L24.226,23.075 C24.789,23.299 25.016,24.056 24.735,24.762 C24.453,25.471 23.768,25.862 23.206,25.638 L23.206,25.638 Z M23.718,18.42 L25.245,19.027 C25.808,19.251 26.035,20.008 25.754,20.714 C25.472,21.424 24.788,21.814 24.225,21.59 L22.698,20.982 L23.718,18.42 L23.718,18.42 Z M26.638,22.986 C27.12,22.663 27.541,22.164 27.794,21.526 C28.592,19.522 28.114,17.942 26.523,17.309 L27.479,14.907 C27.515,14.818 27.487,14.724 27.414,14.695 L26.651,14.391 C26.583,14.364 26.499,14.41 26.463,14.495 L25.504,16.904 L24.485,16.498 L25.442,14.096 C25.477,14.007 25.449,13.913 25.377,13.884 L24.613,13.58 C24.545,13.553 24.461,13.599 24.425,13.684 L23.466,16.093 L21.3,15.23 C21.23,15.203 21.144,15.252 21.109,15.34 L20.727,16.301 C20.695,16.387 20.722,16.485 20.792,16.513 L20.921,16.564 C21.483,16.788 21.711,17.545 21.43,18.251 L19.388,23.38 C19.122,24.05 18.494,24.437 17.951,24.289 C17.894,24.274 17.83,24.305 17.79,24.365 L17.207,25.25 C17.179,25.295 17.168,25.348 17.175,25.396 C17.182,25.444 17.212,25.483 17.252,25.499 L19.383,26.347 L18.424,28.756 C18.392,28.842 18.421,28.933 18.489,28.96 L19.253,29.264 C19.323,29.292 19.41,29.243 19.445,29.155 L20.402,26.752 L21.421,27.158 L20.462,29.567 C20.43,29.653 20.459,29.744 20.527,29.771 L21.291,30.075 C21.361,30.103 21.448,30.054 21.483,29.966 L22.44,27.563 L22.948,27.766 C24.541,28.4 25.975,27.577 26.771,25.576 C27.146,24.635 27.061,23.666 26.638,22.986 L26.638,22.986 Z" id="Fill-18" fill="#FFFFFF" sketch:type="MSShapeGroup"></path>
            <path d="M24.027,29.029 C24.406,29.127 24.782,29.261 25.156,29.312 C25.525,29.366 25.904,29.344 26.252,29.251 C26.602,29.163 26.924,28.994 27.203,28.77 C27.485,28.55 27.727,28.279 27.937,27.982 C28.144,27.683 28.318,27.358 28.472,27.022 C28.538,26.85 28.619,26.678 28.672,26.506 C28.729,26.329 28.77,26.178 28.803,25.997 C28.934,25.308 28.829,24.581 28.491,24.01 L28.302,23.691 L28.602,23.492 C29.084,23.175 29.47,22.708 29.735,22.18 C29.801,22.051 29.85,21.917 29.914,21.756 C29.979,21.6 30.016,21.462 30.064,21.317 C30.158,21.027 30.229,20.724 30.265,20.421 C30.305,20.118 30.3,19.815 30.274,19.512 C30.233,19.212 30.143,18.923 30.018,18.643 C29.946,18.509 29.875,18.371 29.779,18.249 C29.694,18.118 29.579,18.01 29.47,17.896 C29.353,17.789 29.231,17.686 29.097,17.596 C28.971,17.493 28.824,17.424 28.684,17.335 C28.996,17.431 29.312,17.552 29.588,17.748 C29.723,17.848 29.866,17.946 29.982,18.072 C30.109,18.19 30.213,18.327 30.319,18.467 C30.712,19.048 30.87,19.773 30.836,20.465 C30.823,20.813 30.774,21.154 30.695,21.493 C30.649,21.66 30.607,21.839 30.552,21.987 C30.504,22.132 30.448,22.307 30.375,22.474 C30.098,23.13 29.63,23.714 29.027,24.126 L29.138,23.608 C29.623,24.375 29.706,25.305 29.537,26.14 C29.498,26.343 29.434,26.568 29.358,26.758 C29.285,26.956 29.19,27.134 29.107,27.322 C28.914,27.684 28.71,28.045 28.441,28.366 C28.173,28.686 27.866,28.979 27.51,29.21 C27.331,29.325 27.138,29.414 26.942,29.494 C26.74,29.563 26.537,29.618 26.328,29.647 C26.119,29.673 25.909,29.674 25.703,29.651 C25.498,29.628 25.298,29.592 25.102,29.525 C24.712,29.409 24.374,29.212 24.027,29.029" id="Fill-19" fill="#FFFFFF" sketch:type="MSShapeGroup"></path>
            <path d="M69.855,17.283 C71.522,17.283 72.802,17.576 73.695,18.162 C74.588,18.749 75.034,19.709 75.034,21.042 C75.034,22.387 74.582,23.358 73.679,23.955 C72.775,24.551 71.484,24.85 69.806,24.85 L69.016,24.85 L69.016,28.594 L66.498,28.594 L66.498,17.573 C67.047,17.466 67.628,17.39 68.241,17.347 C68.854,17.304 69.392,17.283 69.855,17.283 L69.855,17.283 Z M70.016,19.429 C69.833,19.429 69.653,19.434 69.475,19.445 C69.298,19.456 69.145,19.467 69.016,19.477 L69.016,22.704 L69.806,22.704 C70.677,22.704 71.333,22.586 71.775,22.349 C72.216,22.113 72.436,21.672 72.436,21.026 C72.436,20.714 72.38,20.456 72.267,20.252 C72.154,20.048 71.992,19.883 71.783,19.76 C71.573,19.636 71.317,19.55 71.016,19.501 C70.715,19.453 70.381,19.429 70.016,19.429 L70.016,19.429 Z" id="Fill-20" fill="#FFFFFF" sketch:type="MSShapeGroup"></path>
            <path d="M82.697,28.594 C82.573,28.206 82.439,27.806 82.296,27.397 C82.152,26.988 82.01,26.58 81.868,26.173 L77.501,26.173 C77.36,26.581 77.218,26.99 77.076,27.4 C76.934,27.81 76.802,28.208 76.68,28.594 L74.066,28.594 C74.487,27.389 74.886,26.276 75.263,25.254 C75.641,24.232 76.01,23.269 76.372,22.365 C76.733,21.462 77.09,20.604 77.44,19.792 C77.791,18.98 78.155,18.186 78.533,17.412 L80.919,17.412 C81.286,18.186 81.648,18.98 82.005,19.792 C82.362,20.604 82.721,21.462 83.083,22.365 C83.445,23.269 83.815,24.232 84.194,25.254 C84.572,26.276 84.972,27.389 85.393,28.594 L82.697,28.594 L82.697,28.594 Z M79.673,19.945 C79.617,20.108 79.535,20.328 79.426,20.608 C79.318,20.887 79.195,21.211 79.057,21.577 C78.919,21.943 78.764,22.346 78.594,22.787 C78.423,23.227 78.25,23.689 78.073,24.173 L81.271,24.173 C81.1,23.688 80.934,23.225 80.774,22.783 C80.614,22.341 80.461,21.937 80.317,21.57 C80.172,21.204 80.046,20.881 79.937,20.602 C79.828,20.323 79.74,20.104 79.673,19.945 L79.673,19.945 Z" id="Fill-21" fill="#FFFFFF" sketch:type="MSShapeGroup"></path>
            <path d="M88.714,21.998 C89.167,21.236 89.597,20.475 90.007,19.713 C90.416,18.952 90.793,18.184 91.138,17.412 L93.913,17.412 C93.3,18.617 92.665,19.784 92.009,20.913 C91.353,22.043 90.659,23.178 89.927,24.318 L89.927,28.594 L87.41,28.594 L87.41,24.35 C86.679,23.21 85.982,22.07 85.321,20.929 C84.659,19.789 84.022,18.617 83.409,17.412 L86.329,17.412 C86.673,18.184 87.044,18.952 87.441,19.713 C87.838,20.475 88.263,21.236 88.714,21.998" id="Fill-22" fill="#FFFFFF" sketch:type="MSShapeGroup"></path>
            <path d="M97.414,17.412 C97.609,17.767 97.832,18.205 98.086,18.727 C98.339,19.249 98.603,19.814 98.878,20.421 C99.154,21.029 99.426,21.65 99.695,22.285 C99.965,22.92 100.218,23.517 100.456,24.076 C100.693,23.517 100.947,22.92 101.216,22.285 C101.486,21.65 101.758,21.029 102.033,20.421 C102.308,19.814 102.573,19.249 102.826,18.727 C103.079,18.205 103.303,17.767 103.497,17.412 L105.789,17.412 C105.896,18.154 105.996,18.985 106.087,19.905 C106.179,20.825 106.259,21.782 106.329,22.777 C106.399,23.772 106.464,24.77 106.523,25.77 C106.582,26.77 106.633,27.712 106.676,28.594 L104.224,28.594 C104.192,27.507 104.148,26.324 104.094,25.044 C104.04,23.764 103.96,22.473 103.853,21.172 C103.658,21.623 103.442,22.124 103.205,22.672 C102.968,23.221 102.733,23.769 102.501,24.318 C102.269,24.866 102.045,25.391 101.829,25.891 C101.613,26.391 101.43,26.819 101.279,27.174 L99.52,27.174 C99.369,26.819 99.186,26.391 98.97,25.891 C98.754,25.391 98.53,24.866 98.298,24.318 C98.066,23.769 97.831,23.221 97.594,22.672 C97.357,22.124 97.141,21.623 96.946,21.172 C96.839,22.473 96.758,23.764 96.705,25.044 C96.651,26.324 96.607,27.507 96.575,28.594 L94.123,28.594 C94.166,27.712 94.217,26.77 94.276,25.77 C94.335,24.77 94.399,23.772 94.47,22.777 C94.539,21.782 94.62,20.825 94.712,19.905 C94.803,18.985 94.903,18.154 95.01,17.412 L97.414,17.412" id="Fill-23" fill="#FFFFFF" sketch:type="MSShapeGroup"></path>
            <path d="M108.322,28.594 L108.322,17.412 L115.873,17.412 L115.873,19.525 L110.839,19.525 L110.839,21.72 L115.308,21.72 L115.308,23.785 L110.839,23.785 L110.839,26.48 L116.244,26.48 L116.244,28.594 L108.322,28.594" id="Fill-24" fill="#FFFFFF" sketch:type="MSShapeGroup"></path>
            <path d="M125.006,28.594 C124.285,27.314 123.505,26.05 122.666,24.802 C121.827,23.554 120.934,22.376 119.987,21.268 L119.987,28.594 L117.503,28.594 L117.503,17.412 L119.552,17.412 C119.907,17.767 120.299,18.203 120.73,18.719 C121.16,19.235 121.598,19.787 122.045,20.373 C122.491,20.959 122.935,21.567 123.376,22.196 C123.817,22.826 124.231,23.431 124.618,24.011 L124.618,17.412 L127.12,17.412 L127.12,28.594 L125.006,28.594" id="Fill-25" fill="#FFFFFF" sketch:type="MSShapeGroup"></path>
            <path d="M137.398,17.412 L137.398,19.558 L134.026,19.558 L134.026,28.594 L131.509,28.594 L131.509,19.558 L128.136,19.558 L128.136,17.412 L137.398,17.412" id="Fill-26" fill="#FFFFFF" sketch:type="MSShapeGroup"></path>
            <path d="M136.64,22.688 L141.32,22.688 L141.32,24.866 L136.64,24.866 L136.64,22.688 Z" id="Fill-27" fill="#FFFFFF" sketch:type="MSShapeGroup"></path>
            <path d="M145.773,17.283 C147.44,17.283 148.72,17.576 149.613,18.162 C150.505,18.749 150.952,19.709 150.952,21.042 C150.952,22.387 150.5,23.358 149.597,23.955 C148.693,24.551 147.402,24.85 145.724,24.85 L144.934,24.85 L144.934,28.594 L142.416,28.594 L142.416,17.573 C142.965,17.466 143.546,17.39 144.159,17.347 C144.772,17.304 145.31,17.283 145.773,17.283 L145.773,17.283 Z M145.934,19.429 C145.751,19.429 145.571,19.434 145.393,19.445 C145.215,19.456 145.062,19.467 144.934,19.477 L144.934,22.704 L145.724,22.704 C146.595,22.704 147.251,22.586 147.692,22.349 C148.133,22.113 148.354,21.672 148.354,21.026 C148.354,20.714 148.298,20.456 148.185,20.252 C148.072,20.048 147.91,19.883 147.701,19.76 C147.491,19.636 147.235,19.55 146.934,19.501 C146.633,19.453 146.299,19.429 145.934,19.429 L145.934,19.429 Z" id="Fill-28" fill="#FFFFFF" sketch:type="MSShapeGroup"></path>
            <path d="M155.486,17.283 C157.164,17.283 158.449,17.581 159.342,18.178 C160.235,18.775 160.682,19.703 160.682,20.962 C160.682,21.747 160.501,22.384 160.141,22.874 C159.781,23.363 159.262,23.748 158.584,24.027 C158.81,24.307 159.047,24.627 159.294,24.987 C159.541,25.348 159.786,25.724 160.028,26.117 C160.27,26.51 160.504,26.918 160.73,27.343 C160.956,27.769 161.166,28.185 161.359,28.594 L158.546,28.594 C158.34,28.229 158.132,27.857 157.922,27.48 C157.711,27.104 157.495,26.738 157.274,26.383 C157.052,26.028 156.834,25.693 156.618,25.375 C156.402,25.058 156.186,24.77 155.97,24.511 L154.727,24.511 L154.727,28.594 L152.21,28.594 L152.21,17.573 C152.759,17.466 153.326,17.39 153.913,17.347 C154.498,17.304 155.023,17.283 155.486,17.283 L155.486,17.283 Z M155.631,19.429 C155.448,19.429 155.284,19.434 155.139,19.445 C154.994,19.456 154.857,19.467 154.727,19.477 L154.727,22.511 L155.438,22.511 C156.384,22.511 157.061,22.393 157.47,22.156 C157.879,21.919 158.084,21.516 158.084,20.945 C158.084,20.397 157.877,20.007 157.462,19.776 C157.048,19.544 156.438,19.429 155.631,19.429 L155.631,19.429 Z" id="Fill-29" fill="#FFFFFF" sketch:type="MSShapeGroup"></path>
            <path d="M172.735,22.995 C172.735,23.952 172.592,24.794 172.308,25.52 C172.022,26.246 171.632,26.854 171.137,27.343 C170.642,27.833 170.054,28.201 169.371,28.448 C168.687,28.696 167.953,28.819 167.168,28.819 C166.404,28.819 165.684,28.696 165.006,28.448 C164.329,28.201 163.737,27.833 163.231,27.343 C162.725,26.854 162.328,26.246 162.037,25.52 C161.747,24.794 161.601,23.952 161.601,22.995 C161.601,22.037 161.752,21.196 162.053,20.469 C162.354,19.743 162.76,19.133 163.272,18.638 C163.782,18.144 164.374,17.772 165.046,17.525 C165.719,17.277 166.426,17.154 167.168,17.154 C167.932,17.154 168.652,17.277 169.33,17.525 C170.008,17.772 170.6,18.144 171.106,18.638 C171.611,19.133 172.009,19.743 172.299,20.469 C172.589,21.196 172.735,22.037 172.735,22.995 L172.735,22.995 Z M164.199,22.995 C164.199,23.543 164.266,24.038 164.401,24.479 C164.535,24.92 164.729,25.3 164.982,25.617 C165.235,25.934 165.544,26.179 165.91,26.351 C166.275,26.523 166.695,26.609 167.168,26.609 C167.63,26.609 168.048,26.523 168.419,26.351 C168.79,26.179 169.102,25.934 169.355,25.617 C169.607,25.3 169.801,24.92 169.936,24.479 C170.07,24.038 170.137,23.543 170.137,22.995 C170.137,22.446 170.07,21.949 169.936,21.502 C169.801,21.056 169.607,20.674 169.355,20.357 C169.102,20.04 168.79,19.795 168.419,19.622 C168.048,19.45 167.63,19.364 167.168,19.364 C166.695,19.364 166.275,19.453 165.91,19.63 C165.544,19.808 165.235,20.055 164.982,20.373 C164.729,20.69 164.535,21.072 164.401,21.518 C164.266,21.965 164.199,22.457 164.199,22.995 L164.199,22.995 Z" id="Fill-30" fill="#FFFFFF" sketch:type="MSShapeGroup"></path>
            <path d="M182.158,17.412 L182.158,19.558 L178.786,19.558 L178.786,28.594 L176.269,28.594 L176.269,19.558 L172.896,19.558 L172.896,17.412 L182.158,17.412" id="Fill-31" fill="#FFFFFF" sketch:type="MSShapeGroup"></path>
            <path d="M193.454,22.995 C193.454,23.952 193.311,24.794 193.026,25.52 C192.741,26.246 192.351,26.854 191.856,27.343 C191.361,27.833 190.773,28.201 190.089,28.448 C189.406,28.696 188.671,28.819 187.886,28.819 C187.122,28.819 186.402,28.696 185.724,28.448 C185.046,28.201 184.455,27.833 183.949,27.343 C183.443,26.854 183.045,26.246 182.755,25.52 C182.465,24.794 182.319,23.952 182.319,22.995 C182.319,22.037 182.47,21.196 182.771,20.469 C183.072,19.743 183.479,19.133 183.99,18.638 C184.5,18.144 185.092,17.772 185.765,17.525 C186.436,17.277 187.144,17.154 187.886,17.154 C188.65,17.154 189.372,17.277 190.049,17.525 C190.726,17.772 191.318,18.144 191.823,18.638 C192.329,19.133 192.728,19.743 193.018,20.469 C193.309,21.196 193.454,22.037 193.454,22.995 L193.454,22.995 Z M184.918,22.995 C184.918,23.543 184.985,24.038 185.119,24.479 C185.253,24.92 185.447,25.3 185.7,25.617 C185.953,25.934 186.262,26.179 186.628,26.351 C186.994,26.523 187.413,26.609 187.886,26.609 C188.349,26.609 188.766,26.523 189.137,26.351 C189.508,26.179 189.819,25.934 190.073,25.617 C190.326,25.3 190.519,24.92 190.654,24.479 C190.789,24.038 190.856,23.543 190.856,22.995 C190.856,22.446 190.789,21.949 190.654,21.502 C190.519,21.056 190.326,20.674 190.073,20.357 C189.819,20.04 189.508,19.795 189.137,19.622 C188.766,19.45 188.349,19.364 187.886,19.364 C187.413,19.364 186.994,19.453 186.628,19.63 C186.262,19.808 185.953,20.055 185.7,20.373 C185.447,20.69 185.253,21.072 185.119,21.518 C184.985,21.965 184.918,22.457 184.918,22.995 L184.918,22.995 Z" id="Fill-32" fill="#FFFFFF" sketch:type="MSShapeGroup"></path>
            <path d="M200.053,28.819 C198.235,28.819 196.85,28.314 195.898,27.303 C194.946,26.292 194.47,24.856 194.47,22.995 C194.47,22.07 194.615,21.244 194.906,20.518 C195.196,19.792 195.594,19.179 196.1,18.678 C196.605,18.178 197.207,17.799 197.907,17.541 C198.606,17.283 199.364,17.154 200.182,17.154 C200.655,17.154 201.086,17.189 201.473,17.259 C201.86,17.329 202.199,17.409 202.489,17.501 C202.78,17.592 203.022,17.686 203.215,17.783 C203.409,17.88 203.549,17.955 203.635,18.009 L202.909,20.042 C202.564,19.859 202.164,19.703 201.707,19.574 C201.249,19.445 200.731,19.38 200.15,19.38 C199.762,19.38 199.383,19.445 199.012,19.574 C198.641,19.703 198.313,19.91 198.028,20.195 C197.742,20.48 197.514,20.849 197.342,21.301 C197.17,21.753 197.084,22.301 197.084,22.946 C197.084,23.463 197.14,23.944 197.253,24.39 C197.367,24.837 197.549,25.221 197.802,25.544 C198.055,25.867 198.386,26.122 198.794,26.311 C199.203,26.499 199.698,26.593 200.279,26.593 C200.645,26.593 200.973,26.571 201.263,26.529 C201.553,26.486 201.812,26.435 202.038,26.375 C202.263,26.316 202.462,26.249 202.635,26.173 C202.807,26.098 202.963,26.028 203.103,25.964 L203.796,27.981 C203.441,28.196 202.941,28.39 202.296,28.562 C201.65,28.734 200.903,28.819 200.053,28.819" id="Fill-33" fill="#FFFFFF" sketch:type="MSShapeGroup"></path>
            <path d="M215.059,22.995 C215.059,23.952 214.916,24.794 214.631,25.52 C214.346,26.246 213.956,26.854 213.462,27.343 C212.967,27.833 212.378,28.201 211.694,28.448 C211.012,28.696 210.277,28.819 209.492,28.819 C208.728,28.819 208.007,28.696 207.33,28.448 C206.652,28.201 206.06,27.833 205.555,27.343 C205.049,26.854 204.651,26.246 204.361,25.52 C204.07,24.794 203.925,23.952 203.925,22.995 C203.925,22.037 204.076,21.196 204.377,20.469 C204.678,19.743 205.084,19.133 205.595,18.638 C206.106,18.144 206.698,17.772 207.37,17.525 C208.042,17.277 208.749,17.154 209.492,17.154 C210.255,17.154 210.977,17.277 211.654,17.525 C212.332,17.772 212.923,18.144 213.429,18.638 C213.934,19.133 214.333,19.743 214.623,20.469 C214.914,21.196 215.059,22.037 215.059,22.995 L215.059,22.995 Z M206.523,22.995 C206.523,23.543 206.59,24.038 206.725,24.479 C206.859,24.92 207.052,25.3 207.306,25.617 C207.558,25.934 207.868,26.179 208.233,26.351 C208.599,26.523 209.019,26.609 209.492,26.609 C209.955,26.609 210.371,26.523 210.742,26.351 C211.113,26.179 211.425,25.934 211.679,25.617 C211.931,25.3 212.125,24.92 212.259,24.479 C212.394,24.038 212.461,23.543 212.461,22.995 C212.461,22.446 212.394,21.949 212.259,21.502 C212.125,21.056 211.931,20.674 211.679,20.357 C211.425,20.04 211.113,19.795 210.742,19.622 C210.371,19.45 209.955,19.364 209.492,19.364 C209.019,19.364 208.599,19.453 208.233,19.63 C207.868,19.808 207.558,20.055 207.306,20.373 C207.052,20.69 206.859,21.072 206.725,21.518 C206.59,21.965 206.523,22.457 206.523,22.995 L206.523,22.995 Z" id="Fill-34" fill="#FFFFFF" sketch:type="MSShapeGroup"></path>
            <path d="M224.03,26.432 L224.03,28.594 L216.559,28.594 L216.559,17.412 L219.076,17.412 L219.076,26.432 L224.03,26.432" id="Fill-35" fill="#FFFFFF" sketch:type="MSShapeGroup"></path>
            <path d="M16.292,19.29 C18.959,12.589 24.354,8.389 28.579,9.588 C28.399,9.497 28.216,9.411 28.026,9.335 C23.148,7.393 16.943,11.472 14.168,18.445 C11.393,25.417 13.098,32.644 17.976,34.585 C18.166,34.661 18.359,34.724 18.553,34.781 C14.659,32.749 13.625,25.991 16.292,19.29" id="Fill-36" fill="#FFFFFF" sketch:type="MSShapeGroup"></path>
            <path id="Stroke-37" stroke="#D9222A" sketch:type="MSShapeGroup"></path>
        </g>
    </g>
</svg>