<?xml version="1.0" encoding="UTF-8" standalone="no"?>
<svg width="157px" height="39px" viewBox="0 0 157 39" version="1.1" xmlns="http://www.w3.org/2000/svg" xmlns:xlink="http://www.w3.org/1999/xlink" xmlns:sketch="http://www.bohemiancoding.com/sketch/ns">
    <!-- Generator: Sketch 3.2.2 (9983) - http://www.bohemiancoding.com/sketch -->
    <title>Group</title>
    <desc>Created with Sketch.</desc>
    <defs></defs>
    <g id="Page-1" stroke="none" stroke-width="1" fill="none" fill-rule="evenodd" sketch:type="MSPage">
        <g id="Group" sketch:type="MSLayerGroup">
            <path d="M137.346,38.924 L29.917,38.924 L44.585,0.103 L137.346,0.103 C148.066,0.103 156.757,8.794 156.757,19.514 C156.757,30.234 148.066,38.924 137.346,38.924" id="Fill-1" fill="#1A1918" sketch:type="MSShapeGroup"></path>
            <path d="M44.585,38.924 L20.186,38.924 C9.466,38.924 0.775,30.234 0.775,19.514 C0.775,8.794 9.466,0.103 20.186,0.103 L51.92,0.103 L44.585,38.924" id="Fill-2" fill="#D51E13" sketch:type="MSShapeGroup"></path>
            <path d="M55.112,6.315 C53.595,4.741 51.556,3.852 49.37,3.812 L49.217,3.811 C48.842,3.811 48.475,3.843 48.113,3.893 C48.064,3.9 48.015,3.904 47.967,3.912 C47.62,3.966 47.281,4.045 46.949,4.142 C46.898,4.157 46.848,4.173 46.797,4.189 C46.464,4.294 46.139,4.417 45.825,4.563 C45.793,4.578 45.762,4.594 45.73,4.61 C45.404,4.766 45.087,4.938 44.786,5.135 C42.976,2.747 40.566,0.96 37.815,0.103 L31.698,0.103 L2.118,12.423 C1.255,14.62 0.775,17.01 0.775,19.514 C0.775,26.512 4.48,32.643 10.034,36.059 L36.43,31.377 L39.281,30.468 C43.368,28.647 46.444,24.767 47.648,20.02 C47.877,20.065 48.109,20.103 48.345,20.128 C48.583,20.156 48.825,20.173 49.069,20.178 L49.222,20.18 C53.651,20.18 57.321,16.576 57.402,12.145 C57.443,9.96 56.629,7.889 55.112,6.315 L55.112,6.315 Z M49.222,18.305 L49.104,18.304 C48.914,18.3 48.728,18.285 48.543,18.265 C48.365,18.244 48.19,18.217 48.016,18.183 C48.139,17.329 48.207,16.455 48.207,15.564 C48.207,12.282 47.33,9.231 45.832,6.688 C46.062,6.54 46.304,6.409 46.553,6.291 C46.581,6.278 46.608,6.264 46.637,6.251 C46.891,6.135 47.153,6.033 47.423,5.951 C47.43,5.949 47.437,5.948 47.443,5.946 C47.69,5.872 47.945,5.819 48.202,5.776 C48.266,5.765 48.33,5.755 48.395,5.746 C48.664,5.71 48.938,5.685 49.217,5.685 L49.336,5.686 C49.713,5.693 50.084,5.736 50.447,5.809 C50.456,5.811 50.465,5.812 50.474,5.814 C50.84,5.889 51.196,5.995 51.54,6.131 C50.72,6.413 50.12,7.177 50.103,8.095 C50.082,9.268 51.015,10.236 52.188,10.258 C53.314,10.279 54.242,9.417 54.335,8.311 L54.335,8.312 C54.725,8.851 55.023,9.444 55.225,10.07 C55.231,10.089 55.239,10.109 55.245,10.129 C55.336,10.422 55.403,10.723 55.451,11.029 C55.458,11.079 55.464,11.129 55.47,11.18 C55.51,11.486 55.534,11.796 55.528,12.111 C55.466,15.526 52.637,18.305 49.222,18.305 L49.222,18.305 Z" id="Fill-3" fill="#FFFFFF" sketch:type="MSShapeGroup"></path>
            <path d="M72.66,25.56 C70.842,25.56 69.457,25.055 68.505,24.043 C67.553,23.032 67.077,21.596 67.077,19.735 C67.077,18.81 67.222,17.984 67.512,17.258 C67.803,16.532 68.201,15.919 68.707,15.419 C69.212,14.919 69.814,14.54 70.514,14.281 C71.213,14.023 71.971,13.894 72.789,13.894 C73.262,13.894 73.692,13.929 74.08,13.999 C74.467,14.069 74.806,14.15 75.096,14.241 C75.386,14.332 75.628,14.427 75.822,14.523 C76.016,14.62 76.156,14.695 76.242,14.749 L75.516,16.782 C75.171,16.6 74.771,16.443 74.314,16.314 C73.856,16.185 73.337,16.121 72.757,16.121 C72.369,16.121 71.99,16.185 71.619,16.314 C71.248,16.443 70.92,16.651 70.635,16.936 C70.35,17.221 70.121,17.589 69.949,18.041 C69.777,18.493 69.691,19.041 69.691,19.687 C69.691,20.203 69.747,20.684 69.86,21.131 C69.973,21.578 70.156,21.962 70.409,22.284 C70.661,22.607 70.992,22.863 71.401,23.051 C71.81,23.239 72.305,23.333 72.886,23.333 C73.251,23.333 73.579,23.312 73.87,23.269 C74.16,23.226 74.418,23.175 74.644,23.115 C74.87,23.057 75.069,22.989 75.241,22.914 C75.413,22.838 75.569,22.769 75.709,22.704 L76.403,24.721 C76.048,24.936 75.548,25.13 74.903,25.302 C74.257,25.474 73.509,25.56 72.66,25.56" id="Fill-117" fill="#FFFFFF" sketch:type="MSShapeGroup"></path>
            <path d="M84.165,14.152 L86.682,14.152 L86.682,25.334 L84.165,25.334 L84.165,20.59 L79.937,20.59 L79.937,25.334 L77.42,25.334 L77.42,14.152 L79.937,14.152 L79.937,18.428 L84.165,18.428 L84.165,14.152" id="Fill-118" fill="#FFFFFF" sketch:type="MSShapeGroup"></path>
            <path d="M96.168,25.334 C96.043,24.946 95.91,24.547 95.767,24.137 C95.623,23.728 95.481,23.32 95.339,22.914 L90.972,22.914 C90.83,23.322 90.688,23.731 90.547,24.141 C90.405,24.551 90.273,24.949 90.15,25.334 L87.537,25.334 C87.957,24.13 88.356,23.017 88.734,21.994 C89.112,20.972 89.481,20.009 89.843,19.106 C90.204,18.202 90.56,17.345 90.911,16.532 C91.262,15.72 91.626,14.927 92.004,14.152 L94.39,14.152 C94.757,14.927 95.119,15.72 95.476,16.532 C95.833,17.345 96.192,18.202 96.554,19.106 C96.916,20.009 97.286,20.972 97.665,21.994 C98.042,23.017 98.443,24.13 98.864,25.334 L96.168,25.334 L96.168,25.334 Z M93.143,16.685 C93.087,16.848 93.006,17.069 92.897,17.348 C92.789,17.628 92.666,17.951 92.528,18.317 C92.39,18.683 92.235,19.087 92.065,19.527 C91.894,19.968 91.72,20.429 91.544,20.913 L94.742,20.913 C94.571,20.428 94.405,19.965 94.244,19.523 C94.084,19.081 93.932,18.677 93.787,18.311 C93.643,17.944 93.516,17.622 93.408,17.342 C93.298,17.063 93.211,16.844 93.143,16.685 L93.143,16.685 Z" id="Fill-119" fill="#FFFFFF" sketch:type="MSShapeGroup"></path>
            <path d="M107.206,25.334 C106.485,24.054 105.705,22.79 104.866,21.542 C104.027,20.294 103.134,19.117 102.188,18.009 L102.188,25.334 L99.703,25.334 L99.703,14.152 L101.752,14.152 C102.107,14.507 102.5,14.943 102.93,15.459 C103.36,15.976 103.799,16.527 104.245,17.113 C104.692,17.699 105.135,18.307 105.577,18.936 C106.017,19.566 106.431,20.171 106.819,20.751 L106.819,14.152 L109.32,14.152 L109.32,25.334 L107.206,25.334" id="Fill-120" fill="#FFFFFF" sketch:type="MSShapeGroup"></path>
            <path d="M118.807,25.334 C118.086,24.054 117.307,22.79 116.468,21.542 C115.629,20.294 114.736,19.117 113.789,18.009 L113.789,25.334 L111.305,25.334 L111.305,14.152 L113.354,14.152 C113.709,14.507 114.101,14.943 114.531,15.459 C114.962,15.976 115.4,16.527 115.846,17.113 C116.293,17.699 116.737,18.307 117.178,18.936 C117.618,19.566 118.033,20.171 118.42,20.751 L118.42,14.152 L120.921,14.152 L120.921,25.334 L118.807,25.334" id="Fill-121" fill="#FFFFFF" sketch:type="MSShapeGroup"></path>
            <path d="M122.906,25.334 L122.906,14.152 L130.457,14.152 L130.457,16.266 L125.423,16.266 L125.423,18.461 L129.892,18.461 L129.892,20.526 L125.423,20.526 L125.423,23.22 L130.828,23.22 L130.828,25.334 L122.906,25.334" id="Fill-122" fill="#FFFFFF" sketch:type="MSShapeGroup"></path>
            <path d="M139.557,23.172 L139.557,25.334 L132.086,25.334 L132.086,14.152 L134.604,14.152 L134.604,23.172 L139.557,23.172" id="Fill-123" fill="#FFFFFF" sketch:type="MSShapeGroup"></path>
            <path d="M44.713,14.408 C45.704,21.454 41.4,27.883 35.1,28.768 C28.801,29.654 22.891,24.66 21.901,17.615 C20.911,10.569 25.169,4.407 31.472,3.544 C39.364,2.463 43.723,7.362 44.713,14.408" id="Fill-124" fill="#FFFFFE" sketch:type="MSShapeGroup"></path>
            <path d="M44.713,14.408 C45.704,21.454 41.4,27.883 35.1,28.768 C28.801,29.654 22.891,24.66 21.901,17.615 C20.911,10.569 25.169,4.407 31.472,3.544 C39.364,2.463 43.723,7.362 44.713,14.408" id="Fill-125" fill="#FFFFFE" sketch:type="MSShapeGroup"></path>
            <path id="Fill-126" fill="#1A1918" sketch:type="MSShapeGroup"></path>
            <path d="M1.91,26.062 L22.742,18.927 L22.742,15.086 L1.167,23.412 C1.352,24.32 1.603,25.204 1.91,26.062" id="Fill-127" fill="#FFFFFF" sketch:type="MSShapeGroup"></path>
            <path d="M0.775,19.514 L0.775,19.514 C0.775,20.112 0.807,20.703 0.859,21.287 L25.04,12.063 L25.04,8.971 L0.778,19.418 C0.778,19.45 0.775,19.482 0.775,19.514" id="Fill-128" fill="#FFFFFF" sketch:type="MSShapeGroup"></path>
            <path d="M39.602,8.644 C40.229,8.947 40.817,9.335 41.345,9.809 C41.558,9.054 41.881,8.345 42.289,7.693 C40.304,4.919 37.359,3.152 34.078,3.152 C32.863,3.152 31.699,3.253 30.608,3.698 C33.952,3.107 37.349,5.106 39.602,8.644" id="Fill-131" fill="#1A1918" sketch:type="MSShapeGroup"></path>
            <path d="M43.43,17.766 C43.12,18.665 42.626,19.475 42.019,20.184 C41.534,23.442 40.076,26.25 37.912,27.957 C41.313,26.399 43.882,23.188 44.639,18.767 C44.205,18.472 43.799,18.137 43.43,17.766" id="Fill-132" fill="#1A1918" sketch:type="MSShapeGroup"></path>
            <path d="M0.862,21.286 C0.928,22.006 1.041,22.711 1.183,23.406 L21.63,15.515 C21.641,14.794 21.711,14.044 21.866,13.274 L0.862,21.286" id="Fill-134" fill="#1A1918" sketch:type="MSShapeGroup"></path>
            <path d="M20.264,8.276 L1.066,16.18 C0.884,17.232 0.785,18.313 0.78,19.417 L20.956,10.73 L21.491,10.5 L23.063,9.822 C24.163,7.547 25.906,5.706 28.093,4.599 L20.264,8.276" id="Fill-135" fill="#1A1918" sketch:type="MSShapeGroup"></path>
            <path d="M33.938,28.865 C32.982,28.892 32.043,28.781 31.136,28.555 L31.165,28.554 C29.382,28.117 27.726,27.222 26.313,25.975 C26.251,25.92 26.19,25.864 26.129,25.807 C25.93,25.624 25.738,25.433 25.549,25.237 C25.476,25.159 25.401,25.084 25.33,25.005 C25.143,24.8 24.965,24.586 24.79,24.367 C24.736,24.299 24.678,24.235 24.625,24.166 C24.418,23.896 24.222,23.614 24.034,23.326 C23.529,22.547 22.625,20.722 22.625,20.722 C22.416,20.212 22.228,19.692 22.082,19.153 L1.935,26.053 C3.074,29.232 4.998,32.036 7.504,34.202 L35.499,28.704 L33.938,28.865" id="Fill-136" fill="#1A1918" sketch:type="MSShapeGroup"></path>
            <path d="M51.54,6.131 C50.846,5.857 50.104,5.701 49.336,5.686 L49.217,5.685 C45.803,5.685 42.974,8.464 42.911,11.879 C42.847,15.357 45.625,18.24 49.104,18.304 L49.222,18.305 C52.637,18.305 55.466,15.526 55.528,12.111 C55.554,10.729 55.13,9.411 54.335,8.311 C54.242,9.417 53.314,10.279 52.188,10.258 C51.015,10.236 50.082,9.268 50.103,8.095 C50.12,7.177 50.72,6.413 51.54,6.131" id="Fill-137" fill="#1A1918" sketch:type="MSShapeGroup"></path>
            <path d="M38.312,10.146 C37.73,9.931 37.118,9.793 36.48,9.781 L36.375,9.78 C33.352,9.78 30.849,12.239 30.793,15.262 C30.766,16.754 31.321,18.167 32.356,19.241 C33.391,20.315 34.783,20.922 36.274,20.949 L36.38,20.95 C39.312,20.95 41.749,18.633 41.943,15.735 C41.41,14.702 41.1,13.541 41.052,12.315 C41.026,12.275 40.99,12.241 40.963,12.202 C40.81,13.123 40.01,13.819 39.049,13.802 C37.993,13.782 37.153,12.91 37.172,11.855 C37.187,11.087 37.654,10.438 38.312,10.146" id="Fill-138" fill="#1A1918" sketch:type="MSShapeGroup"></path>
            <path d="M30.741,20.22 C29.805,19.133 29.199,17.832 29,16.428 C28.952,16.431 28.905,16.44 28.856,16.44 C27.905,16.422 27.149,15.638 27.167,14.687 C27.179,14.045 27.545,13.498 28.072,13.212 C27.589,13.042 27.081,12.924 26.542,12.915 L26.449,12.914 C25.631,12.914 24.867,13.137 24.184,13.497 C24.135,13.958 24.101,14.423 24.101,14.897 C24.101,17.841 25.068,20.557 26.698,22.755 C28.433,22.667 29.931,21.659 30.741,20.22" id="Fill-139" fill="#1A1918" sketch:type="MSShapeGroup"></path>
        </g>
    </g>
</svg>