<?xml version="1.0" encoding="UTF-8" standalone="no"?>
<svg width="21px" height="27px" viewBox="0 0 21 27" version="1.1" xmlns="http://www.w3.org/2000/svg" xmlns:xlink="http://www.w3.org/1999/xlink" xmlns:sketch="http://www.bohemiancoding.com/sketch/ns">
    <!-- Generator: Sketch 3.2.1 (9971) - http://www.bohemiancoding.com/sketch -->
    <title>doc-single-icon</title>
    <desc>Created with Sketch.</desc>
    <defs></defs>
    <g id="Page-1" stroke="none" stroke-width="1" fill="none" fill-rule="evenodd" sketch:type="MSPage">
        <g id="doc-single-icon" sketch:type="MSLayerGroup" fill="#6B6B6A">
            <g id="Page-1" sketch:type="MSShapeGroup">
                <g id="doc-icon">
                    <g id="Page-1">
                        <g id="Artboard-2">
                            <g id="Imported-Layers">
                                <path d="M13.1761053,0.108 L0.128947368,0.108 L0.128947368,26.3073913 L20.3237895,26.3073913 L20.3237895,7.35104348 L13.1761053,0.108 L13.1761053,0.108 Z M13.894,4.15447826 L16.3348421,6.62791304 L13.894,6.62791304 L13.894,4.15447826 L13.894,4.15447826 Z M2.44473684,2.45582609 L11.5782105,2.45582609 L11.5782105,8.97573913 L18.0091579,8.97573913 L18.0091579,23.9595652 L2.44473684,23.9595652 L2.44473684,2.45582609 Z" id="Fill-1"></path>
                                <path d="M13.52,10.9819565 L13.52,13.3297826 L4.50115789,13.3297826 L4.50115789,10.9819565 L13.52,10.9819565 Z" id="Fill-2"></path>
                                <path d="M4.50115789,14.7971739 L13.52,14.7971739 L13.52,17.145 L4.50115789,17.145 L4.50115789,14.7971739 L4.50115789,14.7971739 Z" id="Fill-3"></path>
                                <path d="M4.50115789,18.6135652 L10.6970526,18.6135652 L10.6970526,20.9613913 L4.50115789,20.9613913 L4.50115789,18.6135652 L4.50115789,18.6135652 Z" id="Fill-4"></path>
                            </g>
                        </g>
                    </g>
                </g>
            </g>
        </g>
    </g>
</svg>