<?xml version="1.0" encoding="UTF-8" standalone="no"?>
<svg width="25px" height="49px" viewBox="0 0 25 49" version="1.1" xmlns="http://www.w3.org/2000/svg" xmlns:xlink="http://www.w3.org/1999/xlink" xmlns:sketch="http://www.bohemiancoding.com/sketch/ns">
    <!-- Generator: Sketch 3.2.1 (9971) - http://www.bohemiancoding.com/sketch -->
    <title>githubcat-icon + githubcat-icon</title>
    <desc>Created with Sketch.</desc>
    <defs></defs>
    <g id="Page-1" stroke="none" stroke-width="1" fill="none" fill-rule="evenodd" sketch:type="MSPage">
        <g id="githubcat-icon-+-githubcat-icon" sketch:type="MSLayerGroup">
            <g id="githubcat-icon" fill="#6B6B6A" sketch:type="MSShapeGroup">
                <g id="Page-1">
                    <g id="Artboard-3">
                        <g id="Imported-Layers">
                            <path d="M12.4535714,20.1787903 C11.1223214,20.1787903 9.97589286,20.1131452 9.30803571,19.9969355 C6.27678571,19.4708871 0.633035714,18.4924194 0.633035714,10.5697581 C0.633035714,8.73701613 1.19821429,7.11008065 2.31339286,5.72975806 C2.0625,4.83556452 1.82053571,3.13233871 2.65892857,1.0183871 L2.81428571,0.628064516 L3.21785714,0.500322581 C3.29464286,0.474596774 3.51517857,0.417822581 3.87767857,0.417822581 C4.7375,0.417822581 6.21517857,0.726532258 8.44017857,2.16008065 C9.775,1.82741935 11.1848214,1.65532258 12.6366071,1.64822581 C14.0964286,1.65532258 15.5080357,1.82741935 16.8446429,2.16008065 C19.0678571,0.726532258 20.5428571,0.417822581 21.4026786,0.417822581 C21.7651786,0.417822581 21.9848214,0.474596774 22.0633929,0.500322581 L22.4651786,0.628064516 L22.6205357,1.0183871 C23.4598214,3.13056452 23.2196429,4.83379032 22.96875,5.72887097 C24.0830357,7.10653226 24.6464286,8.73258065 24.6464286,10.5697581 C24.6464286,17.6266129 20.2473214,19.2890323 15.9428571,19.9845161 C15.2008929,20.1042742 13.8633929,20.1787903 12.4535714,20.1787903 L12.4535714,20.1787903 L12.4535714,20.1787903 Z M4.24283047,2.31245968 C3.69293592,4.11610472 4.15030014,5.39266514 4.25693034,5.64832745 L4.46930948,6.16227873 L4.09301946,6.57203887 C3.06989834,7.68399479 2.55172847,9.02797302 2.55172847,10.5663246 C2.55172847,16.436051 5.76825912,17.4718336 9.65541438,18.145136 C10.2097151,18.2423227 11.2566298,18.2992339 12.4559991,18.2992339 C13.7399677,18.2992339 14.9807554,18.2335672 15.6170116,18.1302516 C19.2151197,17.5488825 22.7286287,16.4859577 22.7286287,10.5663246 C22.7286287,9.02359524 22.2104588,7.68049257 21.1899814,6.57378998 L20.8128101,6.16315429 L21.0251893,5.64920301 C21.1309382,5.39266514 21.5883025,4.11522916 21.0375267,2.31245968 C20.4673636,2.37725081 19.3041251,2.6828198 17.4420623,3.93749133 L17.1054281,4.16338474 L16.7123945,4.05569137 C15.4460508,3.70634458 14.036946,3.51897563 12.6366536,3.51197119 C11.2451736,3.51897563 9.83783132,3.70634458 8.57325009,4.05569137 L8.18109773,4.16338474 L7.84358232,3.93749133 C5.97887578,2.68194424 4.81299358,2.37725081 4.24283047,2.31245968 L4.24283047,2.31245968 L4.24283047,2.31245968 Z" id="Fill-1"></path>
                            <path d="M9.60982143,13.0110484 C9.60982143,13.9194355 9.11964286,14.6557258 8.51607143,14.6557258 C7.91160714,14.6557258 7.42232143,13.9194355 7.42232143,13.0110484 C7.42232143,12.1026613 7.91160714,11.3654839 8.51607143,11.3654839 C9.11964286,11.3654839 9.60982143,12.1026613 9.60982143,13.0110484" id="Fill-2"></path>
                            <path d="M17.8571429,13.0110484 C17.8571429,13.9194355 17.3678571,14.6557258 16.7633929,14.6557258 C16.1598214,14.6557258 15.6705357,13.9194355 15.6705357,13.0110484 C15.6705357,12.1026613 16.1598214,11.3654839 16.7633929,11.3654839 C17.3678571,11.3654839 17.8571429,12.1026613 17.8571429,13.0110484" id="Fill-3"></path>
                        </g>
                    </g>
                </g>
            </g>
            <g id="githubcat-icon" transform="translate(0.000000, 28.000000)" fill="#A39F9A" sketch:type="MSShapeGroup">
                <g id="Page-1">
                    <g id="Artboard-3">
                        <g id="Imported-Layers">
                            <path d="M12.4535714,20.1787903 C11.1223214,20.1787903 9.97589286,20.1131452 9.30803571,19.9969355 C6.27678571,19.4708871 0.633035714,18.4924194 0.633035714,10.5697581 C0.633035714,8.73701613 1.19821429,7.11008065 2.31339286,5.72975806 C2.0625,4.83556452 1.82053571,3.13233871 2.65892857,1.0183871 L2.81428571,0.628064516 L3.21785714,0.500322581 C3.29464286,0.474596774 3.51517857,0.417822581 3.87767857,0.417822581 C4.7375,0.417822581 6.21517857,0.726532258 8.44017857,2.16008065 C9.775,1.82741935 11.1848214,1.65532258 12.6366071,1.64822581 C14.0964286,1.65532258 15.5080357,1.82741935 16.8446429,2.16008065 C19.0678571,0.726532258 20.5428571,0.417822581 21.4026786,0.417822581 C21.7651786,0.417822581 21.9848214,0.474596774 22.0633929,0.500322581 L22.4651786,0.628064516 L22.6205357,1.0183871 C23.4598214,3.13056452 23.2196429,4.83379032 22.96875,5.72887097 C24.0830357,7.10653226 24.6464286,8.73258065 24.6464286,10.5697581 C24.6464286,17.6266129 20.2473214,19.2890323 15.9428571,19.9845161 C15.2008929,20.1042742 13.8633929,20.1787903 12.4535714,20.1787903 L12.4535714,20.1787903 L12.4535714,20.1787903 Z M4.24283047,2.31245968 C3.69293592,4.11610472 4.15030014,5.39266514 4.25693034,5.64832745 L4.46930948,6.16227873 L4.09301946,6.57203887 C3.06989834,7.68399479 2.55172847,9.02797302 2.55172847,10.5663246 C2.55172847,16.436051 5.76825912,17.4718336 9.65541438,18.145136 C10.2097151,18.2423227 11.2566298,18.2992339 12.4559991,18.2992339 C13.7399677,18.2992339 14.9807554,18.2335672 15.6170116,18.1302516 C19.2151197,17.5488825 22.7286287,16.4859577 22.7286287,10.5663246 C22.7286287,9.02359524 22.2104588,7.68049257 21.1899814,6.57378998 L20.8128101,6.16315429 L21.0251893,5.64920301 C21.1309382,5.39266514 21.5883025,4.11522916 21.0375267,2.31245968 C20.4673636,2.37725081 19.3041251,2.6828198 17.4420623,3.93749133 L17.1054281,4.16338474 L16.7123945,4.05569137 C15.4460508,3.70634458 14.036946,3.51897563 12.6366536,3.51197119 C11.2451736,3.51897563 9.83783132,3.70634458 8.57325009,4.05569137 L8.18109773,4.16338474 L7.84358232,3.93749133 C5.97887578,2.68194424 4.81299358,2.37725081 4.24283047,2.31245968 L4.24283047,2.31245968 L4.24283047,2.31245968 Z" id="Fill-1"></path>
                            <path d="M9.60982143,13.0110484 C9.60982143,13.9194355 9.11964286,14.6557258 8.51607143,14.6557258 C7.91160714,14.6557258 7.42232143,13.9194355 7.42232143,13.0110484 C7.42232143,12.1026613 7.91160714,11.3654839 8.51607143,11.3654839 C9.11964286,11.3654839 9.60982143,12.1026613 9.60982143,13.0110484" id="Fill-2"></path>
                            <path d="M17.8571429,13.0110484 C17.8571429,13.9194355 17.3678571,14.6557258 16.7633929,14.6557258 C16.1598214,14.6557258 15.6705357,13.9194355 15.6705357,13.0110484 C15.6705357,12.1026613 16.1598214,11.3654839 16.7633929,11.3654839 C17.3678571,11.3654839 17.8571429,12.1026613 17.8571429,13.0110484 L8.16113368,13.0110484" id="Fill-3"></path>
                        </g>
                    </g>
                </g>
            </g>
        </g>
    </g>
</svg>