<?xml version="1.0" encoding="UTF-8" standalone="no"?>
<svg width="112px" height="80px" viewBox="0 0 112 80" version="1.1" xmlns="http://www.w3.org/2000/svg" xmlns:xlink="http://www.w3.org/1999/xlink" xmlns:sketch="http://www.bohemiancoding.com/sketch/ns">
    <!-- Generator: Sketch 3.2.2 (9983) - http://www.bohemiancoding.com/sketch -->
    <title>pheevalogo + pheevalogo</title>
    <desc>Created with Sketch.</desc>
    <defs></defs>
    <g id="Page-1" stroke="none" stroke-width="1" fill="none" fill-rule="evenodd" sketch:type="MSPage">
        <g id="pheevalogo-+-pheevalogo" sketch:type="MSLayerGroup" transform="translate(-1.000000, 0.000000)">
            <g id="pheevalogo" fill="#6B6A65" sketch:type="MSShapeGroup">
                <g id="Group">
                    <g transform="translate(0.579867, 0.915254)" id="Shape">
                        <path d="M7.39950753,9.90732203 C5.97579988,9.72025424 6.03043279,8.76244068 5.53418385,8.38037288 C4.63989512,7.69423729 3.4991079,7.99433898 2.65034659,8.42664407 C2.65034659,8.42664407 3.86332731,8.25147458 4.48445148,8.64015254 C3.09976733,8.36516949 1.86792526,9.92450847 1.86792526,9.92450847 C1.86792526,9.92450847 3.24350392,9.08435593 4.33746293,9.30183051 C4.99435865,9.43271186 5.77027607,10.6978983 7.39950753,9.90732203 L7.39950753,9.90732203 Z"></path>
                        <path d="M20.7078246,2.36181356 L13.4923779,2.36181356 C13.0364533,2.25869492 12.6761362,2.10666102 12.506384,1.91430508 C11.9633068,1.29757627 11.9782658,1.02920339 11.6745329,0.739677966 C11.0592622,0.149389831 9.87424834,0.352983051 9.87424834,0.352983051 C9.87424834,0.352983051 10.8804045,0.442220339 11.1776335,1.32137288 C11.3512881,1.8369661 11.2556805,2.38891525 11.9444454,2.76569492 C11.9444454,2.76569492 11.6146968,2.82122034 11.3252725,2.60308475 C9.95749849,1.57454237 9.61149005,1.92355932 8.1481085,2.10401695 C6.68602773,2.28645763 6.22099759,0.871881356 6.22099759,0.871881356 C5.94978421,3.65277966 10.0036763,2.25076271 9.74156841,3.71227119 C9.5685642,4.68 7.17382158,3.48355932 7.17382158,3.48355932 C7.31235503,3.80150847 7.69868776,5.10635593 10.1838348,4.89086441 C7.82096142,6.30345763 7.35918324,5.2299661 6.0850657,4.89747458 C4.80964738,4.56564407 4.43242013,5.47652542 2.76026281,5.51618644 C1.0868047,5.55650847 0.509907173,4.29264407 0.509907173,4.29264407 C1.85881977,7.44966102 4.27502532,6.00666102 5.56735383,6.66767797 C8.14745811,7.98971186 7.65120916,10.6615424 10.8069102,11.0039492 C11.0046293,11.0251017 11.2114539,11.0350169 11.4267336,11.0303898 L10.8667462,12.4740508 C10.8140645,12.4370339 10.7704882,12.3967119 10.7425214,12.3511017 C10.4875678,11.9293729 10.5148843,11.7290847 10.3685461,11.5340847 C10.0719675,11.1387966 9.40726703,11.3767627 9.40726703,11.3767627 C9.40726703,11.3767627 9.95359614,11.3701525 10.0550573,12.0040678 C10.1148933,12.3762203 10.0238385,12.793322 10.37505,13.025339 C10.37505,13.025339 10.1903388,13.0901186 10.0466022,12.948661 C9.36889391,12.2810339 9.15426462,12.5672542 8.33997408,12.8052203 C7.52503315,13.0464915 7.36828873,12.0272034 7.36828873,12.0272034 C7.02553225,14.119322 9.3461302,12.7814237 9.09963171,13.8892881 C8.93703376,14.6216949 7.70844364,13.9051525 7.70844364,13.9051525 C7.76242616,14.1318814 7.88274864,15.0758136 9.26027848,14.7353898 C7.86648885,15.9589322 7.68893189,15.1921525 7.0131748,15.0361525 C6.33676733,14.8808136 6.06685473,15.5874407 5.14655033,15.7355085 C4.22624593,15.8875424 3.9986088,14.9865763 3.9986088,14.9865763 C4.51697107,17.2432881 5.9426299,15.9939661 6.60537914,16.3945424 C7.92762568,17.1923898 6.17547016,18.7312373 8.41541953,18.7874237 C8.56631043,18.7913898 8.74451778,18.7940339 8.93833454,18.7874237 L11.3968156,18.7874237 L13.5964406,13.1198644 L16.5323092,13.1198644 C19.5592327,13.1198644 22.5373767,10.8995085 23.7770235,7.70745763 C25.0160199,4.51474576 23.7334473,2.36181356 20.7078246,2.36181356 L20.7078246,2.36181356 Z M20.7208324,7.55740678 C19.2802146,10.3045932 16.170041,9.50079661 15.4585124,9.52327119 C14.886818,9.54045763 14.6969036,9.73810169 14.3925202,9.76255932 C13.7765992,9.81345763 13.4104286,9.30777966 13.4104286,9.30777966 C13.4104286,9.30777966 13.882613,9.61911864 14.5447119,9.32628814 C14.931695,9.15442373 15.2308752,8.87283051 15.7466359,8.94422034 C15.7466359,8.94422034 15.6445244,8.80474576 15.3908716,8.80077966 C14.1941507,8.78689831 14.2650434,8.50861017 13.7707456,7.91633898 C13.2757975,7.32472881 12.2163092,7.79933898 12.2163092,7.79933898 C13.807818,6.45218644 14.627962,8.49869492 15.4142857,7.74910169 C15.9358999,7.25267797 14.2123617,6.95588136 14.2123617,6.95588136 C14.4640633,6.86069492 15.4227408,6.40855932 16.3202815,7.37232203 C16.2077637,5.91279661 15.358352,6.23338983 14.6266612,5.93923729 C13.8956209,5.64310169 14.2988638,5.10172881 13.6289602,4.50020339 C12.9603574,3.89933898 11.9483478,4.26620339 11.9483478,4.26620339 C14.4399988,3.31566102 14.5564189,4.80757627 15.4975359,4.9609322 C17.3745666,5.26632203 18.8080301,3.88810169 20.323443,4.83666102 C21.0070048,5.26433898 21.4882948,6.09457627 20.7208324,7.55740678 L20.7208324,7.55740678 Z"></path>
                    </g>
                </g>
                <g id="Group" transform="translate(37.554551, 0.254237)">
                    <path d="M10.5461031,6.61479661 C10.5461031,8.32683051 9.97375829,9.6409322 8.82776793,10.5551186 C7.68307836,11.4686441 6.06100121,11.9254068 3.96153647,11.9254068 L1.26566245,11.9254068 L1.26566245,19.2468305 L0.0487793852,19.2468305 L0.0487793852,1.52232203 L4.31925196,1.52232203 C8.47005244,1.52166102 10.5461031,3.21981356 10.5461031,6.61479661 L10.5461031,6.61479661 Z M1.26566245,10.8572034 L3.66365702,10.8572034 C5.62784027,10.8572034 7.04764557,10.528678 7.92242254,9.86898305 C8.79719952,9.21061017 9.2349132,8.14240678 9.2349132,6.66238983 C9.2349132,5.29672881 8.82126401,4.28405085 7.99396564,3.62567797 C7.16731766,2.96598305 5.8866962,2.63745763 4.15275166,2.63745763 L1.26566245,2.63745763 L1.26566245,10.8572034 L1.26566245,10.8572034 Z" id="Shape"></path>
                    <path d="M23.0837058,19.2468305 L23.0837058,10.6998814 C23.0837058,9.37454237 22.8085901,8.41077966 22.2603098,7.8079322 C21.7113791,7.20508475 20.8606667,6.90432203 19.7068716,6.90432203 C18.1563376,6.90432203 17.0214039,7.30291525 16.3020705,8.09877966 C15.5827372,8.89464407 15.2224201,10.1856102 15.2224201,11.972339 L15.2224201,19.2461695 L14.0413086,19.2461695 L14.0413086,0.382728814 L15.2224201,0.382728814 L15.2224201,6.38344068 L15.1625841,8.0690339 L15.2458342,8.0690339 C15.7316769,7.27647458 16.3436956,6.70337288 17.0831911,6.34708475 C17.8226866,5.99145763 18.7416902,5.81364407 19.8382508,5.81364407 C22.7806233,5.81364407 24.2524599,7.4179322 24.2524599,10.6271695 L24.2524599,19.2461695 L23.0837058,19.2468305 L23.0837058,19.2468305 Z" id="Shape"></path>
                    <path d="M33.6883442,19.4887627 C31.8041591,19.4887627 30.3349241,18.8991356 29.2819397,17.7198814 C28.2263538,16.5393051 27.7001869,14.8867627 27.7001869,12.7615932 C27.7001869,10.6588983 28.2094436,8.97661017 29.2273068,7.71142373 C30.2445196,6.44623729 31.6168463,5.81364407 33.3423357,5.81364407 C34.8694557,5.81364407 36.0739813,6.35567797 36.956563,7.43842373 C37.8391447,8.52116949 38.2814111,9.99259322 38.2814111,11.8507119 L38.2814111,12.8210847 L28.9417848,12.8210847 C28.9567438,14.6309492 29.3723442,16.0131356 30.1879355,16.966322 C31.0035268,17.9201695 32.1703297,18.3974237 33.6889946,18.3974237 C34.4284901,18.3974237 35.0788819,18.3445424 35.6395196,18.2401017 C36.2001573,18.135 36.9097348,17.9082712 37.7689024,17.5612373 L37.7689024,18.6519153 C37.0372116,18.9751525 36.3608041,19.1959322 35.7403303,19.3129322 C35.1198565,19.4312542 34.4356444,19.4887627 33.6883442,19.4887627 L33.6883442,19.4887627 Z M33.3423357,6.88118644 C32.0935835,6.88118644 31.0926305,7.29894915 30.3368752,8.13513559 C29.58112,8.97198305 29.1401543,10.177678 29.0133279,11.7542034 L37.0294069,11.7542034 C37.0294069,10.2259322 36.7029102,9.03213559 36.0512176,8.17215254 C35.3975738,7.31084746 34.4954804,6.88118644 33.3423357,6.88118644 L33.3423357,6.88118644 Z" id="Shape"></path>
                    <path d="M47.0968216,19.4887627 C45.2126365,19.4887627 43.7421007,18.8991356 42.6891163,17.7198814 C41.6354816,16.5393051 41.1080139,14.8867627 41.1080139,12.7615932 C41.1080139,10.6588983 41.6172706,8.97661017 42.6351338,7.71142373 C43.652997,6.44623729 45.0253237,5.81364407 46.7514635,5.81364407 C48.2785835,5.81364407 49.4831091,6.35567797 50.3663412,7.43842373 C51.2482725,8.52116949 51.6898885,9.99259322 51.6898885,11.8507119 L51.6898885,12.8210847 L42.3489614,12.8210847 C42.3639204,14.6309492 42.7801712,16.0131356 43.5951121,16.966322 C44.4113538,17.9201695 45.5781567,18.3974237 47.097472,18.3974237 C47.8369675,18.3974237 48.4873593,18.3445424 49.0473466,18.2401017 C49.6079843,18.135 50.3175618,17.9082712 51.176079,17.5612373 L51.176079,18.6519153 C50.4450386,18.9751525 49.7699319,19.1959322 49.1494581,19.3129322 C48.5276835,19.4312542 47.8441218,19.4887627 47.0968216,19.4887627 L47.0968216,19.4887627 Z M46.7508131,6.88118644 C45.5020609,6.88118644 44.5004575,7.29894915 43.7453526,8.13513559 C42.988947,8.97198305 42.5479813,10.177678 42.4211549,11.7542034 L50.4359331,11.7542034 C50.4359331,10.2259322 50.1113876,9.03213559 49.4583942,8.17215254 C48.8060512,7.31084746 47.9039578,6.88118644 46.7508131,6.88118644 L46.7508131,6.88118644 Z" id="Shape"></path>
                    <path d="M53.096686,6.06879661 L54.313569,6.06879661 L57.6643876,15.0282203 C58.1112068,16.1757458 58.4442074,17.1778475 58.6679421,18.0351864 L58.7381844,18.0351864 C59.0659819,16.9352542 59.3989825,15.9258814 59.7404382,15.0037627 L63.0925576,6.06879661 L64.3094406,6.06879661 L59.2994726,19.2468305 L58.1060036,19.2468305 L53.096686,6.06879661 Z" id="Shape"></path>
                    <path d="M74.3534412,19.2468305 L74.0555618,17.161322 L73.9606046,17.161322 C73.308912,18.0107288 72.6377077,18.6102712 71.9502435,18.9632542 C71.2627794,19.3142542 70.4491392,19.4894237 69.5112743,19.4894237 C68.2378071,19.4894237 67.2485612,19.1582542 66.5409349,18.4945932 C65.8333086,17.8322542 65.4794955,16.9154237 65.4794955,15.7427797 C65.4794955,14.4584237 66.0063128,13.4602881 67.0599476,12.7483729 C68.1129319,12.0371186 69.6387511,11.661 71.6354539,11.622 L74.1036908,11.5492881 L74.1036908,10.6760847 C74.1036908,9.42279661 73.8539403,8.47754237 73.3531386,7.839 C72.8523369,7.20111864 72.0438999,6.88184746 70.9304292,6.88184746 C69.7291555,6.88184746 68.4856064,7.22094915 67.1978306,7.89981356 L66.7562146,6.85738983 C68.1792719,6.17852542 69.5880205,5.83810169 70.9785582,5.83810169 C72.4016154,5.83810169 73.4656564,6.21355932 74.1693803,6.96645763 C74.8731043,7.7180339 75.2249662,8.89067797 75.2249662,10.4824068 L75.2249662,19.2474915 L74.3534412,19.2468305 L74.3534412,19.2468305 Z M69.5815166,18.3980847 C70.9655503,18.3980847 72.0575582,17.9961864 72.8568897,17.1923898 C73.6562212,16.3879322 74.0555618,15.2708136 74.0555618,13.8403729 L74.0555618,12.5434576 L71.7895967,12.6399661 C69.9678493,12.7285424 68.6703177,13.0174068 67.8950506,13.5065593 C67.1197836,13.9957119 66.7328005,14.7578644 66.7328005,15.7916949 C66.7328005,16.6159831 66.9805998,17.2578305 67.4774991,17.7145932 C67.9743984,18.1700339 68.6755208,18.3980847 69.5815166,18.3980847 L69.5815166,18.3980847 Z" id="Shape"></path>
                </g>
            </g>
            <g id="pheevalogo" transform="translate(0.000000, 60.000000)" fill="#A39F9A" sketch:type="MSShapeGroup">
                <g id="Group">
                    <g transform="translate(0.579867, 0.915254)" id="Shape">
                        <path d="M7.39950753,9.90732203 C5.97579988,9.72025424 6.03043279,8.76244068 5.53418385,8.38037288 C4.63989512,7.69423729 3.4991079,7.99433898 2.65034659,8.42664407 C2.65034659,8.42664407 3.86332731,8.25147458 4.48445148,8.64015254 C3.09976733,8.36516949 1.86792526,9.92450847 1.86792526,9.92450847 C1.86792526,9.92450847 3.24350392,9.08435593 4.33746293,9.30183051 C4.99435865,9.43271186 5.77027607,10.6978983 7.39950753,9.90732203 L7.39950753,9.90732203 Z"></path>
                        <path d="M20.7078246,2.36181356 L13.4923779,2.36181356 C13.0364533,2.25869492 12.6761362,2.10666102 12.506384,1.91430508 C11.9633068,1.29757627 11.9782658,1.02920339 11.6745329,0.739677966 C11.0592622,0.149389831 9.87424834,0.352983051 9.87424834,0.352983051 C9.87424834,0.352983051 10.8804045,0.442220339 11.1776335,1.32137288 C11.3512881,1.8369661 11.2556805,2.38891525 11.9444454,2.76569492 C11.9444454,2.76569492 11.6146968,2.82122034 11.3252725,2.60308475 C9.95749849,1.57454237 9.61149005,1.92355932 8.1481085,2.10401695 C6.68602773,2.28645763 6.22099759,0.871881356 6.22099759,0.871881356 C5.94978421,3.65277966 10.0036763,2.25076271 9.74156841,3.71227119 C9.5685642,4.68 7.17382158,3.48355932 7.17382158,3.48355932 C7.31235503,3.80150847 7.69868776,5.10635593 10.1838348,4.89086441 C7.82096142,6.30345763 7.35918324,5.2299661 6.0850657,4.89747458 C4.80964738,4.56564407 4.43242013,5.47652542 2.76026281,5.51618644 C1.0868047,5.55650847 0.509907173,4.29264407 0.509907173,4.29264407 C1.85881977,7.44966102 4.27502532,6.00666102 5.56735383,6.66767797 C8.14745811,7.98971186 7.65120916,10.6615424 10.8069102,11.0039492 C11.0046293,11.0251017 11.2114539,11.0350169 11.4267336,11.0303898 L10.8667462,12.4740508 C10.8140645,12.4370339 10.7704882,12.3967119 10.7425214,12.3511017 C10.4875678,11.9293729 10.5148843,11.7290847 10.3685461,11.5340847 C10.0719675,11.1387966 9.40726703,11.3767627 9.40726703,11.3767627 C9.40726703,11.3767627 9.95359614,11.3701525 10.0550573,12.0040678 C10.1148933,12.3762203 10.0238385,12.793322 10.37505,13.025339 C10.37505,13.025339 10.1903388,13.0901186 10.0466022,12.948661 C9.36889391,12.2810339 9.15426462,12.5672542 8.33997408,12.8052203 C7.52503315,13.0464915 7.36828873,12.0272034 7.36828873,12.0272034 C7.02553225,14.119322 9.3461302,12.7814237 9.09963171,13.8892881 C8.93703376,14.6216949 7.70844364,13.9051525 7.70844364,13.9051525 C7.76242616,14.1318814 7.88274864,15.0758136 9.26027848,14.7353898 C7.86648885,15.9589322 7.68893189,15.1921525 7.0131748,15.0361525 C6.33676733,14.8808136 6.06685473,15.5874407 5.14655033,15.7355085 C4.22624593,15.8875424 3.9986088,14.9865763 3.9986088,14.9865763 C4.51697107,17.2432881 5.9426299,15.9939661 6.60537914,16.3945424 C7.92762568,17.1923898 6.17547016,18.7312373 8.41541953,18.7874237 C8.56631043,18.7913898 8.74451778,18.7940339 8.93833454,18.7874237 L11.3968156,18.7874237 L13.5964406,13.1198644 L16.5323092,13.1198644 C19.5592327,13.1198644 22.5373767,10.8995085 23.7770235,7.70745763 C25.0160199,4.51474576 23.7334473,2.36181356 20.7078246,2.36181356 L20.7078246,2.36181356 Z M20.7208324,7.55740678 C19.2802146,10.3045932 16.170041,9.50079661 15.4585124,9.52327119 C14.886818,9.54045763 14.6969036,9.73810169 14.3925202,9.76255932 C13.7765992,9.81345763 13.4104286,9.30777966 13.4104286,9.30777966 C13.4104286,9.30777966 13.882613,9.61911864 14.5447119,9.32628814 C14.931695,9.15442373 15.2308752,8.87283051 15.7466359,8.94422034 C15.7466359,8.94422034 15.6445244,8.80474576 15.3908716,8.80077966 C14.1941507,8.78689831 14.2650434,8.50861017 13.7707456,7.91633898 C13.2757975,7.32472881 12.2163092,7.79933898 12.2163092,7.79933898 C13.807818,6.45218644 14.627962,8.49869492 15.4142857,7.74910169 C15.9358999,7.25267797 14.2123617,6.95588136 14.2123617,6.95588136 C14.4640633,6.86069492 15.4227408,6.40855932 16.3202815,7.37232203 C16.2077637,5.91279661 15.358352,6.23338983 14.6266612,5.93923729 C13.8956209,5.64310169 14.2988638,5.10172881 13.6289602,4.50020339 C12.9603574,3.89933898 11.9483478,4.26620339 11.9483478,4.26620339 C14.4399988,3.31566102 14.5564189,4.80757627 15.4975359,4.9609322 C17.3745666,5.26632203 18.8080301,3.88810169 20.323443,4.83666102 C21.0070048,5.26433898 21.4882948,6.09457627 20.7208324,7.55740678 L20.7208324,7.55740678 Z"></path>
                    </g>
                </g>
                <g id="Group" transform="translate(37.554551, 0.254237)">
                    <path d="M10.5461031,6.61479661 C10.5461031,8.32683051 9.97375829,9.6409322 8.82776793,10.5551186 C7.68307836,11.4686441 6.06100121,11.9254068 3.96153647,11.9254068 L1.26566245,11.9254068 L1.26566245,19.2468305 L0.0487793852,19.2468305 L0.0487793852,1.52232203 L4.31925196,1.52232203 C8.47005244,1.52166102 10.5461031,3.21981356 10.5461031,6.61479661 L10.5461031,6.61479661 Z M1.26566245,10.8572034 L3.66365702,10.8572034 C5.62784027,10.8572034 7.04764557,10.528678 7.92242254,9.86898305 C8.79719952,9.21061017 9.2349132,8.14240678 9.2349132,6.66238983 C9.2349132,5.29672881 8.82126401,4.28405085 7.99396564,3.62567797 C7.16731766,2.96598305 5.8866962,2.63745763 4.15275166,2.63745763 L1.26566245,2.63745763 L1.26566245,10.8572034 L1.26566245,10.8572034 Z" id="Shape"></path>
                    <path d="M23.0837058,19.2468305 L23.0837058,10.6998814 C23.0837058,9.37454237 22.8085901,8.41077966 22.2603098,7.8079322 C21.7113791,7.20508475 20.8606667,6.90432203 19.7068716,6.90432203 C18.1563376,6.90432203 17.0214039,7.30291525 16.3020705,8.09877966 C15.5827372,8.89464407 15.2224201,10.1856102 15.2224201,11.972339 L15.2224201,19.2461695 L14.0413086,19.2461695 L14.0413086,0.382728814 L15.2224201,0.382728814 L15.2224201,6.38344068 L15.1625841,8.0690339 L15.2458342,8.0690339 C15.7316769,7.27647458 16.3436956,6.70337288 17.0831911,6.34708475 C17.8226866,5.99145763 18.7416902,5.81364407 19.8382508,5.81364407 C22.7806233,5.81364407 24.2524599,7.4179322 24.2524599,10.6271695 L24.2524599,19.2461695 L23.0837058,19.2468305 L23.0837058,19.2468305 Z" id="Shape"></path>
                    <path d="M33.6883442,19.4887627 C31.8041591,19.4887627 30.3349241,18.8991356 29.2819397,17.7198814 C28.2263538,16.5393051 27.7001869,14.8867627 27.7001869,12.7615932 C27.7001869,10.6588983 28.2094436,8.97661017 29.2273068,7.71142373 C30.2445196,6.44623729 31.6168463,5.81364407 33.3423357,5.81364407 C34.8694557,5.81364407 36.0739813,6.35567797 36.956563,7.43842373 C37.8391447,8.52116949 38.2814111,9.99259322 38.2814111,11.8507119 L38.2814111,12.8210847 L28.9417848,12.8210847 C28.9567438,14.6309492 29.3723442,16.0131356 30.1879355,16.966322 C31.0035268,17.9201695 32.1703297,18.3974237 33.6889946,18.3974237 C34.4284901,18.3974237 35.0788819,18.3445424 35.6395196,18.2401017 C36.2001573,18.135 36.9097348,17.9082712 37.7689024,17.5612373 L37.7689024,18.6519153 C37.0372116,18.9751525 36.3608041,19.1959322 35.7403303,19.3129322 C35.1198565,19.4312542 34.4356444,19.4887627 33.6883442,19.4887627 L33.6883442,19.4887627 Z M33.3423357,6.88118644 C32.0935835,6.88118644 31.0926305,7.29894915 30.3368752,8.13513559 C29.58112,8.97198305 29.1401543,10.177678 29.0133279,11.7542034 L37.0294069,11.7542034 C37.0294069,10.2259322 36.7029102,9.03213559 36.0512176,8.17215254 C35.3975738,7.31084746 34.4954804,6.88118644 33.3423357,6.88118644 L33.3423357,6.88118644 Z" id="Shape"></path>
                    <path d="M47.0968216,19.4887627 C45.2126365,19.4887627 43.7421007,18.8991356 42.6891163,17.7198814 C41.6354816,16.5393051 41.1080139,14.8867627 41.1080139,12.7615932 C41.1080139,10.6588983 41.6172706,8.97661017 42.6351338,7.71142373 C43.652997,6.44623729 45.0253237,5.81364407 46.7514635,5.81364407 C48.2785835,5.81364407 49.4831091,6.35567797 50.3663412,7.43842373 C51.2482725,8.52116949 51.6898885,9.99259322 51.6898885,11.8507119 L51.6898885,12.8210847 L42.3489614,12.8210847 C42.3639204,14.6309492 42.7801712,16.0131356 43.5951121,16.966322 C44.4113538,17.9201695 45.5781567,18.3974237 47.097472,18.3974237 C47.8369675,18.3974237 48.4873593,18.3445424 49.0473466,18.2401017 C49.6079843,18.135 50.3175618,17.9082712 51.176079,17.5612373 L51.176079,18.6519153 C50.4450386,18.9751525 49.7699319,19.1959322 49.1494581,19.3129322 C48.5276835,19.4312542 47.8441218,19.4887627 47.0968216,19.4887627 L47.0968216,19.4887627 Z M46.7508131,6.88118644 C45.5020609,6.88118644 44.5004575,7.29894915 43.7453526,8.13513559 C42.988947,8.97198305 42.5479813,10.177678 42.4211549,11.7542034 L50.4359331,11.7542034 C50.4359331,10.2259322 50.1113876,9.03213559 49.4583942,8.17215254 C48.8060512,7.31084746 47.9039578,6.88118644 46.7508131,6.88118644 L46.7508131,6.88118644 Z" id="Shape"></path>
                    <path d="M53.096686,6.06879661 L54.313569,6.06879661 L57.6643876,15.0282203 C58.1112068,16.1757458 58.4442074,17.1778475 58.6679421,18.0351864 L58.7381844,18.0351864 C59.0659819,16.9352542 59.3989825,15.9258814 59.7404382,15.0037627 L63.0925576,6.06879661 L64.3094406,6.06879661 L59.2994726,19.2468305 L58.1060036,19.2468305 L53.096686,6.06879661 Z" id="Shape"></path>
                    <path d="M74.3534412,19.2468305 L74.0555618,17.161322 L73.9606046,17.161322 C73.308912,18.0107288 72.6377077,18.6102712 71.9502435,18.9632542 C71.2627794,19.3142542 70.4491392,19.4894237 69.5112743,19.4894237 C68.2378071,19.4894237 67.2485612,19.1582542 66.5409349,18.4945932 C65.8333086,17.8322542 65.4794955,16.9154237 65.4794955,15.7427797 C65.4794955,14.4584237 66.0063128,13.4602881 67.0599476,12.7483729 C68.1129319,12.0371186 69.6387511,11.661 71.6354539,11.622 L74.1036908,11.5492881 L74.1036908,10.6760847 C74.1036908,9.42279661 73.8539403,8.47754237 73.3531386,7.839 C72.8523369,7.20111864 72.0438999,6.88184746 70.9304292,6.88184746 C69.7291555,6.88184746 68.4856064,7.22094915 67.1978306,7.89981356 L66.7562146,6.85738983 C68.1792719,6.17852542 69.5880205,5.83810169 70.9785582,5.83810169 C72.4016154,5.83810169 73.4656564,6.21355932 74.1693803,6.96645763 C74.8731043,7.7180339 75.2249662,8.89067797 75.2249662,10.4824068 L75.2249662,19.2474915 L74.3534412,19.2468305 L74.3534412,19.2468305 Z M69.5815166,18.3980847 C70.9655503,18.3980847 72.0575582,17.9961864 72.8568897,17.1923898 C73.6562212,16.3879322 74.0555618,15.2708136 74.0555618,13.8403729 L74.0555618,12.5434576 L71.7895967,12.6399661 C69.9678493,12.7285424 68.6703177,13.0174068 67.8950506,13.5065593 C67.1197836,13.9957119 66.7328005,14.7578644 66.7328005,15.7916949 C66.7328005,16.6159831 66.9805998,17.2578305 67.4774991,17.7145932 C67.9743984,18.1700339 68.6755208,18.3980847 69.5815166,18.3980847 L69.5815166,18.3980847 Z" id="Shape"></path>
                </g>
            </g>
        </g>
    </g>
</svg>