<?xml version="1.0" encoding="UTF-8" standalone="no"?>
<svg width="112px" height="87px" viewBox="0 0 112 87" version="1.1" xmlns="http://www.w3.org/2000/svg" xmlns:xlink="http://www.w3.org/1999/xlink" xmlns:sketch="http://www.bohemiancoding.com/sketch/ns">
    <!-- Generator: Sketch 3.2.2 (9983) - http://www.bohemiancoding.com/sketch -->
    <title>Imported Layers + Imported Layers</title>
    <desc>Created with Sketch.</desc>
    <defs></defs>
    <g id="Page-1" stroke="none" stroke-width="1" fill="none" fill-rule="evenodd" sketch:type="MSPage">
        <g id="Imported-Layers-+-Imported-Layers" sketch:type="MSLayerGroup">
            <path d="M7.44,4.48 C6.99199776,5.90934048 6.53866896,7.23199392 6.08,8.448 C5.62133104,9.66400608 5.16266896,10.8479942 4.704,12 L3.152,12 C2.58666384,10.3679918 2.08800216,8.6453424 1.656,6.832 C1.22399784,5.0186576 0.8213352,3.045344 0.448,0.912 L2.08,0.912 C2.22933408,1.74400416 2.3839992,2.57599584 2.544,3.408 C2.7040008,4.24000416 2.86933248,5.04799608 3.04,5.832 C3.21066752,6.61600392 3.38133248,7.36532976 3.552,8.08 C3.72266752,8.79467024 3.89866576,9.45599696 4.08,10.064 C4.5066688,8.9439944 4.9599976,7.71467336 5.44,6.376 C5.9200024,5.03732664 6.36799792,3.65334048 6.784,2.224 L8.128,2.224 C8.54400208,3.65334048 8.99733088,5.03732664 9.488,6.376 C9.97866912,7.71467336 10.4373312,8.9439944 10.864,10.064 C11.0346675,9.46666368 11.2053325,8.81067024 11.376,8.096 C11.5466675,7.38132976 11.7146658,6.63200392 11.88,5.848 C12.0453342,5.06399608 12.2079992,4.25333752 12.368,3.416 C12.5280008,2.57866248 12.6826659,1.74400416 12.832,0.912 L14.416,0.912 C14.0319981,3.045344 13.6240022,5.0186576 13.192,6.832 C12.7599978,8.6453424 12.2666694,10.3679918 11.712,12 L10.16,12 C9.69066432,10.8479942 9.23200224,9.66400608 8.784,8.448 C8.33599776,7.23199392 7.88800224,5.90934048 7.44,4.48 L7.44,4.48 Z M14.8,7.856 C14.8,7.11999632 14.9066656,6.47733608 15.12,5.928 C15.3333344,5.37866392 15.6159982,4.92266848 15.968,4.56 C16.3200018,4.19733152 16.725331,3.92533424 17.184,3.744 C17.642669,3.56266576 18.1119976,3.472 18.592,3.472 C19.7120056,3.472 20.5706637,3.82132984 21.168,4.52 C21.7653363,5.21867016 22.064,6.28265952 22.064,7.712 L22.064,7.96 C22.064,8.06133384 22.0586667,8.15466624 22.048,8.24 L16.352,8.24 C16.4160003,9.10400432 16.6666645,9.75999776 17.104,10.208 C17.5413355,10.6560022 18.2239954,10.88 19.152,10.88 C19.6746693,10.88 20.1146649,10.8346671 20.472,10.744 C20.8293351,10.6533329 21.0986658,10.5653338 21.28,10.48 L21.488,11.728 C21.3066658,11.8240005 20.9893356,11.9253328 20.536,12.032 C20.0826644,12.1386672 19.5680029,12.192 18.992,12.192 C18.266663,12.192 17.6400026,12.0826678 17.112,11.864 C16.5839974,11.6453322 16.149335,11.3440019 15.808,10.96 C15.466665,10.5759981 15.2133342,10.1200026 15.048,9.592 C14.8826658,9.06399736 14.8,8.48533648 14.8,7.856 L14.8,7.856 Z M20.512,7.04 C20.5226667,6.36799664 20.3546684,5.81600216 20.008,5.384 C19.6613316,4.95199784 19.184003,4.736 18.576,4.736 C18.234665,4.736 17.9333346,4.802666 17.672,4.936 C17.4106654,5.069334 17.1893342,5.2426656 17.008,5.456 C16.8266658,5.6693344 16.6853338,5.91466528 16.584,6.192 C16.4826662,6.46933472 16.4160002,6.75199856 16.384,7.04 L20.512,7.04 Z M31.184,0.912 L31.184,2.256 L27.696,2.256 L27.696,12 L26.144,12 L26.144,2.256 L22.656,2.256 L22.656,0.912 L31.184,0.912 Z M33.68,12 L32.192,12 L32.192,3.68 L33.68,3.68 L33.68,12 Z M32.928,2.176 C32.661332,2.176 32.4346676,2.08800088 32.248,1.912 C32.0613324,1.73599912 31.968,1.49866816 31.968,1.2 C31.968,0.90133184 32.0613324,0.66400088 32.248,0.488 C32.4346676,0.31199912 32.661332,0.224 32.928,0.224 C33.194668,0.224 33.4213324,0.31199912 33.608,0.488 C33.7946676,0.66400088 33.888,0.90133184 33.888,1.2 C33.888,1.49866816 33.7946676,1.73599912 33.608,1.912 C33.4213324,2.08800088 33.194668,2.176 32.928,2.176 L32.928,2.176 Z M41.488,7.856 C41.488,6.88532848 41.2480024,6.13866928 40.768,5.616 C40.2879976,5.09333072 39.648004,4.832 38.848,4.832 C38.3999978,4.832 38.0506679,4.84799984 37.8,4.88 C37.5493321,4.91200016 37.3493341,4.94933312 37.2,4.992 L37.2,10.24 C37.3813343,10.3893341 37.642665,10.5333326 37.984,10.672 C38.3253351,10.8106674 38.6986647,10.88 39.104,10.88 C39.5306688,10.88 39.8959985,10.8026674 40.2,10.648 C40.5040015,10.4933326 40.7519991,10.2800014 40.944,10.008 C41.136001,9.73599864 41.2746663,9.41600184 41.36,9.048 C41.4453338,8.67999816 41.488,8.2826688 41.488,7.856 L41.488,7.856 Z M43.04,7.856 C43.04,8.48533648 42.9573342,9.066664 42.792,9.6 C42.6266659,10.133336 42.3840016,10.5919981 42.064,10.976 C41.7439984,11.3600019 41.3520023,11.6586656 40.888,11.872 C40.4239977,12.0853344 39.8933363,12.192 39.296,12.192 C38.8159976,12.192 38.3920019,12.1280006 38.024,12 C37.6559982,11.8719994 37.3813343,11.7493339 37.2,11.632 L37.2,14.96 L35.712,14.96 L35.712,3.936 C36.0640018,3.85066624 36.5039974,3.75733384 37.032,3.656 C37.5600027,3.55466616 38.1706632,3.504 38.864,3.504 C39.5040032,3.504 40.0799975,3.60533232 40.592,3.808 C41.1040026,4.01066768 41.5413315,4.2986648 41.904,4.672 C42.2666685,5.0453352 42.5466657,5.50133064 42.744,6.04 C42.9413343,6.57866936 43.04,7.18399664 43.04,7.856 L43.04,7.856 Z M49.472,12.24 C48.6933295,12.24 47.9840032,12.1120013 47.344,11.856 C46.7039968,11.5999987 46.154669,11.2266691 45.696,10.736 C45.2373311,10.2453309 44.8826679,9.6400036 44.632,8.92 C44.3813321,8.1999964 44.256,7.37600464 44.256,6.448 C44.256,5.51999536 44.3973319,4.6960036 44.68,3.976 C44.9626681,3.2559964 45.3439976,2.65066912 45.824,2.16 C46.3040024,1.66933088 46.8639968,1.29600128 47.504,1.04 C48.1440032,0.78399872 48.8266631,0.656 49.552,0.656 C50.010669,0.656 50.4239982,0.68799968 50.792,0.752 C51.1600019,0.81600032 51.4799987,0.89066624 51.752,0.976 C52.0240014,1.06133376 52.2453325,1.14666624 52.416,1.232 C52.5866675,1.31733376 52.7039997,1.38133312 52.768,1.424 L52.32,2.704 C52.2239995,2.63999968 52.0853343,2.57066704 51.904,2.496 C51.7226658,2.42133296 51.5173345,2.34666704 51.288,2.272 C51.0586655,2.19733296 50.8080014,2.13600024 50.536,2.088 C50.2639987,2.03999976 49.9893347,2.016 49.712,2.016 C49.1253304,2.016 48.5973357,2.11733232 48.128,2.32 C47.6586643,2.52266768 47.2586683,2.81599808 46.928,3.2 C46.5973317,3.58400192 46.3440009,4.05066392 46.168,4.6 C45.9919991,5.14933608 45.904,5.76532992 45.904,6.448 C45.904,7.10933664 45.9813326,7.71199728 46.136,8.256 C46.2906675,8.80000272 46.5226651,9.26666472 46.832,9.656 C47.1413349,10.0453353 47.5279977,10.3466656 47.992,10.56 C48.4560023,10.7733344 48.9973303,10.88 49.616,10.88 C50.3306703,10.88 50.9226643,10.8053341 51.392,10.656 C51.8613357,10.5066659 52.2133322,10.3733339 52.448,10.256 L52.848,11.536 C52.773333,11.5893336 52.640001,11.6559996 52.448,11.736 C52.2559991,11.8160004 52.0160015,11.893333 51.728,11.968 C51.4399986,12.042667 51.1040019,12.1066664 50.72,12.16 C50.3359981,12.2133336 49.9200023,12.24 49.472,12.24 L49.472,12.24 Z M61.104,7.84 C61.104,8.50133664 61.008001,9.098664 60.816,9.632 C60.6239991,10.165336 60.3546684,10.6239981 60.008,11.008 C59.6613316,11.3920019 59.2480024,11.687999 58.768,11.896 C58.2879976,12.104001 57.7653362,12.208 57.2,12.208 C56.6346639,12.208 56.1120024,12.104001 55.632,11.896 C55.1519976,11.687999 54.7386684,11.3920019 54.392,11.008 C54.0453316,10.6239981 53.776001,10.165336 53.584,9.632 C53.3919991,9.098664 53.296,8.50133664 53.296,7.84 C53.296,7.18933008 53.3919991,6.59466936 53.584,6.056 C53.776001,5.51733064 54.0453316,5.05600192 54.392,4.672 C54.7386684,4.28799808 55.1519976,3.99200104 55.632,3.784 C56.1120024,3.57599896 56.6346639,3.472 57.2,3.472 C57.7653362,3.472 58.2879976,3.57599896 58.768,3.784 C59.2480024,3.99200104 59.6613316,4.28799808 60.008,4.672 C60.3546684,5.05600192 60.6239991,5.51733064 60.816,6.056 C61.008001,6.59466936 61.104,7.18933008 61.104,7.84 L61.104,7.84 Z M59.552,7.84 C59.552,6.90132864 59.3413355,6.15733608 58.92,5.608 C58.4986646,5.05866392 57.925337,4.784 57.2,4.784 C56.4746631,4.784 55.9013355,5.05866392 55.48,5.608 C55.0586646,6.15733608 54.848,6.90132864 54.848,7.84 C54.848,8.77867136 55.0586646,9.52266392 55.48,10.072 C55.9013355,10.6213361 56.4746631,10.896 57.2,10.896 C57.925337,10.896 58.4986646,10.6213361 58.92,10.072 C59.3413355,9.52266392 59.552,8.77867136 59.552,7.84 L59.552,7.84 Z M64.16,12 L62.672,12 L62.672,3.68 L64.16,3.68 L64.16,12 Z M63.408,2.176 C63.141332,2.176 62.9146676,2.08800088 62.728,1.912 C62.5413324,1.73599912 62.448,1.49866816 62.448,1.2 C62.448,0.90133184 62.5413324,0.66400088 62.728,0.488 C62.9146676,0.31199912 63.141332,0.224 63.408,0.224 C63.674668,0.224 63.9013324,0.31199912 64.088,0.488 C64.2746676,0.66400088 64.368,0.90133184 64.368,1.2 C64.368,1.49866816 64.2746676,1.73599912 64.088,1.912 C63.9013324,2.08800088 63.674668,2.176 63.408,2.176 L63.408,2.176 Z M66.192,3.92 C66.5333351,3.83466624 66.9866639,3.74400048 67.552,3.648 C68.1173362,3.55199952 68.7679963,3.504 69.504,3.504 C70.1653367,3.504 70.7146645,3.5973324 71.152,3.784 C71.5893355,3.9706676 71.9386654,4.23199832 72.2,4.568 C72.4613347,4.90400168 72.6453328,5.30666432 72.752,5.776 C72.8586672,6.24533568 72.912,6.76266384 72.912,7.328 L72.912,12 L71.424,12 L71.424,7.648 C71.424,7.13599744 71.3893337,6.69866848 71.32,6.336 C71.2506663,5.97333152 71.1360008,5.68000112 70.976,5.456 C70.8159992,5.23199888 70.602668,5.06933384 70.336,4.968 C70.069332,4.86666616 69.7386687,4.816 69.344,4.816 C69.1839992,4.816 69.0186675,4.82133328 68.848,4.832 C68.6773325,4.84266672 68.5146675,4.85599992 68.36,4.872 C68.2053326,4.88800008 68.0666673,4.90666656 67.944,4.928 C67.8213327,4.94933344 67.7333336,4.96533328 67.68,4.976 L67.68,12 L66.192,12 L66.192,3.92 Z M76.784,10.928 C77.3920031,10.928 77.8426652,10.8480008 78.136,10.688 C78.4293348,10.5279992 78.576,10.2720018 78.576,9.92 C78.576,9.55733152 78.4320015,9.2693344 78.144,9.056 C77.8559986,8.8426656 77.3813367,8.602668 76.72,8.336 C76.3999984,8.20799936 76.0933348,8.077334 75.8,7.944 C75.5066652,7.810666 75.2533344,7.65333424 75.04,7.472 C74.8266656,7.29066576 74.6560007,7.07200128 74.528,6.816 C74.3999994,6.55999872 74.336,6.2453352 74.336,5.872 C74.336,5.13599632 74.6079973,4.55200216 75.152,4.12 C75.6960027,3.68799784 76.4373287,3.472 77.376,3.472 C77.6106679,3.472 77.8453322,3.4853332 78.08,3.512 C78.3146679,3.5386668 78.5333323,3.57066648 78.736,3.608 C78.9386677,3.64533352 79.1173326,3.68533312 79.272,3.728 C79.4266675,3.77066688 79.5466663,3.80799984 79.632,3.84 L79.36,5.12 C79.1999992,5.03466624 78.9493351,4.94666712 78.608,4.856 C78.266665,4.76533288 77.8560024,4.72 77.376,4.72 C76.9599979,4.72 76.5973349,4.80266584 76.288,4.968 C75.9786651,5.13333416 75.824,5.39199824 75.824,5.744 C75.824,5.92533424 75.8586663,6.08533264 75.928,6.224 C75.9973337,6.36266736 76.1039993,6.48799944 76.248,6.6 C76.3920007,6.71200056 76.5706656,6.81599952 76.784,6.912 C76.9973344,7.00800048 77.2533319,7.1093328 77.552,7.216 C77.9466687,7.36533408 78.2986651,7.51199928 78.608,7.656 C78.9173349,7.80000072 79.1813323,7.96799904 79.4,8.16 C79.6186678,8.35200096 79.7866661,8.58399864 79.904,8.856 C80.0213339,9.12800136 80.08,9.46133136 80.08,9.856 C80.08,10.6240038 79.7946695,11.2053314 79.224,11.6 C78.6533305,11.9946686 77.8400053,12.192 76.784,12.192 C76.0479963,12.192 75.4720021,12.1306673 75.056,12.008 C74.6399979,11.8853327 74.3573341,11.7920003 74.208,11.728 L74.48,10.448 C74.6506675,10.5120003 74.9226648,10.6079994 75.296,10.736 C75.6693352,10.8640006 76.1653303,10.928 76.784,10.928 L76.784,10.928 Z M83.216,11.136 C83.216,11.4240014 83.120001,11.6746656 82.928,11.888 C82.7359991,12.1013344 82.4746683,12.208 82.144,12.208 C81.8133317,12.208 81.552001,12.1013344 81.36,11.888 C81.1679991,11.6746656 81.072,11.4240014 81.072,11.136 C81.072,10.8479986 81.1679991,10.5973344 81.36,10.384 C81.552001,10.1706656 81.8133317,10.064 82.144,10.064 C82.4746683,10.064 82.7359991,10.1706656 82.928,10.384 C83.120001,10.5973344 83.216,10.8479986 83.216,11.136 L83.216,11.136 Z M88.48,12.192 C87.8079967,12.192 87.2186692,12.0853344 86.712,11.872 C86.2053308,11.6586656 85.7786684,11.3600019 85.432,10.976 C85.0853316,10.5919981 84.8266676,10.1360026 84.656,9.608 C84.4853325,9.07999736 84.4,8.4960032 84.4,7.856 C84.4,7.2159968 84.4933324,6.629336 84.68,6.096 C84.8666676,5.562664 85.130665,5.10133528 85.472,4.712 C85.8133351,4.32266472 86.2319976,4.01866776 86.728,3.8 C87.2240025,3.58133224 87.775997,3.472 88.384,3.472 C88.7573352,3.472 89.1306648,3.50399968 89.504,3.568 C89.8773352,3.63200032 90.234665,3.73333264 90.576,3.872 L90.24,5.136 C90.0159989,5.0293328 89.7573348,4.94400032 89.464,4.88 C89.1706652,4.81599968 88.8586684,4.784 88.528,4.784 C87.6959959,4.784 87.0586689,5.04533072 86.616,5.568 C86.1733312,6.09066928 85.952,6.85332832 85.952,7.856 C85.952,8.30400224 86.0026662,8.7146648 86.104,9.088 C86.2053339,9.4613352 86.3653323,9.781332 86.584,10.048 C86.8026678,10.314668 87.082665,10.5199993 87.424,10.664 C87.7653351,10.8080007 88.1813309,10.88 88.672,10.88 C89.0666687,10.88 89.4239984,10.842667 89.744,10.768 C90.0640016,10.693333 90.3146658,10.6133338 90.496,10.528 L90.704,11.776 C90.6186663,11.8293336 90.4960008,11.8799998 90.336,11.928 C90.1759992,11.9760002 89.9946677,12.0186665 89.792,12.056 C89.5893324,12.0933335 89.3733345,12.1253332 89.144,12.152 C88.9146656,12.1786668 88.6933344,12.192 88.48,12.192 L88.48,12.192 Z M98.912,7.84 C98.912,8.50133664 98.816001,9.098664 98.624,9.632 C98.4319991,10.165336 98.1626684,10.6239981 97.816,11.008 C97.4693316,11.3920019 97.0560024,11.687999 96.576,11.896 C96.0959976,12.104001 95.5733362,12.208 95.008,12.208 C94.4426639,12.208 93.9200024,12.104001 93.44,11.896 C92.9599976,11.687999 92.5466684,11.3920019 92.2,11.008 C91.8533316,10.6239981 91.584001,10.165336 91.392,9.632 C91.1999991,9.098664 91.104,8.50133664 91.104,7.84 C91.104,7.18933008 91.1999991,6.59466936 91.392,6.056 C91.584001,5.51733064 91.8533316,5.05600192 92.2,4.672 C92.5466684,4.28799808 92.9599976,3.99200104 93.44,3.784 C93.9200024,3.57599896 94.4426639,3.472 95.008,3.472 C95.5733362,3.472 96.0959976,3.57599896 96.576,3.784 C97.0560024,3.99200104 97.4693316,4.28799808 97.816,4.672 C98.1626684,5.05600192 98.4319991,5.51733064 98.624,6.056 C98.816001,6.59466936 98.912,7.18933008 98.912,7.84 L98.912,7.84 Z M97.36,7.84 C97.36,6.90132864 97.1493355,6.15733608 96.728,5.608 C96.3066646,5.05866392 95.733337,4.784 95.008,4.784 C94.2826631,4.784 93.7093355,5.05866392 93.288,5.608 C92.8666646,6.15733608 92.656,6.90132864 92.656,7.84 C92.656,8.77867136 92.8666646,9.52266392 93.288,10.072 C93.7093355,10.6213361 94.2826631,10.896 95.008,10.896 C95.733337,10.896 96.3066646,10.6213361 96.728,10.072 C97.1493355,9.52266392 97.36,8.77867136 97.36,7.84 L97.36,7.84 Z M100.48,3.92 C100.821335,3.83466624 101.271997,3.74400048 101.832,3.648 C102.392003,3.55199952 103.039996,3.504 103.776,3.504 C104.309336,3.504 104.757332,3.57599928 105.12,3.72 C105.482669,3.86400072 105.786665,4.07466528 106.032,4.352 C106.106667,4.2986664 106.223999,4.22400048 106.384,4.128 C106.544001,4.03199952 106.741332,3.93866712 106.976,3.848 C107.210668,3.75733288 107.471999,3.67733368 107.76,3.608 C108.048001,3.53866632 108.357332,3.504 108.688,3.504 C109.328003,3.504 109.850665,3.5973324 110.256,3.784 C110.661335,3.9706676 110.978666,4.23466496 111.208,4.576 C111.437335,4.91733504 111.592,5.32266432 111.672,5.792 C111.752,6.26133568 111.792,6.77333056 111.792,7.328 L111.792,12 L110.304,12 L110.304,7.648 C110.304,7.15733088 110.28,6.73600176 110.232,6.384 C110.184,6.03199824 110.093334,5.73866784 109.96,5.504 C109.826666,5.26933216 109.645335,5.09600056 109.416,4.984 C109.186666,4.87199944 108.890669,4.816 108.528,4.816 C108.026664,4.816 107.613335,4.882666 107.288,5.016 C106.962665,5.149334 106.741334,5.2693328 106.624,5.376 C106.709334,5.65333472 106.773333,5.95733168 106.816,6.288 C106.858667,6.61866832 106.88,6.96533152 106.88,7.328 L106.88,12 L105.392,12 L105.392,7.648 C105.392,7.15733088 105.365334,6.73600176 105.312,6.384 C105.258666,6.03199824 105.165334,5.73866784 105.032,5.504 C104.898666,5.26933216 104.717335,5.09600056 104.488,4.984 C104.258666,4.87199944 103.968002,4.816 103.616,4.816 C103.466666,4.816 103.306668,4.82133328 103.136,4.832 C102.965333,4.84266672 102.802667,4.85599992 102.648,4.872 C102.493333,4.88800008 102.352001,4.90666656 102.224,4.928 C102.095999,4.94933344 102.010667,4.96533328 101.968,4.976 L101.968,12 L100.48,12 L100.48,3.92 Z" id="Imported-Layers" fill="#6B6A65" sketch:type="MSShapeGroup"></path>
            <path d="M7.44,76.48 C6.99199776,77.9093405 6.53866896,79.2319939 6.08,80.448 C5.62133104,81.6640061 5.16266896,82.8479942 4.704,84 L3.152,84 C2.58666384,82.3679918 2.08800216,80.6453424 1.656,78.832 C1.22399784,77.0186576 0.8213352,75.045344 0.448,72.912 L2.08,72.912 C2.22933408,73.7440042 2.3839992,74.5759958 2.544,75.408 C2.7040008,76.2400042 2.86933248,77.0479961 3.04,77.832 C3.21066752,78.6160039 3.38133248,79.3653298 3.552,80.08 C3.72266752,80.7946702 3.89866576,81.455997 4.08,82.064 C4.5066688,80.9439944 4.9599976,79.7146734 5.44,78.376 C5.9200024,77.0373266 6.36799792,75.6533405 6.784,74.224 L8.128,74.224 C8.54400208,75.6533405 8.99733088,77.0373266 9.488,78.376 C9.97866912,79.7146734 10.4373312,80.9439944 10.864,82.064 C11.0346675,81.4666637 11.2053325,80.8106702 11.376,80.096 C11.5466675,79.3813298 11.7146658,78.6320039 11.88,77.848 C12.0453342,77.0639961 12.2079992,76.2533375 12.368,75.416 C12.5280008,74.5786625 12.6826659,73.7440042 12.832,72.912 L14.416,72.912 C14.0319981,75.045344 13.6240022,77.0186576 13.192,78.832 C12.7599978,80.6453424 12.2666694,82.3679918 11.712,84 L10.16,84 C9.69066432,82.8479942 9.23200224,81.6640061 8.784,80.448 C8.33599776,79.2319939 7.88800224,77.9093405 7.44,76.48 L7.44,76.48 Z M14.8,79.856 C14.8,79.1199963 14.9066656,78.4773361 15.12,77.928 C15.3333344,77.3786639 15.6159982,76.9226685 15.968,76.56 C16.3200018,76.1973315 16.725331,75.9253342 17.184,75.744 C17.642669,75.5626658 18.1119976,75.472 18.592,75.472 C19.7120056,75.472 20.5706637,75.8213298 21.168,76.52 C21.7653363,77.2186702 22.064,78.2826595 22.064,79.712 L22.064,79.96 C22.064,80.0613338 22.0586667,80.1546662 22.048,80.24 L16.352,80.24 C16.4160003,81.1040043 16.6666645,81.7599978 17.104,82.208 C17.5413355,82.6560022 18.2239954,82.88 19.152,82.88 C19.6746693,82.88 20.1146649,82.8346671 20.472,82.744 C20.8293351,82.6533329 21.0986658,82.5653338 21.28,82.48 L21.488,83.728 C21.3066658,83.8240005 20.9893356,83.9253328 20.536,84.032 C20.0826644,84.1386672 19.5680029,84.192 18.992,84.192 C18.266663,84.192 17.6400026,84.0826678 17.112,83.864 C16.5839974,83.6453322 16.149335,83.3440019 15.808,82.96 C15.466665,82.5759981 15.2133342,82.1200026 15.048,81.592 C14.8826658,81.0639974 14.8,80.4853365 14.8,79.856 L14.8,79.856 Z M20.512,79.04 C20.5226667,78.3679966 20.3546684,77.8160022 20.008,77.384 C19.6613316,76.9519978 19.184003,76.736 18.576,76.736 C18.234665,76.736 17.9333346,76.802666 17.672,76.936 C17.4106654,77.069334 17.1893342,77.2426656 17.008,77.456 C16.8266658,77.6693344 16.6853338,77.9146653 16.584,78.192 C16.4826662,78.4693347 16.4160002,78.7519986 16.384,79.04 L20.512,79.04 Z M31.184,72.912 L31.184,74.256 L27.696,74.256 L27.696,84 L26.144,84 L26.144,74.256 L22.656,74.256 L22.656,72.912 L31.184,72.912 Z M33.68,84 L32.192,84 L32.192,75.68 L33.68,75.68 L33.68,84 Z M32.928,74.176 C32.661332,74.176 32.4346676,74.0880009 32.248,73.912 C32.0613324,73.7359991 31.968,73.4986682 31.968,73.2 C31.968,72.9013318 32.0613324,72.6640009 32.248,72.488 C32.4346676,72.3119991 32.661332,72.224 32.928,72.224 C33.194668,72.224 33.4213324,72.3119991 33.608,72.488 C33.7946676,72.6640009 33.888,72.9013318 33.888,73.2 C33.888,73.4986682 33.7946676,73.7359991 33.608,73.912 C33.4213324,74.0880009 33.194668,74.176 32.928,74.176 L32.928,74.176 Z M41.488,79.856 C41.488,78.8853285 41.2480024,78.1386693 40.768,77.616 C40.2879976,77.0933307 39.648004,76.832 38.848,76.832 C38.3999978,76.832 38.0506679,76.8479998 37.8,76.88 C37.5493321,76.9120002 37.3493341,76.9493331 37.2,76.992 L37.2,82.24 C37.3813343,82.3893341 37.642665,82.5333326 37.984,82.672 C38.3253351,82.8106674 38.6986647,82.88 39.104,82.88 C39.5306688,82.88 39.8959985,82.8026674 40.2,82.648 C40.5040015,82.4933326 40.7519991,82.2800014 40.944,82.008 C41.136001,81.7359986 41.2746663,81.4160018 41.36,81.048 C41.4453338,80.6799982 41.488,80.2826688 41.488,79.856 L41.488,79.856 Z M43.04,79.856 C43.04,80.4853365 42.9573342,81.066664 42.792,81.6 C42.6266659,82.133336 42.3840016,82.5919981 42.064,82.976 C41.7439984,83.3600019 41.3520023,83.6586656 40.888,83.872 C40.4239977,84.0853344 39.8933363,84.192 39.296,84.192 C38.8159976,84.192 38.3920019,84.1280006 38.024,84 C37.6559982,83.8719994 37.3813343,83.7493339 37.2,83.632 L37.2,86.96 L35.712,86.96 L35.712,75.936 C36.0640018,75.8506662 36.5039974,75.7573338 37.032,75.656 C37.5600027,75.5546662 38.1706632,75.504 38.864,75.504 C39.5040032,75.504 40.0799975,75.6053323 40.592,75.808 C41.1040026,76.0106677 41.5413315,76.2986648 41.904,76.672 C42.2666685,77.0453352 42.5466657,77.5013306 42.744,78.04 C42.9413343,78.5786694 43.04,79.1839966 43.04,79.856 L43.04,79.856 Z M49.472,84.24 C48.6933295,84.24 47.9840032,84.1120013 47.344,83.856 C46.7039968,83.5999987 46.154669,83.2266691 45.696,82.736 C45.2373311,82.2453309 44.8826679,81.6400036 44.632,80.92 C44.3813321,80.1999964 44.256,79.3760046 44.256,78.448 C44.256,77.5199954 44.3973319,76.6960036 44.68,75.976 C44.9626681,75.2559964 45.3439976,74.6506691 45.824,74.16 C46.3040024,73.6693309 46.8639968,73.2960013 47.504,73.04 C48.1440032,72.7839987 48.8266631,72.656 49.552,72.656 C50.010669,72.656 50.4239982,72.6879997 50.792,72.752 C51.1600019,72.8160003 51.4799987,72.8906662 51.752,72.976 C52.0240014,73.0613338 52.2453325,73.1466662 52.416,73.232 C52.5866675,73.3173338 52.7039997,73.3813331 52.768,73.424 L52.32,74.704 C52.2239995,74.6399997 52.0853343,74.570667 51.904,74.496 C51.7226658,74.421333 51.5173345,74.346667 51.288,74.272 C51.0586655,74.197333 50.8080014,74.1360002 50.536,74.088 C50.2639987,74.0399998 49.9893347,74.016 49.712,74.016 C49.1253304,74.016 48.5973357,74.1173323 48.128,74.32 C47.6586643,74.5226677 47.2586683,74.8159981 46.928,75.2 C46.5973317,75.5840019 46.3440009,76.0506639 46.168,76.6 C45.9919991,77.1493361 45.904,77.7653299 45.904,78.448 C45.904,79.1093366 45.9813326,79.7119973 46.136,80.256 C46.2906675,80.8000027 46.5226651,81.2666647 46.832,81.656 C47.1413349,82.0453353 47.5279977,82.3466656 47.992,82.56 C48.4560023,82.7733344 48.9973303,82.88 49.616,82.88 C50.3306703,82.88 50.9226643,82.8053341 51.392,82.656 C51.8613357,82.5066659 52.2133322,82.3733339 52.448,82.256 L52.848,83.536 C52.773333,83.5893336 52.640001,83.6559996 52.448,83.736 C52.2559991,83.8160004 52.0160015,83.893333 51.728,83.968 C51.4399986,84.042667 51.1040019,84.1066664 50.72,84.16 C50.3359981,84.2133336 49.9200023,84.24 49.472,84.24 L49.472,84.24 Z M61.104,79.84 C61.104,80.5013366 61.008001,81.098664 60.816,81.632 C60.6239991,82.165336 60.3546684,82.6239981 60.008,83.008 C59.6613316,83.3920019 59.2480024,83.687999 58.768,83.896 C58.2879976,84.104001 57.7653362,84.208 57.2,84.208 C56.6346639,84.208 56.1120024,84.104001 55.632,83.896 C55.1519976,83.687999 54.7386684,83.3920019 54.392,83.008 C54.0453316,82.6239981 53.776001,82.165336 53.584,81.632 C53.3919991,81.098664 53.296,80.5013366 53.296,79.84 C53.296,79.1893301 53.3919991,78.5946694 53.584,78.056 C53.776001,77.5173306 54.0453316,77.0560019 54.392,76.672 C54.7386684,76.2879981 55.1519976,75.992001 55.632,75.784 C56.1120024,75.575999 56.6346639,75.472 57.2,75.472 C57.7653362,75.472 58.2879976,75.575999 58.768,75.784 C59.2480024,75.992001 59.6613316,76.2879981 60.008,76.672 C60.3546684,77.0560019 60.6239991,77.5173306 60.816,78.056 C61.008001,78.5946694 61.104,79.1893301 61.104,79.84 L61.104,79.84 Z M59.552,79.84 C59.552,78.9013286 59.3413355,78.1573361 58.92,77.608 C58.4986646,77.0586639 57.925337,76.784 57.2,76.784 C56.4746631,76.784 55.9013355,77.0586639 55.48,77.608 C55.0586646,78.1573361 54.848,78.9013286 54.848,79.84 C54.848,80.7786714 55.0586646,81.5226639 55.48,82.072 C55.9013355,82.6213361 56.4746631,82.896 57.2,82.896 C57.925337,82.896 58.4986646,82.6213361 58.92,82.072 C59.3413355,81.5226639 59.552,80.7786714 59.552,79.84 L59.552,79.84 Z M64.16,84 L62.672,84 L62.672,75.68 L64.16,75.68 L64.16,84 Z M63.408,74.176 C63.141332,74.176 62.9146676,74.0880009 62.728,73.912 C62.5413324,73.7359991 62.448,73.4986682 62.448,73.2 C62.448,72.9013318 62.5413324,72.6640009 62.728,72.488 C62.9146676,72.3119991 63.141332,72.224 63.408,72.224 C63.674668,72.224 63.9013324,72.3119991 64.088,72.488 C64.2746676,72.6640009 64.368,72.9013318 64.368,73.2 C64.368,73.4986682 64.2746676,73.7359991 64.088,73.912 C63.9013324,74.0880009 63.674668,74.176 63.408,74.176 L63.408,74.176 Z M66.192,75.92 C66.5333351,75.8346662 66.9866639,75.7440005 67.552,75.648 C68.1173362,75.5519995 68.7679963,75.504 69.504,75.504 C70.1653367,75.504 70.7146645,75.5973324 71.152,75.784 C71.5893355,75.9706676 71.9386654,76.2319983 72.2,76.568 C72.4613347,76.9040017 72.6453328,77.3066643 72.752,77.776 C72.8586672,78.2453357 72.912,78.7626638 72.912,79.328 L72.912,84 L71.424,84 L71.424,79.648 C71.424,79.1359974 71.3893337,78.6986685 71.32,78.336 C71.2506663,77.9733315 71.1360008,77.6800011 70.976,77.456 C70.8159992,77.2319989 70.602668,77.0693338 70.336,76.968 C70.069332,76.8666662 69.7386687,76.816 69.344,76.816 C69.1839992,76.816 69.0186675,76.8213333 68.848,76.832 C68.6773325,76.8426667 68.5146675,76.8559999 68.36,76.872 C68.2053326,76.8880001 68.0666673,76.9066666 67.944,76.928 C67.8213327,76.9493334 67.7333336,76.9653333 67.68,76.976 L67.68,84 L66.192,84 L66.192,75.92 Z M76.784,82.928 C77.3920031,82.928 77.8426652,82.8480008 78.136,82.688 C78.4293348,82.5279992 78.576,82.2720018 78.576,81.92 C78.576,81.5573315 78.4320015,81.2693344 78.144,81.056 C77.8559986,80.8426656 77.3813367,80.602668 76.72,80.336 C76.3999984,80.2079994 76.0933348,80.077334 75.8,79.944 C75.5066652,79.810666 75.2533344,79.6533342 75.04,79.472 C74.8266656,79.2906658 74.6560007,79.0720013 74.528,78.816 C74.3999994,78.5599987 74.336,78.2453352 74.336,77.872 C74.336,77.1359963 74.6079973,76.5520022 75.152,76.12 C75.6960027,75.6879978 76.4373287,75.472 77.376,75.472 C77.6106679,75.472 77.8453322,75.4853332 78.08,75.512 C78.3146679,75.5386668 78.5333323,75.5706665 78.736,75.608 C78.9386677,75.6453335 79.1173326,75.6853331 79.272,75.728 C79.4266675,75.7706669 79.5466663,75.8079998 79.632,75.84 L79.36,77.12 C79.1999992,77.0346662 78.9493351,76.9466671 78.608,76.856 C78.266665,76.7653329 77.8560024,76.72 77.376,76.72 C76.9599979,76.72 76.5973349,76.8026658 76.288,76.968 C75.9786651,77.1333342 75.824,77.3919982 75.824,77.744 C75.824,77.9253342 75.8586663,78.0853326 75.928,78.224 C75.9973337,78.3626674 76.1039993,78.4879994 76.248,78.6 C76.3920007,78.7120006 76.5706656,78.8159995 76.784,78.912 C76.9973344,79.0080005 77.2533319,79.1093328 77.552,79.216 C77.9466687,79.3653341 78.2986651,79.5119993 78.608,79.656 C78.9173349,79.8000007 79.1813323,79.967999 79.4,80.16 C79.6186678,80.352001 79.7866661,80.5839986 79.904,80.856 C80.0213339,81.1280014 80.08,81.4613314 80.08,81.856 C80.08,82.6240038 79.7946695,83.2053314 79.224,83.6 C78.6533305,83.9946686 77.8400053,84.192 76.784,84.192 C76.0479963,84.192 75.4720021,84.1306673 75.056,84.008 C74.6399979,83.8853327 74.3573341,83.7920003 74.208,83.728 L74.48,82.448 C74.6506675,82.5120003 74.9226648,82.6079994 75.296,82.736 C75.6693352,82.8640006 76.1653303,82.928 76.784,82.928 L76.784,82.928 Z M83.216,83.136 C83.216,83.4240014 83.120001,83.6746656 82.928,83.888 C82.7359991,84.1013344 82.4746683,84.208 82.144,84.208 C81.8133317,84.208 81.552001,84.1013344 81.36,83.888 C81.1679991,83.6746656 81.072,83.4240014 81.072,83.136 C81.072,82.8479986 81.1679991,82.5973344 81.36,82.384 C81.552001,82.1706656 81.8133317,82.064 82.144,82.064 C82.4746683,82.064 82.7359991,82.1706656 82.928,82.384 C83.120001,82.5973344 83.216,82.8479986 83.216,83.136 L83.216,83.136 Z M88.48,84.192 C87.8079967,84.192 87.2186692,84.0853344 86.712,83.872 C86.2053308,83.6586656 85.7786684,83.3600019 85.432,82.976 C85.0853316,82.5919981 84.8266676,82.1360026 84.656,81.608 C84.4853325,81.0799974 84.4,80.4960032 84.4,79.856 C84.4,79.2159968 84.4933324,78.629336 84.68,78.096 C84.8666676,77.562664 85.130665,77.1013353 85.472,76.712 C85.8133351,76.3226647 86.2319976,76.0186678 86.728,75.8 C87.2240025,75.5813322 87.775997,75.472 88.384,75.472 C88.7573352,75.472 89.1306648,75.5039997 89.504,75.568 C89.8773352,75.6320003 90.234665,75.7333326 90.576,75.872 L90.24,77.136 C90.0159989,77.0293328 89.7573348,76.9440003 89.464,76.88 C89.1706652,76.8159997 88.8586684,76.784 88.528,76.784 C87.6959959,76.784 87.0586689,77.0453307 86.616,77.568 C86.1733312,78.0906693 85.952,78.8533283 85.952,79.856 C85.952,80.3040022 86.0026662,80.7146648 86.104,81.088 C86.2053339,81.4613352 86.3653323,81.781332 86.584,82.048 C86.8026678,82.314668 87.082665,82.5199993 87.424,82.664 C87.7653351,82.8080007 88.1813309,82.88 88.672,82.88 C89.0666687,82.88 89.4239984,82.842667 89.744,82.768 C90.0640016,82.693333 90.3146658,82.6133338 90.496,82.528 L90.704,83.776 C90.6186663,83.8293336 90.4960008,83.8799998 90.336,83.928 C90.1759992,83.9760002 89.9946677,84.0186665 89.792,84.056 C89.5893324,84.0933335 89.3733345,84.1253332 89.144,84.152 C88.9146656,84.1786668 88.6933344,84.192 88.48,84.192 L88.48,84.192 Z M98.912,79.84 C98.912,80.5013366 98.816001,81.098664 98.624,81.632 C98.4319991,82.165336 98.1626684,82.6239981 97.816,83.008 C97.4693316,83.3920019 97.0560024,83.687999 96.576,83.896 C96.0959976,84.104001 95.5733362,84.208 95.008,84.208 C94.4426639,84.208 93.9200024,84.104001 93.44,83.896 C92.9599976,83.687999 92.5466684,83.3920019 92.2,83.008 C91.8533316,82.6239981 91.584001,82.165336 91.392,81.632 C91.1999991,81.098664 91.104,80.5013366 91.104,79.84 C91.104,79.1893301 91.1999991,78.5946694 91.392,78.056 C91.584001,77.5173306 91.8533316,77.0560019 92.2,76.672 C92.5466684,76.2879981 92.9599976,75.992001 93.44,75.784 C93.9200024,75.575999 94.4426639,75.472 95.008,75.472 C95.5733362,75.472 96.0959976,75.575999 96.576,75.784 C97.0560024,75.992001 97.4693316,76.2879981 97.816,76.672 C98.1626684,77.0560019 98.4319991,77.5173306 98.624,78.056 C98.816001,78.5946694 98.912,79.1893301 98.912,79.84 L98.912,79.84 Z M97.36,79.84 C97.36,78.9013286 97.1493355,78.1573361 96.728,77.608 C96.3066646,77.0586639 95.733337,76.784 95.008,76.784 C94.2826631,76.784 93.7093355,77.0586639 93.288,77.608 C92.8666646,78.1573361 92.656,78.9013286 92.656,79.84 C92.656,80.7786714 92.8666646,81.5226639 93.288,82.072 C93.7093355,82.6213361 94.2826631,82.896 95.008,82.896 C95.733337,82.896 96.3066646,82.6213361 96.728,82.072 C97.1493355,81.5226639 97.36,80.7786714 97.36,79.84 L97.36,79.84 Z M100.48,75.92 C100.821335,75.8346662 101.271997,75.7440005 101.832,75.648 C102.392003,75.5519995 103.039996,75.504 103.776,75.504 C104.309336,75.504 104.757332,75.5759993 105.12,75.72 C105.482669,75.8640007 105.786665,76.0746653 106.032,76.352 C106.106667,76.2986664 106.223999,76.2240005 106.384,76.128 C106.544001,76.0319995 106.741332,75.9386671 106.976,75.848 C107.210668,75.7573329 107.471999,75.6773337 107.76,75.608 C108.048001,75.5386663 108.357332,75.504 108.688,75.504 C109.328003,75.504 109.850665,75.5973324 110.256,75.784 C110.661335,75.9706676 110.978666,76.234665 111.208,76.576 C111.437335,76.917335 111.592,77.3226643 111.672,77.792 C111.752,78.2613357 111.792,78.7733306 111.792,79.328 L111.792,84 L110.304,84 L110.304,79.648 C110.304,79.1573309 110.28,78.7360018 110.232,78.384 C110.184,78.0319982 110.093334,77.7386678 109.96,77.504 C109.826666,77.2693322 109.645335,77.0960006 109.416,76.984 C109.186666,76.8719994 108.890669,76.816 108.528,76.816 C108.026664,76.816 107.613335,76.882666 107.288,77.016 C106.962665,77.149334 106.741334,77.2693328 106.624,77.376 C106.709334,77.6533347 106.773333,77.9573317 106.816,78.288 C106.858667,78.6186683 106.88,78.9653315 106.88,79.328 L106.88,84 L105.392,84 L105.392,79.648 C105.392,79.1573309 105.365334,78.7360018 105.312,78.384 C105.258666,78.0319982 105.165334,77.7386678 105.032,77.504 C104.898666,77.2693322 104.717335,77.0960006 104.488,76.984 C104.258666,76.8719994 103.968002,76.816 103.616,76.816 C103.466666,76.816 103.306668,76.8213333 103.136,76.832 C102.965333,76.8426667 102.802667,76.8559999 102.648,76.872 C102.493333,76.8880001 102.352001,76.9066666 102.224,76.928 C102.095999,76.9493334 102.010667,76.9653333 101.968,76.976 L101.968,84 L100.48,84 L100.48,75.92 Z" id="Imported-Layers" fill="#A39F9A" sketch:type="MSShapeGroup"></path>
        </g>
    </g>
</svg>