<?xml version="1.0" standalone="no"?>
<!DOCTYPE svg PUBLIC "-//W3C//DTD SVG 1.1//EN" "http://www.w3.org/Graphics/SVG/1.1/DTD/svg11.dtd" >
<svg xmlns="http://www.w3.org/2000/svg">
<metadata>Generated by IcoMoon</metadata>
<defs>
<font id="icomoon" horiz-adv-x="1024">
<font-face units-per-em="1024" ascent="960" descent="-64" />
<missing-glyph horiz-adv-x="1024" />
<glyph unicode="&#x20;" d="" horiz-adv-x="512" />
<glyph unicode="&#xe600;" d="M894.8 149.2l3.2 808.8h-670.2c-121.2 0-221.8-96-221.8-216.6v-613.8c0-80.6 51.2-150.2 122-178.6 20.2-9 43.2-15 66.8-15h649.2v2.4h51.4l-0.8 105h-42.6v108.6l42.8-0.8zM200 40.6c-4.4 0-8.2 0.6-12.4 1.4-3 0.4-5.8 1-8.6 1.8s-5.4 1.6-8.2 2.6c-18.8 8.8-32 27.6-32 49.8 0 30.6 24 55.4 54.6 55.4l552.6-1.2v-32.4h-540v-50h540v-26.8l-546-0.6zM790 255.2l-597.4 1.2c-29.6 0-56.6-8.4-80.6-22.4v507.4c0 62.6 52.8 110.6 115.8 110.6h562.2v-596.8z" />
<glyph unicode="&#xe601;" d="M519.6 284.2l-285.2 285.2 28.2 28.4 257-257.2 247 247 28.2-28.2z" />
<glyph unicode="&#xe602;" d="M622 169.8l-275.2 275.2 285.2 285.2 28.4-28.2-257.2-257 247-247z" />
<glyph unicode="&#xe603;" d="M389.2 169.8l-28.4 28.2 257.2 257-247 247 28.2 28.2 275.2-275.2z" />
<glyph unicode="&#xe604;" d="M762.6 300.2l-257 257.2-247-247-28.2 28.2 275.2 275.2 285.2-285.2z" />
<glyph unicode="&#xe605;" d="M640.2 260h-180.4v156.8h180.4c49.8 0 90.2-35.2 90.2-78.4 0-43.4-40.4-78.4-90.2-78.4zM459.8 652h135.2c49.8 0 90.2-35.2 90.2-78.4 0-43.4-40.4-78.4-90.2-78.4h-135.2v156.8zM821.8 472.2c27 27.2 44 62.4 44 101.4 0 122.6-84.6 196-225.4 196v0 147c0 5.4-5 9.8-11.4 9.8h-67.6c-6 0-11-4.2-11.2-9.4v-147.4h-90.2v147c0 5.4-5 9.8-11.4 9.8h-67.6c-6 0-11-4.2-11.2-9.4v-147.4h-191.8c-6.2 0-11.2-4.4-11.2-9.8v-58.8c0.2-5.2 5.2-9.8 11.4-9.8h11.4c49.8 0 90.2-35.2 90.2-78.4v-313.8c0-41-36.2-74.6-82.2-78.2-4.8-0.4-8.8-3.4-10-7.4l-17.6-59c-0.8-3 0-6 2-8.4s5.4-3.8 9-3.8h188.6v-147.4c0.2-5.2 5.2-9.4 11.2-9.4h67.6c6.2 0 11.4 4.4 11.4 9.8v147h90.2v-147.4c0.2-5.2 5.2-9.4 11.2-9.4h67.6c6.2 0 11.4 4.4 11.4 9.8v147h45c141 0 225.6 73.6 225.6 196 0 57.6-36 107-89 134z" />
<glyph unicode="&#xe606;" d="M402.6 265l-129.2 129.2 11.4 11.4 117.8-118 336.6 336.8 11.4-11.4zM512-56.6c-134.6 0-261.2 52.4-356.4 147.6s-147.6 221.8-147.6 356.4 52.4 261.2 147.6 356.4c95.2 95.2 221.8 147.6 356.4 147.6s261.2-52.4 356.4-147.6c95.2-95.2 147.6-221.8 147.6-356.4s-52.4-261.2-147.6-356.4c-95.2-95-221.8-147.6-356.4-147.6zM512 935.4c-130.4 0-252.8-50.8-345-143s-143-214.6-143-345 50.8-252.8 143-345c92.2-92.2 214.8-143 345-143s252.8 50.8 345 143c92.2 92.2 143 214.8 143 345s-50.8 252.8-143 345c-92.2 92.4-214.6 143-345 143z" />
<glyph unicode="&#xe607;" d="M6.8-69.6l-11.2 11.2 505 505.2-505 505 11.2 11.4 516.6-516.4zM1017.2-69.6l-516.6 516.4 516.6 516.4 11.2-11.4-505-505 505-505.2z" />
<glyph unicode="&#xe608;" d="M596.2 559c0 18.2-22.4 33-50.2 33h-76v-66h76c27.6 0 50.2 14.8 50.2 33zM621.2 459c0 18.2-22.4 33-50.2 33h-101v-66h101c27.8 0 50.2 14.8 50.2 33zM1010 521v7h0.2c-12.8 198-229.4 358.2-495.6 358.2s-483-160.2-495.8-358.2h-0.8v-7.2c0-4-0.8-7.8-0.8-11.8s0.8-8 0.8-11.8v-113.8c0-211.2 223.8-383.6 498.4-383.6 104.8 0 202.2 26.6 282.4 68.6h5.2v4.4c54 30 99.6 67.6 134 111.6v0 0.8c46 58 72 125.6 72 198.2v113.6c0 4 0.8 8 0.8 12.2 0 3.8-0.8 7.6-0.8 11.8zM308 637c0 2.2 2.2 4.2 5.8 4.2h106.2v62.2c0 2.2 3.4 4.6 6.8 4.6h37.6c3.4 0 6.2-1.8 6.2-4v-62h49.4v61.4c2 2.2 3.8 4.6 7.2 4.6h37.6c3.4 0 6.2-1.8 6.2-4v-62c78.4 0 125.6-31.4 125.6-83.2 0-16.4-9.4-31.4-24.4-43 29.6-11.4 49.6-32.6 49.6-56.8 0-51.8-47-83-125.6-83h-25v-62c0-2.2-2.8-4-6.2-4h-37.6c-3.4 0-5.2 2-7.2 4.2v61.8h-49.4v-62c0-2.2-2.8-4-6.2-4h-37.6c-3.4 0-6.8 2-6.8 4.2v61.8h-104.4c-2 0-3.8 0.8-5 1.8s-1.6 2.4-1.2 3.6l9.6 25c0.6 1.8 2.8 3 5.6 3.2 25.6 1.4 45.8 15.6 45.8 33v132.4c0 18.2-22.4 33-50.2 33h-6.2c-3.4 0-5.8 2-5.8 4.2v24.8zM626 55.2c-28-5.4-58-8.8-90-9.8v86.6h-44v-86.4c-224 8.8-404.2 138.4-426.8 302.8 79.6-127.8 250.4-216.4 449.2-216.4 38.4 0 75.6 3.6 111.6 9.8v-86.6zM760 99c-28-13.6-58-24.8-90-33.4v85.8c32 7.8 62 18 90 30.2v-82.6zM894 199.8c-24-28.6-54-54.4-90-76.2v79.8c34 18 64 38.8 90 62.4v-66zM938 267.6v45.6c10 11.4 17.6 23.2 25.2 35.4-3.8-28.4-13.2-55.4-25.2-81z" />
<glyph unicode="&#xe609;" d="M662.6 958.6h-516.6v-1020.6h799.8v738.4l-283.2 282.2zM691.2 801l96.6-96.4h-96.6v96.4zM237.8 867.2h361.6v-254h254.6v-583.6h-616.2v837.6zM676.2 535v-91.4h-357v91.4h357zM319.2 386.4h357.2v-91.4h-357.2v91.4zM319.2 237.8h245.4v-91.4h-245.4v91.4z" />
<glyph unicode="&#xe60a;" d="M972.4 794h-652.8v138.8l-290.8-270.8 290.8-270.8v139h652.8zM30.8 100.6h650.8v-138.8l290.8 270.8-290.8 270.8v-139h-650.8z" />
<glyph unicode="&#xe60b;" d="M397.8 846.4l-222-206 222-199v92.8h475.8v198.2h-475.8zM873.6 289.2l-222 198.8v-112.4h-475.8v-198.2h475.8v-94.4l222 206.2z" />
<glyph unicode="&#xe60c;" d="M602-34h-180v140.8c-31 8-59.6 19.6-88.2 36.6l-98.8-99-127 126 99.4 98.4c-16.4 27.6-28.6 56.8-36.8 87.2h-142.6v178h142.8c7.8 31.4 20 61.4 36.4 89.8l-99.6 100.4 126.8 126.2 99.2-99c29.2 17.2 57.6 29 88.2 36.6v138h180v-138c31.4-8.2 62-20.8 89.6-36.8l100.2 98.6 127-126.6-99.6-99.6c16.4-28 28.8-58 37-89.6h138.2v-178h-138.2c-8.2-30.4-20.4-59.6-36.8-87.2l99.4-97.8-127.2-126.2-99.8 99c-27.2-15.8-57.8-28.4-89.6-36.8v-141zM462 6h100v132.8l21.6 4.8c34.2 8.2 67 21.6 95 39l18.8 11.8 94-93.2 70.4 69.8-93.4 91.8 12 19c18.2 29 31.4 60 39 92.4l4.8 21.6h130v98h-130l-5 21.8c-7.6 33.8-20.8 65.6-39 94.8l-11.8 18.8 93.8 93.8-70.6 70.2-94.4-92.8-18.8 11.8c-28.6 17.6-61.4 31-94.8 38.8l-21.6 4.8v130.2h-100v-129.8l-21.8-5c-32.6-7.2-62.4-19.6-93.6-38.8l-18.8-11.8-93.4 93.4-70.4-70 93.8-94.6-11.8-18.8c-18.2-29.6-31-61.6-38.4-95l-5-21.8h-134.6v-98h134.4l4.8-21.6c7.8-32.4 20.8-63.6 39-92.4l12-19-93.4-92.4 70.2-69.6 93 93.2 19-12c30.4-18.8 60-31 93.4-38.6l21.8-5v-132.4zM515 299c-82.6 0-149.8 66.8-149.8 149s67.2 149 149.8 149 149.8-66.8 149.8-149c0-82.2-67.2-149-149.8-149zM515 557c-60.6 0-109.8-48.8-109.8-109s49.2-109 109.8-109c60.6 0 109.8 48.8 109.8 109s-49.2 109-109.8 109z" />
<glyph unicode="&#xe60d;" d="M505.6 5c-54.2 0-99.8 2.8-128.6 7.6-60.8 10.6-152.4 26.4-230.6 83.2-95.4 69.4-143.8 179.6-143.8 328 0 73.2 20.2 139 59.8 196.4-7.6 42.8-9.8 109.2 20.8 186.4l19.4 49.6 37.4-1.2c5.4-0.2 126.8-4.4 221-54.8 48.6 10.4 99.2 15.8 151 16h0.4c52-0.2 102.8-5.6 151.4-16 94.2 50.6 215.4 54.6 220.8 54.8l37.4 1 19.4-49.6c30.8-77.2 28.6-143.6 21-186.4 39.8-57.4 59.8-123.4 59.8-196.6 0-137-41.4-241.4-123-310.4-77-65-175.6-87.8-253-100.2-31-4.8-84.8-7.8-140.6-7.8zM174.2 745.8c-17-56.4-10-100.8-3.6-123.6l7.4-26.4-17.2-21.2c-34.6-42.8-52-93.4-52-150.8 0-114 32.8-193.2 100-242 58.2-42.2 132.2-55.2 186.2-64.6 22.4-3.8 63.8-6.2 110.6-6.2 56.8 0 103 3.4 123.8 6.6 172 27.6 286.6 90.4 286.6 306 0 57.4-17.6 108.2-52 151l-17.2 21.2 7.4 26.4c6.4 22.8 13.4 67.2-3.8 123.8-40-5-103.6-17.2-149.2-46.6l-19.4-12.4-22.4 5.6c-46.6 11.6-96 17.6-147.2 17.8-50.8-0.2-100.4-6.2-146.8-17.8l-22.2-5.6-19.4 12.4c-45.6 29.2-109.6 41.4-149.6 46.4zM393.2 316.2c0-43.8-23.8-79.4-52.8-79.4s-52.8 35.6-52.8 79.4c0 43.8 23.6 79.4 52.8 79.4s52.8-35.6 52.8-79.4zM737.2 316.2c0-43.8-23.8-79.4-52.8-79.4s-52.8 35.6-52.8 79.4c0 43.8 23.6 79.4 52.8 79.4s52.8-35.6 52.8-79.4z" />
<glyph unicode="&#xe60e;" d="M795.4 112.2l33.8 73-86.4 18.8 25.4 87.6-82.4 14.8c-19.6-18.4-42.2-33.6-67-45.2l148.8-258.6 98.8-7 20.2 89.2-91.2 27.4zM540.8 481.6c-1.6-0.2-3.4-0.4-5-0.4-0.2 0-0.2 0-0.4 0v0c-9.2-0.2-18.8 1.8-27.4 6.6-25.8 14.4-35 47-20.6 72.8s47 35 72.8 20.6c19.2-10.8 29.2-31.6 27-52.2 37.4 10.8 70.2 31.8 95.6 59.8-17.2 30.8-42.4 57.8-75.4 76.4-95.4 53.6-216.2 19.6-269.6-76-43-76.8-29.4-170.2 27.4-231.4l-167.2-299.4 44.8-88.4 86.8 28.4-23.2 92.6 80 8.6-28.4 83.6 88.2 23.2-30.2 80 56.4 11.6c81.8-16 168 20.8 211 97.4 27.4 49 31.6 104.6 16.4 154.4-41.6-40-97.4-65.6-159-68.2zM363 702.4c-1.2 8.4-2.2 16.8-2.2 25.6 0 93.2 75.8 169.2 169.2 169.2s169.2-75.8 169.2-169.2-75.8-169.2-169.2-169.2c-7.2 0-14.2 1.2-21.2 2.2-5-8.2-8.6-17.4-8.6-27.6 0-3.6 1.2-7 1.8-10.4 9.2-1.2 18.4-2.8 28-2.8 114.6 0 207.8 93.2 207.8 207.8 0 114.8-93.2 208-207.8 208s-208-93.2-208-207.8c0-18.6 3.2-36.4 7.8-53.4 10.2 10 21.4 19.2 33.2 27.6z" />
<glyph unicode="&#xe60f;" d="M801.6 476.4c22 31.8 34.6 70 34.6 111.6 0 109.2-88.8 197.6-198.4 197.6h-47v125.2c0 6.8 6 12.2 13.4 12.4 10 0.2 18 8.2 18 17.8-0.2 9.4-9.2 17-19.2 17h-201.4c-10 0-19-7.4-19.2-17.2-0.2-9.6 8-17.4 18-17.8 7.4-0.2 13.4-5.2 13.4-12.4v-99.4h39.6c7.2 0 12.6-5.8 12.6-12.6s-5.8-12.6-12.6-12.6h-39.6v-0.2h-200.8c-23 0-41.8-18.8-41.8-41.8s18.8-41.8 41.8-41.8h10.6c38.8 0 70.6-31.4 70.6-70.6v-360.2c0-38.8-31.4-70.6-70.6-70.6h-10.6c-23 0-41.8-18.8-41.8-41.8s18.8-41.8 41.8-41.8l240.4-0.2c7.2 0 12.6-5.8 12.6-12.6 0-7.2-5.8-12.6-12.6-12.6h-39.6v-69.8c0-46.6 39.8-84.2 88.8-84.2 48.8 0 88.8 38 88.8 84.2v95.6h80.8c112.2 0 203.4 90.8 203.4 202.6-0.2 63-29 119-74 156.2zM457.8 673.2h122.6c46 0 83.4-37.6 83.4-83.4s-37.6-83.4-83.4-83.4h-122.6v166.8zM622.2 229.6h-169.6v167h169.6c46 0 83.4-37.6 83.4-83.4 0.2-45.8-37.4-83.6-83.4-83.6z" />
<glyph unicode="&#xe610;" d="M511-38.4v485.4h-485.4v16h501.4v-501.4zM1012.6 447h-501.6v501.6h16v-485.6h485.6z" />
<glyph unicode="&#xe611;" d="M572.6-64.4l-170.2 76.8 2.2 536.4h-88.6c-44.2 0.2-80 36.8-80 81.2l0.8 250.8c0.2 44 36.2 79.8 80.2 79.8h382.4c44.2-0.2 80-36.2 80-80.4l-1-250.8c-0.2-44.6-36.2-80.8-80.2-80.8h-70.2v-2.8l-32.4-51 32.2-32.2-0.4-124.2-35.4-58.4 40.4-66-36-50.8 53.6-46.2-77.4-181.4zM442.6 38.2l109.2-49.2 49.6 117-59 50.8 41.8 59-39.4 64.2 42.4 69.8 0.4 96.4-43 43 43.4 68.2v31.2h110c21.8 0 40.2 18.8 40.4 41l1 250.6c0 22-18 40.2-40 40.2h-382c-22.2 0-40.2-18-40.4-40l-1-250.4c0-22.6 18-41 40-41.2h128.8l-2.2-550.6zM630.8 756.4h-246.8c-24 0-44.2 20.6-44.2 45.2 0 24.4 20 44.2 44.4 44.2v0l246.6-0.8c11.6 0 22.8-4.6 31.2-13.2 8.4-8.4 13-19.4 13-31.4 0.2-24.2-19.8-44-44.2-44zM384.2 805.8c-2.4 0-4.4-2-4.4-4.2 0-2.8 2.4-5.2 4.2-5.2h246.6c2.4 0 4.4 2 4.4 4.2 0 1.2-0.4 2.2-1.2 3-0.6 0.6-1.6 1.4-3 1.4l-246.6 0.8z" />
<glyph unicode="&#xe612;" d="M766.2 692.2c-0.8 69-28.4 133.6-77.4 182s-114 75-182.8 75c-1 0-2.2 0-3.2 0-69.4-0.8-134.4-28.6-183-78.4-48.6-49.6-74.8-115.4-74-184.8 1.4-111.4 72.6-208.4 177.6-243.6l5.8-435 115-75.2 85.4 95.6-35.6 88.8 33.8 59.8-35.4 75.6 33.2 81.2-35.6 70.6 4.8 40.8c104 37.8 172.8 136.6 171.4 247.6zM559.8 697.4c-14.2-14.6-33.2-22.6-53.6-23h-1c-41.4 0-75.6 33.8-76.2 75.2-0.2 20.4 7.4 39.6 21.6 54 14.2 14.6 33.2 22.6 53.6 23h1c41.4 0 75.6-33.8 76.2-75.2 0.2-20.4-7.4-39.6-21.6-54z" />
<glyph unicode="&#xe613;" d="M543.6-63l-119 78-5.6 432.8c-104.8 36.2-175.6 133.8-176.8 245.4-0.8 70.2 25.8 136.6 74.8 186.8 49.2 50.4 115 78.4 185.2 79.4h3.2c69.6 0 135.2-27 184.8-75.8 49.6-49 77.4-114.4 78.2-184 1.2-111.4-67.2-210.8-171-249.6l-4.2-37 35.6-71-33.2-81 35.2-75.4-33.6-59.8 35.8-89-89.4-99.8zM464.4 36.8l72.6-47.4 49.8 55.4-33.6 83.8 33 58.6-34 72.8 33 80.4-33.2 65.2 8.6 74 16.8 5.6c91.4 31.2 152.2 117.2 151 213.8-0.8 59.2-24.2 114.6-66.4 156-42 41.4-97.6 64.4-156.6 64.4h-2.8c-59.4-0.8-115.2-24.6-157-67.2-41.6-42.6-64.2-98.8-63.4-158.4 1-97.2 64.2-181.6 157-210.4l19.4-6.2 5.8-440.4zM505 677.2h-1c-43.6 0-79.4 35.4-80 79v0.2c0 21.6 8.2 41.6 22.8 56.6 15 15.2 35 23.8 56.2 24.2h1c43.8 0 79.4-35.4 79.8-79 0.2-21.4-7.8-41.6-22.6-56.8-15-15.4-35-24-56.2-24.2v0zM464 756.4c0.4-21.6 18.2-39.2 40-39.2h0.6c10.6 0.2 20.6 4.4 28.2 12.2 7.4 7.4 11.4 17.6 11.2 28.4-0.2 21.8-18 39.4-39.8 39.4h-0.6c-10.6-0.2-20.6-4.4-28-12.2-7.4-7.6-11.6-17.6-11.6-28.6z" />
<glyph unicode="&#xe614;" d="M820 434h136v-90h-136v90zM254.6 264.6h81.6v-81.6h-81.6v81.6zM92 428v-408h408v408h-408zM410 112h-226v226h226v-226zM254.6 720.8h81.6v-81.6h-81.6v81.6zM92 884v-408h408v408h-408zM410 566h-226v224h226v-224zM710.6 720.8h81.6v-81.6h-81.6v81.6zM548 884v-408h408v408h-408zM862 566h-224v224h224v-224zM548 434h90v-408h-90v408zM953.4 300h-81.4v-102h-74v-80h-68v-92h226v275.4z" />
<glyph unicode="&#xe615;" d="M542 432h108v-140h-108v140zM142 802v-328h328v328h-328zM338 606h-66v66h66v-66zM542 802v-328h328v328h-328zM738 606h-66v66h66v-66zM542 252h73v-142h-73v142zM724 426.6h146v-69.4h-146v69.4zM802 292v-66h-70v-48h-78v-68h216v182zM142 422v-328h328v328h-328zM338 226h-66v66h66v-66z" />
<glyph unicode="&#xe616;" d="M1020.6 893.8h-1017.2c-1.6 0-3-1.2-3-3v-885.8c0-1.6 1.4-3 3-3h1017.2c1.6 0 3 1.2 3 3v885.8c-0.2 1.6-1.4 3-3 3zM330.2 826c17.4 0 31.4-14 31.4-31.4s-14-31.4-31.4-31.4-31.4 14-31.4 31.4 14 31.4 31.4 31.4zM227.4 826c17.4 0 31.4-14 31.4-31.4s-14-31.4-31.4-31.4c-17.4 0-31.4 14-31.4 31.4s14 31.4 31.4 31.4zM124.6 826c17.4 0 31.4-14 31.4-31.4s-14-31.4-31.4-31.4c-17.4 0-31.4 14-31.4 31.4s14 31.4 31.4 31.4zM962 59.4h-900v637.2h900v-637.2zM97 626.8h83v-83h-83v83zM252 626.8h330.6v-83h-330.6v83zM97 489.6h83v-83h-83v83zM252 489.6h520.2v-83h-520.2v83zM97 352.4h83v-83h-83v83zM252 352.4h139.2v-83h-139.2v83zM97 215.2h83v-83h-83v83zM252 215.2h154v-83h-154v83zM473 215.2h154v-83h-154v83zM663.4 626.8h217.4v-83h-217.4v83z" />
<glyph unicode="&#xe617;" d="M808.4 353.2c-18.4 0-35.8-3.2-52.6-7.8l-144 231.2c58.4 34.8 98 98 98 171.2 0 110.4-89.4 199.8-199.8 199.8s-200-89.6-200-200c0-73 39.6-136.2 98-171.2l-143.6-230.4c-16.2 4.2-32.8 7.2-50.2 7.2-110.4 0-199.8-89.4-199.8-199.8s89.4-199.8 199.8-199.8 199.8 89.4 199.8 199.8c0 55.2-22.4 105-58.4 141.2l154.2 247.4 155.4-249.4c-35-36-56.8-85-56.8-139.2 0-110.4 89.4-199.8 199.8-199.8s199.8 89.4 199.8 199.8c0.4 110.2-89.2 199.8-199.6 199.8zM214.2 93.4c-33 0-59.8 26.8-59.8 59.8s26.8 59.8 59.8 59.8c33 0 59.8-26.8 59.8-59.8s-26.8-59.8-59.8-59.8zM509.8 687.6c-33 0-59.8 26.8-59.8 59.8s26.8 59.8 59.8 59.8c33 0 59.8-26.8 59.8-59.8s-26.6-59.8-59.8-59.8zM808.4 93.4c-33 0-59.8 26.8-59.8 59.8s26.8 59.8 59.8 59.8c33 0 59.8-26.8 59.8-59.8s-26.8-59.8-59.8-59.8z" />
<glyph unicode="&#xe618;" d="M430 540c-10.4 0-18.8-8.4-18.8-18.8s8.4-18.8 18.8-18.8 18.8 8.4 18.8 18.8-8.4 18.8-18.8 18.8zM595.4 540c-10.4 0-18.8-8.4-18.8-18.8s8.4-18.8 18.8-18.8 18.8 8.4 18.8 18.8-8.4 18.8-18.8 18.8zM949 775.2h-110v110h-16v-110h-110v-16h110v-110h16v110h110zM992 575.2h-322c-17.6 0-32 14.4-32 32v320c0 17.6 14.4 32 32 32h322c17.6 0 32-14.4 32-32v-320c0-17.6-14.4-32-32-32zM670 943.2c-8.8 0-16-7.2-16-16v-320c0-8.8 7.2-16 16-16h322c8.8 0 16 7.2 16 16v320c0 8.8-7.2 16-16 16h-322zM992 575.2h-16.8c12.2-42.8 18.6-87.6 18.6-133.4 0-129-50.2-250.4-141.6-341.8-10-10-20.2-19.4-30.8-28.4-11 45.2-36.4 86.6-72.4 117.4-40 34.2-90.4 53-142 53h-1.4c104.8 41.8 179.8 152.2 179.6 281.6 0 17.6-1.4 34.8-4 51.6h-16.2c2.8-16.8 4.2-34.2 4.2-51.8 0-156.2-115-283.4-256.2-283.4s-256.2 127.2-256.2 283.4 115 283.4 256.2 283.4c45.4 0 88-13 125-36v18.8c-37.4 21.4-80 33.4-125 33.4-150 0-272.2-134.4-272.2-299.4 0-129.4 75-239.8 179.8-281.6h-0.6c-51.8 0-102.4-19-142.6-53.6-36.8-31.6-62.6-74.4-73-121-12.4 10.4-24.4 21.2-35.8 32.6-91.2 91.2-141.4 212.8-141.4 341.8s50.2 250.4 141.6 341.8c91.2 91.4 212.6 141.6 341.8 141.6 43.6 0 86.4-5.8 127.4-17v16.6c-41 10.8-83.8 16.4-127.4 16.4-133.4 0-259-52-353.4-146.2-94.2-94.4-146.2-219.8-146.2-353.2s52-258.8 146.4-353.2c94.4-94.4 219.8-146.4 353.2-146.4 13.8 0 27.4 0.6 41 1.6 79.8 6 155.4 31 222.4 73.4 32.2 20 62.2 44 89.8 71.4 94.2 94.4 146.2 219.8 146.2 353.2 0 45.8-6.2 90.4-18 133.4 0 0 0 0 0 0zM450 226c0 2 0.2 4.2 0.4 6.2 20.2-5.2 41.2-8 62.6-8 21.6 0 42.6 2.8 62.8 8 0.2-2 0.2-4 0.2-6.2v-53.6c0-34.8-28.2-63-63-63s-63 28.4-63 63.2v53.4zM792.6 49.2c-1-0.6-1.8-1.4-2.8-2-0.8-0.6-1.6-1.2-2.4-1.6-80.2-56.4-175.8-86.8-276-87-94 0.2-184.6 27.8-262 79.6-3 2-5.8 4-8.8 6-0.6 0.4-1.4 1-2 1.4l-0.8 0.6c-2.2 1.6-4.2 3-6.4 4.6-2 1.6-4.2 3.2-6.2 4.8l-2.2 1.6c-1.2 1-2.6 2-3.8 3 9 44.8 33.4 86 68.6 116.2 37.2 32 84.2 49.6 132.2 49.6h14v-53.4c0-43.6 35.4-79.2 79-79.2s79 35.4 79 79v53.6h15c47.8 0 94.6-17.4 131.6-49 35.4-30.2 59.8-71.6 69-116.4-5-4-10-7.8-15-11.4z" />
<glyph unicode="&#xe619;" d="M430 475.6c-21.4 0-38.8 17.4-38.8 38.8s17.4 38.8 38.8 38.8 38.8-17.4 38.8-38.8-17.4-38.8-38.8-38.8zM430 515.6c-0.6 0-1.2-0.6-1.2-1.2s0.6-1.2 1.2-1.2 1.2 0.6 1.2 1.2-0.6 1.2-1.2 1.2zM595.4 475.6c-21.4 0-38.8 17.4-38.8 38.8s17.4 38.8 38.8 38.8 38.8-17.4 38.8-38.8-17.4-38.8-38.8-38.8zM595.4 515.6c-0.6 0-1.2-0.6-1.2-1.2s0.6-1.2 1.2-1.2 1.2 0.6 1.2 1.2-0.6 1.2-1.2 1.2zM869 807.6c-96.2 96.2-224 149-359.8 149-136 0-263.8-53-359.8-149-96.2-96.2-149-224-149-359.8 0-136 53-263.8 149-359.8 96.2-96.2 224-149 359.8-149 136 0 263.8 53 359.8 149 96.2 96.2 149 224 149 359.8 0 136-53 263.8-149 359.8zM235 67.2h1c0 78 64.2 144 140 144h51.4v-36.6c0-49.2 40-89.4 89.2-89.4s89.4 40 89.4 89.4v36.6h46c76.4 0 138.6-61.4 140-137.6-81-61.6-179.4-94.8-282.8-94.8-100 0-195 31-274.2 88.4zM467.4 207.6c15.2-2.8 30.8-4.2 46.6-4.2 17.8 0 35.2 1.8 52 5.4v-34c0-27.2-22.2-49.4-49.4-49.4s-49.2 22.2-49.2 49.4v32.8zM514 243.2c-133.4 0-242 121.6-242 271s108.6 271 242 271 242-121.6 242-271c0-149.4-108.6-271-242-271zM840.6 116.2c-3.8-3.8-7.8-7.6-11.8-11.4-15 79.4-82.6 140.6-165 146 79.4 55.2 132.2 152.6 132.2 263.4 0 171.4-126.6 311-282 311s-282-139.6-282-311c0-110.8 52.8-208.4 132.2-263.4-43.6-3-84.4-22-115.8-54.6-26.8-27.8-44.2-62.4-50.2-99.6-7.2 6.4-14 12.8-20.8 19.6-88.6 88.6-137.4 206.4-137.4 331.6s49 243 137.6 331.6c88.4 88.6 206.2 137.4 331.4 137.4s243-48.8 331.6-137.4c88.6-88.6 137.4-206.4 137.4-331.6s-48.8-243-137.4-331.6z" />
<glyph unicode="&#xe61a;" d="M422.012-52.234l-115.717 185.535h-306.295v799.030h791.273v-799.030h-253.543l-115.717-185.535zM82.36 215.661h269.705l69.947-112.226 70.077 112.226h216.824v634.182h-626.554v-634.182zM209.325 654.998h398.481v-82.36h-398.481v82.36zM209.325 784.291h398.481v-82.36h-398.481v82.36zM209.325 520.533h398.481v-82.36h-398.481v82.36zM209.325 386.069h298.020v-82.36h-298.020v82.36z" horiz-adv-x="791" />
<glyph unicode="&#xe61b;" d="M742.529 295.305c20.816 47.451 31.806 99.297 31.806 152.695 0 101.495-39.564 197.042-111.321 268.8s-167.305 111.321-268.8 111.321-197.042-39.564-268.8-111.321-111.58-167.305-111.58-268.8c0-101.495 39.564-197.042 111.321-268.8s167.305-111.321 268.8-111.321 197.042 39.564 268.8 111.321c32.711 32.711 58.699 70.335 77.317 111.321l2.198 4.655 0.259 0.129zM514.715 488.727c-25.859 0-46.933 21.075-46.933 46.933s21.075 46.933 46.933 46.933c25.859 0 46.933-21.075 46.933-46.933s-20.945-46.933-46.933-46.933zM642.974 542.513c10.99 1.681 22.109 2.974 33.228 3.491 0.259-0.776 0.517-1.422 0.905-2.069 10.343-30.513 15.774-62.836 15.774-96.065 0-8.275-0.388-16.42-1.034-24.436-15.515 25.988-33.875 50.166-54.949 72.404 4.137 12.541 6.335 25.859 6.335 39.822 0 2.327-0.129 4.655-0.259 6.853zM637.285 621.64c-8.016-1.034-16.162-2.198-24.048-3.491-11.766 14.093-26.505 25.6-43.184 33.487 0 13.188-0.646 26.246-1.939 39.305 13.188-9.438 25.729-20.040 37.366-31.806 11.636-11.636 22.238-24.307 31.806-37.495zM477.091 735.16c0.259-0.129 0.388-0.129 0.646-0.259 6.206-24.048 9.697-48.614 10.473-73.568-9.051-1.939-17.584-4.784-25.859-8.404-32.065 27.022-67.879 49.131-106.796 65.552-14.998 6.335-30.125 11.766-45.64 16.291 26.893 7.887 55.208 11.895 84.040 11.895 28.574 0.129 56.501-3.879 83.135-11.507zM182.82 659.265c3.491 3.491 6.982 6.723 10.473 9.956 0.388 0.388 0.776 0.646 1.164 1.034 76.283-0.646 148.558-26.376 207.515-73.18-7.37-13.317-12.283-28.186-14.481-43.83-104.727-24.307-203.766-69.56-291.038-132.784-0.776 9.051-1.293 18.23-1.293 27.41 0.129 79.903 31.289 154.893 87.661 211.394zM117.527 334.481l0.129-0.129c83.782 66.715 181.139 114.166 284.962 138.731 10.731-19.135 26.246-35.297 44.865-46.804-16.679-96.711-53.010-189.802-106.537-272.42-59.604 10.602-114.554 39.046-158.255 82.877-28.315 28.444-50.295 61.673-65.164 97.745zM435.071 152.048c44.735 79.386 76.024 166.141 91.927 255.741 22.109 2.069 42.667 9.826 60.121 21.721 31.677-36.461 55.079-78.869 68.913-125.414h0.129c-13.446-24.436-30.384-47.192-50.683-67.362-46.804-46.675-106.149-75.895-170.408-84.687z" horiz-adv-x="791" />
</font>
</defs>
</svg>
