<?xml version="1.0" encoding="UTF-8" standalone="no"?>
<svg width="130px" height="46px" viewBox="0 0 130 46" version="1.1" xmlns="http://www.w3.org/2000/svg" xmlns:xlink="http://www.w3.org/1999/xlink" xmlns:sketch="http://www.bohemiancoding.com/sketch/ns">
    <!-- Generator: Sketch 3.2.2 (9983) - http://www.bohemiancoding.com/sketch -->
    <title>Group</title>
    <desc>Created with Sketch.</desc>
    <defs></defs>
    <g id="Page-1" stroke="none" stroke-width="1" fill="none" fill-rule="evenodd" sketch:type="MSPage">
        <g id="Group" sketch:type="MSLayerGroup">
            <path d="M110.348,41.304 L29.322,41.304 L43.991,2.483 L110.348,2.483 C121.068,2.483 129.758,11.173 129.758,21.893 C129.758,32.613 121.068,41.304 110.348,41.304" id="Fill-107" fill="#1A1918" sketch:type="MSShapeGroup"></path>
            <path d="M43.991,41.304 L19.591,41.304 C8.871,41.304 0.181,32.613 0.181,21.893 C0.181,11.173 8.871,2.483 19.591,2.483 L51.325,2.483 L43.991,41.304" id="Fill-108" fill="#D51E13" sketch:type="MSShapeGroup"></path>
            <path d="M66.967,27.713 L66.967,16.531 L74.518,16.531 L74.518,18.645 L69.484,18.645 L69.484,20.84 L73.953,20.84 L73.953,22.905 L69.484,22.905 L69.484,25.599 L74.889,25.599 L74.889,27.713 L66.967,27.713" id="Fill-109" fill="#FFFFFF" sketch:type="MSShapeGroup"></path>
            <path d="M81.246,27.939 C79.428,27.939 78.043,27.434 77.091,26.423 C76.139,25.412 75.663,23.976 75.663,22.115 C75.663,21.189 75.808,20.364 76.099,19.638 C76.389,18.912 76.787,18.298 77.293,17.798 C77.798,17.298 78.401,16.919 79.1,16.661 C79.799,16.402 80.558,16.273 81.375,16.273 C81.848,16.273 82.279,16.308 82.666,16.378 C83.054,16.448 83.392,16.529 83.683,16.62 C83.973,16.712 84.215,16.806 84.409,16.903 C84.602,17 84.742,17.075 84.828,17.128 L84.102,19.162 C83.758,18.979 83.357,18.823 82.9,18.694 C82.443,18.565 81.924,18.5 81.343,18.5 C80.956,18.5 80.577,18.565 80.205,18.694 C79.834,18.823 79.506,19.03 79.221,19.315 C78.936,19.6 78.707,19.969 78.536,20.42 C78.363,20.872 78.277,21.421 78.277,22.066 C78.277,22.582 78.334,23.064 78.446,23.51 C78.559,23.957 78.742,24.341 78.995,24.664 C79.248,24.986 79.578,25.242 79.988,25.43 C80.396,25.618 80.891,25.712 81.472,25.712 C81.837,25.712 82.166,25.691 82.456,25.648 C82.747,25.605 83.005,25.554 83.231,25.495 C83.457,25.436 83.656,25.368 83.828,25.293 C84,25.218 84.156,25.148 84.296,25.083 L84.99,27.1 C84.635,27.315 84.134,27.509 83.489,27.681 C82.844,27.853 82.096,27.939 81.246,27.939" id="Fill-110" fill="#FFFFFF" sketch:type="MSShapeGroup"></path>
            <path d="M86.006,16.531 L88.523,16.531 L88.523,27.713 L86.006,27.713 L86.006,16.531 Z" id="Fill-111" fill="#FFFFFF" sketch:type="MSShapeGroup"></path>
            <path d="M90.508,27.713 L90.508,16.531 L98.059,16.531 L98.059,18.645 L93.025,18.645 L93.025,20.84 L97.494,20.84 L97.494,22.905 L93.025,22.905 L93.025,25.599 L98.43,25.599 L98.43,27.713 L90.508,27.713" id="Fill-112" fill="#FFFFFF" sketch:type="MSShapeGroup"></path>
            <path d="M102.738,25.793 C103.094,25.793 103.386,25.764 103.618,25.704 C103.849,25.645 104.034,25.565 104.174,25.463 C104.314,25.36 104.411,25.24 104.465,25.1 C104.518,24.96 104.545,24.804 104.545,24.632 C104.545,24.266 104.373,23.962 104.029,23.72 C103.685,23.478 103.094,23.217 102.254,22.937 C101.888,22.808 101.523,22.661 101.157,22.494 C100.791,22.327 100.463,22.117 100.172,21.864 C99.882,21.612 99.646,21.305 99.463,20.945 C99.28,20.585 99.188,20.146 99.188,19.629 C99.188,19.113 99.285,18.648 99.479,18.234 C99.673,17.82 99.947,17.467 100.302,17.177 C100.657,16.887 101.087,16.664 101.592,16.507 C102.098,16.351 102.668,16.273 103.303,16.273 C104.056,16.273 104.707,16.354 105.256,16.516 C105.804,16.677 106.256,16.854 106.611,17.048 L105.885,19.033 C105.573,18.871 105.226,18.729 104.844,18.605 C104.462,18.481 104.002,18.419 103.465,18.419 C102.862,18.419 102.429,18.503 102.165,18.67 C101.902,18.836 101.77,19.092 101.77,19.436 C101.77,19.641 101.819,19.813 101.915,19.952 C102.012,20.092 102.149,20.219 102.327,20.331 C102.504,20.444 102.708,20.547 102.94,20.638 C103.171,20.73 103.427,20.824 103.706,20.92 C104.287,21.136 104.793,21.348 105.223,21.558 C105.653,21.768 106.011,22.012 106.296,22.292 C106.581,22.572 106.794,22.9 106.933,23.276 C107.073,23.653 107.144,24.11 107.144,24.648 C107.144,25.691 106.777,26.501 106.046,27.076 C105.315,27.652 104.212,27.939 102.738,27.939 C102.244,27.939 101.797,27.91 101.399,27.851 C101.001,27.791 100.648,27.719 100.342,27.633 C100.036,27.547 99.772,27.455 99.551,27.359 C99.331,27.262 99.145,27.17 98.995,27.084 L99.705,25.083 C100.038,25.266 100.449,25.43 100.939,25.576 C101.428,25.721 102.028,25.793 102.738,25.793" id="Fill-113" fill="#FFFFFF" sketch:type="MSShapeGroup"></path>
            <path d="M35.104,45.31 C34.932,45.31 34.758,45.299 34.584,45.277 C31.642,44.902 28.596,44.255 25.533,43.352 C20.576,41.892 16.012,39.889 12.334,37.561 C11.275,36.891 10.643,35.74 10.643,34.483 L10.643,18.053 C10.643,16.756 11.265,15.521 12.308,14.749 L13.263,14.042 L13.263,10.899 C13.263,5.099 17.964,0.375 23.744,0.368 C32.087,0.368 38.86,7.141 38.86,15.466 L38.86,19.274 C40.371,19.828 41.376,21.261 41.376,22.876 L41.376,39.129 C41.376,40.236 40.919,41.31 40.122,42.076 L37.957,44.157 C37.185,44.9 36.171,45.31 35.104,45.31 L35.104,45.31 Z M28.737,15.912 C28.61,12.955 26.286,10.558 23.36,10.316 L23.36,14.127 L28.737,15.912 L28.737,15.912 Z" id="Fill-114" fill="#FFFFFF" sketch:type="MSShapeGroup"></path>
            <path d="M35.619,24.101 C35.552,24.164 35.461,24.195 35.369,24.185 C32.544,23.85 29.492,23.227 26.362,22.305 C21.503,20.873 17.197,18.938 13.881,16.836 C13.747,16.751 13.577,16.847 13.577,17.005 L13.577,33.664 C13.577,33.907 13.697,34.134 13.903,34.263 C17.217,36.361 21.514,38.291 26.362,39.719 C29.34,40.597 32.247,41.203 34.955,41.548 C35.312,41.593 35.664,41.473 35.923,41.224 C36.5,40.669 37.544,39.665 38.09,39.141 C38.316,38.923 38.443,38.624 38.443,38.31 L38.443,21.579 C38.443,21.527 38.381,21.5 38.343,21.536 L35.619,24.101 L35.619,24.101 Z M35.436,24.201 L35.391,24.186 C35.409,24.188 35.436,24.201 35.436,24.201 L35.436,24.201 Z" id="Fill-115" fill="#1A1918" sketch:type="MSShapeGroup"></path>
            <path d="M23.762,2.483 C19.601,2.483 16.197,5.887 16.197,10.048 L16.197,16.806 C16.185,16.84 16.176,16.875 16.176,16.91 C16.176,17.345 17.128,17.697 18.301,17.697 C19.475,17.697 20.426,17.345 20.426,16.91 L20.426,8.989 C20.426,7.638 21.521,6.543 22.872,6.543 C27.734,6.543 31.676,10.485 31.676,15.347 L31.676,22.051 C31.676,22.486 32.627,22.839 33.801,22.839 C34.974,22.839 35.926,22.486 35.926,22.051 L35.926,14.647 C35.926,7.956 30.452,2.483 23.762,2.483" id="Fill-116" fill="#1A1918" sketch:type="MSShapeGroup"></path>
            <path d="M27.746,27.446 C26.066,25.03 22.982,24.269 20.858,25.746 C18.735,27.223 18.375,30.378 20.055,32.794 C21.26,34.528 23.186,35.391 24.964,35.205 C25.383,35.803 26.075,36.196 26.86,36.196 C26.945,36.196 27.024,36.18 27.107,36.171 C26.904,35.768 26.648,35.262 26.406,34.783 C26.587,34.693 26.772,34.613 26.942,34.495 C29.066,33.017 29.426,29.862 27.746,27.446 L27.746,27.446 Z M25.591,29.929 C25.378,30.228 25.068,30.422 24.719,30.514 L24.719,32.504 C24.719,32.966 24.341,33.344 23.879,33.344 C23.417,33.344 23.04,32.966 23.04,32.504 L23.04,30.18 C23.034,30.176 23.027,30.174 23.021,30.17 C22.143,29.544 21.87,28.421 22.411,27.662 C22.952,26.903 24.102,26.795 24.98,27.421 C25.859,28.047 26.132,29.17 25.591,29.929 L25.591,29.929 Z" id="Fill-130" fill="#FFFFFF" sketch:type="MSShapeGroup"></path>
        </g>
    </g>
</svg>