<?xml version="1.0" encoding="UTF-8" standalone="no"?>
<svg width="150px" height="127px" viewBox="0 0 150 127" version="1.1" xmlns="http://www.w3.org/2000/svg" xmlns:xlink="http://www.w3.org/1999/xlink" xmlns:sketch="http://www.bohemiancoding.com/sketch/ns">
    <!-- Generator: Sketch 3.2.2 (9983) - http://www.bohemiancoding.com/sketch -->
    <title>Imported Layers + Group</title>
    <desc>Created with Sketch.</desc>
    <defs></defs>
    <g id="Page-1" stroke="none" stroke-width="1" fill="none" fill-rule="evenodd" sketch:type="MSPage">
        <g id="Imported-Layers-+-Group" sketch:type="MSLayerGroup">
            <g id="Imported-Layers" transform="translate(0.000000, 0.663451)" fill="#65645C" sketch:type="MSShapeGroup">
                <path d="M5.82384328,4.22854992 C6.34798917,4.22854992 6.80147244,4.32315529 7.18506958,4.5146924 C7.56789021,4.70545405 7.88470728,4.96368019 8.1355208,5.28937081 C8.38711083,5.61506143 8.5726973,5.99736019 8.69383324,6.43471617 C8.81496918,6.87439851 8.87398413,7.34664991 8.87553715,7.85302128 C8.87553715,8.62847515 8.73809445,9.36127905 8.45777346,10.0537594 C8.18133504,10.7454642 7.80239697,11.3479918 7.32095926,11.8590159 C6.84107457,12.3708155 6.27344398,12.7763779 5.61729097,13.0749276 C4.96191447,13.3734773 4.2521821,13.5231399 3.48731735,13.5231399 C3.38947679,13.5246908 3.21786754,13.521589 2.9717131,13.5161609 C2.72478214,13.5107327 2.44368464,13.4851427 2.12531454,13.4409418 C1.80927398,13.3959655 1.47304409,13.328501 1.11817791,13.2385484 C0.762535213,13.1485957 0.426305328,13.0268495 0.109488254,12.8694323 L2.93599352,0.604854014 L5.47674222,0.198516189 L4.46417,4.55036328 C4.68236999,4.44877882 4.89979348,4.36968253 5.11799347,4.31384985 C5.33774649,4.25724171 5.57147673,4.22932538 5.82384328,4.22854992 L5.82384328,4.22854992 Z M3.69930525,11.4488009 C4.08134937,11.4488009 4.44165114,11.3526446 4.77943405,11.1611075 C5.11799347,10.9703458 5.41151517,10.714446 5.65611659,10.3934081 C5.90227103,10.0723702 6.09639914,9.71023329 6.23772441,9.30467092 C6.37827316,8.89910855 6.44893579,8.47881255 6.44893579,8.03913021 C6.44815928,7.50018978 6.3619664,7.07834287 6.1872511,6.77514041 C6.01098277,6.4711625 5.6879536,6.31994899 5.21894009,6.31994899 C5.06596714,6.32072445 4.86640344,6.34941624 4.62102551,6.40524892 C4.37487107,6.46185705 4.15356503,6.58050149 3.95788389,6.76040679 L2.8785316,11.3821118 C2.94531167,11.3929682 3.00199708,11.4046 3.05169388,11.4162318 C3.10061416,11.4263127 3.15186398,11.4348427 3.20777288,11.4402709 C3.26135224,11.4472499 3.32735579,11.4495763 3.40423052,11.4495763 C3.48032874,11.4488009 3.57816931,11.4488009 3.69930525,11.4488009 L3.69930525,11.4488009 Z" id="Fill-1"></path>
                <path d="M11.9606211,13.2804229 L9.53479621,13.2827492 L11.5770239,4.40923067 L14.0207086,4.40690431 L11.9606211,13.2804229 L11.9606211,13.2804229 Z M13.1331548,3.32902344 C12.7945954,3.32902344 12.487873,3.22588808 12.2145406,3.01729099 C11.9412083,2.80946935 11.8045421,2.49230872 11.8037656,2.06348273 C11.8037656,1.82774476 11.8503563,1.60674041 11.9443143,1.39736786 C12.0359428,1.19032168 12.1594082,1.00964093 12.3116047,0.858427428 C12.4645776,0.70643847 12.6416225,0.585467668 12.8450687,0.496290473 C13.0461855,0.405562371 13.2628324,0.360586047 13.4919036,0.359035139 C13.8312395,0.359035139 14.1371854,0.463721411 14.4097413,0.671543046 C14.6822972,0.879364682 14.8205164,1.19730077 14.8205164,1.62457585 C14.8205164,1.86031382 14.7731491,2.08286908 14.6815206,2.29069072 C14.5891157,2.4977369 14.4656502,2.67841765 14.3126772,2.8304066 C14.1597043,2.98239556 13.9826595,3.10414182 13.7799897,3.19331901 C13.578873,3.28249621 13.3630025,3.32902344 13.1331548,3.32902344 L13.1331548,3.32902344 Z" id="Fill-2"></path>
                <path d="M16.5094309,2.19608534 L19.0486266,1.78819661 L18.4297462,4.4038025 L21.1498692,4.40225159 L20.6591134,6.45953069 L17.9545206,6.46185705 L17.2362466,9.56522342 C17.170243,9.82500046 17.1290878,10.0661666 17.1135576,10.2918237 C17.0972508,10.5167053 17.1244288,10.7105688 17.1958679,10.8734141 C17.2665305,11.0362594 17.389996,11.1618829 17.5654878,11.2518356 C17.7402031,11.3417882 17.980922,11.3867645 18.2868679,11.3867645 C18.5485526,11.3859891 18.8032487,11.3603991 19.0486266,11.3092192 C19.294781,11.2595901 19.5424885,11.1890238 19.7940785,11.0982957 L19.9757824,13.0214213 C19.6480942,13.1454939 19.293228,13.2525065 18.9104074,13.3416837 C18.5283633,13.4324118 18.0741035,13.4773882 17.5499576,13.4781636 C16.795964,13.4781636 16.2112501,13.3641719 15.795816,13.1346376 C15.3811584,12.9043278 15.0860836,12.5902689 14.9098153,12.1901347 C14.7351,11.790776 14.6590018,11.3340337 14.6799676,10.815255 C14.70171,10.2980273 14.7770317,9.75288325 14.9082623,9.17904739 L16.5094309,2.19608534" id="Fill-3"></path>
                <path d="M21.2352856,9.73117054 C21.2352856,8.96657303 21.3548685,8.24695185 21.5940344,7.57153153 C21.8347532,6.89688667 22.1779717,6.30676628 22.6260194,5.8003949 C23.0732906,5.29402353 23.6168493,4.89466479 24.255919,4.60154323 C24.8942122,4.30919712 25.6070506,4.16186089 26.3944342,4.16108544 C26.8859666,4.16108544 27.3254727,4.20761267 27.7137289,4.30299349 C28.1027616,4.39914977 28.4537452,4.5247733 28.7721153,4.68141498 L27.9365879,6.63788508 C27.7183879,6.54948334 27.4916463,6.46883614 27.256363,6.39439256 C27.0218563,6.3214999 26.7345467,6.28505357 26.3959873,6.28582902 C25.5759901,6.28660448 24.9307083,6.5719715 24.4624713,7.13960373 C23.9926813,7.70723596 23.758951,8.48113891 23.7597275,9.45976169 C23.7597275,10.0320466 23.8808635,10.4957681 24.1208058,10.8501505 C24.3615247,11.2045329 24.8049133,11.3813364 25.4486421,11.3805609 C25.7654592,11.3805609 26.0729581,11.3464409 26.3664798,11.278201 C26.662331,11.2107365 26.9240157,11.1254366 27.1538634,11.025403 L27.3355673,13.0315022 C27.0296214,13.1563503 26.6933915,13.2656893 26.3268777,13.3610701 C25.9603638,13.4572264 25.5169752,13.5053045 24.9928293,13.5053045 C24.3149339,13.5068554 23.7403147,13.4060464 23.2705247,13.2036529 C22.7999582,13.0012595 22.4124785,12.7298506 22.1065326,12.3871 C21.7998102,12.043574 21.5785041,11.6426643 21.4410614,11.1820447 C21.3043952,10.7206497 21.2360621,10.235991 21.2352856,9.73117054" id="Fill-4"></path>
                <path d="M32.1064597,13.4998763 C31.5271815,13.4998763 31.0247779,13.4106991 30.5976961,13.2307938 C30.1713907,13.0524394 29.8188541,12.798866 29.5400861,12.4731754 C29.2605416,12.1474848 29.0501068,11.7628597 28.9087815,11.3185246 C28.7651267,10.8757404 28.6944641,10.3825518 28.6936876,9.8428359 C28.6936876,9.16819104 28.7992933,8.49354618 29.0128342,7.81890131 C29.2240456,7.143481 29.5377566,6.53630062 29.9531907,5.99736019 C30.3670719,5.45686884 30.876464,5.01563559 31.4774847,4.67133408 C32.0761757,4.32780802 32.7649423,4.15643271 33.5406782,4.1548818 C34.1090853,4.15410635 34.6091593,4.244059 35.0424533,4.42318884 C35.4734177,4.60309414 35.8282838,4.8558921 36.1078283,5.18235817 C36.3865963,5.50727334 36.5970312,5.89267391 36.7391329,6.33700898 C36.8820112,6.78056859 36.9526738,7.27298179 36.9534504,7.81269768 C36.9534504,8.48734254 36.8509507,9.16198741 36.6436219,9.83663227 C36.4362931,10.5112771 36.1303472,11.1184575 35.7281137,11.6589488 C35.3227742,12.1994402 34.8195942,12.6406734 34.213138,12.984975 C33.6066818,13.3277256 32.903938,13.4998763 32.1064597,13.4998763 L32.1064597,13.4998763 Z M33.3131601,6.28040085 C32.9536348,6.28040085 32.6360412,6.38818893 32.3627088,6.60143875 C32.090153,6.81623947 31.8618583,7.08609741 31.6754953,7.41101258 C31.4891323,7.73825411 31.3509131,8.09496289 31.2585081,8.48346527 C31.1645501,8.87119221 31.1195124,9.24030825 31.1195124,9.58926249 C31.1202889,10.1615474 31.2080348,10.6027807 31.3827501,10.9121868 C31.5582419,11.2208174 31.875059,11.3751327 32.3339779,11.3751327 C32.6958327,11.3751327 33.0118732,11.2681201 33.2836526,11.0533194 C33.556985,10.8400696 33.7868326,10.5694362 33.9724191,10.2429701 C34.1572291,9.91650402 34.2962248,9.55979524 34.3894063,9.17206831 C34.4825878,8.78434137 34.5276255,8.41600079 34.5276255,8.06704655 C34.526849,7.49398614 34.4398796,7.05352835 34.2643878,6.74412226 C34.088896,6.43394071 33.7720789,6.27962539 33.3131601,6.28040085 L33.3131601,6.28040085 Z" id="Fill-5"></path>
                <path d="M44.1967584,6.5417288 C43.9785584,6.48434521 43.7626879,6.4323898 43.5507,6.38120985 C43.3363826,6.33080535 43.0226716,6.30676628 42.6072374,6.30676628 C42.4542645,6.30676628 42.2849848,6.32072445 42.1001748,6.34941624 C41.9138118,6.37810803 41.7608389,6.40757528 41.6412559,6.4424707 L40.0563941,13.2571593 L37.6134859,13.2602611 L39.5734033,4.85899391 C40.0439699,4.70080133 40.5712218,4.55191418 41.1567122,4.41000613 C41.7390965,4.26964898 42.3975791,4.19830722 43.1306068,4.19830722 C43.4031627,4.19753177 43.7060025,4.22234629 44.0406794,4.27352625 C44.3730267,4.32315529 44.6657719,4.40457795 44.9181384,4.51624331 L44.1967584,6.5417288" id="Fill-6"></path>
                <path d="M44.7574004,9.77924868 C44.7574004,9.0596275 44.8793128,8.36249447 45.1239142,7.68707416 C45.3700687,7.01320475 45.7148402,6.41300346 46.1636644,5.8895721 C46.6109355,5.36769165 47.1544942,4.94506929 47.7943405,4.62403139 C48.4326337,4.30299349 49.1400365,4.14169909 49.9157725,4.14092364 C50.2985931,4.14092364 50.6534593,4.19753177 50.9811475,4.30997258 C51.3103888,4.42163793 51.5969219,4.5852587 51.8430763,4.7969576 C52.0892308,5.01175832 52.2786998,5.27231082 52.4176955,5.58094146 C52.5543617,5.89034755 52.6226948,6.24162815 52.6234713,6.63555872 C52.6234713,7.26522725 52.4875817,7.80029042 52.2142493,8.2376464 C51.9401404,8.67732874 51.5612023,9.03403752 51.0758821,9.31009909 C50.5897853,9.58616067 50.013613,9.78622777 49.3465889,9.91030039 C48.6795647,10.0351485 47.9535255,10.0964093 47.167695,10.0979602 C47.2437932,10.5694362 47.4107433,10.9044322 47.667769,11.1013975 C47.9240181,11.2968119 48.3324636,11.3945191 48.889223,11.3945191 C49.2394301,11.3945191 49.5942963,11.3635009 49.9553746,11.3014646 C50.3156764,11.2386529 50.6526828,11.1463738 50.9702764,11.0223012 L51.1527568,12.9950559 C50.8468109,13.1199039 50.4562251,13.2323447 49.980223,13.3331537 C49.5049974,13.4355137 48.9893931,13.4859182 48.4326337,13.4866936 C47.7547384,13.4874691 47.1832252,13.3897619 46.7188708,13.1927966 C46.2529633,12.9958313 45.8763548,12.7298506 45.5874921,12.3925282 C45.2963,12.0552058 45.0866416,11.6612752 44.9546345,11.2130629 C44.8234039,10.7640751 44.7581769,10.2848446 44.7574004,9.77924868 L44.7574004,9.77924868 Z M49.5244102,6.1315137 C48.9668743,6.13228916 48.4776714,6.33855989 48.0583547,6.74877498 C47.637485,7.16054098 47.3618231,7.70258323 47.2305925,8.3772281 C47.9084878,8.35396448 48.4543761,8.29502999 48.8705867,8.19809825 C49.2844679,8.10349288 49.6082735,7.9871748 49.8373447,7.85302128 C50.0664159,7.71731686 50.2193888,7.57075608 50.2954871,7.41333894 C50.3723618,7.25592181 50.4104109,7.09850467 50.4104109,6.94108754 C50.4096344,6.40137165 50.1145597,6.1315137 49.5244102,6.1315137 L49.5244102,6.1315137 Z" id="Fill-7"></path>
                <path d="M55.8405624,13.2439765 L54.7301496,13.244752 C54.4979724,12.009454 54.3131624,10.6539606 54.1749432,9.18137375 C54.0351709,7.70801141 53.9551902,6.15555277 53.9326713,4.52554875 L54.9817396,4.5247733 C54.9926108,5.12109732 55.0151296,5.76937675 55.0492962,6.4727134 C55.0819097,7.17527461 55.1253944,7.8762849 55.1813033,8.57341792 C55.2364357,9.27055095 55.2970037,9.92813582 55.3630072,10.5461726 C55.4282343,11.1649847 55.505109,11.681437 55.5936314,12.0970803 C55.943062,11.5914844 56.3002577,11.0292803 56.6667716,10.4104681 C57.0317324,9.79165594 57.381163,9.14725378 57.7135104,8.47881255 C58.0458577,7.80882041 58.3572392,7.13572646 58.6461018,6.46185705 C58.9357409,5.78643674 59.1780128,5.14125912 59.3744705,4.52089603 L60.4740121,4.52089603 C60.4740121,5.07146827 60.4872128,5.67322047 60.5151672,6.32537717 C60.5431217,6.97753387 60.5788413,7.63977147 60.6231025,8.31519179 C60.6665872,8.98983665 60.71939,9.65362516 60.7807345,10.3057819 C60.8405259,10.9579386 60.9096356,11.5534871 60.9865103,12.093203 C61.2489715,11.7892251 61.5681181,11.3317073 61.9447266,10.7183233 C62.3213352,10.1041639 62.7002732,9.43494717 63.0815408,8.7098978 C63.4643615,7.98484844 63.8215572,7.25049363 64.154681,6.50683337 C64.4870283,5.76627493 64.7347358,5.10171097 64.8985799,4.51779421 L65.9476482,4.51624331 C65.6960582,5.3483053 65.36837,6.2005291 64.9661365,7.07213924 C64.5623501,7.94452484 64.1337152,8.77115866 63.6810084,9.5520407 C63.2283017,10.3360246 62.7779245,11.0486667 62.3306533,11.6961706 C61.8826056,12.3428992 61.4896903,12.8578005 61.1511309,13.2393238 L60.0399416,13.2400993 C59.9304534,12.2521711 59.8256242,11.1835956 59.7246776,10.0366994 C59.6245075,8.88902765 59.563163,7.75996682 59.5406441,6.64641507 C59.3216676,7.17527461 59.0677481,7.74135593 58.7788854,8.34233267 C58.4900228,8.94408487 58.1817474,9.54040889 57.8548356,10.1313047 C57.5271474,10.7222006 57.191694,11.286731 56.847699,11.8264469 C56.5044805,12.3669382 56.1682506,12.8384142 55.8405624,13.2439765" id="Fill-8"></path>
                <path d="M90.2897601,6.53707608 C90.2905366,7.16674461 90.1406697,7.67854416 89.8409359,8.07092382 C89.5396491,8.46562984 89.1187794,8.77813774 88.5798797,9.00922299 C88.0386506,9.24030825 87.3887097,9.40625537 86.6292805,9.50861528 C85.8698513,9.61019974 85.0242293,9.68386786 84.0962969,9.72961963 L84.0978499,10.0840021 C84.0978499,10.4104681 84.1304635,10.714446 84.1956905,10.9951603 C84.2624706,11.2758746 84.381277,11.5201426 84.5575453,11.7279642 C84.7314841,11.9357859 84.975309,12.1009576 85.2866905,12.2250302 C85.5988485,12.3483273 86.0010819,12.4095882 86.4926143,12.4095882 C86.8746584,12.4095882 87.2590321,12.3529801 87.6472883,12.2397638 C88.034768,12.1280984 88.4028349,11.958274 88.7538185,11.732617 L88.8695189,12.7445843 C88.4975694,12.9586095 88.0883474,13.1253321 87.6395232,13.2432011 C87.190699,13.3610701 86.7379922,13.4215555 86.2782969,13.4223309 C85.6780528,13.4223309 85.1733197,13.3432346 84.7625446,13.1873684 C84.3533225,13.0284004 84.0201987,12.8104978 83.7631731,12.5290081 C83.505371,12.2490692 83.322114,11.9117468 83.2134023,11.5178162 C83.1031375,11.1246611 83.0487816,10.6919579 83.0487816,10.2197065 C83.0464521,9.50086074 83.1528343,8.78589228 83.3663752,8.076352 C83.5783631,7.36836262 83.8920741,6.73404136 84.3067318,6.17106185 C84.7213894,5.6088578 85.2323346,5.15521729 85.8387908,4.81169123 C86.445247,4.46894062 87.1355666,4.29601441 87.9113025,4.29601441 C88.6761673,4.2944635 89.2647637,4.49995877 89.6739858,4.91017387 C90.0839843,5.31961351 90.2897601,5.86243121 90.2897601,6.53707608 L90.2897601,6.53707608 Z M87.813462,5.29092172 C87.377062,5.29169717 86.9670634,5.38475163 86.5850193,5.57008511 C86.2021986,5.75696949 85.8589802,6.00666563 85.5514812,6.3214999 C85.2478649,6.63633417 84.9815211,7.00312385 84.758662,7.41876712 C84.5342499,7.83518584 84.3688528,8.27331728 84.2593645,8.73471233 C85.1880734,8.71067326 85.9700214,8.6494124 86.6036556,8.54705249 C87.2372897,8.44469258 87.7482349,8.30433543 88.1349381,8.12443014 C88.5239708,7.94452484 88.7988562,7.72739776 88.9627004,7.47382434 C89.127321,7.22102638 89.2088548,6.93178209 89.2088548,6.60531602 C89.2080783,6.16718458 89.0799537,5.83839214 88.8229281,5.6189387 C88.565126,5.40026071 88.2288961,5.29092172 87.813462,5.29092172 L87.813462,5.29092172 Z" id="Fill-9"></path>
                <path d="M75.3154943,13.1245567 C76.0446395,9.57452886 78.079102,0.138030788 78.079102,0.138030788 L76.9873256,0.340424246 C76.9873256,0.340424246 74.8464808,9.95605216 74.1786801,13.118353 C74.5552886,13.118353 74.9334502,13.1206794 75.3154943,13.1245567" id="Fill-10"></path>
                <path d="M79.6523162,13.253282 C80.3573895,9.8125932 82.4431019,0.138030788 82.4431019,0.138030788 L81.3513255,0.340424246 C81.3513255,0.340424246 79.1693255,10.1398347 78.5240437,13.2036529 C78.8990992,13.219162 79.2749312,13.2346711 79.6523162,13.253282" id="Fill-11"></path>
                <path d="M91.6665167,14.7848034 C92.2147344,12.0776939 93.5697486,5.43825795 93.5697486,5.43825795 L96.5810639,5.43515613 L96.7953813,4.49065333 L93.8089145,4.49297969 L94.4363365,1.7261603 L93.3251472,1.93010467 C93.3251472,1.93010467 91.560911,10.3639409 90.7230541,14.5886135 C91.0383181,14.6537517 91.3551352,14.7165634 91.6665167,14.7848034" id="Fill-12"></path>
                <path d="M99.1202595,19.9981797 C99.2048994,19.4871556 99.0037827,19.346023 98.2645428,19.1382014 C77.0805071,13.1734102 53.8946222,17.8214807 53.3176735,17.9424515 C51.7436827,18.2720194 50.9213561,19.1847286 50.757512,20.2897504 C50.7567354,20.2905258 50.7551824,20.2905258 50.7544059,20.2905258 L50.7544059,20.2998313 C50.7008265,20.6767018 50.7210159,21.0745097 50.8165269,21.4792966 C68.4239464,18.0990932 79.6111611,17.3670647 99.0193129,20.6045846 C99.0193129,20.6045846 99.1202595,19.9997306 99.1202595,19.9981797" id="Fill-13"></path>
                <path d="M71.1836716,12.8694323 C71.2139556,12.976445 71.2527812,13.0625203 71.2892773,13.1540239 C71.6658858,13.1454939 72.0580246,13.1454939 72.4416218,13.1400657 C72.3049556,12.8236806 72.2094445,12.5328854 72.1558652,12.2700065 C72.0999563,12.0001485 72.0727783,11.7132306 72.0727783,11.4092527 C72.0727783,11.1843711 72.0937442,10.9486331 72.1372289,10.7004879 C72.1807136,10.4538935 72.2366225,10.1886883 72.3002965,9.90874948 L73.5597997,4.66202863 C72.9354837,4.42629066 72.2839897,4.30919712 71.6060944,4.30919712 C70.7860972,4.30997258 70.0297741,4.45110518 69.3347955,4.73337039 C68.6405934,5.01408469 68.0395727,5.41189252 67.5325101,5.92369207 C67.023118,6.43471617 66.6278731,7.05740562 66.3444461,7.78788316 C66.059466,8.51913615 65.9181408,9.33413816 65.9196938,10.2336646 C65.9196938,10.7966442 65.994239,11.2820783 66.1417764,11.6922934 C66.2900902,12.1025085 66.4849948,12.4375045 66.7264902,12.6949552 C66.9664326,12.9539568 67.245977,13.1454939 67.5643471,13.2687911 C67.8811642,13.3913128 68.2150646,13.4541245 68.5660482,13.4533491 C69.0148724,13.4533491 69.4497193,13.3618455 69.8713656,13.1819402 C70.2930118,13.0020349 70.6944688,12.7205452 71.0780659,12.337471 C71.0990317,12.5181517 71.1347513,12.6949552 71.1836716,12.8694323 L71.1836716,12.8694323 Z M69.9435812,12.1110385 C69.5491129,12.3304919 69.1274667,12.4413818 68.679419,12.4413818 C68.4487948,12.4413818 68.2321478,12.4002827 68.0294781,12.3157583 C67.8268083,12.2312338 67.647434,12.0963048 67.494461,11.9109714 C67.3414881,11.7256379 67.2219052,11.4782681 67.1341592,11.168862 C67.0448603,10.8602314 67.0013756,10.4756063 67.0013756,10.0142112 C67.0013756,9.42951899 67.0961101,8.85490768 67.2871322,8.29347908 C67.4773777,7.73049957 67.7545927,7.22955638 68.115671,6.79064949 C68.4767493,6.35251806 68.9193613,5.99813564 69.4442837,5.72750224 C69.9692062,5.4576443 70.5710033,5.32193987 71.2496752,5.32193987 C71.425167,5.32193987 71.5944467,5.33279622 71.7590673,5.35450893 C71.9244645,5.37699709 72.1046154,5.41189252 72.301073,5.45454248 L71.4360381,9.06583113 C71.3599399,9.3806654 71.2776296,9.73504781 71.1914367,10.1289784 C71.1029143,10.5221335 71.0602061,10.8710877 71.0602061,11.1742902 C70.709999,11.5790771 70.337273,11.8923605 69.9435812,12.1110385 L69.9435812,12.1110385 Z" id="Fill-14"></path>
                <path d="M99.0426083,11.1975538 C99.5978147,11.1975538 99.9775293,11.1200084 100.184858,10.9625913 C100.390634,10.8051741 100.49391,10.6337988 100.49391,10.4492408 C100.49391,10.3298209 100.475274,10.2259101 100.437225,10.1398347 C100.399176,10.0529839 100.336278,9.97078579 100.249309,9.89556676 C100.162339,9.81957228 100.042756,9.74047599 99.8913364,9.65905333 C99.7383634,9.57840613 99.5426823,9.48224985 99.304293,9.37446176 C99.0317371,9.25504187 98.7762645,9.12709198 98.5370987,8.99216301 C98.2979329,8.85568313 98.0882745,8.69283782 97.9096767,8.50285162 C97.7295258,8.31364088 97.588977,8.09573834 97.4857009,7.85147038 C97.3816482,7.60720241 97.3311749,7.31640721 97.3311749,6.98063569 C97.3311749,6.101271 97.6542041,5.40646434 98.3010389,4.89544025 C98.9478738,4.38596706 99.8913364,4.13084273 101.129874,4.13084273 C101.716917,4.13084273 102.238733,4.19598086 102.695323,4.32625711 C103.151912,4.45653336 103.521532,4.59766596 103.804959,4.74965492 L102.972538,6.55723788 C102.744243,6.43781798 102.450721,6.32382626 102.092749,6.21526272 C101.734,6.10669918 101.380687,6.05241741 101.032033,6.05241741 C100.879837,6.05241741 100.730746,6.06017195 100.583985,6.07645648 C100.437225,6.09274101 100.301335,6.12841189 100.176316,6.18269366 C100.051298,6.23697543 99.9503513,6.31296991 99.8742531,6.4106771 C99.7981549,6.50838428 99.7608823,6.63788508 99.7608823,6.80073039 C99.7608823,7.01863293 99.8447457,7.18147824 100.013249,7.28926632 C100.181752,7.39860532 100.417812,7.52888157 100.722205,7.68009507 C101.14618,7.88714125 101.499494,8.07712745 101.782144,8.25082912 C102.064795,8.42453078 102.289983,8.6090888 102.459263,8.80450317 C102.627766,8.99914209 102.749679,9.22247281 102.825777,9.47216895 C102.902652,9.7218651 102.939924,10.0149867 102.939924,10.3515336 C102.939924,10.698937 102.866932,11.0409121 102.720171,11.3774591 C102.57341,11.7132306 102.34201,12.0125558 102.027522,12.2731083 C101.711482,12.5336608 101.310025,12.7445843 100.820045,12.9074296 C100.330842,13.0702749 99.743799,13.152473 99.0589151,13.152473 C98.6349393,13.152473 98.2521186,13.1253321 97.9096767,13.0702749 C97.5672347,13.0159931 97.2659478,12.9485286 97.0042632,12.867106 C96.743355,12.7856833 96.523602,12.7019343 96.3442276,12.6150835 C96.1648532,12.5282326 96.0258575,12.4576663 95.9280169,12.4033846 L96.7596617,10.546948 C96.9452482,10.6555115 97.2333343,10.791216 97.6246966,10.9540613 C98.0160589,11.1169066 98.4881784,11.1975538 99.0426083,11.1975538" id="Fill-15"></path>
                <path d="M104.619521,9.56987614 C104.619521,8.87506948 104.74221,8.20197552 104.986034,7.54981882 C105.231412,6.89843758 105.576184,6.32072445 106.021902,5.81590398 C106.466844,5.31185897 107.008849,4.90397024 107.644037,4.59456415 C108.28,4.28515805 108.984297,4.13084273 109.75615,4.13084273 C110.136641,4.13084273 110.489955,4.18434905 110.81609,4.29368805 C111.142225,4.40225159 111.427205,4.55966872 111.672583,4.765164 C111.916408,4.97221018 112.106654,5.22423268 112.24332,5.52278242 C112.379209,5.82210761 112.446766,6.16098095 112.446766,6.54095334 C112.446766,7.14890917 112.310876,7.66458599 112.039097,8.0879838 C111.767318,8.51138161 111.389156,8.85568313 110.905389,9.12243926 C110.421622,9.38764448 109.848555,9.58073249 109.185414,9.70015239 C108.522272,9.81957228 107.799339,9.87928223 107.015838,9.87928223 C107.092713,10.3352491 107.25811,10.6578379 107.513582,10.8478241 C107.769055,11.0378103 108.174395,11.1324157 108.728048,11.1324157 C109.076702,11.1324157 109.430015,11.1029484 109.788764,11.0432385 C110.147513,10.9835285 110.483743,10.8943513 110.799783,10.774156 L110.979157,12.6802216 C110.673988,12.7996415 110.285732,12.9074296 109.812836,13.0051368 C109.340716,13.1028439 108.826665,13.152473 108.272235,13.152473 C107.597446,13.152473 107.029815,13.0570922 106.56779,12.867106 C106.106542,12.6778952 105.73071,12.4196691 105.442624,12.0939785 C105.154538,11.7682878 104.944879,11.38754 104.814425,10.9540613 C104.684748,10.5198071 104.619521,10.0584121 104.619521,9.56987614 L104.619521,9.56987614 Z M109.364788,6.05241741 C108.810358,6.05241741 108.323485,6.2509336 107.904945,6.64641507 C107.486405,7.042672 107.212296,7.56687881 107.081842,8.21826005 C107.755854,8.19654735 108.299413,8.13916376 108.712518,8.04688475 C109.125622,7.95538119 109.446322,7.84371584 109.674617,7.71266413 C109.902911,7.58238788 110.054331,7.44203074 110.131206,7.28926632 C110.207304,7.13805282 110.245353,6.98606386 110.245353,6.83407491 C110.245353,6.31296991 109.951832,6.05241741 109.364788,6.05241741 L109.364788,6.05241741 Z" id="Fill-16"></path>
                <path d="M119.328219,6.44324616 C119.110796,6.38896439 118.895702,6.33700898 118.683714,6.28815539 C118.471726,6.23930179 118.159568,6.21526272 117.746463,6.21526272 C117.59349,6.21526272 117.425764,6.22844544 117.240177,6.25558632 C117.055367,6.28272721 116.903947,6.31296991 116.783588,6.34553897 L115.201832,12.9244896 L112.772901,12.9244896 L114.729713,4.81479304 C115.197173,4.66280409 115.721319,4.51856967 116.302927,4.38286524 C116.884535,4.24716081 117.539911,4.17969633 118.26828,4.17969633 C118.539283,4.17969633 118.841346,4.2037354 119.173693,4.25258899 C119.504488,4.30144259 119.794903,4.38053888 120.045717,4.48910242 L119.328219,6.44324616" id="Fill-17"></path>
                <path d="M122.164819,12.9244896 C121.882169,11.8388541 121.627473,10.5709871 121.399178,9.12243926 C121.170883,7.67311599 121.013251,6.08498647 120.926282,4.35882617 L123.437523,4.35882617 C123.447618,4.78222398 123.463924,5.24672085 123.485667,5.75076586 C123.508186,6.25558632 123.535364,6.7635086 123.567977,7.27375725 C123.600591,7.78400589 123.63864,8.28107182 123.681348,8.76340412 C123.724833,9.24728733 123.774529,9.6830924 123.828885,10.0746966 C124.067275,9.74823053 124.336724,9.34732088 124.635682,8.8696413 C124.934639,8.39196172 125.225831,7.89256943 125.508482,7.37146443 C125.790356,6.85035944 126.051264,6.32615262 126.291206,5.79961945 C126.529596,5.27386173 126.715182,4.79308033 126.84486,4.35882617 L129.422104,4.35882617 C129.139454,5.12962731 128.78847,5.92214116 128.36993,6.73559226 C127.95139,7.54981882 127.502566,8.33767995 127.024234,9.09684928 C126.545902,9.85756952 126.059806,10.5686607 125.565167,11.2301229 C125.069752,11.8931359 124.61161,12.4576663 124.187634,12.9244896 L122.164819,12.9244896" id="Fill-18"></path>
                <path d="M131.345526,12.9244896 L128.932125,12.9244896 L130.97047,4.35882617 L133.400178,4.35882617 L131.345526,12.9244896 L131.345526,12.9244896 Z M132.519612,3.31584072 C132.183383,3.31584072 131.878213,3.21580718 131.606434,3.01574008 C131.334655,2.81412207 131.198765,2.5078178 131.198765,2.09527634 C131.198765,1.86729291 131.245356,1.65326764 131.337761,1.45164963 C131.430166,1.25080708 131.552078,1.07788087 131.704274,0.930544637 C131.857247,0.784759311 132.032739,0.667665777 132.234632,0.580814944 C132.435749,0.493964112 132.650067,0.450538695 132.878361,0.450538695 C133.215368,0.450538695 133.519761,0.550572244 133.79154,0.752190248 C134.063319,0.953032799 134.199209,1.25933708 134.199209,1.67110308 C134.199209,1.89986197 134.153395,2.11466269 134.06099,2.31472978 C133.967808,2.51557234 133.845896,2.689274 133.693699,2.83583478 C133.542279,2.98317102 133.365235,3.0994891 133.164118,3.18556447 C132.962225,3.27319076 132.747907,3.31584072 132.519612,3.31584072 L132.519612,3.31584072 Z" id="Fill-19"></path>
                <path d="M134.036141,9.50473801 C134.036141,8.76650594 134.156501,8.07169927 134.39489,7.41954257 C134.634832,6.76893678 134.976498,6.19897819 135.422216,5.7096668 C135.868711,5.22113087 136.409163,4.83650575 137.045127,4.55424054 C137.681867,4.27197534 138.390823,4.13084273 139.172771,4.13084273 C139.661974,4.13084273 140.099927,4.17736997 140.485854,4.26887352 C140.87178,4.36115253 141.221987,4.48367424 141.537251,4.6356632 L140.706383,6.52466881 C140.48896,6.43781798 140.262995,6.35872169 140.029264,6.28815539 C139.795534,6.21836454 139.509777,6.18269366 139.172771,6.18269366 C138.358209,6.18269366 137.71681,6.45642887 137.24935,7.00467476 C136.781113,7.55292064 136.548159,8.29968271 136.548159,9.24418552 C136.548159,9.79785957 136.667742,10.2452965 136.906908,10.5872716 C137.145297,10.9300222 137.586356,11.0998466 138.227755,11.0998466 C138.543019,11.0998466 138.847412,11.0672776 139.140158,11.0029149 C139.434456,10.9370013 139.694587,10.8563541 139.922882,10.7586469 L140.103033,12.6965061 C139.797864,12.815926 139.463963,12.9213877 139.099779,13.0136667 C138.735595,13.1059458 138.292982,13.152473 137.771166,13.152473 C137.097153,13.152473 136.52564,13.0547658 136.058956,12.8593514 C135.590719,12.6639371 135.204792,12.4002827 134.901176,12.0691639 C134.596783,11.7388206 134.376254,11.3503182 134.240364,10.9044322 C134.104474,10.4600972 134.036141,9.99327395 134.036141,9.50473801" id="Fill-20"></path>
                <path d="M141.455718,9.56987614 C141.455718,8.87506948 141.578407,8.20197552 141.823008,7.54981882 C142.067609,6.89843758 142.412381,6.32072445 142.858876,5.81590398 C143.303817,5.31185897 143.845046,4.90397024 144.480234,4.59456415 C145.116974,4.28515805 145.820494,4.13084273 146.592347,4.13084273 C146.972838,4.13084273 147.326152,4.18434905 147.652287,4.29368805 C147.978422,4.40225159 148.263402,4.55966872 148.50878,4.765164 C148.752605,4.97221018 148.942851,5.22423268 149.079517,5.52278242 C149.215406,5.82210761 149.282963,6.16098095 149.282963,6.54095334 C149.282963,7.14890917 149.147073,7.66458599 148.87607,8.0879838 C148.603515,8.51138161 148.22613,8.85568313 147.742362,9.12243926 C147.258595,9.38764448 146.684752,9.58073249 146.022387,9.70015239 C145.358469,9.81957228 144.636313,9.87928223 143.852812,9.87928223 C143.92891,10.3352491 144.094307,10.6578379 144.350556,10.8478241 C144.606029,11.0378103 145.010592,11.1324157 145.565021,11.1324157 C145.912899,11.1324157 146.266212,11.1029484 146.624961,11.0432385 C146.98371,10.9835285 147.320716,10.8943513 147.63598,10.774156 L147.815354,12.6802216 C147.510962,12.7996415 147.122705,12.9074296 146.649033,13.0051368 C146.176913,13.1028439 145.662862,13.152473 145.108432,13.152473 C144.434419,13.152473 143.866012,13.0570922 143.404764,12.867106 C142.942739,12.6778952 142.567683,12.4196691 142.278821,12.0939785 C141.990735,11.7682878 141.781853,11.38754 141.651399,10.9540613 C141.520945,10.5198071 141.455718,10.0584121 141.455718,9.56987614 L141.455718,9.56987614 Z M146.200985,6.05241741 C145.646555,6.05241741 145.160458,6.2509336 144.741142,6.64641507 C144.322602,7.042672 144.049269,7.56687881 143.918815,8.21826005 C144.592051,8.19654735 145.13561,8.13916376 145.549491,8.04688475 C145.962596,7.95538119 146.283295,7.84371584 146.51159,7.71266413 C146.739885,7.58238788 146.891305,7.44203074 146.968179,7.28926632 C147.043501,7.13805282 147.08155,6.98606386 147.08155,6.83407491 C147.08155,6.31296991 146.788029,6.05241741 146.200985,6.05241741 L146.200985,6.05241741 Z" id="Fill-21"></path>
            </g>
            <g id="Group" transform="translate(0.000000, 104.906749)" fill="#A39F9A" sketch:type="MSShapeGroup">
                <path d="M5.82384328,4.22854992 C6.34798917,4.22854992 6.80147244,4.32315529 7.18506958,4.5146924 C7.56789021,4.70545405 7.88470728,4.96368019 8.1355208,5.28937081 C8.38711083,5.61506143 8.5726973,5.99736019 8.69383324,6.43471617 C8.81496918,6.87439851 8.87398413,7.34664991 8.87553715,7.85302128 C8.87553715,8.62847515 8.73809445,9.36127905 8.45777346,10.0537594 C8.18133504,10.7454642 7.80239697,11.3479918 7.32095926,11.8590159 C6.84107457,12.3708155 6.27344398,12.7763779 5.61729097,13.0749276 C4.96191447,13.3734773 4.2521821,13.5231399 3.48731735,13.5231399 C3.38947679,13.5246908 3.21786754,13.521589 2.9717131,13.5161609 C2.72478214,13.5107327 2.44368464,13.4851427 2.12531454,13.4409418 C1.80927398,13.3959655 1.47304409,13.328501 1.11817791,13.2385484 C0.762535213,13.1485957 0.426305328,13.0268495 0.109488254,12.8694323 L2.93599352,0.604854014 L5.47674222,0.198516189 L4.46417,4.55036328 C4.68236999,4.44877882 4.89979348,4.36968253 5.11799347,4.31384985 C5.33774649,4.25724171 5.57147673,4.22932538 5.82384328,4.22854992 L5.82384328,4.22854992 Z M3.69930525,11.4488009 C4.08134937,11.4488009 4.44165114,11.3526446 4.77943405,11.1611075 C5.11799347,10.9703458 5.41151517,10.714446 5.65611659,10.3934081 C5.90227103,10.0723702 6.09639914,9.71023329 6.23772441,9.30467092 C6.37827316,8.89910855 6.44893579,8.47881255 6.44893579,8.03913021 C6.44815928,7.50018978 6.3619664,7.07834287 6.1872511,6.77514041 C6.01098277,6.4711625 5.6879536,6.31994899 5.21894009,6.31994899 C5.06596714,6.32072445 4.86640344,6.34941624 4.62102551,6.40524892 C4.37487107,6.46185705 4.15356503,6.58050149 3.95788389,6.76040679 L2.8785316,11.3821118 C2.94531167,11.3929682 3.00199708,11.4046 3.05169388,11.4162318 C3.10061416,11.4263127 3.15186398,11.4348427 3.20777288,11.4402709 C3.26135224,11.4472499 3.32735579,11.4495763 3.40423052,11.4495763 C3.48032874,11.4488009 3.57816931,11.4488009 3.69930525,11.4488009 L3.69930525,11.4488009 Z" id="Fill-1"></path>
                <path d="M11.9606211,13.2804229 L9.53479621,13.2827492 L11.5770239,4.40923067 L14.0207086,4.40690431 L11.9606211,13.2804229 L11.9606211,13.2804229 Z M13.1331548,3.32902344 C12.7945954,3.32902344 12.487873,3.22588808 12.2145406,3.01729099 C11.9412083,2.80946935 11.8045421,2.49230872 11.8037656,2.06348273 C11.8037656,1.82774476 11.8503563,1.60674041 11.9443143,1.39736786 C12.0359428,1.19032168 12.1594082,1.00964093 12.3116047,0.858427428 C12.4645776,0.70643847 12.6416225,0.585467668 12.8450687,0.496290473 C13.0461855,0.405562371 13.2628324,0.360586047 13.4919036,0.359035139 C13.8312395,0.359035139 14.1371854,0.463721411 14.4097413,0.671543046 C14.6822972,0.879364682 14.8205164,1.19730077 14.8205164,1.62457585 C14.8205164,1.86031382 14.7731491,2.08286908 14.6815206,2.29069072 C14.5891157,2.4977369 14.4656502,2.67841765 14.3126772,2.8304066 C14.1597043,2.98239556 13.9826595,3.10414182 13.7799897,3.19331901 C13.578873,3.28249621 13.3630025,3.32902344 13.1331548,3.32902344 L13.1331548,3.32902344 Z" id="Fill-2"></path>
                <path d="M16.5094309,2.19608534 L19.0486266,1.78819661 L18.4297462,4.4038025 L21.1498692,4.40225159 L20.6591134,6.45953069 L17.9545206,6.46185705 L17.2362466,9.56522342 C17.170243,9.82500046 17.1290878,10.0661666 17.1135576,10.2918237 C17.0972508,10.5167053 17.1244288,10.7105688 17.1958679,10.8734141 C17.2665305,11.0362594 17.389996,11.1618829 17.5654878,11.2518356 C17.7402031,11.3417882 17.980922,11.3867645 18.2868679,11.3867645 C18.5485526,11.3859891 18.8032487,11.3603991 19.0486266,11.3092192 C19.294781,11.2595901 19.5424885,11.1890238 19.7940785,11.0982957 L19.9757824,13.0214213 C19.6480942,13.1454939 19.293228,13.2525065 18.9104074,13.3416837 C18.5283633,13.4324118 18.0741035,13.4773882 17.5499576,13.4781636 C16.795964,13.4781636 16.2112501,13.3641719 15.795816,13.1346376 C15.3811584,12.9043278 15.0860836,12.5902689 14.9098153,12.1901347 C14.7351,11.790776 14.6590018,11.3340337 14.6799676,10.815255 C14.70171,10.2980273 14.7770317,9.75288325 14.9082623,9.17904739 L16.5094309,2.19608534" id="Fill-3"></path>
                <path d="M21.2352856,9.73117054 C21.2352856,8.96657303 21.3548685,8.24695185 21.5940344,7.57153153 C21.8347532,6.89688667 22.1779717,6.30676628 22.6260194,5.8003949 C23.0732906,5.29402353 23.6168493,4.89466479 24.255919,4.60154323 C24.8942122,4.30919712 25.6070506,4.16186089 26.3944342,4.16108544 C26.8859666,4.16108544 27.3254727,4.20761267 27.7137289,4.30299349 C28.1027616,4.39914977 28.4537452,4.5247733 28.7721153,4.68141498 L27.9365879,6.63788508 C27.7183879,6.54948334 27.4916463,6.46883614 27.256363,6.39439256 C27.0218563,6.3214999 26.7345467,6.28505357 26.3959873,6.28582902 C25.5759901,6.28660448 24.9307083,6.5719715 24.4624713,7.13960373 C23.9926813,7.70723596 23.758951,8.48113891 23.7597275,9.45976169 C23.7597275,10.0320466 23.8808635,10.4957681 24.1208058,10.8501505 C24.3615247,11.2045329 24.8049133,11.3813364 25.4486421,11.3805609 C25.7654592,11.3805609 26.0729581,11.3464409 26.3664798,11.278201 C26.662331,11.2107365 26.9240157,11.1254366 27.1538634,11.025403 L27.3355673,13.0315022 C27.0296214,13.1563503 26.6933915,13.2656893 26.3268777,13.3610701 C25.9603638,13.4572264 25.5169752,13.5053045 24.9928293,13.5053045 C24.3149339,13.5068554 23.7403147,13.4060464 23.2705247,13.2036529 C22.7999582,13.0012595 22.4124785,12.7298506 22.1065326,12.3871 C21.7998102,12.043574 21.5785041,11.6426643 21.4410614,11.1820447 C21.3043952,10.7206497 21.2360621,10.235991 21.2352856,9.73117054" id="Fill-4"></path>
                <path d="M32.1064597,13.4998763 C31.5271815,13.4998763 31.0247779,13.4106991 30.5976961,13.2307938 C30.1713907,13.0524394 29.8188541,12.798866 29.5400861,12.4731754 C29.2605416,12.1474848 29.0501068,11.7628597 28.9087815,11.3185246 C28.7651267,10.8757404 28.6944641,10.3825518 28.6936876,9.8428359 C28.6936876,9.16819104 28.7992933,8.49354618 29.0128342,7.81890131 C29.2240456,7.143481 29.5377566,6.53630062 29.9531907,5.99736019 C30.3670719,5.45686884 30.876464,5.01563559 31.4774847,4.67133408 C32.0761757,4.32780802 32.7649423,4.15643271 33.5406782,4.1548818 C34.1090853,4.15410635 34.6091593,4.244059 35.0424533,4.42318884 C35.4734177,4.60309414 35.8282838,4.8558921 36.1078283,5.18235817 C36.3865963,5.50727334 36.5970312,5.89267391 36.7391329,6.33700898 C36.8820112,6.78056859 36.9526738,7.27298179 36.9534504,7.81269768 C36.9534504,8.48734254 36.8509507,9.16198741 36.6436219,9.83663227 C36.4362931,10.5112771 36.1303472,11.1184575 35.7281137,11.6589488 C35.3227742,12.1994402 34.8195942,12.6406734 34.213138,12.984975 C33.6066818,13.3277256 32.903938,13.4998763 32.1064597,13.4998763 L32.1064597,13.4998763 Z M33.3131601,6.28040085 C32.9536348,6.28040085 32.6360412,6.38818893 32.3627088,6.60143875 C32.090153,6.81623947 31.8618583,7.08609741 31.6754953,7.41101258 C31.4891323,7.73825411 31.3509131,8.09496289 31.2585081,8.48346527 C31.1645501,8.87119221 31.1195124,9.24030825 31.1195124,9.58926249 C31.1202889,10.1615474 31.2080348,10.6027807 31.3827501,10.9121868 C31.5582419,11.2208174 31.875059,11.3751327 32.3339779,11.3751327 C32.6958327,11.3751327 33.0118732,11.2681201 33.2836526,11.0533194 C33.556985,10.8400696 33.7868326,10.5694362 33.9724191,10.2429701 C34.1572291,9.91650402 34.2962248,9.55979524 34.3894063,9.17206831 C34.4825878,8.78434137 34.5276255,8.41600079 34.5276255,8.06704655 C34.526849,7.49398614 34.4398796,7.05352835 34.2643878,6.74412226 C34.088896,6.43394071 33.7720789,6.27962539 33.3131601,6.28040085 L33.3131601,6.28040085 Z" id="Fill-5"></path>
                <path d="M44.1967584,6.5417288 C43.9785584,6.48434521 43.7626879,6.4323898 43.5507,6.38120985 C43.3363826,6.33080535 43.0226716,6.30676628 42.6072374,6.30676628 C42.4542645,6.30676628 42.2849848,6.32072445 42.1001748,6.34941624 C41.9138118,6.37810803 41.7608389,6.40757528 41.6412559,6.4424707 L40.0563941,13.2571593 L37.6134859,13.2602611 L39.5734033,4.85899391 C40.0439699,4.70080133 40.5712218,4.55191418 41.1567122,4.41000613 C41.7390965,4.26964898 42.3975791,4.19830722 43.1306068,4.19830722 C43.4031627,4.19753177 43.7060025,4.22234629 44.0406794,4.27352625 C44.3730267,4.32315529 44.6657719,4.40457795 44.9181384,4.51624331 L44.1967584,6.5417288" id="Fill-6"></path>
                <path d="M44.7574004,9.77924868 C44.7574004,9.0596275 44.8793128,8.36249447 45.1239142,7.68707416 C45.3700687,7.01320475 45.7148402,6.41300346 46.1636644,5.8895721 C46.6109355,5.36769165 47.1544942,4.94506929 47.7943405,4.62403139 C48.4326337,4.30299349 49.1400365,4.14169909 49.9157725,4.14092364 C50.2985931,4.14092364 50.6534593,4.19753177 50.9811475,4.30997258 C51.3103888,4.42163793 51.5969219,4.5852587 51.8430763,4.7969576 C52.0892308,5.01175832 52.2786998,5.27231082 52.4176955,5.58094146 C52.5543617,5.89034755 52.6226948,6.24162815 52.6234713,6.63555872 C52.6234713,7.26522725 52.4875817,7.80029042 52.2142493,8.2376464 C51.9401404,8.67732874 51.5612023,9.03403752 51.0758821,9.31009909 C50.5897853,9.58616067 50.013613,9.78622777 49.3465889,9.91030039 C48.6795647,10.0351485 47.9535255,10.0964093 47.167695,10.0979602 C47.2437932,10.5694362 47.4107433,10.9044322 47.667769,11.1013975 C47.9240181,11.2968119 48.3324636,11.3945191 48.889223,11.3945191 C49.2394301,11.3945191 49.5942963,11.3635009 49.9553746,11.3014646 C50.3156764,11.2386529 50.6526828,11.1463738 50.9702764,11.0223012 L51.1527568,12.9950559 C50.8468109,13.1199039 50.4562251,13.2323447 49.980223,13.3331537 C49.5049974,13.4355137 48.9893931,13.4859182 48.4326337,13.4866936 C47.7547384,13.4874691 47.1832252,13.3897619 46.7188708,13.1927966 C46.2529633,12.9958313 45.8763548,12.7298506 45.5874921,12.3925282 C45.2963,12.0552058 45.0866416,11.6612752 44.9546345,11.2130629 C44.8234039,10.7640751 44.7581769,10.2848446 44.7574004,9.77924868 L44.7574004,9.77924868 Z M49.5244102,6.1315137 C48.9668743,6.13228916 48.4776714,6.33855989 48.0583547,6.74877498 C47.637485,7.16054098 47.3618231,7.70258323 47.2305925,8.3772281 C47.9084878,8.35396448 48.4543761,8.29502999 48.8705867,8.19809825 C49.2844679,8.10349288 49.6082735,7.9871748 49.8373447,7.85302128 C50.0664159,7.71731686 50.2193888,7.57075608 50.2954871,7.41333894 C50.3723618,7.25592181 50.4104109,7.09850467 50.4104109,6.94108754 C50.4096344,6.40137165 50.1145597,6.1315137 49.5244102,6.1315137 L49.5244102,6.1315137 Z" id="Fill-7"></path>
                <path d="M55.8405624,13.2439765 L54.7301496,13.244752 C54.4979724,12.009454 54.3131624,10.6539606 54.1749432,9.18137375 C54.0351709,7.70801141 53.9551902,6.15555277 53.9326713,4.52554875 L54.9817396,4.5247733 C54.9926108,5.12109732 55.0151296,5.76937675 55.0492962,6.4727134 C55.0819097,7.17527461 55.1253944,7.8762849 55.1813033,8.57341792 C55.2364357,9.27055095 55.2970037,9.92813582 55.3630072,10.5461726 C55.4282343,11.1649847 55.505109,11.681437 55.5936314,12.0970803 C55.943062,11.5914844 56.3002577,11.0292803 56.6667716,10.4104681 C57.0317324,9.79165594 57.381163,9.14725378 57.7135104,8.47881255 C58.0458577,7.80882041 58.3572392,7.13572646 58.6461018,6.46185705 C58.9357409,5.78643674 59.1780128,5.14125912 59.3744705,4.52089603 L60.4740121,4.52089603 C60.4740121,5.07146827 60.4872128,5.67322047 60.5151672,6.32537717 C60.5431217,6.97753387 60.5788413,7.63977147 60.6231025,8.31519179 C60.6665872,8.98983665 60.71939,9.65362516 60.7807345,10.3057819 C60.8405259,10.9579386 60.9096356,11.5534871 60.9865103,12.093203 C61.2489715,11.7892251 61.5681181,11.3317073 61.9447266,10.7183233 C62.3213352,10.1041639 62.7002732,9.43494717 63.0815408,8.7098978 C63.4643615,7.98484844 63.8215572,7.25049363 64.154681,6.50683337 C64.4870283,5.76627493 64.7347358,5.10171097 64.8985799,4.51779421 L65.9476482,4.51624331 C65.6960582,5.3483053 65.36837,6.2005291 64.9661365,7.07213924 C64.5623501,7.94452484 64.1337152,8.77115866 63.6810084,9.5520407 C63.2283017,10.3360246 62.7779245,11.0486667 62.3306533,11.6961706 C61.8826056,12.3428992 61.4896903,12.8578005 61.1511309,13.2393238 L60.0399416,13.2400993 C59.9304534,12.2521711 59.8256242,11.1835956 59.7246776,10.0366994 C59.6245075,8.88902765 59.563163,7.75996682 59.5406441,6.64641507 C59.3216676,7.17527461 59.0677481,7.74135593 58.7788854,8.34233267 C58.4900228,8.94408487 58.1817474,9.54040889 57.8548356,10.1313047 C57.5271474,10.7222006 57.191694,11.286731 56.847699,11.8264469 C56.5044805,12.3669382 56.1682506,12.8384142 55.8405624,13.2439765" id="Fill-8"></path>
                <path d="M90.2897601,6.53707608 C90.2905366,7.16674461 90.1406697,7.67854416 89.8409359,8.07092382 C89.5396491,8.46562984 89.1187794,8.77813774 88.5798797,9.00922299 C88.0386506,9.24030825 87.3887097,9.40625537 86.6292805,9.50861528 C85.8698513,9.61019974 85.0242293,9.68386786 84.0962969,9.72961963 L84.0978499,10.0840021 C84.0978499,10.4104681 84.1304635,10.714446 84.1956905,10.9951603 C84.2624706,11.2758746 84.381277,11.5201426 84.5575453,11.7279642 C84.7314841,11.9357859 84.975309,12.1009576 85.2866905,12.2250302 C85.5988485,12.3483273 86.0010819,12.4095882 86.4926143,12.4095882 C86.8746584,12.4095882 87.2590321,12.3529801 87.6472883,12.2397638 C88.034768,12.1280984 88.4028349,11.958274 88.7538185,11.732617 L88.8695189,12.7445843 C88.4975694,12.9586095 88.0883474,13.1253321 87.6395232,13.2432011 C87.190699,13.3610701 86.7379922,13.4215555 86.2782969,13.4223309 C85.6780528,13.4223309 85.1733197,13.3432346 84.7625446,13.1873684 C84.3533225,13.0284004 84.0201987,12.8104978 83.7631731,12.5290081 C83.505371,12.2490692 83.322114,11.9117468 83.2134023,11.5178162 C83.1031375,11.1246611 83.0487816,10.6919579 83.0487816,10.2197065 C83.0464521,9.50086074 83.1528343,8.78589228 83.3663752,8.076352 C83.5783631,7.36836262 83.8920741,6.73404136 84.3067318,6.17106185 C84.7213894,5.6088578 85.2323346,5.15521729 85.8387908,4.81169123 C86.445247,4.46894062 87.1355666,4.29601441 87.9113025,4.29601441 C88.6761673,4.2944635 89.2647637,4.49995877 89.6739858,4.91017387 C90.0839843,5.31961351 90.2897601,5.86243121 90.2897601,6.53707608 L90.2897601,6.53707608 Z M87.813462,5.29092172 C87.377062,5.29169717 86.9670634,5.38475163 86.5850193,5.57008511 C86.2021986,5.75696949 85.8589802,6.00666563 85.5514812,6.3214999 C85.2478649,6.63633417 84.9815211,7.00312385 84.758662,7.41876712 C84.5342499,7.83518584 84.3688528,8.27331728 84.2593645,8.73471233 C85.1880734,8.71067326 85.9700214,8.6494124 86.6036556,8.54705249 C87.2372897,8.44469258 87.7482349,8.30433543 88.1349381,8.12443014 C88.5239708,7.94452484 88.7988562,7.72739776 88.9627004,7.47382434 C89.127321,7.22102638 89.2088548,6.93178209 89.2088548,6.60531602 C89.2080783,6.16718458 89.0799537,5.83839214 88.8229281,5.6189387 C88.565126,5.40026071 88.2288961,5.29092172 87.813462,5.29092172 L87.813462,5.29092172 Z" id="Fill-9"></path>
                <path d="M75.3154943,13.1245567 C76.0446395,9.57452886 78.079102,0.138030788 78.079102,0.138030788 L76.9873256,0.340424246 C76.9873256,0.340424246 74.8464808,9.95605216 74.1786801,13.118353 C74.5552886,13.118353 74.9334502,13.1206794 75.3154943,13.1245567" id="Fill-10"></path>
                <path d="M79.6523162,13.253282 C80.3573895,9.8125932 82.4431019,0.138030788 82.4431019,0.138030788 L81.3513255,0.340424246 C81.3513255,0.340424246 79.1693255,10.1398347 78.5240437,13.2036529 C78.8990992,13.219162 79.2749312,13.2346711 79.6523162,13.253282" id="Fill-11"></path>
                <path d="M91.6665167,14.7848034 C92.2147344,12.0776939 93.5697486,5.43825795 93.5697486,5.43825795 L96.5810639,5.43515613 L96.7953813,4.49065333 L93.8089145,4.49297969 L94.4363365,1.7261603 L93.3251472,1.93010467 C93.3251472,1.93010467 91.560911,10.3639409 90.7230541,14.5886135 C91.0383181,14.6537517 91.3551352,14.7165634 91.6665167,14.7848034" id="Fill-12"></path>
                <path d="M99.1202595,19.9981797 C99.2048994,19.4871556 99.0037827,19.346023 98.2645428,19.1382014 C77.0805071,13.1734102 53.8946222,17.8214807 53.3176735,17.9424515 C51.7436827,18.2720194 50.9213561,19.1847286 50.757512,20.2897504 C50.7567354,20.2905258 50.7551824,20.2905258 50.7544059,20.2905258 L50.7544059,20.2998313 C50.7008265,20.6767018 50.7210159,21.0745097 50.8165269,21.4792966 C68.4239464,18.0990932 79.6111611,17.3670647 99.0193129,20.6045846 C99.0193129,20.6045846 99.1202595,19.9997306 99.1202595,19.9981797" id="Fill-13"></path>
                <path d="M71.1836716,12.8694323 C71.2139556,12.976445 71.2527812,13.0625203 71.2892773,13.1540239 C71.6658858,13.1454939 72.0580246,13.1454939 72.4416218,13.1400657 C72.3049556,12.8236806 72.2094445,12.5328854 72.1558652,12.2700065 C72.0999563,12.0001485 72.0727783,11.7132306 72.0727783,11.4092527 C72.0727783,11.1843711 72.0937442,10.9486331 72.1372289,10.7004879 C72.1807136,10.4538935 72.2366225,10.1886883 72.3002965,9.90874948 L73.5597997,4.66202863 C72.9354837,4.42629066 72.2839897,4.30919712 71.6060944,4.30919712 C70.7860972,4.30997258 70.0297741,4.45110518 69.3347955,4.73337039 C68.6405934,5.01408469 68.0395727,5.41189252 67.5325101,5.92369207 C67.023118,6.43471617 66.6278731,7.05740562 66.3444461,7.78788316 C66.059466,8.51913615 65.9181408,9.33413816 65.9196938,10.2336646 C65.9196938,10.7966442 65.994239,11.2820783 66.1417764,11.6922934 C66.2900902,12.1025085 66.4849948,12.4375045 66.7264902,12.6949552 C66.9664326,12.9539568 67.245977,13.1454939 67.5643471,13.2687911 C67.8811642,13.3913128 68.2150646,13.4541245 68.5660482,13.4533491 C69.0148724,13.4533491 69.4497193,13.3618455 69.8713656,13.1819402 C70.2930118,13.0020349 70.6944688,12.7205452 71.0780659,12.337471 C71.0990317,12.5181517 71.1347513,12.6949552 71.1836716,12.8694323 L71.1836716,12.8694323 Z M69.9435812,12.1110385 C69.5491129,12.3304919 69.1274667,12.4413818 68.679419,12.4413818 C68.4487948,12.4413818 68.2321478,12.4002827 68.0294781,12.3157583 C67.8268083,12.2312338 67.647434,12.0963048 67.494461,11.9109714 C67.3414881,11.7256379 67.2219052,11.4782681 67.1341592,11.168862 C67.0448603,10.8602314 67.0013756,10.4756063 67.0013756,10.0142112 C67.0013756,9.42951899 67.0961101,8.85490768 67.2871322,8.29347908 C67.4773777,7.73049957 67.7545927,7.22955638 68.115671,6.79064949 C68.4767493,6.35251806 68.9193613,5.99813564 69.4442837,5.72750224 C69.9692062,5.4576443 70.5710033,5.32193987 71.2496752,5.32193987 C71.425167,5.32193987 71.5944467,5.33279622 71.7590673,5.35450893 C71.9244645,5.37699709 72.1046154,5.41189252 72.301073,5.45454248 L71.4360381,9.06583113 C71.3599399,9.3806654 71.2776296,9.73504781 71.1914367,10.1289784 C71.1029143,10.5221335 71.0602061,10.8710877 71.0602061,11.1742902 C70.709999,11.5790771 70.337273,11.8923605 69.9435812,12.1110385 L69.9435812,12.1110385 Z" id="Fill-14"></path>
                <path d="M99.0426083,11.1975538 C99.5978147,11.1975538 99.9775293,11.1200084 100.184858,10.9625913 C100.390634,10.8051741 100.49391,10.6337988 100.49391,10.4492408 C100.49391,10.3298209 100.475274,10.2259101 100.437225,10.1398347 C100.399176,10.0529839 100.336278,9.97078579 100.249309,9.89556676 C100.162339,9.81957228 100.042756,9.74047599 99.8913364,9.65905333 C99.7383634,9.57840613 99.5426823,9.48224985 99.304293,9.37446176 C99.0317371,9.25504187 98.7762645,9.12709198 98.5370987,8.99216301 C98.2979329,8.85568313 98.0882745,8.69283782 97.9096767,8.50285162 C97.7295258,8.31364088 97.588977,8.09573834 97.4857009,7.85147038 C97.3816482,7.60720241 97.3311749,7.31640721 97.3311749,6.98063569 C97.3311749,6.101271 97.6542041,5.40646434 98.3010389,4.89544025 C98.9478738,4.38596706 99.8913364,4.13084273 101.129874,4.13084273 C101.716917,4.13084273 102.238733,4.19598086 102.695323,4.32625711 C103.151912,4.45653336 103.521532,4.59766596 103.804959,4.74965492 L102.972538,6.55723788 C102.744243,6.43781798 102.450721,6.32382626 102.092749,6.21526272 C101.734,6.10669918 101.380687,6.05241741 101.032033,6.05241741 C100.879837,6.05241741 100.730746,6.06017195 100.583985,6.07645648 C100.437225,6.09274101 100.301335,6.12841189 100.176316,6.18269366 C100.051298,6.23697543 99.9503513,6.31296991 99.8742531,6.4106771 C99.7981549,6.50838428 99.7608823,6.63788508 99.7608823,6.80073039 C99.7608823,7.01863293 99.8447457,7.18147824 100.013249,7.28926632 C100.181752,7.39860532 100.417812,7.52888157 100.722205,7.68009507 C101.14618,7.88714125 101.499494,8.07712745 101.782144,8.25082912 C102.064795,8.42453078 102.289983,8.6090888 102.459263,8.80450317 C102.627766,8.99914209 102.749679,9.22247281 102.825777,9.47216895 C102.902652,9.7218651 102.939924,10.0149867 102.939924,10.3515336 C102.939924,10.698937 102.866932,11.0409121 102.720171,11.3774591 C102.57341,11.7132306 102.34201,12.0125558 102.027522,12.2731083 C101.711482,12.5336608 101.310025,12.7445843 100.820045,12.9074296 C100.330842,13.0702749 99.743799,13.152473 99.0589151,13.152473 C98.6349393,13.152473 98.2521186,13.1253321 97.9096767,13.0702749 C97.5672347,13.0159931 97.2659478,12.9485286 97.0042632,12.867106 C96.743355,12.7856833 96.523602,12.7019343 96.3442276,12.6150835 C96.1648532,12.5282326 96.0258575,12.4576663 95.9280169,12.4033846 L96.7596617,10.546948 C96.9452482,10.6555115 97.2333343,10.791216 97.6246966,10.9540613 C98.0160589,11.1169066 98.4881784,11.1975538 99.0426083,11.1975538" id="Fill-15"></path>
                <path d="M104.619521,9.56987614 C104.619521,8.87506948 104.74221,8.20197552 104.986034,7.54981882 C105.231412,6.89843758 105.576184,6.32072445 106.021902,5.81590398 C106.466844,5.31185897 107.008849,4.90397024 107.644037,4.59456415 C108.28,4.28515805 108.984297,4.13084273 109.75615,4.13084273 C110.136641,4.13084273 110.489955,4.18434905 110.81609,4.29368805 C111.142225,4.40225159 111.427205,4.55966872 111.672583,4.765164 C111.916408,4.97221018 112.106654,5.22423268 112.24332,5.52278242 C112.379209,5.82210761 112.446766,6.16098095 112.446766,6.54095334 C112.446766,7.14890917 112.310876,7.66458599 112.039097,8.0879838 C111.767318,8.51138161 111.389156,8.85568313 110.905389,9.12243926 C110.421622,9.38764448 109.848555,9.58073249 109.185414,9.70015239 C108.522272,9.81957228 107.799339,9.87928223 107.015838,9.87928223 C107.092713,10.3352491 107.25811,10.6578379 107.513582,10.8478241 C107.769055,11.0378103 108.174395,11.1324157 108.728048,11.1324157 C109.076702,11.1324157 109.430015,11.1029484 109.788764,11.0432385 C110.147513,10.9835285 110.483743,10.8943513 110.799783,10.774156 L110.979157,12.6802216 C110.673988,12.7996415 110.285732,12.9074296 109.812836,13.0051368 C109.340716,13.1028439 108.826665,13.152473 108.272235,13.152473 C107.597446,13.152473 107.029815,13.0570922 106.56779,12.867106 C106.106542,12.6778952 105.73071,12.4196691 105.442624,12.0939785 C105.154538,11.7682878 104.944879,11.38754 104.814425,10.9540613 C104.684748,10.5198071 104.619521,10.0584121 104.619521,9.56987614 L104.619521,9.56987614 Z M109.364788,6.05241741 C108.810358,6.05241741 108.323485,6.2509336 107.904945,6.64641507 C107.486405,7.042672 107.212296,7.56687881 107.081842,8.21826005 C107.755854,8.19654735 108.299413,8.13916376 108.712518,8.04688475 C109.125622,7.95538119 109.446322,7.84371584 109.674617,7.71266413 C109.902911,7.58238788 110.054331,7.44203074 110.131206,7.28926632 C110.207304,7.13805282 110.245353,6.98606386 110.245353,6.83407491 C110.245353,6.31296991 109.951832,6.05241741 109.364788,6.05241741 L109.364788,6.05241741 Z" id="Fill-16"></path>
                <path d="M119.328219,6.44324616 C119.110796,6.38896439 118.895702,6.33700898 118.683714,6.28815539 C118.471726,6.23930179 118.159568,6.21526272 117.746463,6.21526272 C117.59349,6.21526272 117.425764,6.22844544 117.240177,6.25558632 C117.055367,6.28272721 116.903947,6.31296991 116.783588,6.34553897 L115.201832,12.9244896 L112.772901,12.9244896 L114.729713,4.81479304 C115.197173,4.66280409 115.721319,4.51856967 116.302927,4.38286524 C116.884535,4.24716081 117.539911,4.17969633 118.26828,4.17969633 C118.539283,4.17969633 118.841346,4.2037354 119.173693,4.25258899 C119.504488,4.30144259 119.794903,4.38053888 120.045717,4.48910242 L119.328219,6.44324616" id="Fill-17"></path>
                <path d="M122.164819,12.9244896 C121.882169,11.8388541 121.627473,10.5709871 121.399178,9.12243926 C121.170883,7.67311599 121.013251,6.08498647 120.926282,4.35882617 L123.437523,4.35882617 C123.447618,4.78222398 123.463924,5.24672085 123.485667,5.75076586 C123.508186,6.25558632 123.535364,6.7635086 123.567977,7.27375725 C123.600591,7.78400589 123.63864,8.28107182 123.681348,8.76340412 C123.724833,9.24728733 123.774529,9.6830924 123.828885,10.0746966 C124.067275,9.74823053 124.336724,9.34732088 124.635682,8.8696413 C124.934639,8.39196172 125.225831,7.89256943 125.508482,7.37146443 C125.790356,6.85035944 126.051264,6.32615262 126.291206,5.79961945 C126.529596,5.27386173 126.715182,4.79308033 126.84486,4.35882617 L129.422104,4.35882617 C129.139454,5.12962731 128.78847,5.92214116 128.36993,6.73559226 C127.95139,7.54981882 127.502566,8.33767995 127.024234,9.09684928 C126.545902,9.85756952 126.059806,10.5686607 125.565167,11.2301229 C125.069752,11.8931359 124.61161,12.4576663 124.187634,12.9244896 L122.164819,12.9244896" id="Fill-18"></path>
                <path d="M131.345526,12.9244896 L128.932125,12.9244896 L130.97047,4.35882617 L133.400178,4.35882617 L131.345526,12.9244896 L131.345526,12.9244896 Z M132.519612,3.31584072 C132.183383,3.31584072 131.878213,3.21580718 131.606434,3.01574008 C131.334655,2.81412207 131.198765,2.5078178 131.198765,2.09527634 C131.198765,1.86729291 131.245356,1.65326764 131.337761,1.45164963 C131.430166,1.25080708 131.552078,1.07788087 131.704274,0.930544637 C131.857247,0.784759311 132.032739,0.667665777 132.234632,0.580814944 C132.435749,0.493964112 132.650067,0.450538695 132.878361,0.450538695 C133.215368,0.450538695 133.519761,0.550572244 133.79154,0.752190248 C134.063319,0.953032799 134.199209,1.25933708 134.199209,1.67110308 C134.199209,1.89986197 134.153395,2.11466269 134.06099,2.31472978 C133.967808,2.51557234 133.845896,2.689274 133.693699,2.83583478 C133.542279,2.98317102 133.365235,3.0994891 133.164118,3.18556447 C132.962225,3.27319076 132.747907,3.31584072 132.519612,3.31584072 L132.519612,3.31584072 Z" id="Fill-19"></path>
                <path d="M134.036141,9.50473801 C134.036141,8.76650594 134.156501,8.07169927 134.39489,7.41954257 C134.634832,6.76893678 134.976498,6.19897819 135.422216,5.7096668 C135.868711,5.22113087 136.409163,4.83650575 137.045127,4.55424054 C137.681867,4.27197534 138.390823,4.13084273 139.172771,4.13084273 C139.661974,4.13084273 140.099927,4.17736997 140.485854,4.26887352 C140.87178,4.36115253 141.221987,4.48367424 141.537251,4.6356632 L140.706383,6.52466881 C140.48896,6.43781798 140.262995,6.35872169 140.029264,6.28815539 C139.795534,6.21836454 139.509777,6.18269366 139.172771,6.18269366 C138.358209,6.18269366 137.71681,6.45642887 137.24935,7.00467476 C136.781113,7.55292064 136.548159,8.29968271 136.548159,9.24418552 C136.548159,9.79785957 136.667742,10.2452965 136.906908,10.5872716 C137.145297,10.9300222 137.586356,11.0998466 138.227755,11.0998466 C138.543019,11.0998466 138.847412,11.0672776 139.140158,11.0029149 C139.434456,10.9370013 139.694587,10.8563541 139.922882,10.7586469 L140.103033,12.6965061 C139.797864,12.815926 139.463963,12.9213877 139.099779,13.0136667 C138.735595,13.1059458 138.292982,13.152473 137.771166,13.152473 C137.097153,13.152473 136.52564,13.0547658 136.058956,12.8593514 C135.590719,12.6639371 135.204792,12.4002827 134.901176,12.0691639 C134.596783,11.7388206 134.376254,11.3503182 134.240364,10.9044322 C134.104474,10.4600972 134.036141,9.99327395 134.036141,9.50473801" id="Fill-20"></path>
                <path d="M141.455718,9.56987614 C141.455718,8.87506948 141.578407,8.20197552 141.823008,7.54981882 C142.067609,6.89843758 142.412381,6.32072445 142.858876,5.81590398 C143.303817,5.31185897 143.845046,4.90397024 144.480234,4.59456415 C145.116974,4.28515805 145.820494,4.13084273 146.592347,4.13084273 C146.972838,4.13084273 147.326152,4.18434905 147.652287,4.29368805 C147.978422,4.40225159 148.263402,4.55966872 148.50878,4.765164 C148.752605,4.97221018 148.942851,5.22423268 149.079517,5.52278242 C149.215406,5.82210761 149.282963,6.16098095 149.282963,6.54095334 C149.282963,7.14890917 149.147073,7.66458599 148.87607,8.0879838 C148.603515,8.51138161 148.22613,8.85568313 147.742362,9.12243926 C147.258595,9.38764448 146.684752,9.58073249 146.022387,9.70015239 C145.358469,9.81957228 144.636313,9.87928223 143.852812,9.87928223 C143.92891,10.3352491 144.094307,10.6578379 144.350556,10.8478241 C144.606029,11.0378103 145.010592,11.1324157 145.565021,11.1324157 C145.912899,11.1324157 146.266212,11.1029484 146.624961,11.0432385 C146.98371,10.9835285 147.320716,10.8943513 147.63598,10.774156 L147.815354,12.6802216 C147.510962,12.7996415 147.122705,12.9074296 146.649033,13.0051368 C146.176913,13.1028439 145.662862,13.152473 145.108432,13.152473 C144.434419,13.152473 143.866012,13.0570922 143.404764,12.867106 C142.942739,12.6778952 142.567683,12.4196691 142.278821,12.0939785 C141.990735,11.7682878 141.781853,11.38754 141.651399,10.9540613 C141.520945,10.5198071 141.455718,10.0584121 141.455718,9.56987614 L141.455718,9.56987614 Z M146.200985,6.05241741 C145.646555,6.05241741 145.160458,6.2509336 144.741142,6.64641507 C144.322602,7.042672 144.049269,7.56687881 143.918815,8.21826005 C144.592051,8.19654735 145.13561,8.13916376 145.549491,8.04688475 C145.962596,7.95538119 146.283295,7.84371584 146.51159,7.71266413 C146.739885,7.58238788 146.891305,7.44203074 146.968179,7.28926632 C147.043501,7.13805282 147.08155,6.98606386 147.08155,6.83407491 C147.08155,6.31296991 146.788029,6.05241741 146.200985,6.05241741 L146.200985,6.05241741 Z" id="Fill-21"></path>
            </g>
        </g>
    </g>
</svg>