<?xml version="1.0" encoding="UTF-8" standalone="no"?>
<svg width="128px" height="118px" viewBox="0 0 128 118" version="1.1" xmlns="http://www.w3.org/2000/svg" xmlns:xlink="http://www.w3.org/1999/xlink" xmlns:sketch="http://www.bohemiancoding.com/sketch/ns">
    <!-- Generator: Sketch 3.2.2 (9983) - http://www.bohemiancoding.com/sketch -->
    <title>Group + Group</title>
    <desc>Created with Sketch.</desc>
    <defs></defs>
    <g id="Page-1" stroke="none" stroke-width="1" fill="none" fill-rule="evenodd" sketch:type="MSPage">
        <g id="Group-+-Group" sketch:type="MSLayerGroup">
            <g id="Group" fill="#6B6A65" sketch:type="MSShapeGroup">
                <path d="M7.77987273,5.74320833 C8.45536364,5.74320833 9.03938182,5.86525 9.5331,6.11295833 C10.0256455,6.35825 10.4337545,6.69175 10.7574273,7.11104167 C11.0811,7.53154167 11.3203364,8.02454167 11.4763091,8.58883333 C11.6322818,9.15554167 11.7085091,9.76454167 11.7096818,10.4170417 C11.7096818,11.4175417 11.5326,12.3624583 11.1725727,13.2554167 C10.8160636,14.1471667 10.3282091,14.924125 9.70783636,15.583875 C9.08980909,16.243625 8.3592,16.7668333 7.51366364,17.1510833 C6.67047273,17.5365417 5.75574545,17.729875 4.77065455,17.729875 C4.64517273,17.7310833 4.42352727,17.7274583 4.10689091,17.7202083 C3.78908182,17.7129583 3.42670909,17.6803333 3.01742727,17.6235417 C2.61049091,17.5655417 2.17658182,17.4785417 1.72039091,17.3625417 C1.26185455,17.2465417 0.829118182,17.0894583 0.421009091,16.8864583 L4.06115455,1.07058333 L7.33306364,0.546166667 L6.02899091,6.158875 C6.31044545,6.02716667 6.58955455,5.92566667 6.87100909,5.85316667 C7.15363636,5.78066667 7.45502727,5.74441667 7.77987273,5.74320833 L7.77987273,5.74320833 Z M5.0439,15.054625 C5.53644545,15.054625 5.99967273,14.9301667 6.43475455,14.6836667 C6.87100909,14.4371667 7.24862727,14.1072917 7.56409091,13.6940417 C7.88072727,13.2795833 8.13051818,12.8119583 8.31346364,12.2899583 C8.49406364,11.76675 8.58553636,11.2242083 8.58553636,10.6575 C8.58436364,9.96270833 8.47295455,9.41895833 8.24779091,9.02745833 C8.02145455,8.63595833 7.60513636,8.44020833 7.00118182,8.44020833 C6.80416364,8.44141667 6.54733636,8.478875 6.2307,8.55016667 C5.91406364,8.623875 5.62909091,8.776125 5.37695455,9.008125 L3.98727273,14.9688333 C4.07288182,14.982125 4.14559091,14.9978333 4.21009091,15.0123333 C4.27341818,15.025625 4.33909091,15.0365 4.41062727,15.04375 C4.47981818,15.0522083 4.56542727,15.0558333 4.66393636,15.0558333 C4.76244545,15.054625 4.88792727,15.054625 5.0439,15.054625 L5.0439,15.054625 Z" id="Fill-1"></path>
                <path d="M15.6828818,17.4169167 L12.5587364,17.4193333 L15.1891636,5.97641667 L18.3355909,5.974 L15.6828818,17.4169167 L15.6828818,17.4169167 Z M17.1933545,4.58320833 C16.7571,4.58320833 16.3618909,4.45029167 16.0100727,4.18204167 C15.6582545,3.91379167 15.4823455,3.50416667 15.4811727,2.95195833 C15.4811727,2.64745833 15.5409818,2.36229167 15.6617727,2.09283333 C15.7802182,1.82579167 15.9385364,1.59258333 16.1355545,1.39804167 C16.3325727,1.20108333 16.5600818,1.04520833 16.8216,0.930416667 C17.0807727,0.813208333 17.3598818,0.755208333 17.6554091,0.754 C18.0916636,0.754 18.4857,0.888125 18.8375182,1.156375 C19.1881636,1.424625 19.3664182,1.83425 19.3664182,2.38525 C19.3664182,2.68975 19.3054364,2.976125 19.1869909,3.244375 C19.0685455,3.51141667 18.9090545,3.744625 18.7120364,3.940375 C18.5150182,4.136125 18.2875091,4.29320833 18.0259909,4.408 C17.7668182,4.524 17.4888818,4.58320833 17.1933545,4.58320833 L17.1933545,4.58320833 Z" id="Fill-2"></path>
                <path d="M21.5406545,3.12233333 L24.8113909,2.59670833 L24.0139364,5.96916667 L27.5168727,5.96795833 L26.8847727,8.62025 L23.4017727,8.623875 L22.4764909,12.625875 C22.3920545,12.9605833 22.3392818,13.271125 22.3193455,13.5623333 C22.2982364,13.8523333 22.3334182,14.1024583 22.4248909,14.3127083 C22.5163636,14.5229583 22.6746818,14.684875 22.9010182,14.800875 C23.1261818,14.916875 23.4357818,14.974875 23.8298182,14.974875 C24.1675636,14.9736667 24.4947545,14.9410417 24.8113909,14.8745833 C25.1280273,14.8105417 25.4470091,14.7199167 25.7706818,14.6027083 L26.0052273,17.0822083 C25.5830455,17.2429167 25.1256818,17.3806667 24.6331364,17.4954583 C24.1405909,17.6126667 23.5565727,17.6706667 22.8810818,17.671875 C21.9100636,17.671875 21.1571727,17.5244583 20.6224091,17.2284167 C20.0876455,16.9311667 19.7076818,16.526375 19.4813455,16.0104167 C19.2561818,15.4956667 19.1576727,14.906 19.1846455,14.2377917 C19.2127909,13.5707917 19.3101273,12.8675417 19.479,12.1280417 L21.5406545,3.12233333" id="Fill-3"></path>
                <path d="M27.6271091,12.83975 C27.6271091,11.85375 27.7807364,10.92575 28.0891636,10.0545417 C28.3987636,9.18454167 28.8408818,8.42329167 29.4178636,7.77079167 C29.9936727,7.11708333 30.6937909,6.60233333 31.5170455,6.224125 C32.3391273,5.847125 33.2573727,5.65741667 34.2706091,5.65620833 C34.9038818,5.65620833 35.4703091,5.716625 35.9698909,5.839875 C36.4706455,5.963125 36.9233182,6.12504167 37.3326,6.32804167 L36.2572091,8.85104167 C35.9757545,8.73625 35.6837455,8.63233333 35.3811818,8.536875 C35.0786182,8.442625 34.7092091,8.3955 34.2729545,8.39670833 C33.2175,8.39791667 32.3860364,8.76525 31.7832545,9.4975 C31.1781273,10.22975 30.8767364,11.2278333 30.8779091,12.4893333 C30.8779091,13.227625 31.0338818,13.82575 31.3434818,14.2825 C31.6530818,14.73925 32.2242,14.967625 33.0533182,14.9664167 C33.4614273,14.9664167 33.8566364,14.9229167 34.2354273,14.8347083 C34.6165636,14.7477083 34.9531364,14.63775 35.2486636,14.5084583 L35.4832091,17.0955 C35.0891727,17.2562083 34.6564364,17.3975833 34.1838273,17.5208333 C33.7123909,17.6440833 33.1412727,17.7069167 32.4657818,17.7069167 C31.5932727,17.708125 30.8532818,17.5788333 30.2481545,17.3178333 C29.6418545,17.0568333 29.1434455,16.7064167 28.7494091,16.2641667 C28.3542,15.8219167 28.0692273,15.30475 27.8921455,14.71025 C27.7162364,14.11575 27.6282818,13.4910417 27.6271091,12.83975" id="Fill-4"></path>
                <path d="M41.6271273,17.6996667 C40.8812727,17.6996667 40.2339273,17.584875 39.6839182,17.352875 C39.1350818,17.1220833 38.6812364,16.7958333 38.3223818,16.3753333 C37.9623545,15.9560417 37.6914545,15.4594167 37.5085091,14.8866667 C37.3243909,14.315125 37.2329182,13.6795417 37.2317455,12.9835417 C37.2317455,12.1135417 37.3677818,11.2435417 37.6433727,10.3735417 C37.9154455,9.50233333 38.3188636,8.71933333 38.8536273,8.02454167 C39.3872182,7.32733333 40.0427727,6.75820833 40.8167727,6.31475 C41.5884273,5.87129167 42.4750091,5.65016667 43.4741727,5.64895833 C44.2059545,5.64775 44.8497818,5.76375 45.408,5.99454167 C45.9627,6.22654167 46.4200636,6.55279167 46.7800909,6.97329167 C47.1389455,7.39258333 47.4098455,7.88920833 47.5927909,8.46195833 C47.7769091,9.03470833 47.8683818,9.66908333 47.8695545,10.3650833 C47.8695545,11.2350833 47.7370364,12.1050833 47.4696545,12.9750833 C47.2034455,13.8450833 46.8094091,14.6280833 46.2910636,15.3252917 C45.7692,16.0225 45.1206818,16.591625 44.3396455,17.0350833 C43.5586091,17.4773333 42.6544364,17.6996667 41.6271273,17.6996667 L41.6271273,17.6996667 Z M43.1809909,8.38945833 C42.7177636,8.38945833 42.3084818,8.52841667 41.9566636,8.80391667 C41.6060182,9.080625 41.3116636,9.428625 41.0724273,9.84791667 C40.8320182,10.269625 40.6537636,10.73 40.5353182,11.23025 C40.4145273,11.7305 40.3558909,12.2065833 40.3558909,12.6560833 C40.3570636,13.394375 40.4696455,13.9635 40.6948091,14.36225 C40.9211455,14.761 41.3292545,14.9591667 41.9203091,14.9591667 C42.3858818,14.9591667 42.7928182,14.8214167 43.1434636,14.5447083 C43.4952818,14.2692083 43.7908091,13.92 44.0300455,13.4995 C44.2681091,13.079 44.4475364,12.618625 44.5671545,12.118375 C44.6867727,11.618125 44.7454091,11.14325 44.7454091,10.69375 C44.7442364,9.95425 44.6316545,9.38633333 44.4064909,8.98758333 C44.1801545,8.587625 43.7720455,8.38825 43.1809909,8.38945833 L43.1809909,8.38945833 Z" id="Fill-5"></path>
                <path d="M57.1974273,8.72658333 C56.9159727,8.652875 56.6380364,8.58520833 56.3647909,8.51995833 C56.0892,8.45470833 55.6846091,8.42329167 55.1498455,8.42329167 C54.9528273,8.42329167 54.7347,8.44141667 54.4966364,8.478875 C54.2574,8.515125 54.0603818,8.55379167 53.9055818,8.5985 L51.8650364,17.3867083 L48.7186091,17.3903333 L51.2434909,6.55641667 C51.8486182,6.35220833 52.5276273,6.16008333 53.2816909,5.977625 C54.0322364,5.796375 54.8801182,5.70454167 55.8241636,5.70454167 C56.1748091,5.70333333 56.5653273,5.73595833 56.9957182,5.80120833 C57.4237636,5.86525 57.8013818,5.970375 58.1262273,6.11416667 L57.1974273,8.72658333" id="Fill-6"></path>
                <path d="M57.9186545,12.901375 C57.9186545,11.973375 58.0758,11.074375 58.3912636,10.2031667 C58.7079,9.334375 59.1523636,8.56104167 59.7305182,7.88558333 C60.3063273,7.21254167 61.0064455,6.66758333 61.8297,6.253125 C62.6517818,5.839875 63.5629909,5.63204167 64.5621545,5.63083333 C65.0547,5.63083333 65.5120636,5.70333333 65.9342455,5.84833333 C66.3576,5.992125 66.7270091,6.20358333 67.0436455,6.47666667 C67.3614545,6.753375 67.6053818,7.08929167 67.7836364,7.48804167 C67.9595455,7.88679167 68.0475,8.33991667 68.0486727,8.84741667 C68.0486727,9.65941667 67.8739364,10.349375 67.5221182,10.9136667 C67.1691273,11.480375 66.6812727,11.94075 66.0562091,12.296 C65.4299727,12.6524583 64.6876364,12.9110417 63.8292,13.0705417 C62.9695909,13.23125 62.0349273,13.311 61.0228636,13.3122083 C61.1213727,13.92 61.3359818,14.3525833 61.6666909,14.6063333 C61.9974,14.858875 62.5227818,14.9845417 63.2404909,14.9845417 C63.6908182,14.9845417 64.1481818,14.9446667 64.6125818,14.8649167 C65.0769818,14.7839583 65.5108909,14.6643333 65.9201727,14.5048333 L66.1547182,17.048375 C65.7606818,17.2090833 65.2575818,17.3540833 64.6454182,17.4845833 C64.0332545,17.6162917 63.3694909,17.6815417 62.6517818,17.68275 C61.7792727,17.6839583 61.0428,17.5570833 60.4447091,17.3033333 C59.8454455,17.0495833 59.3599364,16.7064167 58.9881818,16.2714167 C58.6129091,15.8364167 58.3431818,15.3289167 58.1731364,14.750125 C58.0042636,14.1713333 57.9198273,13.553875 57.9186545,12.901375 L57.9186545,12.901375 Z M64.0578818,8.19733333 C63.3401727,8.19854167 62.7104182,8.464375 62.1697909,8.993625 C61.6279909,9.52408333 61.2726545,10.2237083 61.1037818,11.0937083 C61.9774636,11.0635 62.6799273,10.987375 63.2158636,10.8629167 C63.7494545,10.740875 64.1657727,10.5910417 64.4613,10.4170417 C64.7556545,10.2430417 64.9526727,10.0533333 65.0511818,9.85033333 C65.1496909,9.64733333 65.1989455,9.44433333 65.1989455,9.24133333 C65.1977727,8.54533333 64.8178091,8.19733333 64.0578818,8.19733333 L64.0578818,8.19733333 Z" id="Fill-7"></path>
                <path d="M72.1919182,17.3697917 L70.7623636,17.371 C70.4633182,15.7772083 70.2252545,14.0299583 70.047,12.1304583 C69.8675727,10.2309583 69.7643727,8.22875 69.7350545,6.12625 L71.0860364,6.12504167 C71.1001091,6.89475 71.1294273,7.73091667 71.1728182,8.63716667 C71.2150364,9.54341667 71.2713273,10.44725 71.3428636,11.34625 C71.4144,12.24525 71.4918,13.0935 71.5774091,13.891 C71.6606727,14.6885 71.7603545,15.3542917 71.8741091,15.8907917 C72.3244364,15.2382917 72.7841455,14.5132917 73.2555818,13.7157917 C73.7258455,12.9170833 74.1761727,12.0869583 74.6042182,11.2242083 C75.0322636,10.36025 75.4333364,9.49266667 75.8050909,8.623875 C76.1780182,7.75266667 76.4899636,6.920125 76.7432727,6.12020833 L78.1587545,6.12020833 C78.1587545,6.83070833 78.1763455,7.60645833 78.2115273,8.44745833 C78.2478818,9.28845833 78.2936182,10.14275 78.3510818,11.0139583 C78.4073727,11.8839583 78.4753909,12.7394583 78.5539636,13.5804583 C78.6313636,14.4214583 78.7204909,15.1899583 78.819,15.8859583 C79.1567455,15.49325 79.5683727,14.9035833 80.0527091,14.112125 C80.5382182,13.3206667 81.0260727,12.4579167 81.5174455,11.5226667 C82.0099909,10.5874167 82.4697,9.64008333 82.8989182,8.681875 C83.3269636,7.72608333 83.6459455,6.869375 83.8570364,6.11658333 L85.2080182,6.11416667 C84.8843455,7.18716667 84.4621636,8.28675 83.9438182,9.4105 C83.4243,10.5354583 82.8719455,11.6012083 82.2891,12.6089583 C81.7062545,13.619125 81.1257545,14.5386667 80.5499455,15.373625 C79.9729636,16.207375 79.4675182,16.8719583 79.0312636,17.36375 L77.6005364,17.3649583 C77.4586364,16.0901667 77.3237727,14.7126667 77.1936,13.2336667 C77.0646,11.7534583 76.9860273,10.2974167 76.9567091,8.86191667 C76.6752545,9.54341667 76.3480636,10.27325 75.9763091,11.049 C75.6045545,11.82475 75.207,12.59325 74.7859909,13.3557083 C74.3638091,14.1169583 73.9322455,14.8455833 73.4889545,15.5415833 C73.0468364,16.2387917 72.6141,16.8465833 72.1919182,17.3697917" id="Fill-8"></path>
                <path d="M116.556191,8.72054167 C116.557364,9.53254167 116.363864,10.1922917 115.978036,10.6985833 C115.589864,11.2072917 115.048064,11.610875 114.353809,11.908125 C113.657209,12.2065833 112.819882,12.4204583 111.841827,12.5521667 C110.863773,12.683875 109.775482,12.778125 108.580473,12.8373333 L108.581645,13.2940833 C108.581645,13.7157917 108.623864,14.1072917 108.7083,14.4697917 C108.793909,14.8310833 108.947536,15.1464583 109.173873,15.4147083 C109.397864,15.6829583 109.712155,15.895625 110.113227,16.055125 C110.515473,16.214625 111.032645,16.2931667 111.665918,16.2931667 C112.158464,16.2931667 112.653355,16.2206667 113.152936,16.0744583 C113.652518,15.9306667 114.1263,15.7119583 114.5778,15.42075 L114.726736,16.72575 C114.248264,17.00125 113.720536,17.2163333 113.143555,17.3685833 C112.5654,17.5208333 111.982555,17.5981667 111.390327,17.599375 C110.6175,17.599375 109.966636,17.497875 109.437736,17.2960833 C108.911182,17.091875 108.481964,16.8103333 108.151255,16.4478333 C107.819373,16.0865417 107.582482,15.6515417 107.442927,15.1440417 C107.301027,14.6365417 107.230664,14.0782917 107.230664,13.4692917 C107.228318,12.5425 107.365527,11.6205417 107.639945,10.7058333 C107.913191,9.79233333 108.316609,8.97429167 108.851373,8.24808333 C109.384964,7.52308333 110.042864,6.93825 110.8239,6.496 C111.604936,6.05375 112.493864,5.83020833 113.493027,5.83020833 C114.478118,5.829 115.2357,6.093625 115.763427,6.622875 C116.291155,7.15091667 116.556191,7.85054167 116.556191,8.72054167 L116.556191,8.72054167 Z M113.367545,7.11345833 C112.804636,7.11466667 112.276909,7.23429167 111.785536,7.47354167 C111.291818,7.714 110.8497,8.036625 110.454491,8.442625 C110.0628,8.848625 109.720364,9.32108333 109.433045,9.85758333 C109.144555,10.3940833 108.931118,10.9595833 108.790391,11.5540833 C109.986573,11.523875 110.992773,11.444125 111.808991,11.3124167 C112.625209,11.1807083 113.283109,10.9994583 113.781518,10.7674583 C114.282273,10.5354583 114.636436,10.255125 114.847527,9.928875 C115.058618,9.602625 115.164164,9.22925 115.164164,8.80875 C115.162991,8.24325 114.997636,7.819125 114.666927,7.536375 C114.335045,7.25483333 113.902309,7.11345833 113.367545,7.11345833 L113.367545,7.11345833 Z" id="Fill-9"></path>
                <path d="M97.2718636,17.215125 C98.2112182,12.6379583 100.831091,0.468833333 100.831091,0.468833333 L99.4249909,0.729833333 C99.4249909,0.729833333 96.6679091,13.12975 95.8083,17.207875 C96.2926364,17.207875 96.7804909,17.2102917 97.2718636,17.215125" id="Fill-10"></path>
                <path d="M102.857564,17.381875 C103.765255,12.944875 106.4508,0.468833333 106.4508,0.468833333 L105.0447,0.729833333 C105.0447,0.729833333 102.234845,13.3665833 101.404555,17.3178333 C101.886545,17.3371667 102.370882,17.3577083 102.857564,17.381875" id="Fill-11"></path>
                <path d="M118.329355,19.3562917 C119.035336,15.8654167 120.780355,7.30316667 120.780355,7.30316667 L124.658564,7.29954167 L124.934155,6.08154167 L121.087609,6.08395833 L121.895618,2.51695833 L120.464891,2.77916667 C120.464891,2.77916667 118.193318,13.655375 117.114409,19.10375 C117.520173,19.187125 117.928282,19.2680833 118.329355,19.3562917" id="Fill-12"></path>
                <path d="M127.928127,26.0794583 C128.037191,25.4209167 127.778018,25.2384583 126.825764,24.9702083 C99.5446091,17.2779583 69.6858,23.2725 68.9434636,23.428375 C66.9158182,23.8537083 65.8568455,25.030625 65.6457545,26.45525 C65.6445818,26.4564583 65.6434091,26.4564583 65.6422364,26.4564583 L65.6422364,26.4685417 C65.5730455,26.9542917 65.5988455,27.4678333 65.7219818,27.9898333 C88.3966636,23.6301667 102.803618,22.6864583 127.797955,26.86125 C127.797955,26.86125 127.928127,26.081875 127.928127,26.0794583" id="Fill-13"></path>
                <path d="M91.9512,16.8864583 C91.9899,17.0242083 92.0403273,17.135375 92.0872364,17.2537917 C92.5715727,17.2429167 93.0770182,17.2429167 93.5707364,17.2356667 C93.3948273,16.82725 93.2716909,16.4526667 93.2025,16.113125 C93.1309636,15.765125 93.0957818,15.395375 93.0957818,15.003875 C93.0957818,14.713875 93.1227545,14.409375 93.1790455,14.0891667 C93.2353364,13.771375 93.3068727,13.4294167 93.3889636,13.068125 L95.0108455,6.30266667 C94.2075273,5.99816667 93.3678545,5.847125 92.4953455,5.847125 C91.4387182,5.84833333 90.4653545,6.03079167 89.5705636,6.3945 C88.6757727,6.757 87.9017727,7.26933333 87.2485636,7.92908333 C86.5930091,8.58883333 86.0840455,9.39116667 85.7193273,10.3336667 C85.3522636,11.2761667 85.1704909,12.3274167 85.1716636,13.4874167 C85.1716636,14.213625 85.2678273,14.8395417 85.4578091,15.3687917 C85.6489636,15.8980417 85.8999273,16.3294167 86.2107,16.6617083 C86.5203,16.9952083 86.8803273,17.2429167 87.2896091,17.4012083 C87.6977182,17.5595 88.1281091,17.6404583 88.5796091,17.63925 C89.1577636,17.63925 89.7183273,17.5220417 90.2613,17.2900417 C90.8042727,17.0580417 91.3214455,16.6943333 91.8151636,16.200125 C91.8421364,16.4333333 91.8878727,16.6617083 91.9512,16.8864583 L91.9512,16.8864583 Z M90.3539455,15.9089167 C89.8461545,16.1916667 89.3031818,16.33425 88.7262,16.33425 C88.4295,16.33425 88.1503909,16.2810833 87.8888727,16.1723333 C87.6285273,16.0635833 87.3975,15.8895833 87.2004818,15.6503333 C87.0034636,15.4110833 86.8486636,15.0920833 86.7360818,14.6933333 C86.6211545,14.2957917 86.5648636,13.7991667 86.5648636,13.2046667 C86.5648636,12.4506667 86.6868273,11.7099583 86.9331,10.9849583 C87.1782,10.2599583 87.5347091,9.6135 88.0002818,9.048 C88.4646818,8.4825 89.0346273,8.02575 89.7112909,7.67654167 C90.3867818,7.32854167 91.1619545,7.15333333 92.0356364,7.15333333 C92.2619727,7.15333333 92.4801,7.16783333 92.6923636,7.195625 C92.9046273,7.224625 93.1368273,7.26933333 93.3901364,7.32491667 L92.2760455,11.9818333 C92.1775364,12.3878333 92.0719909,12.8445833 91.9605818,13.3520833 C91.8468273,13.8595833 91.7917091,14.3090833 91.7917091,14.7005833 C91.3413818,15.2225833 90.8605636,15.6261667 90.3539455,15.9089167 L90.3539455,15.9089167 Z" id="Fill-14"></path>
            </g>
            <g id="Group" transform="translate(0.000000, 90.000000)" fill="#A39F9A" sketch:type="MSShapeGroup">
                <path d="M7.77987273,5.74320833 C8.45536364,5.74320833 9.03938182,5.86525 9.5331,6.11295833 C10.0256455,6.35825 10.4337545,6.69175 10.7574273,7.11104167 C11.0811,7.53154167 11.3203364,8.02454167 11.4763091,8.58883333 C11.6322818,9.15554167 11.7085091,9.76454167 11.7096818,10.4170417 C11.7096818,11.4175417 11.5326,12.3624583 11.1725727,13.2554167 C10.8160636,14.1471667 10.3282091,14.924125 9.70783636,15.583875 C9.08980909,16.243625 8.3592,16.7668333 7.51366364,17.1510833 C6.67047273,17.5365417 5.75574545,17.729875 4.77065455,17.729875 C4.64517273,17.7310833 4.42352727,17.7274583 4.10689091,17.7202083 C3.78908182,17.7129583 3.42670909,17.6803333 3.01742727,17.6235417 C2.61049091,17.5655417 2.17658182,17.4785417 1.72039091,17.3625417 C1.26185455,17.2465417 0.829118182,17.0894583 0.421009091,16.8864583 L4.06115455,1.07058333 L7.33306364,0.546166667 L6.02899091,6.158875 C6.31044545,6.02716667 6.58955455,5.92566667 6.87100909,5.85316667 C7.15363636,5.78066667 7.45502727,5.74441667 7.77987273,5.74320833 L7.77987273,5.74320833 Z M5.0439,15.054625 C5.53644545,15.054625 5.99967273,14.9301667 6.43475455,14.6836667 C6.87100909,14.4371667 7.24862727,14.1072917 7.56409091,13.6940417 C7.88072727,13.2795833 8.13051818,12.8119583 8.31346364,12.2899583 C8.49406364,11.76675 8.58553636,11.2242083 8.58553636,10.6575 C8.58436364,9.96270833 8.47295455,9.41895833 8.24779091,9.02745833 C8.02145455,8.63595833 7.60513636,8.44020833 7.00118182,8.44020833 C6.80416364,8.44141667 6.54733636,8.478875 6.2307,8.55016667 C5.91406364,8.623875 5.62909091,8.776125 5.37695455,9.008125 L3.98727273,14.9688333 C4.07288182,14.982125 4.14559091,14.9978333 4.21009091,15.0123333 C4.27341818,15.025625 4.33909091,15.0365 4.41062727,15.04375 C4.47981818,15.0522083 4.56542727,15.0558333 4.66393636,15.0558333 C4.76244545,15.054625 4.88792727,15.054625 5.0439,15.054625 L5.0439,15.054625 Z" id="Fill-1"></path>
                <path d="M15.6828818,17.4169167 L12.5587364,17.4193333 L15.1891636,5.97641667 L18.3355909,5.974 L15.6828818,17.4169167 L15.6828818,17.4169167 Z M17.1933545,4.58320833 C16.7571,4.58320833 16.3618909,4.45029167 16.0100727,4.18204167 C15.6582545,3.91379167 15.4823455,3.50416667 15.4811727,2.95195833 C15.4811727,2.64745833 15.5409818,2.36229167 15.6617727,2.09283333 C15.7802182,1.82579167 15.9385364,1.59258333 16.1355545,1.39804167 C16.3325727,1.20108333 16.5600818,1.04520833 16.8216,0.930416667 C17.0807727,0.813208333 17.3598818,0.755208333 17.6554091,0.754 C18.0916636,0.754 18.4857,0.888125 18.8375182,1.156375 C19.1881636,1.424625 19.3664182,1.83425 19.3664182,2.38525 C19.3664182,2.68975 19.3054364,2.976125 19.1869909,3.244375 C19.0685455,3.51141667 18.9090545,3.744625 18.7120364,3.940375 C18.5150182,4.136125 18.2875091,4.29320833 18.0259909,4.408 C17.7668182,4.524 17.4888818,4.58320833 17.1933545,4.58320833 L17.1933545,4.58320833 Z" id="Fill-2"></path>
                <path d="M21.5406545,3.12233333 L24.8113909,2.59670833 L24.0139364,5.96916667 L27.5168727,5.96795833 L26.8847727,8.62025 L23.4017727,8.623875 L22.4764909,12.625875 C22.3920545,12.9605833 22.3392818,13.271125 22.3193455,13.5623333 C22.2982364,13.8523333 22.3334182,14.1024583 22.4248909,14.3127083 C22.5163636,14.5229583 22.6746818,14.684875 22.9010182,14.800875 C23.1261818,14.916875 23.4357818,14.974875 23.8298182,14.974875 C24.1675636,14.9736667 24.4947545,14.9410417 24.8113909,14.8745833 C25.1280273,14.8105417 25.4470091,14.7199167 25.7706818,14.6027083 L26.0052273,17.0822083 C25.5830455,17.2429167 25.1256818,17.3806667 24.6331364,17.4954583 C24.1405909,17.6126667 23.5565727,17.6706667 22.8810818,17.671875 C21.9100636,17.671875 21.1571727,17.5244583 20.6224091,17.2284167 C20.0876455,16.9311667 19.7076818,16.526375 19.4813455,16.0104167 C19.2561818,15.4956667 19.1576727,14.906 19.1846455,14.2377917 C19.2127909,13.5707917 19.3101273,12.8675417 19.479,12.1280417 L21.5406545,3.12233333" id="Fill-3"></path>
                <path d="M27.6271091,12.83975 C27.6271091,11.85375 27.7807364,10.92575 28.0891636,10.0545417 C28.3987636,9.18454167 28.8408818,8.42329167 29.4178636,7.77079167 C29.9936727,7.11708333 30.6937909,6.60233333 31.5170455,6.224125 C32.3391273,5.847125 33.2573727,5.65741667 34.2706091,5.65620833 C34.9038818,5.65620833 35.4703091,5.716625 35.9698909,5.839875 C36.4706455,5.963125 36.9233182,6.12504167 37.3326,6.32804167 L36.2572091,8.85104167 C35.9757545,8.73625 35.6837455,8.63233333 35.3811818,8.536875 C35.0786182,8.442625 34.7092091,8.3955 34.2729545,8.39670833 C33.2175,8.39791667 32.3860364,8.76525 31.7832545,9.4975 C31.1781273,10.22975 30.8767364,11.2278333 30.8779091,12.4893333 C30.8779091,13.227625 31.0338818,13.82575 31.3434818,14.2825 C31.6530818,14.73925 32.2242,14.967625 33.0533182,14.9664167 C33.4614273,14.9664167 33.8566364,14.9229167 34.2354273,14.8347083 C34.6165636,14.7477083 34.9531364,14.63775 35.2486636,14.5084583 L35.4832091,17.0955 C35.0891727,17.2562083 34.6564364,17.3975833 34.1838273,17.5208333 C33.7123909,17.6440833 33.1412727,17.7069167 32.4657818,17.7069167 C31.5932727,17.708125 30.8532818,17.5788333 30.2481545,17.3178333 C29.6418545,17.0568333 29.1434455,16.7064167 28.7494091,16.2641667 C28.3542,15.8219167 28.0692273,15.30475 27.8921455,14.71025 C27.7162364,14.11575 27.6282818,13.4910417 27.6271091,12.83975" id="Fill-4"></path>
                <path d="M41.6271273,17.6996667 C40.8812727,17.6996667 40.2339273,17.584875 39.6839182,17.352875 C39.1350818,17.1220833 38.6812364,16.7958333 38.3223818,16.3753333 C37.9623545,15.9560417 37.6914545,15.4594167 37.5085091,14.8866667 C37.3243909,14.315125 37.2329182,13.6795417 37.2317455,12.9835417 C37.2317455,12.1135417 37.3677818,11.2435417 37.6433727,10.3735417 C37.9154455,9.50233333 38.3188636,8.71933333 38.8536273,8.02454167 C39.3872182,7.32733333 40.0427727,6.75820833 40.8167727,6.31475 C41.5884273,5.87129167 42.4750091,5.65016667 43.4741727,5.64895833 C44.2059545,5.64775 44.8497818,5.76375 45.408,5.99454167 C45.9627,6.22654167 46.4200636,6.55279167 46.7800909,6.97329167 C47.1389455,7.39258333 47.4098455,7.88920833 47.5927909,8.46195833 C47.7769091,9.03470833 47.8683818,9.66908333 47.8695545,10.3650833 C47.8695545,11.2350833 47.7370364,12.1050833 47.4696545,12.9750833 C47.2034455,13.8450833 46.8094091,14.6280833 46.2910636,15.3252917 C45.7692,16.0225 45.1206818,16.591625 44.3396455,17.0350833 C43.5586091,17.4773333 42.6544364,17.6996667 41.6271273,17.6996667 L41.6271273,17.6996667 Z M43.1809909,8.38945833 C42.7177636,8.38945833 42.3084818,8.52841667 41.9566636,8.80391667 C41.6060182,9.080625 41.3116636,9.428625 41.0724273,9.84791667 C40.8320182,10.269625 40.6537636,10.73 40.5353182,11.23025 C40.4145273,11.7305 40.3558909,12.2065833 40.3558909,12.6560833 C40.3570636,13.394375 40.4696455,13.9635 40.6948091,14.36225 C40.9211455,14.761 41.3292545,14.9591667 41.9203091,14.9591667 C42.3858818,14.9591667 42.7928182,14.8214167 43.1434636,14.5447083 C43.4952818,14.2692083 43.7908091,13.92 44.0300455,13.4995 C44.2681091,13.079 44.4475364,12.618625 44.5671545,12.118375 C44.6867727,11.618125 44.7454091,11.14325 44.7454091,10.69375 C44.7442364,9.95425 44.6316545,9.38633333 44.4064909,8.98758333 C44.1801545,8.587625 43.7720455,8.38825 43.1809909,8.38945833 L43.1809909,8.38945833 Z" id="Fill-5"></path>
                <path d="M57.1974273,8.72658333 C56.9159727,8.652875 56.6380364,8.58520833 56.3647909,8.51995833 C56.0892,8.45470833 55.6846091,8.42329167 55.1498455,8.42329167 C54.9528273,8.42329167 54.7347,8.44141667 54.4966364,8.478875 C54.2574,8.515125 54.0603818,8.55379167 53.9055818,8.5985 L51.8650364,17.3867083 L48.7186091,17.3903333 L51.2434909,6.55641667 C51.8486182,6.35220833 52.5276273,6.16008333 53.2816909,5.977625 C54.0322364,5.796375 54.8801182,5.70454167 55.8241636,5.70454167 C56.1748091,5.70333333 56.5653273,5.73595833 56.9957182,5.80120833 C57.4237636,5.86525 57.8013818,5.970375 58.1262273,6.11416667 L57.1974273,8.72658333" id="Fill-6"></path>
                <path d="M57.9186545,12.901375 C57.9186545,11.973375 58.0758,11.074375 58.3912636,10.2031667 C58.7079,9.334375 59.1523636,8.56104167 59.7305182,7.88558333 C60.3063273,7.21254167 61.0064455,6.66758333 61.8297,6.253125 C62.6517818,5.839875 63.5629909,5.63204167 64.5621545,5.63083333 C65.0547,5.63083333 65.5120636,5.70333333 65.9342455,5.84833333 C66.3576,5.992125 66.7270091,6.20358333 67.0436455,6.47666667 C67.3614545,6.753375 67.6053818,7.08929167 67.7836364,7.48804167 C67.9595455,7.88679167 68.0475,8.33991667 68.0486727,8.84741667 C68.0486727,9.65941667 67.8739364,10.349375 67.5221182,10.9136667 C67.1691273,11.480375 66.6812727,11.94075 66.0562091,12.296 C65.4299727,12.6524583 64.6876364,12.9110417 63.8292,13.0705417 C62.9695909,13.23125 62.0349273,13.311 61.0228636,13.3122083 C61.1213727,13.92 61.3359818,14.3525833 61.6666909,14.6063333 C61.9974,14.858875 62.5227818,14.9845417 63.2404909,14.9845417 C63.6908182,14.9845417 64.1481818,14.9446667 64.6125818,14.8649167 C65.0769818,14.7839583 65.5108909,14.6643333 65.9201727,14.5048333 L66.1547182,17.048375 C65.7606818,17.2090833 65.2575818,17.3540833 64.6454182,17.4845833 C64.0332545,17.6162917 63.3694909,17.6815417 62.6517818,17.68275 C61.7792727,17.6839583 61.0428,17.5570833 60.4447091,17.3033333 C59.8454455,17.0495833 59.3599364,16.7064167 58.9881818,16.2714167 C58.6129091,15.8364167 58.3431818,15.3289167 58.1731364,14.750125 C58.0042636,14.1713333 57.9198273,13.553875 57.9186545,12.901375 L57.9186545,12.901375 Z M64.0578818,8.19733333 C63.3401727,8.19854167 62.7104182,8.464375 62.1697909,8.993625 C61.6279909,9.52408333 61.2726545,10.2237083 61.1037818,11.0937083 C61.9774636,11.0635 62.6799273,10.987375 63.2158636,10.8629167 C63.7494545,10.740875 64.1657727,10.5910417 64.4613,10.4170417 C64.7556545,10.2430417 64.9526727,10.0533333 65.0511818,9.85033333 C65.1496909,9.64733333 65.1989455,9.44433333 65.1989455,9.24133333 C65.1977727,8.54533333 64.8178091,8.19733333 64.0578818,8.19733333 L64.0578818,8.19733333 Z" id="Fill-7"></path>
                <path d="M72.1919182,17.3697917 L70.7623636,17.371 C70.4633182,15.7772083 70.2252545,14.0299583 70.047,12.1304583 C69.8675727,10.2309583 69.7643727,8.22875 69.7350545,6.12625 L71.0860364,6.12504167 C71.1001091,6.89475 71.1294273,7.73091667 71.1728182,8.63716667 C71.2150364,9.54341667 71.2713273,10.44725 71.3428636,11.34625 C71.4144,12.24525 71.4918,13.0935 71.5774091,13.891 C71.6606727,14.6885 71.7603545,15.3542917 71.8741091,15.8907917 C72.3244364,15.2382917 72.7841455,14.5132917 73.2555818,13.7157917 C73.7258455,12.9170833 74.1761727,12.0869583 74.6042182,11.2242083 C75.0322636,10.36025 75.4333364,9.49266667 75.8050909,8.623875 C76.1780182,7.75266667 76.4899636,6.920125 76.7432727,6.12020833 L78.1587545,6.12020833 C78.1587545,6.83070833 78.1763455,7.60645833 78.2115273,8.44745833 C78.2478818,9.28845833 78.2936182,10.14275 78.3510818,11.0139583 C78.4073727,11.8839583 78.4753909,12.7394583 78.5539636,13.5804583 C78.6313636,14.4214583 78.7204909,15.1899583 78.819,15.8859583 C79.1567455,15.49325 79.5683727,14.9035833 80.0527091,14.112125 C80.5382182,13.3206667 81.0260727,12.4579167 81.5174455,11.5226667 C82.0099909,10.5874167 82.4697,9.64008333 82.8989182,8.681875 C83.3269636,7.72608333 83.6459455,6.869375 83.8570364,6.11658333 L85.2080182,6.11416667 C84.8843455,7.18716667 84.4621636,8.28675 83.9438182,9.4105 C83.4243,10.5354583 82.8719455,11.6012083 82.2891,12.6089583 C81.7062545,13.619125 81.1257545,14.5386667 80.5499455,15.373625 C79.9729636,16.207375 79.4675182,16.8719583 79.0312636,17.36375 L77.6005364,17.3649583 C77.4586364,16.0901667 77.3237727,14.7126667 77.1936,13.2336667 C77.0646,11.7534583 76.9860273,10.2974167 76.9567091,8.86191667 C76.6752545,9.54341667 76.3480636,10.27325 75.9763091,11.049 C75.6045545,11.82475 75.207,12.59325 74.7859909,13.3557083 C74.3638091,14.1169583 73.9322455,14.8455833 73.4889545,15.5415833 C73.0468364,16.2387917 72.6141,16.8465833 72.1919182,17.3697917" id="Fill-8"></path>
                <path d="M116.556191,8.72054167 C116.557364,9.53254167 116.363864,10.1922917 115.978036,10.6985833 C115.589864,11.2072917 115.048064,11.610875 114.353809,11.908125 C113.657209,12.2065833 112.819882,12.4204583 111.841827,12.5521667 C110.863773,12.683875 109.775482,12.778125 108.580473,12.8373333 L108.581645,13.2940833 C108.581645,13.7157917 108.623864,14.1072917 108.7083,14.4697917 C108.793909,14.8310833 108.947536,15.1464583 109.173873,15.4147083 C109.397864,15.6829583 109.712155,15.895625 110.113227,16.055125 C110.515473,16.214625 111.032645,16.2931667 111.665918,16.2931667 C112.158464,16.2931667 112.653355,16.2206667 113.152936,16.0744583 C113.652518,15.9306667 114.1263,15.7119583 114.5778,15.42075 L114.726736,16.72575 C114.248264,17.00125 113.720536,17.2163333 113.143555,17.3685833 C112.5654,17.5208333 111.982555,17.5981667 111.390327,17.599375 C110.6175,17.599375 109.966636,17.497875 109.437736,17.2960833 C108.911182,17.091875 108.481964,16.8103333 108.151255,16.4478333 C107.819373,16.0865417 107.582482,15.6515417 107.442927,15.1440417 C107.301027,14.6365417 107.230664,14.0782917 107.230664,13.4692917 C107.228318,12.5425 107.365527,11.6205417 107.639945,10.7058333 C107.913191,9.79233333 108.316609,8.97429167 108.851373,8.24808333 C109.384964,7.52308333 110.042864,6.93825 110.8239,6.496 C111.604936,6.05375 112.493864,5.83020833 113.493027,5.83020833 C114.478118,5.829 115.2357,6.093625 115.763427,6.622875 C116.291155,7.15091667 116.556191,7.85054167 116.556191,8.72054167 L116.556191,8.72054167 Z M113.367545,7.11345833 C112.804636,7.11466667 112.276909,7.23429167 111.785536,7.47354167 C111.291818,7.714 110.8497,8.036625 110.454491,8.442625 C110.0628,8.848625 109.720364,9.32108333 109.433045,9.85758333 C109.144555,10.3940833 108.931118,10.9595833 108.790391,11.5540833 C109.986573,11.523875 110.992773,11.444125 111.808991,11.3124167 C112.625209,11.1807083 113.283109,10.9994583 113.781518,10.7674583 C114.282273,10.5354583 114.636436,10.255125 114.847527,9.928875 C115.058618,9.602625 115.164164,9.22925 115.164164,8.80875 C115.162991,8.24325 114.997636,7.819125 114.666927,7.536375 C114.335045,7.25483333 113.902309,7.11345833 113.367545,7.11345833 L113.367545,7.11345833 Z" id="Fill-9"></path>
                <path d="M97.2718636,17.215125 C98.2112182,12.6379583 100.831091,0.468833333 100.831091,0.468833333 L99.4249909,0.729833333 C99.4249909,0.729833333 96.6679091,13.12975 95.8083,17.207875 C96.2926364,17.207875 96.7804909,17.2102917 97.2718636,17.215125" id="Fill-10"></path>
                <path d="M102.857564,17.381875 C103.765255,12.944875 106.4508,0.468833333 106.4508,0.468833333 L105.0447,0.729833333 C105.0447,0.729833333 102.234845,13.3665833 101.404555,17.3178333 C101.886545,17.3371667 102.370882,17.3577083 102.857564,17.381875" id="Fill-11"></path>
                <path d="M118.329355,19.3562917 C119.035336,15.8654167 120.780355,7.30316667 120.780355,7.30316667 L124.658564,7.29954167 L124.934155,6.08154167 L121.087609,6.08395833 L121.895618,2.51695833 L120.464891,2.77916667 C120.464891,2.77916667 118.193318,13.655375 117.114409,19.10375 C117.520173,19.187125 117.928282,19.2680833 118.329355,19.3562917" id="Fill-12"></path>
                <path d="M127.928127,26.0794583 C128.037191,25.4209167 127.778018,25.2384583 126.825764,24.9702083 C99.5446091,17.2779583 69.6858,23.2725 68.9434636,23.428375 C66.9158182,23.8537083 65.8568455,25.030625 65.6457545,26.45525 C65.6445818,26.4564583 65.6434091,26.4564583 65.6422364,26.4564583 L65.6422364,26.4685417 C65.5730455,26.9542917 65.5988455,27.4678333 65.7219818,27.9898333 C88.3966636,23.6301667 102.803618,22.6864583 127.797955,26.86125 C127.797955,26.86125 127.928127,26.081875 127.928127,26.0794583" id="Fill-13"></path>
                <path d="M91.9512,16.8864583 C91.9899,17.0242083 92.0403273,17.135375 92.0872364,17.2537917 C92.5715727,17.2429167 93.0770182,17.2429167 93.5707364,17.2356667 C93.3948273,16.82725 93.2716909,16.4526667 93.2025,16.113125 C93.1309636,15.765125 93.0957818,15.395375 93.0957818,15.003875 C93.0957818,14.713875 93.1227545,14.409375 93.1790455,14.0891667 C93.2353364,13.771375 93.3068727,13.4294167 93.3889636,13.068125 L95.0108455,6.30266667 C94.2075273,5.99816667 93.3678545,5.847125 92.4953455,5.847125 C91.4387182,5.84833333 90.4653545,6.03079167 89.5705636,6.3945 C88.6757727,6.757 87.9017727,7.26933333 87.2485636,7.92908333 C86.5930091,8.58883333 86.0840455,9.39116667 85.7193273,10.3336667 C85.3522636,11.2761667 85.1704909,12.3274167 85.1716636,13.4874167 C85.1716636,14.213625 85.2678273,14.8395417 85.4578091,15.3687917 C85.6489636,15.8980417 85.8999273,16.3294167 86.2107,16.6617083 C86.5203,16.9952083 86.8803273,17.2429167 87.2896091,17.4012083 C87.6977182,17.5595 88.1281091,17.6404583 88.5796091,17.63925 C89.1577636,17.63925 89.7183273,17.5220417 90.2613,17.2900417 C90.8042727,17.0580417 91.3214455,16.6943333 91.8151636,16.200125 C91.8421364,16.4333333 91.8878727,16.6617083 91.9512,16.8864583 L91.9512,16.8864583 Z M90.3539455,15.9089167 C89.8461545,16.1916667 89.3031818,16.33425 88.7262,16.33425 C88.4295,16.33425 88.1503909,16.2810833 87.8888727,16.1723333 C87.6285273,16.0635833 87.3975,15.8895833 87.2004818,15.6503333 C87.0034636,15.4110833 86.8486636,15.0920833 86.7360818,14.6933333 C86.6211545,14.2957917 86.5648636,13.7991667 86.5648636,13.2046667 C86.5648636,12.4506667 86.6868273,11.7099583 86.9331,10.9849583 C87.1782,10.2599583 87.5347091,9.6135 88.0002818,9.048 C88.4646818,8.4825 89.0346273,8.02575 89.7112909,7.67654167 C90.3867818,7.32854167 91.1619545,7.15333333 92.0356364,7.15333333 C92.2619727,7.15333333 92.4801,7.16783333 92.6923636,7.195625 C92.9046273,7.224625 93.1368273,7.26933333 93.3901364,7.32491667 L92.2760455,11.9818333 C92.1775364,12.3878333 92.0719909,12.8445833 91.9605818,13.3520833 C91.8468273,13.8595833 91.7917091,14.3090833 91.7917091,14.7005833 C91.3413818,15.2225833 90.8605636,15.6261667 90.3539455,15.9089167 L90.3539455,15.9089167 Z" id="Fill-14"></path>
            </g>
        </g>
    </g>
</svg>