<?xml version="1.0" encoding="UTF-8" standalone="no"?>
<svg width="159px" height="41px" viewBox="0 0 159 41" version="1.1" xmlns="http://www.w3.org/2000/svg" xmlns:xlink="http://www.w3.org/1999/xlink" xmlns:sketch="http://www.bohemiancoding.com/sketch/ns">
    <!-- Generator: Sketch 3.2.2 (9983) - http://www.bohemiancoding.com/sketch -->
    <title>Group</title>
    <desc>Created with Sketch.</desc>
    <defs></defs>
    <g id="Page-1" stroke="none" stroke-width="1" fill="none" fill-rule="evenodd" sketch:type="MSPage">
        <g id="Group" sketch:type="MSLayerGroup" transform="translate(0.000000, -1.000000)">
            <path d="M139.545,41.62 L30.649,41.62 L45.317,2.799 L139.545,2.799 C150.265,2.799 158.956,11.49 158.956,22.21 C158.956,32.93 150.265,41.62 139.545,41.62" id="Fill-68" fill="#1A1918" sketch:type="MSShapeGroup"></path>
            <path d="M45.317,41.62 L20.918,41.62 C10.198,41.62 1.507,32.93 1.507,22.21 C1.507,11.49 10.198,2.799 20.918,2.799 L52.652,2.799 L45.317,41.62" id="Fill-69" fill="#D51E13" sketch:type="MSShapeGroup"></path>
            <path d="M71.261,16.848 C71.456,17.203 71.679,17.641 71.933,18.163 C72.186,18.685 72.451,19.249 72.725,19.857 C73.001,20.465 73.273,21.086 73.542,21.721 C73.812,22.356 74.065,22.952 74.303,23.511 C74.54,22.952 74.794,22.356 75.063,21.721 C75.333,21.086 75.605,20.465 75.88,19.857 C76.155,19.249 76.42,18.685 76.673,18.163 C76.926,17.641 77.15,17.203 77.344,16.848 L79.636,16.848 C79.743,17.59 79.843,18.421 79.934,19.341 C80.026,20.26 80.107,21.218 80.177,22.213 C80.246,23.207 80.311,24.206 80.37,25.206 C80.429,26.206 80.481,27.148 80.523,28.029 L78.071,28.029 C78.039,26.943 77.995,25.76 77.942,24.48 C77.888,23.2 77.807,21.909 77.7,20.607 C77.505,21.059 77.289,21.559 77.052,22.108 C76.815,22.656 76.58,23.205 76.348,23.754 C76.116,24.302 75.892,24.827 75.676,25.327 C75.46,25.827 75.277,26.255 75.126,26.61 L73.367,26.61 C73.216,26.255 73.033,25.827 72.817,25.327 C72.601,24.827 72.377,24.302 72.145,23.754 C71.913,23.205 71.678,22.656 71.441,22.108 C71.204,21.559 70.988,21.059 70.794,20.607 C70.686,21.909 70.605,23.2 70.552,24.48 C70.498,25.76 70.455,26.943 70.423,28.029 L67.97,28.029 C68.013,27.148 68.064,26.206 68.123,25.206 C68.182,24.206 68.246,23.207 68.317,22.213 C68.387,21.218 68.467,20.26 68.559,19.341 C68.65,18.421 68.75,17.59 68.857,16.848 L71.261,16.848" id="Fill-70" fill="#FFFFFF" sketch:type="MSShapeGroup"></path>
            <path d="M82.169,28.029 L82.169,16.848 L89.72,16.848 L89.72,18.961 L84.686,18.961 L84.686,21.156 L89.156,21.156 L89.156,23.221 L84.686,23.221 L84.686,25.916 L90.092,25.916 L90.092,28.029 L82.169,28.029" id="Fill-71" fill="#FFFFFF" sketch:type="MSShapeGroup"></path>
            <path d="M94.4,26.11 C94.755,26.11 95.048,26.08 95.279,26.021 C95.51,25.962 95.696,25.882 95.836,25.779 C95.976,25.676 96.072,25.556 96.126,25.416 C96.18,25.276 96.207,25.12 96.207,24.948 C96.207,24.582 96.035,24.278 95.691,24.036 C95.346,23.794 94.755,23.533 93.916,23.254 C93.55,23.124 93.184,22.977 92.819,22.81 C92.452,22.643 92.125,22.434 91.834,22.18 C91.544,21.928 91.307,21.621 91.124,21.261 C90.941,20.901 90.85,20.462 90.85,19.946 C90.85,19.429 90.947,18.964 91.14,18.55 C91.334,18.136 91.608,17.784 91.963,17.493 C92.318,17.203 92.748,16.98 93.254,16.823 C93.759,16.668 94.329,16.589 94.965,16.589 C95.718,16.589 96.368,16.67 96.917,16.832 C97.465,16.993 97.917,17.17 98.273,17.364 L97.546,19.349 C97.234,19.187 96.887,19.045 96.505,18.921 C96.123,18.797 95.664,18.736 95.126,18.736 C94.523,18.736 94.09,18.819 93.827,18.986 C93.563,19.153 93.432,19.408 93.432,19.752 C93.432,19.957 93.48,20.129 93.577,20.268 C93.673,20.409 93.811,20.535 93.988,20.648 C94.166,20.761 94.37,20.863 94.602,20.954 C94.833,21.046 95.088,21.14 95.368,21.237 C95.949,21.452 96.454,21.664 96.884,21.874 C97.315,22.083 97.673,22.329 97.958,22.608 C98.243,22.888 98.455,23.216 98.595,23.592 C98.735,23.969 98.805,24.426 98.805,24.964 C98.805,26.007 98.439,26.817 97.708,27.392 C96.976,27.968 95.873,28.255 94.4,28.255 C93.905,28.255 93.459,28.226 93.061,28.167 C92.662,28.107 92.31,28.035 92.004,27.949 C91.697,27.863 91.433,27.772 91.213,27.675 C90.992,27.578 90.807,27.486 90.657,27.4 L91.366,25.399 C91.699,25.582 92.111,25.747 92.601,25.892 C93.09,26.037 93.69,26.11 94.4,26.11" id="Fill-72" fill="#FFFFFF" sketch:type="MSShapeGroup"></path>
            <path d="M103.193,26.11 C103.548,26.11 103.841,26.08 104.073,26.021 C104.304,25.962 104.489,25.882 104.629,25.779 C104.769,25.676 104.866,25.556 104.92,25.416 C104.973,25.276 105,25.12 105,24.948 C105,24.582 104.828,24.278 104.484,24.036 C104.14,23.794 103.548,23.533 102.709,23.254 C102.343,23.124 101.978,22.977 101.612,22.81 C101.246,22.643 100.918,22.434 100.627,22.18 C100.337,21.928 100.101,21.621 99.918,21.261 C99.735,20.901 99.643,20.462 99.643,19.946 C99.643,19.429 99.74,18.964 99.934,18.55 C100.128,18.136 100.402,17.784 100.757,17.493 C101.112,17.203 101.542,16.98 102.047,16.823 C102.553,16.668 103.123,16.589 103.758,16.589 C104.511,16.589 105.162,16.67 105.71,16.832 C106.259,16.993 106.711,17.17 107.066,17.364 L106.34,19.349 C106.028,19.187 105.681,19.045 105.299,18.921 C104.917,18.797 104.457,18.736 103.919,18.736 C103.317,18.736 102.884,18.819 102.62,18.986 C102.357,19.153 102.225,19.408 102.225,19.752 C102.225,19.957 102.274,20.129 102.37,20.268 C102.467,20.409 102.604,20.535 102.782,20.648 C102.959,20.761 103.163,20.863 103.395,20.954 C103.626,21.046 103.882,21.14 104.161,21.237 C104.742,21.452 105.248,21.664 105.678,21.874 C106.108,22.083 106.466,22.329 106.751,22.608 C107.036,22.888 107.249,23.216 107.389,23.592 C107.528,23.969 107.598,24.426 107.598,24.964 C107.598,26.007 107.232,26.817 106.501,27.392 C105.77,27.968 104.667,28.255 103.193,28.255 C102.698,28.255 102.252,28.226 101.854,28.167 C101.456,28.107 101.103,28.035 100.797,27.949 C100.491,27.863 100.227,27.772 100.006,27.675 C99.786,27.578 99.6,27.486 99.45,27.4 L100.16,25.399 C100.493,25.582 100.904,25.747 101.394,25.892 C101.883,26.037 102.483,26.11 103.193,26.11" id="Fill-73" fill="#FFFFFF" sketch:type="MSShapeGroup"></path>
            <path d="M116.439,28.029 C116.315,27.641 116.181,27.242 116.038,26.833 C115.894,26.423 115.752,26.016 115.61,25.609 L111.243,25.609 C111.102,26.017 110.96,26.426 110.818,26.836 C110.676,27.246 110.544,27.644 110.422,28.029 L107.808,28.029 C108.229,26.825 108.628,25.712 109.006,24.69 C109.383,23.668 109.752,22.705 110.114,21.801 C110.476,20.898 110.831,20.04 111.182,19.228 C111.533,18.415 111.897,17.622 112.275,16.848 L114.661,16.848 C115.028,17.622 115.39,18.415 115.747,19.228 C116.104,20.04 116.463,20.898 116.825,21.801 C117.187,22.705 117.557,23.668 117.935,24.69 C118.314,25.712 118.713,26.825 119.135,28.029 L116.439,28.029 L116.439,28.029 Z M113.415,19.381 C113.359,19.543 113.276,19.764 113.168,20.044 C113.06,20.323 112.937,20.646 112.799,21.013 C112.661,21.379 112.506,21.782 112.336,22.223 C112.165,22.663 111.991,23.125 111.815,23.608 L115.013,23.608 C114.842,23.123 114.676,22.661 114.516,22.219 C114.355,21.777 114.203,21.373 114.059,21.006 C113.914,20.64 113.788,20.317 113.679,20.038 C113.57,19.759 113.482,19.54 113.415,19.381 L113.415,19.381 Z" id="Fill-74" fill="#FFFFFF" sketch:type="MSShapeGroup"></path>
            <path d="M125.025,18.784 C123.852,18.784 123.005,19.11 122.483,19.76 C121.962,20.411 121.701,21.301 121.701,22.431 C121.701,22.979 121.765,23.477 121.894,23.923 C122.023,24.369 122.217,24.754 122.475,25.077 C122.734,25.399 123.056,25.65 123.443,25.827 C123.831,26.005 124.282,26.094 124.799,26.094 C125.079,26.094 125.318,26.088 125.517,26.077 C125.716,26.067 125.891,26.045 126.041,26.013 L126.041,22.124 L128.559,22.124 L128.559,27.658 C128.257,27.777 127.773,27.904 127.106,28.038 C126.439,28.172 125.616,28.239 124.637,28.239 C123.798,28.239 123.037,28.11 122.355,27.852 C121.671,27.594 121.088,27.218 120.603,26.722 C120.119,26.228 119.745,25.62 119.482,24.899 C119.219,24.179 119.087,23.356 119.087,22.431 C119.087,21.495 119.232,20.667 119.523,19.946 C119.813,19.225 120.211,18.614 120.717,18.114 C121.222,17.614 121.816,17.235 122.5,16.977 C123.183,16.719 123.911,16.589 124.686,16.589 C125.213,16.589 125.689,16.624 126.114,16.694 C126.539,16.765 126.904,16.845 127.211,16.936 C127.518,17.028 127.77,17.122 127.97,17.219 C128.169,17.316 128.311,17.391 128.397,17.445 L127.671,19.462 C127.327,19.279 126.931,19.12 126.485,18.986 C126.038,18.851 125.551,18.784 125.025,18.784" id="Fill-75" fill="#FFFFFF" sketch:type="MSShapeGroup"></path>
            <path d="M130.301,28.029 L130.301,16.848 L137.852,16.848 L137.852,18.961 L132.818,18.961 L132.818,21.156 L137.288,21.156 L137.288,23.221 L132.818,23.221 L132.818,25.916 L138.224,25.916 L138.224,28.029 L130.301,28.029" id="Fill-76" fill="#FFFFFF" sketch:type="MSShapeGroup"></path>
            <path d="M57.917,5.166 C57.823,4.968 57.75,4.848 56.955,3.636 C56.789,3.383 56.648,3.169 56.618,3.122 C55.772,1.704 54.816,1.001 53.698,0.975 C53.239,0.964 52.737,1.095 52.344,1.33 L48.157,3.829 C48.1,3.825 48.043,3.822 47.986,3.82 C47.441,3.807 46.906,3.949 46.436,4.229 L37.163,9.922 C36.959,9.699 36.761,9.473 36.541,9.26 C33.833,6.632 30.265,5.185 26.492,5.185 C22.471,5.185 18.737,6.798 15.979,9.728 C12.106,13.842 11.11,19.73 13.007,24.751 L4.917,29.717 C4.357,30.053 3.956,30.599 3.803,31.232 C3.785,31.307 3.77,31.382 3.759,31.458 C1.155,34.354 1.123,34.393 1.06,34.473 C-0.124,35.971 0.517,37.3 0.744,37.676 C1.211,38.444 2.05,38.917 2.99,38.939 C3.344,38.947 3.707,38.896 4.126,38.78 L7.675,37.914 C7.937,38.015 8.216,38.071 8.498,38.077 C8.941,38.088 9.392,37.978 9.799,37.735 L19.074,32.001 C21.285,33.333 23.818,34.046 26.485,34.046 C28.391,34.046 30.245,33.679 31.998,32.956 C32.916,33.392 34.545,34.009 36.406,34.01 C37.97,34.01 39.382,33.576 40.604,32.719 L42.402,31.505 L40.46,30.586 C40.112,30.384 38.64,29.206 37.855,28.507 C39.905,25.894 40.908,22.757 40.91,19.628 L56.612,10.255 C57.322,9.831 57.826,9.156 58.028,8.354 C58.148,7.877 58.154,7.389 58.05,6.923 C58.222,6.357 58.187,5.732 57.917,5.166 L57.917,5.166 Z M17.799,11.441 C20.08,9.018 23.167,7.684 26.492,7.684 C29.611,7.684 32.562,8.881 34.8,11.053 C34.867,11.118 34.925,11.19 34.99,11.256 L15.193,23.409 C13.847,19.36 14.712,14.721 17.799,11.441 L17.799,11.441 Z M35.471,29.657 C35.753,29.999 36.586,30.734 37.421,31.414 C37.096,31.478 36.757,31.51 36.406,31.51 C34.847,31.51 33.438,30.885 32.903,30.616 C32.385,30.355 31.756,30.34 31.216,30.573 C29.717,31.219 28.125,31.546 26.485,31.546 C24.742,31.546 23.07,31.173 21.542,30.476 L37.121,20.846 C37.357,20.919 37.606,20.961 37.861,20.967 L37.862,20.967 C38.022,20.97 38.181,20.955 38.338,20.93 C38.081,23.26 37.149,25.535 35.504,27.429 C34.947,28.069 34.933,29.006 35.471,29.657 L35.471,29.657 Z" id="Fill-77" fill="#FFFFFF" sketch:type="MSShapeGroup"></path>
            <path d="M54.588,5.567 L51.201,7.589 L51.254,7.679 C51.469,8.039 51.351,8.505 50.991,8.72 L40.424,15.028 C40.163,14.918 39.856,14.929 39.595,15.085 C39.334,15.241 39.179,15.506 39.152,15.787 L38.092,16.419 C37.452,16.802 37.242,17.631 37.625,18.271 L37.708,18.411 C37.78,18.531 37.934,18.57 38.054,18.499 L55.365,8.166 C55.68,7.978 55.783,7.57 55.595,7.255 L54.588,5.567" id="Fill-78" fill="#1A1918" sketch:type="MSShapeGroup"></path>
            <path d="M5.373,36.028 C5.266,36.092 4.953,35.764 4.674,35.297 C4.395,34.829 4.255,34.398 4.362,34.334 C4.469,34.271 4.782,34.598 5.061,35.066 C5.34,35.533 5.48,35.964 5.373,36.028" id="Fill-79" fill="#1A1918" sketch:type="MSShapeGroup"></path>
            <path d="M8.564,35.192 C8.204,34.796 7.812,34.261 7.443,33.644 C7.075,33.027 6.791,32.427 6.613,31.923 L4.367,34.333 C4.365,34.334 4.364,34.334 4.362,34.334 C4.255,34.398 4.395,34.829 4.674,35.297 C4.953,35.764 5.266,36.092 5.373,36.028 C5.375,36.027 5.375,36.026 5.377,36.025 L8.564,35.192" id="Fill-81" fill="#1A1918" sketch:type="MSShapeGroup"></path>
            <path d="M37.784,15.903 L38.622,15.403 C38.735,15.057 38.97,14.758 39.287,14.569 C39.604,14.379 39.979,14.315 40.337,14.379 L50.683,8.204 C50.758,8.159 50.783,8.062 50.738,7.987 L50.376,7.381 L54.746,4.773 C54.684,4.643 54.612,4.507 54.529,4.369 C54.162,3.754 53.742,3.329 53.59,3.419 L48.35,6.547 L48.306,6.472 C48.178,6.258 47.901,6.188 47.687,6.316 L7.669,30.831 L7.653,30.841 C7.746,31.195 7.911,31.622 8.135,32.083 L48.583,7.31 C48.686,7.574 48.843,7.89 49.027,8.198 C49.03,8.204 49.024,8.193 49.027,8.198 L8.605,32.951 C9.073,33.736 9.581,34.388 10.009,34.79 L10.026,34.78 L36.906,18.107 C36.673,17.279 37.011,16.364 37.784,15.903" id="Fill-82" fill="#1A1918" sketch:type="MSShapeGroup"></path>
            <path d="M54.588,5.567 L51.201,7.589 L51.254,7.679 C51.469,8.039 51.351,8.505 50.991,8.72 L40.424,15.028 C40.163,14.918 39.856,14.929 39.595,15.085 C39.334,15.241 39.179,15.506 39.152,15.787 L38.092,16.419 C37.452,16.802 37.242,17.631 37.625,18.271 L37.708,18.411 C37.78,18.531 37.934,18.57 38.054,18.499 L55.365,8.166 C55.68,7.978 55.783,7.57 55.595,7.255 L54.588,5.567" id="Fill-83" fill="#1A1918" sketch:type="MSShapeGroup"></path>
        </g>
    </g>
</svg>