<?xml version="1.0" encoding="UTF-8" standalone="no"?>
<svg width="113px" height="43px" viewBox="0 0 113 43" version="1.1" xmlns="http://www.w3.org/2000/svg" xmlns:xlink="http://www.w3.org/1999/xlink" xmlns:sketch="http://www.bohemiancoding.com/sketch/ns">
    <!-- Generator: Sketch 3.2.2 (9983) - http://www.bohemiancoding.com/sketch -->
    <title>Group</title>
    <desc>Created with Sketch.</desc>
    <defs></defs>
    <g id="Page-1" stroke="none" stroke-width="1" fill="none" fill-rule="evenodd" sketch:type="MSPage">
        <g id="Group" sketch:type="MSLayerGroup">
            <path d="M92.92,41.466 L29.496,41.466 L44.165,2.645 L92.92,2.645 C103.64,2.645 112.33,11.336 112.33,22.056 C112.33,32.776 103.64,41.466 92.92,41.466" id="Fill-38" fill="#1A1918" sketch:type="MSShapeGroup"></path>
            <path d="M44.165,41.466 L19.765,41.466 C9.045,41.466 0.355,32.776 0.355,22.056 C0.355,11.336 9.045,2.645 19.765,2.645 L51.499,2.645 L44.165,41.466" id="Fill-39" fill="#D51E13" sketch:type="MSShapeGroup"></path>
            <path d="M70.497,16.565 C72.164,16.565 73.444,16.858 74.337,17.444 C75.23,18.031 75.676,18.991 75.676,20.324 C75.676,21.669 75.225,22.64 74.321,23.237 C73.417,23.834 72.126,24.133 70.448,24.133 L69.658,24.133 L69.658,27.876 L67.14,27.876 L67.14,16.855 C67.689,16.748 68.27,16.672 68.883,16.629 C69.496,16.586 70.034,16.565 70.497,16.565 L70.497,16.565 Z M70.658,18.711 C70.475,18.711 70.295,18.716 70.118,18.727 C69.94,18.738 69.787,18.749 69.658,18.759 L69.658,21.986 L70.448,21.986 C71.32,21.986 71.976,21.868 72.417,21.631 C72.858,21.395 73.078,20.954 73.078,20.308 C73.078,19.996 73.022,19.738 72.909,19.534 C72.796,19.33 72.635,19.165 72.425,19.042 C72.215,18.918 71.959,18.832 71.658,18.783 C71.357,18.735 71.024,18.711 70.658,18.711 L70.658,18.711 Z" id="Fill-40" fill="#FFFFFF" sketch:type="MSShapeGroup"></path>
            <path d="M83.647,19.631 C83.647,20.04 83.567,20.432 83.405,20.808 C83.244,21.185 83.034,21.548 82.776,21.898 C82.518,22.248 82.227,22.583 81.904,22.906 C81.582,23.229 81.264,23.535 80.953,23.826 C80.791,23.977 80.616,24.146 80.428,24.335 C80.24,24.522 80.059,24.713 79.888,24.907 C79.715,25.101 79.562,25.281 79.428,25.448 C79.293,25.615 79.21,25.751 79.177,25.859 L83.986,25.859 L83.986,27.876 L76.532,27.876 C76.51,27.758 76.499,27.607 76.499,27.424 L76.499,27.037 C76.499,26.52 76.582,26.047 76.749,25.617 C76.916,25.186 77.134,24.786 77.402,24.415 C77.671,24.044 77.975,23.697 78.315,23.374 C78.653,23.051 78.99,22.728 79.323,22.406 C79.581,22.158 79.823,21.924 80.049,21.704 C80.275,21.484 80.474,21.268 80.646,21.059 C80.818,20.849 80.953,20.639 81.05,20.429 C81.146,20.22 81.195,20.007 81.195,19.792 C81.195,19.319 81.06,18.985 80.791,18.792 C80.522,18.598 80.189,18.501 79.791,18.501 C79.5,18.501 79.229,18.547 78.976,18.638 C78.723,18.73 78.492,18.837 78.282,18.961 C78.072,19.085 77.892,19.208 77.742,19.332 C77.591,19.456 77.478,19.555 77.402,19.631 L76.209,17.953 C76.682,17.512 77.233,17.148 77.862,16.863 C78.492,16.578 79.167,16.436 79.888,16.436 C80.544,16.436 81.108,16.511 81.582,16.662 C82.055,16.813 82.445,17.025 82.751,17.299 C83.058,17.573 83.284,17.907 83.429,18.299 C83.575,18.692 83.647,19.136 83.647,19.631" id="Fill-41" fill="#FFFFFF" sketch:type="MSShapeGroup"></path>
            <path d="M88.859,16.565 C90.526,16.565 91.806,16.858 92.699,17.444 C93.592,18.031 94.039,18.991 94.039,20.324 C94.039,21.669 93.586,22.64 92.683,23.237 C91.78,23.834 90.488,24.133 88.81,24.133 L88.02,24.133 L88.02,27.876 L85.503,27.876 L85.503,16.855 C86.052,16.748 86.632,16.672 87.245,16.629 C87.858,16.586 88.397,16.565 88.859,16.565 L88.859,16.565 Z M89.02,18.711 C88.837,18.711 88.657,18.716 88.48,18.727 C88.302,18.738 88.149,18.749 88.02,18.759 L88.02,21.986 L88.81,21.986 C89.682,21.986 90.338,21.868 90.779,21.631 C91.22,21.395 91.441,20.954 91.441,20.308 C91.441,19.996 91.384,19.738 91.271,19.534 C91.158,19.33 90.997,19.165 90.787,19.042 C90.577,18.918 90.322,18.832 90.021,18.783 C89.719,18.735 89.386,18.711 89.02,18.711 L89.02,18.711 Z" id="Fill-42" fill="#FFFFFF" sketch:type="MSShapeGroup"></path>
            <path d="M21.831,42.279 C18.259,43.076 14.47,41.93 11.943,39.286 C10.004,37.259 8.971,34.597 9.034,31.792 C9.097,28.987 10.249,26.375 12.277,24.436 C12.391,24.328 12.508,24.221 12.627,24.117 L11.911,21.444 C9.856,21.01 7.956,19.969 6.489,18.434 C4.55,16.407 3.517,13.746 3.58,10.941 C3.644,8.136 4.795,5.523 6.823,3.584 C8.207,2.262 9.922,1.342 11.784,0.926 C15.357,0.128 19.145,1.275 21.673,3.918 C23.13,5.443 24.083,7.374 24.429,9.432 L27.112,10.271 C27.229,10.147 27.35,10.025 27.474,9.907 C28.858,8.584 30.574,7.664 32.436,7.248 C36.008,6.451 39.797,7.597 42.324,10.24 C44.263,12.268 45.296,14.93 45.233,17.735 C45.17,20.539 44.018,23.152 41.99,25.091 C40.608,26.412 38.895,27.33 37.036,27.745 C35.192,28.157 33.301,28.066 31.538,27.502 L29.668,29.29 C30.647,32.936 29.598,36.938 26.793,39.62 C25.409,40.943 23.693,41.863 21.831,42.279 L21.831,42.279 Z M21.845,21.784 C22.341,21.895 22.828,22.041 23.302,22.222 L24.767,20.821 C24.612,20.353 24.489,19.873 24.401,19.385 L21.6,18.509 C21.514,18.598 21.427,18.684 21.338,18.769 C21.259,18.845 21.178,18.919 21.097,18.992 L21.845,21.784 L21.845,21.784 Z" id="Fill-43" fill="#FFFFFF" sketch:type="MSShapeGroup"></path>
            <path d="M41.051,11.849 C38.001,8.659 32.943,8.545 29.752,11.595 C29.194,12.129 28.735,12.727 28.366,13.364 L21.365,11.174 C21.499,9.026 20.779,6.83 19.174,5.152 C16.124,1.962 11.066,1.848 7.875,4.898 C4.685,7.948 4.572,13.006 7.622,16.197 C9.233,17.883 11.406,18.7 13.568,18.655 L15.455,25.696 C14.813,26.035 14.204,26.46 13.653,26.987 C10.463,30.037 10.349,35.095 13.399,38.286 C16.449,41.476 21.508,41.59 24.698,38.54 C27.888,35.49 28.002,30.431 24.952,27.241 C22.679,24.864 19.292,24.197 16.392,25.273 C17.119,24.585 17.953,24.049 18.855,23.695 L17.241,17.672 C17.837,17.344 18.405,16.943 18.92,16.45 C19.443,15.951 19.874,15.393 20.231,14.803 L27.298,17.013 C27.227,18.604 27.622,20.213 28.5,21.613 L25.713,24.278 C25.844,24.358 25.978,24.432 26.106,24.52 C27.074,25.185 27.821,26.041 28.378,26.989 L31.233,24.26 C34.236,26.023 38.156,25.673 40.797,23.148 C43.987,20.098 44.101,15.039 41.051,11.849 L41.051,11.849 Z M18.229,27.926 C19.115,27.08 20.519,27.111 21.365,27.997 C22.211,28.882 22.18,30.286 21.294,31.132 C20.409,31.978 19.005,31.947 18.159,31.062 C17.313,30.176 17.344,28.772 18.229,27.926 L18.229,27.926 Z M15.517,9.043 C14.631,9.889 13.228,9.858 12.381,8.973 C11.535,8.087 11.567,6.683 12.452,5.837 C13.337,4.991 14.741,5.022 15.587,5.908 C16.434,6.793 16.402,8.197 15.517,9.043 L15.517,9.043 Z M37.394,15.74 C36.509,16.587 35.105,16.555 34.258,15.67 C33.412,14.785 33.444,13.381 34.329,12.535 C35.214,11.688 36.618,11.72 37.464,12.605 C38.311,13.49 38.279,14.894 37.394,15.74 L37.394,15.74 Z" id="Fill-44" fill="#1A1918" sketch:type="MSShapeGroup"></path>
        </g>
    </g>
</svg>