<?xml version="1.0" encoding="UTF-8" standalone="no"?>
<svg width="179px" height="47px" viewBox="0 0 179 47" version="1.1" xmlns="http://www.w3.org/2000/svg" xmlns:xlink="http://www.w3.org/1999/xlink" xmlns:sketch="http://www.bohemiancoding.com/sketch/ns">
    <!-- Generator: Sketch 3.2.2 (9983) - http://www.bohemiancoding.com/sketch -->
    <title>Group</title>
    <desc>Created with Sketch.</desc>
    <defs></defs>
    <g id="Page-1" stroke="none" stroke-width="1" fill="none" fill-rule="evenodd" sketch:type="MSPage">
        <g id="Group" sketch:type="MSLayerGroup">
            <path d="M159.487,42.757 L32.989,42.757 L47.657,3.936 L159.487,3.936 C170.208,3.936 178.898,12.627 178.898,23.347 C178.898,34.067 170.208,42.757 159.487,42.757" id="Fill-45" fill="#1A1918" sketch:type="MSShapeGroup"></path>
            <path d="M47.657,42.757 L23.258,42.757 C12.538,42.757 3.847,34.067 3.847,23.347 C3.847,12.627 12.538,3.936 23.258,3.936 L54.992,3.936 L47.657,42.757" id="Fill-46" fill="#D51E13" sketch:type="MSShapeGroup"></path>
            <path d="M73.602,17.985 C73.796,18.34 74.019,18.779 74.273,19.3 C74.527,19.822 74.791,20.387 75.066,20.995 C75.341,21.603 75.613,22.224 75.883,22.858 C76.152,23.493 76.406,24.09 76.643,24.649 C76.88,24.09 77.134,23.493 77.404,22.858 C77.673,22.224 77.946,21.603 78.221,20.995 C78.496,20.387 78.76,19.822 79.013,19.3 C79.267,18.779 79.491,18.34 79.685,17.985 L81.976,17.985 C82.083,18.728 82.183,19.559 82.275,20.478 C82.366,21.398 82.446,22.356 82.517,23.35 C82.587,24.345 82.651,25.343 82.71,26.344 C82.769,27.344 82.821,28.285 82.864,29.167 L80.411,29.167 C80.379,28.081 80.335,26.898 80.282,25.617 C80.228,24.337 80.147,23.047 80.04,21.745 C79.845,22.197 79.63,22.697 79.392,23.246 C79.155,23.794 78.92,24.343 78.688,24.891 C78.456,25.44 78.232,25.964 78.017,26.464 C77.801,26.965 77.617,27.393 77.466,27.747 L75.707,27.747 C75.556,27.393 75.373,26.965 75.157,26.464 C74.941,25.964 74.717,25.44 74.485,24.891 C74.253,24.343 74.019,23.794 73.781,23.246 C73.544,22.697 73.328,22.197 73.134,21.745 C73.026,23.047 72.946,24.337 72.892,25.617 C72.838,26.898 72.795,28.081 72.763,29.167 L70.31,29.167 C70.353,28.285 70.404,27.344 70.463,26.344 C70.522,25.343 70.587,24.345 70.657,23.35 C70.727,22.356 70.807,21.398 70.899,20.478 C70.99,19.559 71.09,18.728 71.198,17.985 L73.602,17.985" id="Fill-47" fill="#FFFFFF" sketch:type="MSShapeGroup"></path>
            <path d="M92.012,29.167 C91.292,27.887 90.512,26.623 89.673,25.375 C88.834,24.127 87.941,22.95 86.994,21.842 L86.994,29.167 L84.509,29.167 L84.509,17.985 L86.558,17.985 C86.914,18.34 87.306,18.776 87.736,19.292 C88.167,19.809 88.605,20.36 89.051,20.946 C89.498,21.533 89.941,22.14 90.383,22.77 C90.824,23.399 91.238,24.004 91.625,24.585 L91.625,17.985 L94.126,17.985 L94.126,29.167 L92.012,29.167" id="Fill-48" fill="#FFFFFF" sketch:type="MSShapeGroup"></path>
            <path d="M96.111,29.167 L96.111,17.985 L103.662,17.985 L103.662,20.099 L98.628,20.099 L98.628,22.294 L103.097,22.294 L103.097,24.359 L98.628,24.359 L98.628,27.053 L104.033,27.053 L104.033,29.167 L96.111,29.167" id="Fill-49" fill="#FFFFFF" sketch:type="MSShapeGroup"></path>
            <path d="M108.261,17.985 C108.455,18.34 108.678,18.779 108.932,19.3 C109.185,19.822 109.45,20.387 109.725,20.995 C110,21.603 110.272,22.224 110.542,22.858 C110.812,23.493 111.065,24.09 111.302,24.649 C111.54,24.09 111.793,23.493 112.063,22.858 C112.332,22.224 112.604,21.603 112.88,20.995 C113.155,20.387 113.419,19.822 113.672,19.3 C113.926,18.779 114.149,18.34 114.344,17.985 L116.635,17.985 C116.742,18.728 116.842,19.559 116.934,20.478 C117.025,21.398 117.105,22.356 117.176,23.35 C117.246,24.345 117.31,25.343 117.369,26.344 C117.428,27.344 117.479,28.285 117.523,29.167 L115.07,29.167 C115.038,28.081 114.995,26.898 114.941,25.617 C114.887,24.337 114.806,23.047 114.699,21.745 C114.505,22.197 114.289,22.697 114.051,23.246 C113.814,23.794 113.579,24.343 113.347,24.891 C113.115,25.44 112.891,25.964 112.676,26.464 C112.46,26.965 112.276,27.393 112.125,27.747 L110.366,27.747 C110.215,27.393 110.032,26.965 109.816,26.464 C109.6,25.964 109.376,25.44 109.144,24.891 C108.912,24.343 108.678,23.794 108.44,23.246 C108.203,22.697 107.987,22.197 107.793,21.745 C107.685,23.047 107.604,24.337 107.551,25.617 C107.497,26.898 107.454,28.081 107.422,29.167 L104.969,29.167 C105.012,28.285 105.063,27.344 105.123,26.344 C105.181,25.343 105.246,24.345 105.316,23.35 C105.386,22.356 105.466,21.398 105.558,20.478 C105.649,19.559 105.749,18.728 105.857,17.985 L108.261,17.985" id="Fill-50" fill="#FFFFFF" sketch:type="MSShapeGroup"></path>
            <path d="M129.818,23.568 C129.818,24.526 129.675,25.367 129.39,26.093 C129.105,26.82 128.715,27.427 128.22,27.917 C127.725,28.406 127.137,28.775 126.454,29.022 C125.77,29.27 125.036,29.393 124.251,29.393 C123.487,29.393 122.766,29.27 122.089,29.022 C121.411,28.775 120.819,28.406 120.314,27.917 C119.808,27.427 119.41,26.82 119.12,26.093 C118.829,25.367 118.684,24.526 118.684,23.568 C118.684,22.611 118.835,21.769 119.136,21.043 C119.437,20.317 119.843,19.707 120.354,19.212 C120.865,18.717 121.457,18.346 122.129,18.098 C122.801,17.851 123.509,17.727 124.251,17.727 C125.015,17.727 125.736,17.851 126.413,18.098 C127.091,18.346 127.682,18.717 128.188,19.212 C128.694,19.707 129.092,20.317 129.382,21.043 C129.673,21.769 129.818,22.611 129.818,23.568 L129.818,23.568 Z M121.282,23.568 C121.282,24.117 121.349,24.612 121.484,25.052 C121.618,25.494 121.812,25.873 122.065,26.19 C122.317,26.508 122.627,26.753 122.993,26.925 C123.358,27.097 123.777,27.183 124.251,27.183 C124.713,27.183 125.13,27.097 125.501,26.925 C125.873,26.753 126.185,26.508 126.437,26.19 C126.69,25.873 126.883,25.494 127.018,25.052 C127.152,24.612 127.22,24.117 127.22,23.568 C127.22,23.02 127.152,22.522 127.018,22.076 C126.883,21.629 126.69,21.247 126.437,20.93 C126.185,20.613 125.873,20.368 125.501,20.196 C125.13,20.024 124.713,19.938 124.251,19.938 C123.777,19.938 123.358,20.026 122.993,20.204 C122.627,20.381 122.317,20.629 122.065,20.946 C121.812,21.264 121.618,21.646 121.484,22.092 C121.349,22.538 121.282,23.03 121.282,23.568 L121.282,23.568 Z" id="Fill-51" fill="#FFFFFF" sketch:type="MSShapeGroup"></path>
            <path d="M138.821,29.167 C138.1,27.887 137.32,26.623 136.481,25.375 C135.642,24.127 134.75,22.95 133.803,21.842 L133.803,29.167 L131.318,29.167 L131.318,17.985 L133.367,17.985 C133.723,18.34 134.115,18.776 134.545,19.292 C134.975,19.809 135.414,20.36 135.86,20.946 C136.307,21.533 136.751,22.14 137.192,22.77 C137.632,23.399 138.047,24.004 138.434,24.585 L138.434,17.985 L140.935,17.985 L140.935,29.167 L138.821,29.167" id="Fill-52" fill="#FFFFFF" sketch:type="MSShapeGroup"></path>
            <path d="M142.92,17.985 L145.437,17.985 L145.437,29.167 L142.92,29.167 L142.92,17.985 Z" id="Fill-53" fill="#FFFFFF" sketch:type="MSShapeGroup"></path>
            <path d="M152.52,29.393 C150.702,29.393 149.317,28.888 148.365,27.876 C147.413,26.865 146.937,25.429 146.937,23.568 C146.937,22.643 147.083,21.818 147.373,21.092 C147.664,20.365 148.061,19.752 148.567,19.252 C149.073,18.752 149.675,18.373 150.374,18.115 C151.073,17.856 151.832,17.727 152.649,17.727 C153.122,17.727 153.553,17.762 153.94,17.832 C154.328,17.902 154.666,17.983 154.957,18.074 C155.247,18.166 155.489,18.26 155.683,18.356 C155.876,18.453 156.016,18.529 156.102,18.582 L155.376,20.616 C155.032,20.433 154.631,20.277 154.174,20.147 C153.717,20.019 153.198,19.954 152.617,19.954 C152.23,19.954 151.851,20.019 151.479,20.147 C151.108,20.277 150.78,20.484 150.495,20.769 C150.21,21.054 149.981,21.422 149.81,21.874 C149.637,22.326 149.552,22.875 149.552,23.52 C149.552,24.036 149.608,24.518 149.721,24.964 C149.833,25.411 150.017,25.795 150.269,26.118 C150.522,26.44 150.853,26.696 151.262,26.884 C151.67,27.072 152.165,27.166 152.746,27.166 C153.112,27.166 153.44,27.145 153.73,27.102 C154.021,27.059 154.279,27.008 154.505,26.948 C154.731,26.89 154.93,26.822 155.102,26.747 C155.274,26.672 155.43,26.602 155.57,26.537 L156.264,28.554 C155.909,28.769 155.408,28.963 154.763,29.135 C154.118,29.307 153.37,29.393 152.52,29.393" id="Fill-54" fill="#FFFFFF" sketch:type="MSShapeGroup"></path>
            <path d="M4.105,18.124 L28.401,4.026 C28.578,3.923 28.797,3.922 28.975,4.024 L56.631,19.868 L58.367,18.725 L58.589,19.684 C58.635,19.882 58.657,20.067 58.658,20.25 C58.66,21.131 58.216,21.937 57.472,22.406 L36.101,34.944 C34.664,35.787 32.883,35.78 31.453,34.925 L4.102,18.562 C3.936,18.463 3.938,18.221 4.105,18.124" id="Fill-55" fill="#1A1918" sketch:type="MSShapeGroup"></path>
            <path d="M61.835,18.931 L61.613,17.972 C61.366,16.91 60.616,16.035 59.603,15.63 C59.205,15.471 58.785,15.392 58.367,15.392 C57.724,15.392 57.086,15.578 56.534,15.941 L56.509,15.958 L30.632,1.132 C30.042,0.794 29.37,0.615 28.689,0.615 C28.003,0.615 27.325,0.797 26.728,1.143 L2.433,15.241 C1.34,15.875 0.655,17.055 0.647,18.319 C0.638,19.583 1.306,20.772 2.392,21.422 L29.743,37.784 C30.967,38.516 32.368,38.904 33.794,38.904 C35.197,38.904 36.578,38.528 37.787,37.819 C37.787,37.819 59.218,25.245 59.247,25.226 C60.968,24.142 61.994,22.28 61.991,20.235 C61.989,19.799 61.938,19.371 61.835,18.931 L61.835,18.931 Z M4.105,18.124 L28.401,4.026 C28.578,3.923 28.797,3.922 28.975,4.024 L54.944,18.902 L35.018,30.633 C34.805,30.759 34.659,30.973 34.619,31.217 C34.579,31.461 34.65,31.711 34.812,31.898 C35.065,32.189 35.199,32.541 35.199,32.916 C35.199,33.356 35.008,33.755 34.701,34.048 C34.597,34.15 34.479,34.232 34.351,34.302 C34.335,34.31 34.319,34.318 34.302,34.326 C34.062,34.447 33.783,34.512 33.481,34.538 C33.47,34.538 33.46,34.541 33.449,34.541 C33.439,34.541 33.431,34.547 33.422,34.547 C31.129,34.706 27.488,32.552 27.476,32.546 L4.102,18.562 C3.936,18.463 3.938,18.221 4.105,18.124 L4.105,18.124 Z M57.472,22.406 L36.144,34.919 C36.592,34.363 36.865,33.672 36.865,32.916 C36.865,32.474 36.772,32.04 36.596,31.638 L56.609,19.855 L56.631,19.868 L56.995,19.628 L58.386,18.809 L58.589,19.684 C58.635,19.881 58.657,20.067 58.658,20.25 C58.66,21.131 58.216,21.937 57.472,22.406 L57.472,22.406 Z" id="Fill-56" fill="#FFFFFF" sketch:type="MSShapeGroup"></path>
            <path d="M61.475,27.319 L34.816,42.952 C34.17,43.331 33.368,43.328 32.725,42.943 L1.114,23.834 C0.816,24.359 0.647,24.958 0.644,25.578 C0.636,26.843 1.306,28.032 2.389,28.678 L31.014,45.802 C31.849,46.302 32.805,46.566 33.778,46.566 C34.735,46.566 35.677,46.311 36.508,45.823 L59.777,32.109 C60.979,31.4 61.707,30.144 61.724,28.75 C61.73,28.25 61.641,27.768 61.475,27.319" id="Fill-57" fill="#FFFFFF" sketch:type="MSShapeGroup"></path>
            <path id="Stroke-58" stroke="#FFFFFF" stroke-width="2" stroke-linecap="round" sketch:type="MSShapeGroup"></path>
            <path d="M14.744,20.688 C14.529,20.688 14.319,20.576 14.203,20.376 C14.03,20.078 14.132,19.695 14.43,19.522 L31.005,9.904 C31.303,9.73 31.685,9.832 31.859,10.131 C32.032,10.429 31.93,10.812 31.632,10.985 L15.057,20.603 C14.959,20.66 14.851,20.688 14.744,20.688" id="Fill-59" fill="#FFFFFF" sketch:type="MSShapeGroup"></path>
            <path d="M31.32,15.502 C31.104,15.502 30.894,15.391 30.779,15.191 C30.605,14.893 30.707,14.51 31.005,14.337 L34.704,12.191 C35.002,12.017 35.385,12.119 35.558,12.417 C35.731,12.716 35.63,13.098 35.331,13.271 L31.633,15.418 C31.534,15.475 31.426,15.502 31.32,15.502" id="Fill-60" fill="#FFFFFF" sketch:type="MSShapeGroup"></path>
            <path d="M24.61,19.395 C24.395,19.395 24.185,19.284 24.069,19.084 C23.896,18.786 23.998,18.403 24.296,18.23 L28.666,15.694 C28.965,15.521 29.346,15.622 29.52,15.921 C29.693,16.219 29.592,16.602 29.293,16.775 L24.923,19.311 C24.825,19.368 24.717,19.395 24.61,19.395" id="Fill-61" fill="#FFFFFF" sketch:type="MSShapeGroup"></path>
            <path d="M18.457,22.966 C18.242,22.966 18.032,22.855 17.916,22.655 C17.743,22.357 17.845,21.974 18.143,21.801 L21.899,19.621 C22.198,19.447 22.58,19.549 22.753,19.848 C22.927,20.146 22.825,20.529 22.527,20.702 L18.77,22.882 C18.671,22.939 18.564,22.966 18.457,22.966" id="Fill-62" fill="#FFFFFF" sketch:type="MSShapeGroup"></path>
            <path d="M36.881,16.708 C36.666,16.708 36.456,16.597 36.34,16.397 C36.167,16.098 36.268,15.716 36.567,15.543 L38.549,14.393 C38.847,14.218 39.23,14.321 39.403,14.619 C39.576,14.918 39.475,15.3 39.176,15.473 L37.194,16.623 C37.095,16.681 36.988,16.708 36.881,16.708" id="Fill-63" fill="#FFFFFF" sketch:type="MSShapeGroup"></path>
            <path d="M26.888,22.507 C26.673,22.507 26.463,22.396 26.347,22.196 C26.174,21.897 26.275,21.515 26.574,21.342 L34.12,16.962 C34.419,16.788 34.801,16.89 34.974,17.189 C35.148,17.487 35.046,17.87 34.748,18.043 L27.201,22.422 C27.102,22.48 26.994,22.507 26.888,22.507" id="Fill-64" fill="#FFFFFF" sketch:type="MSShapeGroup"></path>
            <path d="M22.435,25.091 C22.219,25.091 22.01,24.979 21.894,24.78 C21.721,24.481 21.822,24.099 22.121,23.925 L24.296,22.664 C24.594,22.489 24.976,22.591 25.15,22.89 C25.323,23.189 25.221,23.571 24.923,23.744 L22.748,25.007 C22.649,25.064 22.541,25.091 22.435,25.091" id="Fill-65" fill="#FFFFFF" sketch:type="MSShapeGroup"></path>
            <path d="M26.247,27.274 C26.031,27.274 25.821,27.162 25.706,26.962 C25.532,26.664 25.634,26.281 25.932,26.108 L38.842,18.617 C39.14,18.443 39.522,18.545 39.696,18.844 C39.869,19.142 39.767,19.525 39.469,19.698 L26.56,27.189 C26.461,27.247 26.353,27.274 26.247,27.274" id="Fill-66" fill="#FFFFFF" sketch:type="MSShapeGroup"></path>
            <path d="M30.092,29.475 C29.876,29.475 29.667,29.364 29.551,29.164 C29.378,28.866 29.479,28.483 29.778,28.31 L38.842,23.05 C39.14,22.876 39.522,22.978 39.696,23.277 C39.869,23.575 39.767,23.958 39.469,24.131 L30.405,29.391 C30.306,29.448 30.198,29.475 30.092,29.475" id="Fill-67" fill="#FFFFFF" sketch:type="MSShapeGroup"></path>
        </g>
    </g>
</svg>