<?xml version="1.0" encoding="UTF-8" standalone="no"?>
<svg width="121px" height="99px" viewBox="0 0 121 99" version="1.1" xmlns="http://www.w3.org/2000/svg" xmlns:xlink="http://www.w3.org/1999/xlink" xmlns:sketch="http://www.bohemiancoding.com/sketch/ns">
    <!-- Generator: Sketch 3.2.2 (9983) - http://www.bohemiancoding.com/sketch -->
    <title>Imported Layers + Imported Layers</title>
    <desc>Created with Sketch.</desc>
    <defs></defs>
    <g id="Page-1" stroke="none" stroke-width="1" fill="none" fill-rule="evenodd" sketch:type="MSPage">
        <g id="Imported-Layers-+-Imported-Layers" sketch:type="MSLayerGroup">
            <g id="Imported-Layers" fill="#6B6A65" sketch:type="MSShapeGroup">
                <path d="M0,42.0391762 L43.3351496,42.0391762 L43.3351496,0 L0,0 L0,42.0391762 Z M32.7675622,25.9840848 C32.7675622,29.6289902 29.8073496,32.6112205 26.1893543,32.6112205 L20.1349717,32.6112205 L20.1349717,28.5672126 C22.3444126,28.5697082 24.6855244,28.5712439 24.6855244,28.5712439 C26.2874882,28.5712439 27.5980992,27.2508848 27.5980992,25.6370058 C27.5980992,24.0231269 26.2874882,22.7025757 24.6855244,22.7025757 C24.6855244,22.7025757 16.3731102,22.7083348 16.292126,22.7152456 L16.292126,32.6112205 L11.8980157,32.6112205 L11.8980157,18.7013768 C16.3866394,18.7052162 24.1500756,18.7079037 24.1500756,18.7079037 C25.6272283,18.7079037 26.8358945,17.4902477 26.8358945,16.0021081 C26.8358945,14.5137765 25.6272283,13.2961205 24.1500756,13.2961205 C24.1500756,13.2961205 16.3866394,13.298808 11.8980157,13.3026474 L11.8980157,9.23637118 L24.8909386,9.23637118 C28.5068378,9.23637118 31.465526,12.2324232 31.465526,15.8940298 C31.465526,17.628273 30.8012646,19.2123969 29.7183622,20.4004898 C31.5476535,21.5809039 32.7675622,23.6451409 32.7675622,25.9838929 L32.7675622,25.9840848 L32.7675622,25.9840848 Z" id="Fill-1"></path>
                <path d="M46.5779496,16.1391736 L50.4979685,16.1391736 C50.9491937,16.1391736 51.3533528,16.2030991 51.7106362,16.3309501 C52.0679197,16.4588011 52.3708961,16.6340683 52.620137,16.8565598 C52.8691874,17.0792432 53.059548,17.3395524 53.1912189,17.6378715 C53.3228898,17.9361905 53.3886299,18.2512107 53.3886299,18.5825483 C53.3886299,18.9899054 53.2990709,19.375954 53.120715,19.7403102 C52.941978,20.1048583 52.674063,20.4246778 52.3169701,20.6991927 C52.8903386,20.9644932 53.3040252,21.3077328 53.5578394,21.7291036 C53.8116535,22.1506664 53.9385606,22.6027521 53.9385606,23.0857448 C53.9385606,23.4835035 53.8562425,23.8553464 53.6917969,24.2008897 C53.5271606,24.5466249 53.3040252,24.8520467 53.0220094,25.1171552 C52.7399937,25.3824556 52.4177717,25.5909334 52.0561055,25.7422045 C51.6942488,25.8938596 51.3158142,25.9694952 50.9209921,25.9694952 L46.5779496,25.9694952 L46.5779496,16.1391736 L46.5779496,16.1391736 Z M48.2277417,20.045732 L50.2723559,20.045732 C50.4979685,20.045732 50.7047165,20.0102179 50.8927906,19.9391895 C51.080674,19.8681612 51.2428331,19.7712171 51.3792677,19.6479734 C51.5155118,19.5249216 51.6212677,19.3830569 51.6965354,19.2218033 C51.7716126,19.0609338 51.8093417,18.8902738 51.8093417,18.7103993 C51.8093417,18.3790617 51.7011087,18.1066585 51.4850236,17.8935735 C51.268748,17.6804885 50.9209921,17.573946 50.4415654,17.573946 L48.2277417,17.573946 L48.2277417,20.045732 L48.2277417,20.045732 Z M48.2277417,24.5347228 L50.5120693,24.5347228 C50.7186268,24.5347228 50.9255654,24.5040079 51.1325039,24.442386 C51.339252,24.3809561 51.527326,24.2909229 51.6965354,24.1724783 C51.8657449,24.0542257 52.001989,23.900459 52.1054583,23.7107941 C52.208737,23.5213213 52.2605669,23.2988298 52.2605669,23.0431278 C52.2605669,22.6077433 52.0747795,22.2334048 51.7035858,21.9208801 C51.3322016,21.6083554 50.8129496,21.4520931 50.1454488,21.4520931 L48.2277417,21.4520931 L48.2277417,24.5347228 L48.2277417,24.5347228 Z" id="Fill-2"></path>
                <path d="M56.1382835,16.1391736 L56.1382835,24.5347228 L60.7774425,24.5347228 L60.7774425,25.9694952 L54.4743906,25.9694952 L54.4743906,16.1391736 L56.1382835,16.1391736" id="Fill-3"></path>
                <path d="M69.8440583,21.0685401 C69.8440583,21.8262396 69.7453528,22.5200137 69.5479417,23.1496703 C69.3505307,23.7795189 69.0614646,24.3216378 68.6807433,24.7762192 C68.300022,25.2308005 67.8299323,25.5838305 67.2706646,25.8345414 C66.7112063,26.0854442 66.0741937,26.2109916 65.3600079,26.2109916 C64.6454409,26.2109916 64.0133827,26.0854442 63.463452,25.8345414 C62.9135213,25.5838305 62.4481953,25.2308005 62.067474,24.7762192 C61.6867528,24.3216378 61.3976866,23.7795189 61.2002756,23.1496703 C61.0028646,22.5200137 60.9041591,21.8262396 60.9041591,21.0685401 C60.9041591,20.3110325 61.0028646,19.6172584 61.2002756,18.9874098 C61.3976866,18.3577532 61.6867528,17.8154423 62.067474,17.3608609 C62.4481953,16.9062796 62.9135213,16.5511379 63.463452,16.2954359 C64.0133827,16.0397339 64.6454409,15.9118829 65.3600079,15.9118829 C66.0741937,15.9118829 66.7112063,16.0397339 67.2706646,16.2954359 C67.8299323,16.5511379 68.300022,16.9062796 68.6807433,17.3608609 C69.0614646,17.8154423 69.3505307,18.3577532 69.5479417,18.9874098 C69.7453528,19.6172584 69.8440583,20.3110325 69.8440583,21.0685401 L69.8440583,21.0685401 Z M68.1942661,21.0685401 C68.1942661,20.4813085 68.1214756,19.9558908 67.9757039,19.491711 C67.8299323,19.0277232 67.6302346,18.6370674 67.3764205,18.3197435 C67.1226063,18.0024196 66.821726,17.7586196 66.4739701,17.5881516 C66.1260236,17.4176836 65.7548299,17.3324496 65.3600079,17.3324496 C64.9651858,17.3324496 64.5962787,17.4176836 64.2530961,17.5881516 C63.9099134,17.7586196 63.6137969,18.0024196 63.3647465,18.3197435 C63.1156961,18.6370674 62.9180945,19.0277232 62.7725134,19.491711 C62.6267417,19.9558908 62.5539512,20.4813085 62.5539512,21.0685401 C62.5539512,21.6559636 62.6267417,22.1790777 62.7725134,22.6382663 C62.9180945,23.0976468 63.1156961,23.4883027 63.3647465,23.8102338 C63.6137969,24.1323569 63.9099134,24.3784605 64.2530961,24.5489285 C64.5962787,24.7193965 64.9651858,24.8046305 65.3600079,24.8046305 C65.7548299,24.8046305 66.1260236,24.7193965 66.4739701,24.5489285 C66.821726,24.3784605 67.1226063,24.1323569 67.3764205,23.8102338 C67.6302346,23.4883027 67.8299323,23.0976468 67.9757039,22.6382663 C68.1214756,22.1790777 68.1942661,21.6559636 68.1942661,21.0685401 L68.1942661,21.0685401 Z" id="Fill-4"></path>
                <path d="M72.1565874,20.9264834 C72.1565874,21.5895425 72.238715,22.1673676 72.4033512,22.6595748 C72.5677969,23.1521659 72.7817858,23.559523 73.044937,23.8812622 C73.3080882,24.2033853 73.6064913,24.442386 73.940337,24.5986483 C74.2739921,24.7549107 74.6146976,24.8330418 74.9626441,24.8330418 C75.319737,24.8330418 75.6417685,24.7599019 75.928548,24.612854 C76.2153276,24.4661901 76.4689512,24.27211 76.6899906,24.0304217 C76.9108394,23.7889253 77.091863,23.5144104 77.2328709,23.206493 C77.3738787,22.8987675 77.4771575,22.57914 77.5430882,22.2476104 L79.2351827,22.2476104 C79.1317134,22.8066226 78.9647906,23.3272411 78.7346047,23.8102338 C78.5042283,24.2932265 78.2081118,24.7147893 77.8462551,25.0745382 C77.4842079,25.4344791 77.0636614,25.7187844 76.5842346,25.9268782 C76.1048079,26.135164 75.5642142,26.2394029 74.9626441,26.2394029 C74.2858063,26.2394029 73.6699449,26.1186547 73.1154409,25.8771584 C72.5607465,25.635662 72.0908472,25.2878152 71.7053622,24.8330418 C71.3198772,24.3784605 71.021474,23.8223278 70.8099622,23.163876 C70.5984504,22.5056161 70.4926945,21.7552113 70.4926945,20.9122777 C70.4926945,20.2684155 70.5936866,19.6433661 70.7958614,19.0371297 C70.9978457,18.4312772 71.289389,17.8935735 71.6701102,17.4247865 C72.0508315,16.9559994 72.5161575,16.5795493 73.0660882,16.2954359 C73.6160189,16.0113226 74.2435039,15.8692659 74.9485433,15.8692659 C75.5501134,15.8692659 76.0859433,15.9569955 76.5560331,16.1320707 C77.0261228,16.307338 77.4396189,16.5488343 77.7969024,16.8565598 C78.1539953,17.1644772 78.4548756,17.531329 78.6993528,17.957499 C78.9438299,18.383669 79.1364772,18.8478488 79.277485,19.3496543 L77.5712898,19.3496543 C77.3268126,18.6487774 76.9908709,18.127967 76.5630835,17.787031 C76.1352961,17.446095 75.5971795,17.2756269 74.9485433,17.2756269 C74.5348567,17.2756269 74.1588992,17.3750666 73.8204803,17.573946 C73.4820614,17.7728253 73.1882315,18.0381257 72.9391811,18.3694633 C72.6901307,18.7009929 72.4972929,19.0891531 72.3610488,19.534328 C72.2246142,19.9795029 72.1565874,20.4434907 72.1565874,20.9264834" id="Fill-5"></path>
                <path d="M81.4770173,16.1391736 L81.4770173,20.3724624 C82.1725291,19.6717774 82.8777591,18.9637977 83.5921354,18.2487151 C84.3065118,17.5338245 85.0022142,16.830644 85.679052,16.1391736 L87.8364724,16.1391736 L83.888252,20.1025547 C84.1984693,20.5667345 84.525074,21.0472316 84.8682567,21.5446219 C85.2114394,22.0416283 85.5569087,22.5413222 85.9046646,23.0431278 C86.2524205,23.5451254 86.5956031,24.0446273 86.934022,24.5418257 C87.2724409,25.039024 87.5967591,25.5149139 87.9069764,25.9694952 L85.9187654,25.9694952 L82.7460882,21.2532137 L81.4770173,22.5175181 L81.4770173,25.9694952 L79.8131244,25.9694952 L79.8131244,16.1391736 L81.4770173,16.1391736" id="Fill-6"></path>
                <path d="M95.4226961,16.1391736 L95.4226961,17.573946 L92.3628252,17.573946 L92.3628252,25.9694952 L90.7130331,25.9694952 L90.7130331,17.573946 L87.6531622,17.573946 L87.6531622,16.1391736 L95.4226961,16.1391736" id="Fill-7"></path>
                <path d="M102.994628,19.0513353 C102.994628,19.4680989 102.910024,19.8706568 102.740814,20.258817 C102.571605,20.6473612 102.313027,20.9833061 101.965271,21.2674194 C102.322364,21.4662987 102.564554,21.7433093 102.691461,22.0984509 C102.818369,22.4535926 102.881822,22.8158371 102.881822,23.1851845 L102.881822,24.6057512 C102.881822,24.7856256 102.926411,24.9941034 103.01578,25.2308005 C103.104957,25.4676896 103.220241,25.7137932 103.361249,25.9694952 L101.570449,25.9694952 C101.420104,25.7329901 101.328449,25.4936054 101.295483,25.252109 C101.262518,25.0106127 101.246131,24.8094297 101.246131,24.6483682 L101.246131,23.1709788 C101.246131,23.0289221 101.222502,22.8868655 101.175627,22.7448088 C101.128561,22.6027521 101.051006,22.4749011 100.942964,22.3612558 C100.834731,22.2476104 100.693913,22.1552736 100.51994,22.0842453 C100.345967,22.0132169 100.132169,21.9777028 99.8783543,21.9777028 L97.4248173,21.9777028 L97.4248173,25.9694952 L95.7750252,25.9694952 L95.7750252,16.1391736 L99.8783543,16.1391736 C100.385983,16.1391736 100.832444,16.2244076 101.217929,16.3948756 C101.603414,16.5653436 101.927732,16.7905226 102.190883,17.0696448 C102.454035,17.3491509 102.653923,17.6616755 102.790167,18.0072188 C102.926411,18.353146 102.994628,18.7009929 102.994628,19.0513353 L102.994628,19.0513353 Z M97.4248173,20.5713417 L99.8783543,20.5713417 C100.075765,20.5713417 100.263649,20.5312203 100.442386,20.4505935 C100.620932,20.3701588 100.776041,20.2613126 100.907712,20.1238632 C101.039383,19.9866057 101.144948,19.8255442 101.22498,19.6408705 C101.30482,19.4561968 101.344836,19.2552059 101.344836,19.0371297 C101.344836,18.6109597 101.208402,18.2606172 100.935913,17.9859103 C100.663235,17.7113954 100.310715,17.573946 99.8783543,17.573946 L97.4248173,17.573946 L97.4248173,20.5713417 L97.4248173,20.5713417 Z" id="Fill-8"></path>
                <path d="M108.465734,16.1391736 L112.019132,25.9694952 L110.284735,25.9694952 L109.255378,23.1141561 L105.800494,23.1141561 L104.785428,25.9694952 L103.036931,25.9694952 L106.632631,16.1391736 L108.465734,16.1391736 L108.465734,16.1391736 Z M107.534891,18.3268463 L106.308123,21.7077951 L108.74775,21.7077951 L107.534891,18.3268463 L107.534891,18.3268463 Z" id="Fill-9"></path>
                <path d="M112.174241,16.1391736 L113.824033,16.1391736 L113.824033,25.9694952 L112.174241,25.9694952 L112.174241,16.1391736 Z" id="Fill-10"></path>
                <path d="M116.206685,16.1391736 L116.206685,24.5347228 L120.845844,24.5347228 L120.845844,25.9694952 L114.542792,25.9694952 L114.542792,16.1391736 L116.206685,16.1391736" id="Fill-11"></path>
            </g>
            <g id="Imported-Layers" transform="translate(0.000000, 56.958904)" fill="#A39F9A" sketch:type="MSShapeGroup">
                <path d="M0,42.0391762 L43.3351496,42.0391762 L43.3351496,0 L0,0 L0,42.0391762 Z M32.7675622,25.9840848 C32.7675622,29.6289902 29.8073496,32.6112205 26.1893543,32.6112205 L20.1349717,32.6112205 L20.1349717,28.5672126 C22.3444126,28.5697082 24.6855244,28.5712439 24.6855244,28.5712439 C26.2874882,28.5712439 27.5980992,27.2508848 27.5980992,25.6370058 C27.5980992,24.0231269 26.2874882,22.7025757 24.6855244,22.7025757 C24.6855244,22.7025757 16.3731102,22.7083348 16.292126,22.7152456 L16.292126,32.6112205 L11.8980157,32.6112205 L11.8980157,18.7013768 C16.3866394,18.7052162 24.1500756,18.7079037 24.1500756,18.7079037 C25.6272283,18.7079037 26.8358945,17.4902477 26.8358945,16.0021081 C26.8358945,14.5137765 25.6272283,13.2961205 24.1500756,13.2961205 C24.1500756,13.2961205 16.3866394,13.298808 11.8980157,13.3026474 L11.8980157,9.23637118 L24.8909386,9.23637118 C28.5068378,9.23637118 31.465526,12.2324232 31.465526,15.8940298 C31.465526,17.628273 30.8012646,19.2123969 29.7183622,20.4004898 C31.5476535,21.5809039 32.7675622,23.6451409 32.7675622,25.9838929 L32.7675622,25.9840848 L32.7675622,25.9840848 Z" id="Fill-1"></path>
                <path d="M46.5779496,16.1391736 L50.4979685,16.1391736 C50.9491937,16.1391736 51.3533528,16.2030991 51.7106362,16.3309501 C52.0679197,16.4588011 52.3708961,16.6340683 52.620137,16.8565598 C52.8691874,17.0792432 53.059548,17.3395524 53.1912189,17.6378715 C53.3228898,17.9361905 53.3886299,18.2512107 53.3886299,18.5825483 C53.3886299,18.9899054 53.2990709,19.375954 53.120715,19.7403102 C52.941978,20.1048583 52.674063,20.4246778 52.3169701,20.6991927 C52.8903386,20.9644932 53.3040252,21.3077328 53.5578394,21.7291036 C53.8116535,22.1506664 53.9385606,22.6027521 53.9385606,23.0857448 C53.9385606,23.4835035 53.8562425,23.8553464 53.6917969,24.2008897 C53.5271606,24.5466249 53.3040252,24.8520467 53.0220094,25.1171552 C52.7399937,25.3824556 52.4177717,25.5909334 52.0561055,25.7422045 C51.6942488,25.8938596 51.3158142,25.9694952 50.9209921,25.9694952 L46.5779496,25.9694952 L46.5779496,16.1391736 L46.5779496,16.1391736 Z M48.2277417,20.045732 L50.2723559,20.045732 C50.4979685,20.045732 50.7047165,20.0102179 50.8927906,19.9391895 C51.080674,19.8681612 51.2428331,19.7712171 51.3792677,19.6479734 C51.5155118,19.5249216 51.6212677,19.3830569 51.6965354,19.2218033 C51.7716126,19.0609338 51.8093417,18.8902738 51.8093417,18.7103993 C51.8093417,18.3790617 51.7011087,18.1066585 51.4850236,17.8935735 C51.268748,17.6804885 50.9209921,17.573946 50.4415654,17.573946 L48.2277417,17.573946 L48.2277417,20.045732 L48.2277417,20.045732 Z M48.2277417,24.5347228 L50.5120693,24.5347228 C50.7186268,24.5347228 50.9255654,24.5040079 51.1325039,24.442386 C51.339252,24.3809561 51.527326,24.2909229 51.6965354,24.1724783 C51.8657449,24.0542257 52.001989,23.900459 52.1054583,23.7107941 C52.208737,23.5213213 52.2605669,23.2988298 52.2605669,23.0431278 C52.2605669,22.6077433 52.0747795,22.2334048 51.7035858,21.9208801 C51.3322016,21.6083554 50.8129496,21.4520931 50.1454488,21.4520931 L48.2277417,21.4520931 L48.2277417,24.5347228 L48.2277417,24.5347228 Z" id="Fill-2"></path>
                <path d="M56.1382835,16.1391736 L56.1382835,24.5347228 L60.7774425,24.5347228 L60.7774425,25.9694952 L54.4743906,25.9694952 L54.4743906,16.1391736 L56.1382835,16.1391736" id="Fill-3"></path>
                <path d="M69.8440583,21.0685401 C69.8440583,21.8262396 69.7453528,22.5200137 69.5479417,23.1496703 C69.3505307,23.7795189 69.0614646,24.3216378 68.6807433,24.7762192 C68.300022,25.2308005 67.8299323,25.5838305 67.2706646,25.8345414 C66.7112063,26.0854442 66.0741937,26.2109916 65.3600079,26.2109916 C64.6454409,26.2109916 64.0133827,26.0854442 63.463452,25.8345414 C62.9135213,25.5838305 62.4481953,25.2308005 62.067474,24.7762192 C61.6867528,24.3216378 61.3976866,23.7795189 61.2002756,23.1496703 C61.0028646,22.5200137 60.9041591,21.8262396 60.9041591,21.0685401 C60.9041591,20.3110325 61.0028646,19.6172584 61.2002756,18.9874098 C61.3976866,18.3577532 61.6867528,17.8154423 62.067474,17.3608609 C62.4481953,16.9062796 62.9135213,16.5511379 63.463452,16.2954359 C64.0133827,16.0397339 64.6454409,15.9118829 65.3600079,15.9118829 C66.0741937,15.9118829 66.7112063,16.0397339 67.2706646,16.2954359 C67.8299323,16.5511379 68.300022,16.9062796 68.6807433,17.3608609 C69.0614646,17.8154423 69.3505307,18.3577532 69.5479417,18.9874098 C69.7453528,19.6172584 69.8440583,20.3110325 69.8440583,21.0685401 L69.8440583,21.0685401 Z M68.1942661,21.0685401 C68.1942661,20.4813085 68.1214756,19.9558908 67.9757039,19.491711 C67.8299323,19.0277232 67.6302346,18.6370674 67.3764205,18.3197435 C67.1226063,18.0024196 66.821726,17.7586196 66.4739701,17.5881516 C66.1260236,17.4176836 65.7548299,17.3324496 65.3600079,17.3324496 C64.9651858,17.3324496 64.5962787,17.4176836 64.2530961,17.5881516 C63.9099134,17.7586196 63.6137969,18.0024196 63.3647465,18.3197435 C63.1156961,18.6370674 62.9180945,19.0277232 62.7725134,19.491711 C62.6267417,19.9558908 62.5539512,20.4813085 62.5539512,21.0685401 C62.5539512,21.6559636 62.6267417,22.1790777 62.7725134,22.6382663 C62.9180945,23.0976468 63.1156961,23.4883027 63.3647465,23.8102338 C63.6137969,24.1323569 63.9099134,24.3784605 64.2530961,24.5489285 C64.5962787,24.7193965 64.9651858,24.8046305 65.3600079,24.8046305 C65.7548299,24.8046305 66.1260236,24.7193965 66.4739701,24.5489285 C66.821726,24.3784605 67.1226063,24.1323569 67.3764205,23.8102338 C67.6302346,23.4883027 67.8299323,23.0976468 67.9757039,22.6382663 C68.1214756,22.1790777 68.1942661,21.6559636 68.1942661,21.0685401 L68.1942661,21.0685401 Z" id="Fill-4"></path>
                <path d="M72.4033512,22.6595748 C72.5677969,23.1521659 72.7817858,23.559523 73.044937,23.8812622 C73.3080882,24.2033853 73.6064913,24.442386 73.940337,24.5986483 C74.2739921,24.7549107 74.6146976,24.8330418 74.9626441,24.8330418 C75.319737,24.8330418 75.6417685,24.7599019 75.928548,24.612854 C76.2153276,24.4661901 76.4689512,24.27211 76.6899906,24.0304217 C76.9108394,23.7889253 77.091863,23.5144104 77.2328709,23.206493 C77.3738787,22.8987675 77.4771575,22.57914 77.5430882,22.2476104 L79.2351827,22.2476104 C79.1317134,22.8066226 78.9647906,23.3272411 78.7346047,23.8102338 C78.5042283,24.2932265 78.2081118,24.7147893 77.8462551,25.0745382 C77.4842079,25.4344791 77.0636614,25.7187844 76.5842346,25.9268782 C76.1048079,26.135164 75.5642142,26.2394029 74.9626441,26.2394029 C74.2858063,26.2394029 73.6699449,26.1186547 73.1154409,25.8771584 C72.5607465,25.635662 72.0908472,25.2878152 71.7053622,24.8330418 C71.3198772,24.3784605 71.021474,23.8223278 70.8099622,23.163876 C70.5984504,22.5056161 70.4926945,21.7552113 70.4926945,20.9122777 C70.4926945,20.2684155 70.5936866,19.6433661 70.7958614,19.0371297 C70.9978457,18.4312772 71.289389,17.8935735 71.6701102,17.4247865 C72.0508315,16.9559994 72.5161575,16.5795493 73.0660882,16.2954359 C73.6160189,16.0113226 74.2435039,15.8692659 74.9485433,15.8692659 C75.5501134,15.8692659 76.0859433,15.9569955 76.5560331,16.1320707 C77.0261228,16.307338 77.4396189,16.5488343 77.7969024,16.8565598 C78.1539953,17.1644772 78.4548756,17.531329 78.6993528,17.957499 C78.9438299,18.383669 79.1364772,18.8478488 79.277485,19.3496543 L77.5712898,19.3496543 C77.3268126,18.6487774 76.9908709,18.127967 76.5630835,17.787031 C76.1352961,17.446095 75.5971795,17.2756269 74.9485433,17.2756269 C74.5348567,17.2756269 74.1588992,17.3750666 73.8204803,17.573946 C73.4820614,17.7728253 73.1882315,18.0381257 72.9391811,18.3694633 C72.6901307,18.7009929 72.4972929,19.0891531 72.3610488,19.534328 C72.2246142,19.9795029 72.1565874,20.4434907 72.1565874,20.9264834 C72.1565874,21.5895425 72.238715,22.1673676 72.4033512,22.6595748 Z" id="Fill-5"></path>
                <path d="M81.4770173,16.1391736 L81.4770173,20.3724624 C82.1725291,19.6717774 82.8777591,18.9637977 83.5921354,18.2487151 C84.3065118,17.5338245 85.0022142,16.830644 85.679052,16.1391736 L87.8364724,16.1391736 L83.888252,20.1025547 C84.1984693,20.5667345 84.525074,21.0472316 84.8682567,21.5446219 C85.2114394,22.0416283 85.5569087,22.5413222 85.9046646,23.0431278 C86.2524205,23.5451254 86.5956031,24.0446273 86.934022,24.5418257 C87.2724409,25.039024 87.5967591,25.5149139 87.9069764,25.9694952 L85.9187654,25.9694952 L82.7460882,21.2532137 L81.4770173,22.5175181 L81.4770173,25.9694952 L79.8131244,25.9694952 L79.8131244,16.1391736 L81.4770173,16.1391736" id="Fill-6"></path>
                <path d="M95.4226961,16.1391736 L95.4226961,17.573946 L92.3628252,17.573946 L92.3628252,25.9694952 L90.7130331,25.9694952 L90.7130331,17.573946 L87.6531622,17.573946 L87.6531622,16.1391736 L95.4226961,16.1391736" id="Fill-7"></path>
                <path d="M102.994628,19.0513353 C102.994628,19.4680989 102.910024,19.8706568 102.740814,20.258817 C102.571605,20.6473612 102.313027,20.9833061 101.965271,21.2674194 C102.322364,21.4662987 102.564554,21.7433093 102.691461,22.0984509 C102.818369,22.4535926 102.881822,22.8158371 102.881822,23.1851845 L102.881822,24.6057512 C102.881822,24.7856256 102.926411,24.9941034 103.01578,25.2308005 C103.104957,25.4676896 103.220241,25.7137932 103.361249,25.9694952 L101.570449,25.9694952 C101.420104,25.7329901 101.328449,25.4936054 101.295483,25.252109 C101.262518,25.0106127 101.246131,24.8094297 101.246131,24.6483682 L101.246131,23.1709788 C101.246131,23.0289221 101.222502,22.8868655 101.175627,22.7448088 C101.128561,22.6027521 101.051006,22.4749011 100.942964,22.3612558 C100.834731,22.2476104 100.693913,22.1552736 100.51994,22.0842453 C100.345967,22.0132169 100.132169,21.9777028 99.8783543,21.9777028 L97.4248173,21.9777028 L97.4248173,25.9694952 L95.7750252,25.9694952 L95.7750252,16.1391736 L99.8783543,16.1391736 C100.385983,16.1391736 100.832444,16.2244076 101.217929,16.3948756 C101.603414,16.5653436 101.927732,16.7905226 102.190883,17.0696448 C102.454035,17.3491509 102.653923,17.6616755 102.790167,18.0072188 C102.926411,18.353146 102.994628,18.7009929 102.994628,19.0513353 L102.994628,19.0513353 Z M97.4248173,20.5713417 L99.8783543,20.5713417 C100.075765,20.5713417 100.263649,20.5312203 100.442386,20.4505935 C100.620932,20.3701588 100.776041,20.2613126 100.907712,20.1238632 C101.039383,19.9866057 101.144948,19.8255442 101.22498,19.6408705 C101.30482,19.4561968 101.344836,19.2552059 101.344836,19.0371297 C101.344836,18.6109597 101.208402,18.2606172 100.935913,17.9859103 C100.663235,17.7113954 100.310715,17.573946 99.8783543,17.573946 L97.4248173,17.573946 L97.4248173,20.5713417 L97.4248173,20.5713417 Z" id="Fill-8"></path>
                <path d="M108.465734,16.1391736 L112.019132,25.9694952 L110.284735,25.9694952 L109.255378,23.1141561 L105.800494,23.1141561 L104.785428,25.9694952 L103.036931,25.9694952 L106.632631,16.1391736 L108.465734,16.1391736 L108.465734,16.1391736 Z M107.534891,18.3268463 L106.308123,21.7077951 L108.74775,21.7077951 L107.534891,18.3268463 L107.534891,18.3268463 Z" id="Fill-9"></path>
                <path d="M112.174241,16.1391736 L113.824033,16.1391736 L113.824033,25.9694952 L112.174241,25.9694952 L112.174241,16.1391736 Z" id="Fill-10"></path>
                <path d="M116.206685,16.1391736 L116.206685,24.5347228 L120.845844,24.5347228 L120.845844,25.9694952 L114.542792,25.9694952 L114.542792,16.1391736 L116.206685,16.1391736" id="Fill-11"></path>
            </g>
        </g>
    </g>
</svg>