<?xml version="1.0" encoding="UTF-8" standalone="no"?>
<svg width="108px" height="83px" viewBox="0 0 108 83" version="1.1" xmlns="http://www.w3.org/2000/svg" xmlns:xlink="http://www.w3.org/1999/xlink" xmlns:sketch="http://www.bohemiancoding.com/sketch/ns">
    <!-- Generator: Sketch 3.2.2 (9983) - http://www.bohemiancoding.com/sketch -->
    <title>Group</title>
    <desc>Created with Sketch.</desc>
    <defs></defs>
    <g id="Page-1" stroke="none" stroke-width="1" fill="none" fill-rule="evenodd" sketch:type="MSPage">
        <g id="Group" sketch:type="MSLayerGroup">
            <path d="M12.6908122,0.0413718949 C13.6243417,1.05121564 14.6461064,1.98199689 15.5778711,2.99723127 C15.7684593,3.21465314 15.8443417,3.50395002 15.9572828,3.76449689 C15.6008122,4.68090314 13.2378711,7.09949689 12.5143417,7.11207502 C11.5278711,7.02402814 11.2155181,5.73926252 10.2714005,5.55418439 C9.48963577,5.50926252 8.70434166,5.52363752 7.92081224,5.54340314 C7.36140048,5.55777814 5.6866946,7.25941877 5.40434166,7.83441877 C5.29140048,8.63223127 5.36904754,9.44621564 5.35316519,10.2512156 C5.29492989,10.9573875 7.13904754,12.7884031 7.71434166,12.9806688 C8.55257695,13.0327781 9.39610636,13.0112156 10.2361064,12.9932469 C10.5696358,13.0004344 10.8114005,12.7255125 11.0408122,12.5152781 C15.1119887,8.34832502 19.2131652,4.20652814 23.2843417,0.0413718949 C25.700224,-0.0269093551 28.1214005,0.00543439498 30.5372828,0.0252000199 C32.2508122,1.73582502 33.9484593,3.46621564 35.6425769,5.19660627 C35.900224,5.41582502 35.9990475,5.74645002 35.9725769,6.08066877 C35.9672828,8.25129377 35.9778711,10.4201219 35.9690475,12.5907469 C36.0131652,13.0202 35.6637534,13.3094969 35.4078711,13.5916063 C34.130224,14.8655906 32.8737534,16.1647313 31.6031652,17.4459031 C31.2643417,17.7693406 30.9696358,18.1736375 30.5337534,18.3694969 C28.9966946,18.4593406 27.4525769,18.3641063 25.9119887,18.4090281 C25.4372828,18.4000438 24.9925769,18.7935594 24.9396358,19.2751219 C24.8531652,20.2202781 24.9784593,21.1744188 24.8866946,22.119575 C24.740224,22.5652 24.3396358,23.0216063 23.8384593,22.9730906 C22.7619887,22.9784813 21.6855181,22.9802781 20.6090475,22.9730906 C19.9984593,23.0036375 19.5061064,22.3441844 19.5361064,21.7530125 C19.5325769,19.6452781 19.5343417,17.5357469 19.5343417,15.4262156 C19.4778711,14.7326219 22.0808122,12.2349656 22.9631652,11.5323875 C23.7943417,11.0598094 24.4066946,12.0085594 24.9325769,12.5134813 C25.610224,13.3472313 26.7766946,12.8926219 27.6908122,13.0094188 C28.5114005,13.1657469 30.3608122,11.1909813 30.5743417,10.677075 C30.6714005,10.0535594 30.6996358,7.85598127 30.380224,7.51457502 C29.9143417,6.96293439 29.3761064,6.47957502 28.8749299,5.96207502 C28.6278711,5.69434064 26.4414005,5.50746564 25.7037534,5.55418439 C25.3984593,5.57934064 25.1619887,5.78957502 24.9555181,5.99980939 C21.0819887,9.96012189 17.1819887,13.8952781 13.3119887,17.8591844 C13.0525769,18.1197313 12.7543417,18.4180125 12.3608122,18.39645 C10.1743417,18.4126219 7.98610636,18.4018406 5.79963577,18.4000438 C5.44316519,18.4449656 5.14492989,18.2311375 4.9066946,17.9885594 C3.45610636,16.5277 2.02492989,15.0506688 0.569047538,13.5969969 C0.311400479,13.3112938 -0.043305403,13.0202 0.00434165586,12.5871531 C0.000812244093,10.360825 -0.00448187355,8.13449689 0.00787106762,5.90996564 C-0.0309524618,5.47871564 0.336106362,5.20199689 0.591988715,4.91988752 C2.21198871,3.29191877 3.80904754,1.64238752 5.43610636,0.0252000199 C7.85375342,0.00543439498 10.2731652,-0.0269093551 12.6908122,0.0413718949 Z" id="Imported-Layers-2" fill="#6B6A65" sketch:type="MSShapeGroup"></path>
            <path d="M12.6908122,60.0413719 C13.6243417,61.0512156 14.6461064,61.9819969 15.5778711,62.9972313 C15.7684593,63.2146531 15.8443417,63.50395 15.9572828,63.7644969 C15.6008122,64.6809031 13.2378711,67.0994969 12.5143417,67.112075 C11.5278711,67.0240281 11.2155181,65.7392625 10.2714005,65.5541844 C9.48963577,65.5092625 8.70434166,65.5236375 7.92081224,65.5434031 C7.36140048,65.5577781 5.6866946,67.2594188 5.40434166,67.8344188 C5.29140048,68.6322313 5.36904754,69.4462156 5.35316519,70.2512156 C5.29492989,70.9573875 7.13904754,72.7884031 7.71434166,72.9806688 C8.55257695,73.0327781 9.39610636,73.0112156 10.2361064,72.9932469 C10.5696358,73.0004344 10.8114005,72.7255125 11.0408122,72.5152781 C15.1119887,68.348325 19.2131652,64.2065281 23.2843417,60.0413719 C25.700224,59.9730906 28.1214005,60.0054344 30.5372828,60.0252 C32.2508122,61.735825 33.9484593,63.4662156 35.6425769,65.1966063 C35.900224,65.415825 35.9990475,65.74645 35.9725769,66.0806688 C35.9672828,68.2512938 35.9778711,70.4201219 35.9690475,72.5907469 C36.0131652,73.0202 35.6637534,73.3094969 35.4078711,73.5916063 C34.130224,74.8655906 32.8737534,76.1647313 31.6031652,77.4459031 C31.2643417,77.7693406 30.9696358,78.1736375 30.5337534,78.3694969 C28.9966946,78.4593406 27.4525769,78.3641063 25.9119887,78.4090281 C25.4372828,78.4000438 24.9925769,78.7935594 24.9396358,79.2751219 C24.8531652,80.2202781 24.9784593,81.1744188 24.8866946,82.119575 C24.740224,82.5652 24.3396358,83.0216063 23.8384593,82.9730906 C22.7619887,82.9784813 21.6855181,82.9802781 20.6090475,82.9730906 C19.9984593,83.0036375 19.5061064,82.3441844 19.5361064,81.7530125 C19.5325769,79.6452781 19.5343417,77.5357469 19.5343417,75.4262156 C19.4778711,74.7326219 22.0808122,72.2349656 22.9631652,71.5323875 C23.7943417,71.0598094 24.4066946,72.0085594 24.9325769,72.5134813 C25.610224,73.3472313 26.7766946,72.8926219 27.6908122,73.0094188 C28.5114005,73.1657469 30.3608122,71.1909813 30.5743417,70.677075 C30.6714005,70.0535594 30.6996358,67.8559813 30.380224,67.514575 C29.9143417,66.9629344 29.3761064,66.479575 28.8749299,65.962075 C28.6278711,65.6943406 26.4414005,65.5074656 25.7037534,65.5541844 C25.3984593,65.5793406 25.1619887,65.789575 24.9555181,65.9998094 C21.0819887,69.9601219 17.1819887,73.8952781 13.3119887,77.8591844 C13.0525769,78.1197313 12.7543417,78.4180125 12.3608122,78.39645 C10.1743417,78.4126219 7.98610636,78.4018406 5.79963577,78.4000438 C5.44316519,78.4449656 5.14492989,78.2311375 4.9066946,77.9885594 C3.45610636,76.5277 2.02492989,75.0506688 0.569047538,73.5969969 C0.311400479,73.3112938 -0.043305403,73.0202 0.00434165586,72.5871531 C0.000812244093,70.360825 -0.00448187355,68.1344969 0.00787106762,65.9099656 C-0.0309524618,65.4787156 0.336106362,65.2019969 0.591988715,64.9198875 C2.21198871,63.2919188 3.80904754,61.6423875 5.43610636,60.0252 C7.85375342,60.0054344 10.2731652,59.9730906 12.6908122,60.0413719 Z" id="Imported-Layers-2" fill="#A39F9A" sketch:type="MSShapeGroup"></path>
            <g id="Imported-Layers-3" transform="translate(42.000000, 4.000000)" fill="#6B6A65" sketch:type="MSShapeGroup">
                <path d="M4.275,9.514 C3.691,9.514 3.159,9.418 2.679,9.226 C2.199,9.034 1.787,8.753 1.443,8.385 C1.099,8.018 0.833,7.564 0.645,7.023 C0.457,6.483 0.363,5.866 0.363,5.169 C0.363,4.474 0.469,3.855 0.681,3.315 C0.893,2.775 1.179,2.322 1.539,1.954 C1.899,1.585 2.319,1.306 2.799,1.113 C3.279,0.921 3.791,0.826 4.335,0.826 C4.679,0.826 4.989,0.85 5.265,0.898 C5.541,0.945 5.781,1.002 5.985,1.065 C6.189,1.129 6.355,1.193 6.483,1.257 C6.611,1.322 6.699,1.37 6.747,1.401 L6.411,2.361 C6.339,2.314 6.235,2.262 6.099,2.206 C5.963,2.149 5.809,2.094 5.637,2.038 C5.465,1.981 5.277,1.936 5.073,1.899 C4.869,1.863 4.663,1.846 4.455,1.846 C4.015,1.846 3.619,1.921 3.267,2.074 C2.915,2.226 2.615,2.445 2.367,2.733 C2.119,3.022 1.929,3.372 1.797,3.784 C1.665,4.196 1.599,4.658 1.599,5.169 C1.599,5.665 1.657,6.118 1.773,6.525 C1.889,6.934 2.062,7.284 2.295,7.576 C2.527,7.868 2.817,8.094 3.165,8.253 C3.513,8.414 3.919,8.494 4.383,8.494 C4.919,8.494 5.363,8.437 5.715,8.326 C6.067,8.213 6.331,8.114 6.507,8.025 L6.807,8.985 C6.751,9.025 6.651,9.076 6.507,9.135 C6.363,9.195 6.183,9.253 5.967,9.31 C5.751,9.365 5.499,9.414 5.211,9.454 C4.923,9.494 4.611,9.514 4.275,9.514" id="Fill-1"></path>
                <path d="M12.795,6.213 C12.795,6.71 12.724,7.158 12.579,7.558 C12.435,7.957 12.233,8.301 11.974,8.589 C11.713,8.877 11.403,9.1 11.043,9.255 C10.684,9.412 10.291,9.489 9.867,9.489 C9.443,9.489 9.051,9.412 8.691,9.255 C8.331,9.1 8.021,8.877 7.761,8.589 C7.501,8.301 7.299,7.957 7.155,7.558 C7.011,7.158 6.939,6.71 6.939,6.213 C6.939,5.726 7.011,5.28 7.155,4.876 C7.299,4.472 7.501,4.126 7.761,3.837 C8.021,3.549 8.331,3.328 8.691,3.171 C9.051,3.016 9.443,2.938 9.867,2.938 C10.291,2.938 10.684,3.016 11.043,3.171 C11.403,3.328 11.713,3.549 11.974,3.837 C12.233,4.126 12.435,4.472 12.579,4.876 C12.724,5.28 12.795,5.726 12.795,6.213 L12.795,6.213 Z M11.631,6.213 C11.631,5.51 11.473,4.952 11.157,4.54 C10.841,4.127 10.411,3.921 9.867,3.921 C9.323,3.921 8.894,4.127 8.577,4.54 C8.261,4.952 8.104,5.51 8.104,6.213 C8.104,6.918 8.261,7.476 8.577,7.888 C8.894,8.3 9.323,8.505 9.867,8.505 C10.411,8.505 10.841,8.3 11.157,7.888 C11.473,7.476 11.631,6.918 11.631,6.213 L11.631,6.213 Z" id="Fill-2"></path>
                <path d="M18.734,9.153 C18.478,9.218 18.141,9.286 17.721,9.357 C17.301,9.43 16.814,9.465 16.263,9.465 C15.782,9.465 15.379,9.396 15.051,9.255 C14.723,9.116 14.459,8.918 14.259,8.662 C14.059,8.406 13.915,8.104 13.826,7.755 C13.738,7.408 13.694,7.022 13.694,6.598 L13.694,3.093 L14.81,3.093 L14.81,6.357 C14.81,7.118 14.931,7.662 15.171,7.989 C15.41,8.317 15.814,8.481 16.383,8.481 C16.503,8.481 16.627,8.478 16.755,8.47 C16.883,8.461 17.003,8.452 17.114,8.439 C17.227,8.428 17.328,8.415 17.421,8.403 C17.513,8.392 17.578,8.377 17.618,8.361 L17.618,3.093 L18.734,3.093 L18.734,9.153" id="Fill-3"></path>
                <path d="M20.055,3.273 C20.31,3.21 20.65,3.142 21.075,3.069 C21.499,2.998 21.986,2.961 22.539,2.961 C23.034,2.961 23.446,3.032 23.774,3.171 C24.102,3.311 24.364,3.507 24.56,3.759 C24.757,4.012 24.894,4.314 24.975,4.665 C25.055,5.018 25.095,5.406 25.095,5.83 L25.095,9.334 L23.978,9.334 L23.978,6.069 C23.978,5.685 23.953,5.357 23.9,5.085 C23.849,4.813 23.763,4.593 23.643,4.425 C23.523,4.257 23.362,4.136 23.163,4.06 C22.963,3.983 22.715,3.945 22.419,3.945 C22.299,3.945 22.175,3.95 22.047,3.957 C21.919,3.965 21.797,3.976 21.681,3.987 C21.564,3.999 21.461,4.014 21.369,4.029 C21.276,4.045 21.211,4.058 21.171,4.065 L21.171,9.334 L20.055,9.334 L20.055,3.273" id="Fill-4"></path>
                <path d="M27.387,3.093 L29.751,3.093 L29.751,4.029 L27.387,4.029 L27.387,6.91 C27.387,7.222 27.411,7.479 27.459,7.684 C27.507,7.888 27.579,8.048 27.675,8.164 C27.77,8.28 27.891,8.361 28.035,8.41 C28.179,8.457 28.347,8.481 28.539,8.481 C28.875,8.481 29.145,8.444 29.349,8.368 C29.553,8.291 29.694,8.238 29.774,8.206 L29.991,9.129 C29.879,9.186 29.683,9.255 29.402,9.339 C29.123,9.423 28.803,9.465 28.442,9.465 C28.019,9.465 27.669,9.412 27.393,9.304 C27.117,9.195 26.895,9.034 26.727,8.817 C26.559,8.602 26.44,8.335 26.373,8.019 C26.305,7.704 26.27,7.337 26.27,6.921 L26.27,1.354 L27.387,1.162 L27.387,3.093" id="Fill-5"></path>
                <path d="M30.099,6.226 C30.099,5.673 30.178,5.191 30.338,4.779 C30.498,4.368 30.71,4.025 30.975,3.753 C31.238,3.481 31.542,3.278 31.887,3.142 C32.23,3.005 32.582,2.938 32.942,2.938 C33.782,2.938 34.426,3.2 34.874,3.724 C35.322,4.248 35.546,5.045 35.546,6.118 L35.546,6.304 C35.546,6.379 35.542,6.45 35.534,6.514 L31.263,6.514 C31.31,7.162 31.498,7.653 31.826,7.989 C32.154,8.326 32.666,8.494 33.362,8.494 C33.754,8.494 34.084,8.46 34.352,8.392 C34.62,8.324 34.822,8.258 34.958,8.193 L35.114,9.129 C34.978,9.202 34.74,9.278 34.4,9.357 C34.06,9.437 33.675,9.478 33.242,9.478 C32.698,9.478 32.228,9.396 31.832,9.231 C31.436,9.067 31.11,8.841 30.855,8.554 C30.599,8.266 30.408,7.923 30.284,7.527 C30.16,7.131 30.099,6.698 30.099,6.226 L30.099,6.226 Z M34.383,5.613 C34.391,5.109 34.265,4.695 34.004,4.372 C33.744,4.047 33.387,3.885 32.931,3.885 C32.674,3.885 32.448,3.936 32.252,4.036 C32.057,4.136 31.891,4.266 31.754,4.425 C31.618,4.585 31.513,4.77 31.436,4.978 C31.36,5.186 31.31,5.398 31.286,5.613 L34.383,5.613 L34.383,5.613 Z" id="Fill-6"></path>
                <path d="M38.858,2.961 C38.955,2.961 39.064,2.967 39.188,2.979 C39.312,2.992 39.435,3.008 39.555,3.027 C39.675,3.047 39.784,3.067 39.885,3.087 C39.984,3.107 40.059,3.126 40.106,3.142 L39.915,4.113 C39.826,4.082 39.681,4.044 39.477,3.999 C39.273,3.956 39.011,3.934 38.69,3.934 C38.482,3.934 38.276,3.956 38.072,3.999 C37.869,4.044 37.734,4.074 37.671,4.089 L37.671,9.334 L36.555,9.334 L36.555,3.357 C36.818,3.262 37.146,3.171 37.539,3.087 C37.931,3.003 38.371,2.961 38.858,2.961" id="Fill-7"></path>
                <path d="M46.082,6.226 C46.082,6.698 46.019,7.134 45.895,7.534 C45.771,7.934 45.59,8.277 45.35,8.565 C45.11,8.854 44.816,9.078 44.468,9.237 C44.12,9.397 43.722,9.478 43.274,9.478 C42.914,9.478 42.596,9.43 42.32,9.334 C42.044,9.237 41.838,9.146 41.702,9.058 L41.702,11.554 L40.586,11.554 L40.586,3.286 C40.85,3.222 41.18,3.152 41.576,3.076 C41.972,2.999 42.43,2.961 42.95,2.961 C43.43,2.961 43.862,3.038 44.246,3.189 C44.63,3.342 44.958,3.558 45.229,3.837 C45.502,4.118 45.712,4.46 45.86,4.863 C46.008,5.268 46.082,5.722 46.082,6.226 L46.082,6.226 Z M44.918,6.226 C44.918,5.498 44.738,4.937 44.378,4.545 C44.018,4.154 43.538,3.957 42.938,3.957 C42.602,3.957 42.34,3.97 42.152,3.994 C41.964,4.018 41.813,4.045 41.702,4.078 L41.702,8.014 C41.838,8.126 42.034,8.233 42.29,8.337 C42.546,8.441 42.826,8.494 43.13,8.494 C43.45,8.494 43.724,8.436 43.952,8.319 C44.18,8.204 44.366,8.044 44.51,7.839 C44.654,7.635 44.758,7.395 44.822,7.12 C44.886,6.843 44.918,6.545 44.918,6.226 L44.918,6.226 Z" id="Fill-8"></path>
                <path d="M49.069,2.938 C49.518,2.938 49.895,2.996 50.204,3.111 C50.512,3.228 50.76,3.392 50.947,3.604 C51.136,3.815 51.269,4.067 51.35,4.359 C51.43,4.652 51.47,4.974 51.47,5.326 L51.47,9.226 C51.374,9.242 51.239,9.264 51.067,9.291 C50.895,9.32 50.702,9.346 50.485,9.37 C50.269,9.394 50.036,9.415 49.784,9.435 C49.532,9.456 49.281,9.465 49.034,9.465 C48.682,9.465 48.357,9.43 48.061,9.357 C47.766,9.286 47.51,9.171 47.294,9.016 C47.078,8.859 46.91,8.654 46.79,8.398 C46.67,8.142 46.609,7.834 46.609,7.474 C46.609,7.129 46.68,6.834 46.819,6.585 C46.96,6.337 47.149,6.138 47.39,5.985 C47.63,5.834 47.91,5.722 48.229,5.649 C48.55,5.578 48.886,5.541 49.237,5.541 C49.35,5.541 49.466,5.547 49.586,5.56 C49.706,5.571 49.819,5.587 49.928,5.607 C50.036,5.627 50.13,5.646 50.21,5.662 C50.29,5.678 50.346,5.689 50.378,5.697 L50.378,5.385 C50.378,5.202 50.357,5.019 50.317,4.839 C50.277,4.66 50.206,4.499 50.102,4.359 C49.998,4.22 49.855,4.107 49.676,4.023 C49.496,3.939 49.262,3.898 48.974,3.898 C48.605,3.898 48.284,3.923 48.008,3.976 C47.731,4.028 47.525,4.082 47.39,4.138 L47.258,3.213 C47.401,3.149 47.642,3.087 47.977,3.027 C48.314,2.967 48.678,2.938 49.069,2.938 L49.069,2.938 Z M49.166,8.529 C49.43,8.529 49.664,8.523 49.868,8.512 C50.071,8.499 50.241,8.478 50.378,8.445 L50.378,6.585 C50.298,6.545 50.168,6.512 49.987,6.483 C49.808,6.456 49.59,6.441 49.334,6.441 C49.166,6.441 48.987,6.454 48.8,6.478 C48.611,6.502 48.439,6.552 48.284,6.627 C48.128,6.704 47.998,6.808 47.894,6.939 C47.79,7.071 47.737,7.246 47.737,7.461 C47.737,7.862 47.865,8.14 48.122,8.295 C48.378,8.452 48.726,8.529 49.166,8.529 L49.166,8.529 Z" id="Fill-9"></path>
                <path d="M55.021,2.961 C55.118,2.961 55.227,2.967 55.352,2.979 C55.476,2.992 55.598,3.008 55.718,3.027 C55.838,3.047 55.947,3.067 56.048,3.087 C56.148,3.107 56.222,3.126 56.27,3.142 L56.078,4.113 C55.989,4.082 55.844,4.044 55.64,3.999 C55.435,3.956 55.174,3.934 54.853,3.934 C54.645,3.934 54.439,3.956 54.235,3.999 C54.032,4.044 53.898,4.074 53.834,4.089 L53.834,9.334 L52.718,9.334 L52.718,3.357 C52.981,3.262 53.31,3.171 53.702,3.087 C54.094,3.003 54.534,2.961 55.021,2.961" id="Fill-10"></path>
                <path d="M57.794,3.093 L60.158,3.093 L60.158,4.029 L57.794,4.029 L57.794,6.91 C57.794,7.222 57.818,7.479 57.866,7.684 C57.914,7.888 57.986,8.048 58.082,8.164 C58.178,8.28 58.298,8.361 58.442,8.41 C58.586,8.457 58.754,8.481 58.946,8.481 C59.282,8.481 59.552,8.444 59.756,8.368 C59.96,8.291 60.102,8.238 60.182,8.206 L60.398,9.129 C60.286,9.186 60.09,9.255 59.81,9.339 C59.53,9.423 59.21,9.465 58.85,9.465 C58.426,9.465 58.076,9.412 57.8,9.304 C57.524,9.195 57.302,9.034 57.134,8.817 C56.966,8.602 56.848,8.335 56.78,8.019 C56.712,7.704 56.678,7.337 56.678,6.921 L56.678,1.354 L57.794,1.162 L57.794,3.093" id="Fill-11"></path>
                <path d="M60.241,10.498 C60.33,10.538 60.443,10.576 60.584,10.611 C60.724,10.648 60.861,10.665 60.998,10.665 C61.437,10.665 61.781,10.567 62.029,10.372 C62.277,10.175 62.502,9.857 62.702,9.418 C62.197,8.457 61.727,7.44 61.292,6.363 C60.855,5.288 60.494,4.197 60.206,3.093 L61.405,3.093 C61.493,3.454 61.6,3.842 61.724,4.257 C61.848,4.673 61.985,5.102 62.138,5.541 C62.289,5.981 62.453,6.421 62.63,6.861 C62.806,7.302 62.989,7.726 63.182,8.133 C63.485,7.294 63.75,6.461 63.974,5.638 C64.197,4.813 64.409,3.965 64.609,3.093 L65.762,3.093 C65.474,4.269 65.153,5.399 64.802,6.483 C64.449,7.567 64.069,8.581 63.662,9.525 C63.502,9.885 63.336,10.195 63.164,10.456 C62.991,10.715 62.802,10.93 62.594,11.098 C62.386,11.266 62.151,11.39 61.892,11.47 C61.632,11.549 61.338,11.589 61.01,11.589 C60.922,11.589 60.83,11.584 60.733,11.571 C60.638,11.56 60.544,11.544 60.452,11.523 C60.359,11.503 60.275,11.481 60.199,11.457 C60.124,11.434 60.069,11.414 60.038,11.398 L60.241,10.498" id="Fill-12"></path>
            </g>
            <g id="Imported-Layers-3" transform="translate(42.000000, 64.000000)" fill="#A39F9A" sketch:type="MSShapeGroup">
                <path d="M4.275,9.514 C3.691,9.514 3.159,9.418 2.679,9.226 C2.199,9.034 1.787,8.753 1.443,8.385 C1.099,8.018 0.833,7.564 0.645,7.023 C0.457,6.483 0.363,5.866 0.363,5.169 C0.363,4.474 0.469,3.855 0.681,3.315 C0.893,2.775 1.179,2.322 1.539,1.954 C1.899,1.585 2.319,1.306 2.799,1.113 C3.279,0.921 3.791,0.826 4.335,0.826 C4.679,0.826 4.989,0.85 5.265,0.898 C5.541,0.945 5.781,1.002 5.985,1.065 C6.189,1.129 6.355,1.193 6.483,1.257 C6.611,1.322 6.699,1.37 6.747,1.401 L6.411,2.361 C6.339,2.314 6.235,2.262 6.099,2.206 C5.963,2.149 5.809,2.094 5.637,2.038 C5.465,1.981 5.277,1.936 5.073,1.899 C4.869,1.863 4.663,1.846 4.455,1.846 C4.015,1.846 3.619,1.921 3.267,2.074 C2.915,2.226 2.615,2.445 2.367,2.733 C2.119,3.022 1.929,3.372 1.797,3.784 C1.665,4.196 1.599,4.658 1.599,5.169 C1.599,5.665 1.657,6.118 1.773,6.525 C1.889,6.934 2.062,7.284 2.295,7.576 C2.527,7.868 2.817,8.094 3.165,8.253 C3.513,8.414 3.919,8.494 4.383,8.494 C4.919,8.494 5.363,8.437 5.715,8.326 C6.067,8.213 6.331,8.114 6.507,8.025 L6.807,8.985 C6.751,9.025 6.651,9.076 6.507,9.135 C6.363,9.195 6.183,9.253 5.967,9.31 C5.751,9.365 5.499,9.414 5.211,9.454 C4.923,9.494 4.611,9.514 4.275,9.514" id="Fill-1"></path>
                <path d="M12.795,6.213 C12.795,6.71 12.724,7.158 12.579,7.558 C12.435,7.957 12.233,8.301 11.974,8.589 C11.713,8.877 11.403,9.1 11.043,9.255 C10.684,9.412 10.291,9.489 9.867,9.489 C9.443,9.489 9.051,9.412 8.691,9.255 C8.331,9.1 8.021,8.877 7.761,8.589 C7.501,8.301 7.299,7.957 7.155,7.558 C7.011,7.158 6.939,6.71 6.939,6.213 C6.939,5.726 7.011,5.28 7.155,4.876 C7.299,4.472 7.501,4.126 7.761,3.837 C8.021,3.549 8.331,3.328 8.691,3.171 C9.051,3.016 9.443,2.938 9.867,2.938 C10.291,2.938 10.684,3.016 11.043,3.171 C11.403,3.328 11.713,3.549 11.974,3.837 C12.233,4.126 12.435,4.472 12.579,4.876 C12.724,5.28 12.795,5.726 12.795,6.213 L12.795,6.213 Z M11.631,6.213 C11.631,5.51 11.473,4.952 11.157,4.54 C10.841,4.127 10.411,3.921 9.867,3.921 C9.323,3.921 8.894,4.127 8.577,4.54 C8.261,4.952 8.104,5.51 8.104,6.213 C8.104,6.918 8.261,7.476 8.577,7.888 C8.894,8.3 9.323,8.505 9.867,8.505 C10.411,8.505 10.841,8.3 11.157,7.888 C11.473,7.476 11.631,6.918 11.631,6.213 L11.631,6.213 Z" id="Fill-2"></path>
                <path d="M18.734,9.153 C18.478,9.218 18.141,9.286 17.721,9.357 C17.301,9.43 16.814,9.465 16.263,9.465 C15.782,9.465 15.379,9.396 15.051,9.255 C14.723,9.116 14.459,8.918 14.259,8.662 C14.059,8.406 13.915,8.104 13.826,7.755 C13.738,7.408 13.694,7.022 13.694,6.598 L13.694,3.093 L14.81,3.093 L14.81,6.357 C14.81,7.118 14.931,7.662 15.171,7.989 C15.41,8.317 15.814,8.481 16.383,8.481 C16.503,8.481 16.627,8.478 16.755,8.47 C16.883,8.461 17.003,8.452 17.114,8.439 C17.227,8.428 17.328,8.415 17.421,8.403 C17.513,8.392 17.578,8.377 17.618,8.361 L17.618,3.093 L18.734,3.093 L18.734,9.153" id="Fill-3"></path>
                <path d="M20.055,3.273 C20.31,3.21 20.65,3.142 21.075,3.069 C21.499,2.998 21.986,2.961 22.539,2.961 C23.034,2.961 23.446,3.032 23.774,3.171 C24.102,3.311 24.364,3.507 24.56,3.759 C24.757,4.012 24.894,4.314 24.975,4.665 C25.055,5.018 25.095,5.406 25.095,5.83 L25.095,9.334 L23.978,9.334 L23.978,6.069 C23.978,5.685 23.953,5.357 23.9,5.085 C23.849,4.813 23.763,4.593 23.643,4.425 C23.523,4.257 23.362,4.136 23.163,4.06 C22.963,3.983 22.715,3.945 22.419,3.945 C22.299,3.945 22.175,3.95 22.047,3.957 C21.919,3.965 21.797,3.976 21.681,3.987 C21.564,3.999 21.461,4.014 21.369,4.029 C21.276,4.045 21.211,4.058 21.171,4.065 L21.171,9.334 L20.055,9.334 L20.055,3.273" id="Fill-4"></path>
                <path d="M27.387,3.093 L29.751,3.093 L29.751,4.029 L27.387,4.029 L27.387,6.91 C27.387,7.222 27.411,7.479 27.459,7.684 C27.507,7.888 27.579,8.048 27.675,8.164 C27.77,8.28 27.891,8.361 28.035,8.41 C28.179,8.457 28.347,8.481 28.539,8.481 C28.875,8.481 29.145,8.444 29.349,8.368 C29.553,8.291 29.694,8.238 29.774,8.206 L29.991,9.129 C29.879,9.186 29.683,9.255 29.402,9.339 C29.123,9.423 28.803,9.465 28.442,9.465 C28.019,9.465 27.669,9.412 27.393,9.304 C27.117,9.195 26.895,9.034 26.727,8.817 C26.559,8.602 26.44,8.335 26.373,8.019 C26.305,7.704 26.27,7.337 26.27,6.921 L26.27,1.354 L27.387,1.162 L27.387,3.093" id="Fill-5"></path>
                <path d="M30.099,6.226 C30.099,5.673 30.178,5.191 30.338,4.779 C30.498,4.368 30.71,4.025 30.975,3.753 C31.238,3.481 31.542,3.278 31.887,3.142 C32.23,3.005 32.582,2.938 32.942,2.938 C33.782,2.938 34.426,3.2 34.874,3.724 C35.322,4.248 35.546,5.045 35.546,6.118 L35.546,6.304 C35.546,6.379 35.542,6.45 35.534,6.514 L31.263,6.514 C31.31,7.162 31.498,7.653 31.826,7.989 C32.154,8.326 32.666,8.494 33.362,8.494 C33.754,8.494 34.084,8.46 34.352,8.392 C34.62,8.324 34.822,8.258 34.958,8.193 L35.114,9.129 C34.978,9.202 34.74,9.278 34.4,9.357 C34.06,9.437 33.675,9.478 33.242,9.478 C32.698,9.478 32.228,9.396 31.832,9.231 C31.436,9.067 31.11,8.841 30.855,8.554 C30.599,8.266 30.408,7.923 30.284,7.527 C30.16,7.131 30.099,6.698 30.099,6.226 L30.099,6.226 Z M34.383,5.613 C34.391,5.109 34.265,4.695 34.004,4.372 C33.744,4.047 33.387,3.885 32.931,3.885 C32.674,3.885 32.448,3.936 32.252,4.036 C32.057,4.136 31.891,4.266 31.754,4.425 C31.618,4.585 31.513,4.77 31.436,4.978 C31.36,5.186 31.31,5.398 31.286,5.613 L34.383,5.613 L34.383,5.613 Z" id="Fill-6"></path>
                <path d="M38.858,2.961 C38.955,2.961 39.064,2.967 39.188,2.979 C39.312,2.992 39.435,3.008 39.555,3.027 C39.675,3.047 39.784,3.067 39.885,3.087 C39.984,3.107 40.059,3.126 40.106,3.142 L39.915,4.113 C39.826,4.082 39.681,4.044 39.477,3.999 C39.273,3.956 39.011,3.934 38.69,3.934 C38.482,3.934 38.276,3.956 38.072,3.999 C37.869,4.044 37.734,4.074 37.671,4.089 L37.671,9.334 L36.555,9.334 L36.555,3.357 C36.818,3.262 37.146,3.171 37.539,3.087 C37.931,3.003 38.371,2.961 38.858,2.961" id="Fill-7"></path>
                <path d="M46.082,6.226 C46.082,6.698 46.019,7.134 45.895,7.534 C45.771,7.934 45.59,8.277 45.35,8.565 C45.11,8.854 44.816,9.078 44.468,9.237 C44.12,9.397 43.722,9.478 43.274,9.478 C42.914,9.478 42.596,9.43 42.32,9.334 C42.044,9.237 41.838,9.146 41.702,9.058 L41.702,11.554 L40.586,11.554 L40.586,3.286 C40.85,3.222 41.18,3.152 41.576,3.076 C41.972,2.999 42.43,2.961 42.95,2.961 C43.43,2.961 43.862,3.038 44.246,3.189 C44.63,3.342 44.958,3.558 45.229,3.837 C45.502,4.118 45.712,4.46 45.86,4.863 C46.008,5.268 46.082,5.722 46.082,6.226 L46.082,6.226 Z M44.918,6.226 C44.918,5.498 44.738,4.937 44.378,4.545 C44.018,4.154 43.538,3.957 42.938,3.957 C42.602,3.957 42.34,3.97 42.152,3.994 C41.964,4.018 41.813,4.045 41.702,4.078 L41.702,8.014 C41.838,8.126 42.034,8.233 42.29,8.337 C42.546,8.441 42.826,8.494 43.13,8.494 C43.45,8.494 43.724,8.436 43.952,8.319 C44.18,8.204 44.366,8.044 44.51,7.839 C44.654,7.635 44.758,7.395 44.822,7.12 C44.886,6.843 44.918,6.545 44.918,6.226 L44.918,6.226 Z" id="Fill-8"></path>
                <path d="M49.069,2.938 C49.518,2.938 49.895,2.996 50.204,3.111 C50.512,3.228 50.76,3.392 50.947,3.604 C51.136,3.815 51.269,4.067 51.35,4.359 C51.43,4.652 51.47,4.974 51.47,5.326 L51.47,9.226 C51.374,9.242 51.239,9.264 51.067,9.291 C50.895,9.32 50.702,9.346 50.485,9.37 C50.269,9.394 50.036,9.415 49.784,9.435 C49.532,9.456 49.281,9.465 49.034,9.465 C48.682,9.465 48.357,9.43 48.061,9.357 C47.766,9.286 47.51,9.171 47.294,9.016 C47.078,8.859 46.91,8.654 46.79,8.398 C46.67,8.142 46.609,7.834 46.609,7.474 C46.609,7.129 46.68,6.834 46.819,6.585 C46.96,6.337 47.149,6.138 47.39,5.985 C47.63,5.834 47.91,5.722 48.229,5.649 C48.55,5.578 48.886,5.541 49.237,5.541 C49.35,5.541 49.466,5.547 49.586,5.56 C49.706,5.571 49.819,5.587 49.928,5.607 C50.036,5.627 50.13,5.646 50.21,5.662 C50.29,5.678 50.346,5.689 50.378,5.697 L50.378,5.385 C50.378,5.202 50.357,5.019 50.317,4.839 C50.277,4.66 50.206,4.499 50.102,4.359 C49.998,4.22 49.855,4.107 49.676,4.023 C49.496,3.939 49.262,3.898 48.974,3.898 C48.605,3.898 48.284,3.923 48.008,3.976 C47.731,4.028 47.525,4.082 47.39,4.138 L47.258,3.213 C47.401,3.149 47.642,3.087 47.977,3.027 C48.314,2.967 48.678,2.938 49.069,2.938 L49.069,2.938 Z M49.166,8.529 C49.43,8.529 49.664,8.523 49.868,8.512 C50.071,8.499 50.241,8.478 50.378,8.445 L50.378,6.585 C50.298,6.545 50.168,6.512 49.987,6.483 C49.808,6.456 49.59,6.441 49.334,6.441 C49.166,6.441 48.987,6.454 48.8,6.478 C48.611,6.502 48.439,6.552 48.284,6.627 C48.128,6.704 47.998,6.808 47.894,6.939 C47.79,7.071 47.737,7.246 47.737,7.461 C47.737,7.862 47.865,8.14 48.122,8.295 C48.378,8.452 48.726,8.529 49.166,8.529 L49.166,8.529 Z" id="Fill-9"></path>
                <path d="M55.021,2.961 C55.118,2.961 55.227,2.967 55.352,2.979 C55.476,2.992 55.598,3.008 55.718,3.027 C55.838,3.047 55.947,3.067 56.048,3.087 C56.148,3.107 56.222,3.126 56.27,3.142 L56.078,4.113 C55.989,4.082 55.844,4.044 55.64,3.999 C55.435,3.956 55.174,3.934 54.853,3.934 C54.645,3.934 54.439,3.956 54.235,3.999 C54.032,4.044 53.898,4.074 53.834,4.089 L53.834,9.334 L52.718,9.334 L52.718,3.357 C52.981,3.262 53.31,3.171 53.702,3.087 C54.094,3.003 54.534,2.961 55.021,2.961" id="Fill-10"></path>
                <path d="M57.794,3.093 L60.158,3.093 L60.158,4.029 L57.794,4.029 L57.794,6.91 C57.794,7.222 57.818,7.479 57.866,7.684 C57.914,7.888 57.986,8.048 58.082,8.164 C58.178,8.28 58.298,8.361 58.442,8.41 C58.586,8.457 58.754,8.481 58.946,8.481 C59.282,8.481 59.552,8.444 59.756,8.368 C59.96,8.291 60.102,8.238 60.182,8.206 L60.398,9.129 C60.286,9.186 60.09,9.255 59.81,9.339 C59.53,9.423 59.21,9.465 58.85,9.465 C58.426,9.465 58.076,9.412 57.8,9.304 C57.524,9.195 57.302,9.034 57.134,8.817 C56.966,8.602 56.848,8.335 56.78,8.019 C56.712,7.704 56.678,7.337 56.678,6.921 L56.678,1.354 L57.794,1.162 L57.794,3.093" id="Fill-11"></path>
                <path d="M60.241,10.498 C60.33,10.538 60.443,10.576 60.584,10.611 C60.724,10.648 60.861,10.665 60.998,10.665 C61.437,10.665 61.781,10.567 62.029,10.372 C62.277,10.175 62.502,9.857 62.702,9.418 C62.197,8.457 61.727,7.44 61.292,6.363 C60.855,5.288 60.494,4.197 60.206,3.093 L61.405,3.093 C61.493,3.454 61.6,3.842 61.724,4.257 C61.848,4.673 61.985,5.102 62.138,5.541 C62.289,5.981 62.453,6.421 62.63,6.861 C62.806,7.302 62.989,7.726 63.182,8.133 C63.485,7.294 63.75,6.461 63.974,5.638 C64.197,4.813 64.409,3.965 64.609,3.093 L65.762,3.093 C65.474,4.269 65.153,5.399 64.802,6.483 C64.449,7.567 64.069,8.581 63.662,9.525 C63.502,9.885 63.336,10.195 63.164,10.456 C62.991,10.715 62.802,10.93 62.594,11.098 C62.386,11.266 62.151,11.39 61.892,11.47 C61.632,11.549 61.338,11.589 61.01,11.589 C60.922,11.589 60.83,11.584 60.733,11.571 C60.638,11.56 60.544,11.544 60.452,11.523 C60.359,11.503 60.275,11.481 60.199,11.457 C60.124,11.434 60.069,11.414 60.038,11.398 L60.241,10.498" id="Fill-12"></path>
            </g>
        </g>
    </g>
</svg>