<?xml version="1.0" encoding="UTF-8" standalone="no"?>
<svg width="18px" height="22px" viewBox="0 0 18 22" version="1.1" xmlns="http://www.w3.org/2000/svg" xmlns:xlink="http://www.w3.org/1999/xlink" xmlns:sketch="http://www.bohemiancoding.com/sketch/ns">
    <!-- Generator: Sketch 3.2.2 (9983) - http://www.bohemiancoding.com/sketch -->
    <title>Imported Layers</title>
    <desc>Created with Sketch.</desc>
    <defs></defs>
    <g id="Page-1" stroke="none" stroke-width="1" fill="none" fill-rule="evenodd" sketch:type="MSPage">
        <path d="M18,18.777 C9.762,15.377 7.974,1.049 7.955,0.884 L7.851,0 L1.746,0 L0.022,21.5 L2.028,21.5 L2.086,20.777 L5,20.777 L5,21.5 L7,21.5 L7,18.144 C8.936,20.347 11.331,21.487 14.11,21.5 L18,21.5 L18,18.777 L18,18.777 Z M2.967,9.787 C3.086,10.235 3.214,10.688 3.355,11.14 C3.423,11.359 3.497,11.565 3.569,11.777 L2.808,11.777 L2.967,9.787 L2.967,9.787 Z M5,18.777 L2.246,18.777 L2.367,17.277 L5,17.277 L5,18.777 L5,18.777 Z M5,15.277 L2.527,15.277 L2.647,13.777 L4.331,13.777 C4.543,14.265 4.767,14.728 5,15.171 L5,15.277 L5,15.277 Z M14.185,19.502 C5.615,19.502 4.009,5.888 3.726,2 L6.095,2 C6.364,3.669 7.105,7.444 8.776,11.247 C10.436,15.024 12.572,17.797 15.101,19.5 L14.367,19.5 C14.305,19.501 14.245,19.502 14.185,19.502 L14.185,19.502 Z" id="Imported-Layers" fill="#A39F9A" sketch:type="MSShapeGroup"></path>
    </g>
</svg>