<?xml version="1.0" encoding="UTF-8" standalone="no"?>
<svg width="11px" height="49px" viewBox="0 0 11 49" version="1.1" xmlns="http://www.w3.org/2000/svg" xmlns:xlink="http://www.w3.org/1999/xlink" xmlns:sketch="http://www.bohemiancoding.com/sketch/ns">
    <!-- Generator: Sketch 3.2.2 (9983) - http://www.bohemiancoding.com/sketch -->
    <title>Imported Layers + Imported Layers</title>
    <desc>Created with Sketch.</desc>
    <defs></defs>
    <g id="Page-1" stroke="none" stroke-width="1" fill="none" fill-rule="evenodd" sketch:type="MSPage">
        <g id="Imported-Layers-+-Imported-Layers" sketch:type="MSLayerGroup">
            <g id="Imported-Layers" fill="#6B6B6A" sketch:type="MSShapeGroup">
                <path d="M5.59801786,2.73359223 C5.59801786,3.03106796 5.35425,3.27203883 5.05332143,3.27203883 C4.75258929,3.27203883 4.50882143,3.03106796 4.50882143,2.73359223 C4.50882143,2.43631068 4.75258929,2.19533981 5.05332143,2.19533981 C5.35425,2.19533981 5.59801786,2.43631068 5.59801786,2.73359223" id="Fill-1"></path>
                <path d="M6.91664286,1.6568932 C6.91664286,2.04815534 6.59567857,2.36524272 6.20007143,2.36524272 C5.80426786,2.36524272 5.48330357,2.04815534 5.48330357,1.6568932 C5.48330357,1.26563107 5.80426786,0.948543689 6.20007143,0.948543689 C6.59567857,0.948543689 6.91664286,1.26563107 6.91664286,1.6568932" id="Fill-2"></path>
                <path d="M5.71273214,0.466796117 C5.71273214,0.639029126 5.5715,0.778640777 5.39746429,0.778640777 C5.22323214,0.778640777 5.082,0.639029126 5.082,0.466796117 C5.082,0.294757282 5.22323214,0.155145631 5.39746429,0.155145631 C5.5715,0.155145631 5.71273214,0.294757282 5.71273214,0.466796117" id="Fill-3"></path>
                <path d="M9.84283929,11.7291262 C10.1769643,11.2493204 10.3726071,10.6687379 10.3726071,10.0429126 C10.3726071,8.39339806 9.01469643,7.0561165 7.33935714,7.0561165 L6.62101786,7.0561165 L6.62101786,5.16349515 C6.62101786,5.05786408 6.714125,4.97980583 6.82628571,4.9776699 C6.97891071,4.97475728 7.10246429,4.85495146 7.09991071,4.71029126 C7.09716071,4.56446602 6.95966071,4.45203883 6.80467857,4.45203883 L3.72310714,4.45203883 C3.568125,4.45203883 3.43082143,4.56446602 3.42807143,4.71029126 C3.42532143,4.85495146 3.548875,4.97475728 3.7015,4.9776699 C3.81366071,4.97980583 3.90696429,5.05786408 3.90696429,5.16349515 L3.90696429,6.66757282 C3.90755357,6.66737864 3.90814286,6.66737864 3.90892857,6.66737864 L4.51648214,6.66737864 C4.62373214,6.66737864 4.71153571,6.75417476 4.71153571,6.86019417 C4.71153571,6.96621359 4.62373214,7.05300971 4.51648214,7.05300971 L3.90892857,7.05300971 C3.90814286,7.05300971 3.90755357,7.05281553 3.90696429,7.05281553 L3.90696429,7.0561165 L0.833642857,7.0561165 C0.482428571,7.0561165 0.195053571,7.34019417 0.195053571,7.68737864 C0.195053571,8.03456311 0.482428571,8.31864078 0.833642857,8.31864078 L0.993339286,8.31864078 C1.58851786,8.31864078 2.07094643,8.79553398 2.07094643,9.3838835 L2.07094643,14.8285437 C2.07094643,15.4168932 1.58851786,15.8937864 0.993339286,15.8937864 L0.833642857,15.8937864 C0.482428571,15.8937864 0.195053571,16.1778641 0.195053571,16.5250485 C0.195053571,16.872233 0.482428571,17.1563107 0.833642857,17.1563107 L3.90696429,17.1563107 L3.90696429,17.1623301 C3.90755357,17.1623301 3.90814286,17.1621359 3.90892857,17.1621359 L4.51648214,17.1621359 C4.62373214,17.1621359 4.71153571,17.248932 4.71153571,17.3549515 C4.71153571,17.4609709 4.62373214,17.547767 4.51648214,17.547767 L3.90892857,17.547767 C3.90814286,17.547767 3.90755357,17.5475728 3.90696429,17.5475728 L3.90696429,18.6023301 C3.90696429,19.3042718 4.51766071,19.8786408 5.26389286,19.8786408 C6.01032143,19.8786408 6.62101786,19.3042718 6.62101786,18.6023301 L6.62101786,17.1563107 L7.858125,17.1563107 C9.57746429,17.1563107 10.9713214,15.7838835 10.9713214,14.0908738 C10.9713214,13.1405825 10.5321071,12.2914563 9.84283929,11.7291262 L9.84283929,11.7291262 Z M4.58542857,8.75262136 L6.46132143,8.75262136 C7.16375,8.75262136 7.7385,9.3207767 7.7385,10.0151456 C7.7385,10.7095146 7.16375,11.2776699 6.46132143,11.2776699 L4.58542857,11.2776699 L4.58542857,8.75262136 L4.58542857,8.75262136 Z M7.09991071,15.4598058 L4.50567857,15.4598058 L4.50567857,12.9347573 L7.09991071,12.9347573 C7.80233929,12.9347573 8.37708929,13.5029126 8.37708929,14.1972816 C8.37708929,14.8916505 7.80233929,15.4598058 7.09991071,15.4598058 L7.09991071,15.4598058 Z" id="Fill-4"></path>
            </g>
            <g id="Imported-Layers" transform="translate(0.000000, 29.000000)" fill="#A39F9A" sketch:type="MSShapeGroup">
                <path d="M5.59801786,2.73359223 C5.59801786,3.03106796 5.35425,3.27203883 5.05332143,3.27203883 C4.75258929,3.27203883 4.50882143,3.03106796 4.50882143,2.73359223 C4.50882143,2.43631068 4.75258929,2.19533981 5.05332143,2.19533981 C5.35425,2.19533981 5.59801786,2.43631068 5.59801786,2.73359223" id="Fill-1"></path>
                <path d="M6.91664286,1.6568932 C6.91664286,2.04815534 6.59567857,2.36524272 6.20007143,2.36524272 C5.80426786,2.36524272 5.48330357,2.04815534 5.48330357,1.6568932 C5.48330357,1.26563107 5.80426786,0.948543689 6.20007143,0.948543689 C6.59567857,0.948543689 6.91664286,1.26563107 6.91664286,1.6568932" id="Fill-2"></path>
                <path d="M5.39746429,0.778640777 C5.22323214,0.778640777 5.082,0.639029126 5.082,0.466796117 C5.082,0.294757282 5.22323214,0.155145631 5.39746429,0.155145631 C5.5715,0.155145631 5.71273214,0.294757282 5.71273214,0.466796117 C5.71273214,0.639029126 5.5715,0.778640777 5.39746429,0.778640777 Z" id="Fill-3"></path>
                <path d="M9.84283929,11.7291262 C10.1769643,11.2493204 10.3726071,10.6687379 10.3726071,10.0429126 C10.3726071,8.39339806 9.01469643,7.0561165 7.33935714,7.0561165 L6.62101786,7.0561165 L6.62101786,5.16349515 C6.62101786,5.05786408 6.714125,4.97980583 6.82628571,4.9776699 C6.97891071,4.97475728 7.10246429,4.85495146 7.09991071,4.71029126 C7.09716071,4.56446602 6.95966071,4.45203883 6.80467857,4.45203883 L3.72310714,4.45203883 C3.568125,4.45203883 3.43082143,4.56446602 3.42807143,4.71029126 C3.42532143,4.85495146 3.548875,4.97475728 3.7015,4.9776699 C3.81366071,4.97980583 3.90696429,5.05786408 3.90696429,5.16349515 L3.90696429,6.66757282 C3.90755357,6.66737864 3.90814286,6.66737864 3.90892857,6.66737864 L4.51648214,6.66737864 C4.62373214,6.66737864 4.71153571,6.75417476 4.71153571,6.86019417 C4.71153571,6.96621359 4.62373214,7.05300971 4.51648214,7.05300971 L3.90892857,7.05300971 C3.90814286,7.05300971 3.90755357,7.05281553 3.90696429,7.05281553 L3.90696429,7.0561165 L0.833642857,7.0561165 C0.482428571,7.0561165 0.195053571,7.34019417 0.195053571,7.68737864 C0.195053571,8.03456311 0.482428571,8.31864078 0.833642857,8.31864078 L0.993339286,8.31864078 C1.58851786,8.31864078 2.07094643,8.79553398 2.07094643,9.3838835 L2.07094643,14.8285437 C2.07094643,15.4168932 1.58851786,15.8937864 0.993339286,15.8937864 L0.833642857,15.8937864 C0.482428571,15.8937864 0.195053571,16.1778641 0.195053571,16.5250485 C0.195053571,16.872233 0.482428571,17.1563107 0.833642857,17.1563107 L3.90696429,17.1563107 L3.90696429,17.1623301 C3.90755357,17.1623301 3.90814286,17.1621359 3.90892857,17.1621359 L4.51648214,17.1621359 C4.62373214,17.1621359 4.71153571,17.248932 4.71153571,17.3549515 C4.71153571,17.4609709 4.62373214,17.547767 4.51648214,17.547767 L3.90892857,17.547767 C3.90814286,17.547767 3.90755357,17.5475728 3.90696429,17.5475728 L3.90696429,18.6023301 C3.90696429,19.3042718 4.51766071,19.8786408 5.26389286,19.8786408 C6.01032143,19.8786408 6.62101786,19.3042718 6.62101786,18.6023301 L6.62101786,17.1563107 L7.858125,17.1563107 C9.57746429,17.1563107 10.9713214,15.7838835 10.9713214,14.0908738 C10.9713214,13.1405825 10.5321071,12.2914563 9.84283929,11.7291262 L9.84283929,11.7291262 Z M4.58542857,8.75262136 L6.46132143,8.75262136 C7.16375,8.75262136 7.7385,9.3207767 7.7385,10.0151456 C7.7385,10.7095146 7.16375,11.2776699 6.46132143,11.2776699 L4.58542857,11.2776699 L4.58542857,8.75262136 L4.58542857,8.75262136 Z M7.09991071,15.4598058 L4.50567857,15.4598058 L4.50567857,12.9347573 L7.09991071,12.9347573 C7.80233929,12.9347573 8.37708929,13.5029126 8.37708929,14.1972816 C8.37708929,14.8916505 7.80233929,15.4598058 7.09991071,15.4598058 L7.09991071,15.4598058 Z" id="Fill-4"></path>
            </g>
        </g>
    </g>
</svg>