<?xml version="1.0" encoding="UTF-8" standalone="no"?>
<svg width="25px" height="25px" viewBox="0 0 25 25" version="1.1" xmlns="http://www.w3.org/2000/svg" xmlns:xlink="http://www.w3.org/1999/xlink" xmlns:sketch="http://www.bohemiancoding.com/sketch/ns">
    <!-- Generator: Sketch 3.2.2 (9983) - http://www.bohemiancoding.com/sketch -->
    <title>Imported Layers</title>
    <desc>Created with Sketch.</desc>
    <defs></defs>
    <g id="Page-1" stroke="none" stroke-width="1" fill="none" fill-rule="evenodd" sketch:type="MSPage">
        <g id="Imported-Layers" sketch:type="MSLayerGroup">
            <path d="M24.601,12.423 C24.601,18.952 19.308,24.245 12.779,24.245 C6.25,24.245 0.958,18.952 0.958,12.423 C0.958,5.894 6.25,0.602 12.779,0.602 C19.308,0.602 24.601,5.894 24.601,12.423" id="Fill-1" fill="#FFFFFF" sketch:type="MSShapeGroup"></path>
            <path d="M12.779,0.374 C6.117,0.374 0.697,5.78 0.697,12.424 C0.697,19.067 6.117,24.473 12.779,24.473 C19.442,24.473 24.862,19.067 24.862,12.424 C24.862,5.78 19.442,0.374 12.779,0.374 L12.779,0.374 Z M16.646,11.213 C15.763,11.213 15.044,10.495 15.044,9.614 C15.044,8.731 15.763,8.014 16.646,8.014 C17.532,8.014 18.251,8.731 18.251,9.614 C18.251,10.495 17.532,11.213 16.646,11.213 L16.646,11.213 Z M20.648,9.325 C21.051,9.259 21.462,9.212 21.889,9.19 C22.251,10.202 22.45,11.29 22.45,12.424 C22.45,12.797 22.427,13.164 22.385,13.526 C21.849,12.583 21.199,11.708 20.441,10.915 C20.583,10.506 20.663,10.07 20.663,9.614 C20.663,9.516 20.655,9.42 20.648,9.325 L20.648,9.325 Z M20.692,6.889 C20.369,6.931 20.048,6.986 19.73,7.051 C19.347,6.594 18.863,6.226 18.314,5.975 L18.314,5.964 C18.314,5.457 18.276,4.955 18.219,4.454 C19.183,5.111 20.021,5.937 20.692,6.889 L20.692,6.889 Z M15.545,3.183 C15.758,4 15.872,4.837 15.893,5.682 C15.564,5.745 15.25,5.849 14.954,5.987 C13.439,4.707 11.656,3.778 9.75,3.267 C10.703,2.952 11.721,2.779 12.779,2.779 C13.74,2.779 14.668,2.922 15.545,3.183 L15.545,3.183 Z M6.367,5.213 C8.883,5.231 11.245,6.079 13.165,7.628 C12.904,8.082 12.73,8.59 12.664,9.132 C9.238,9.917 6.007,11.395 3.167,13.476 C3.129,13.13 3.109,12.779 3.109,12.424 C3.109,9.558 4.37,6.981 6.367,5.213 L6.367,5.213 Z M3.807,16.015 C6.538,13.831 9.716,12.288 13.106,11.497 C13.452,12.143 13.973,12.68 14.602,13.054 C14.069,16.207 12.883,19.238 11.127,21.924 C7.793,21.349 5.039,19.067 3.807,16.015 L3.807,16.015 Z M13.905,22 C15.402,19.4 16.438,16.552 16.955,13.603 C17.706,13.545 18.398,13.282 18.977,12.869 C20.005,14.03 20.768,15.388 21.227,16.874 L21.355,16.874 C19.905,19.641 17.148,21.623 13.905,22 L13.905,22 Z" id="Fill-2" fill="#000000" sketch:type="MSShapeGroup"></path>
        </g>
    </g>
</svg>