<?xml version="1.0" encoding="UTF-8" standalone="no"?>
<svg width="18px" height="52px" viewBox="0 0 18 52" version="1.1" xmlns="http://www.w3.org/2000/svg" xmlns:xlink="http://www.w3.org/1999/xlink" xmlns:sketch="http://www.bohemiancoding.com/sketch/ns">
    <!-- Generator: Sketch 3.2.2 (9983) - http://www.bohemiancoding.com/sketch -->
    <title>Imported Layers + Oval 1 + Imported Layers + Imported Layers + Imported Layers + Imported Layers + Imported Layers + Imported Layers</title>
    <desc>Created with Sketch.</desc>
    <defs></defs>
    <g id="Page-1" stroke="none" stroke-width="1" fill="none" fill-rule="evenodd" sketch:type="MSPage">
        <g id="Imported-Layers-+-Oval-1-+-Imported-Layers-+-Imported-Layers-+-Imported-Layers-+-Imported-Layers-+-Imported-Layers-+-Imported-Layers" sketch:type="MSLayerGroup">
            <path d="M8.927,0 C4.004,0 0,4.005 0,8.927 C0,13.849 4.004,17.854 8.927,17.854 C13.85,17.854 17.855,13.849 17.855,8.927 C17.855,4.005 13.85,0 8.927,0 L8.927,0 Z M14.455,4.769 C15.33,5.928 15.855,7.366 15.855,8.927 C15.855,9.867 15.665,10.763 15.324,11.582 C14.772,10.82 14.151,10.084 13.475,9.374 C13.827,8.794 14.042,8.122 14.042,7.395 C14.042,6.651 13.819,5.962 13.451,5.373 C13.792,5.154 14.127,4.953 14.455,4.769 L14.455,4.769 Z M7.95,10.477 C8.585,10.944 9.361,11.229 10.208,11.229 C11.227,11.229 12.15,10.822 12.837,10.17 C13.568,10.947 14.22,11.757 14.794,12.594 C13.568,14.549 11.4,15.854 8.927,15.854 C7.655,15.854 6.467,15.504 5.441,14.904 C6.075,13.348 6.915,11.866 7.95,10.477 L7.95,10.477 Z M12.042,7.395 C12.042,8.406 11.219,9.228 10.208,9.228 C9.197,9.228 8.375,8.406 8.375,7.395 C8.375,6.384 9.197,5.561 10.208,5.561 C11.219,5.561 12.042,6.384 12.042,7.395 L12.042,7.395 Z M7.231,9.781 C6.155,11.208 5.275,12.729 4.602,14.33 C3.018,13.059 2,11.111 2,8.927 C2,7.238 2.608,5.69 3.616,4.487 C4.683,4.795 5.743,5.202 6.784,5.706 C6.53,6.218 6.375,6.786 6.375,7.395 C6.375,8.301 6.704,9.124 7.231,9.781 L7.231,9.781 Z M13.791,4.001 C13.473,4.184 13.145,4.389 12.816,4.602 C12.131,3.962 11.217,3.561 10.208,3.561 C9.065,3.561 8.049,4.074 7.346,4.87 C6.383,4.397 5.405,3.994 4.417,3.68 C5.63,2.636 7.204,2 8.927,2 C10.821,2 12.539,2.765 13.791,4.001 L13.791,4.001 Z" id="Imported-Layers" fill="#6B6B6A" sketch:type="MSShapeGroup"></path>
            <path d="M8.927,34 C4.004,34 0,38.005 0,42.927 C0,47.849 4.004,51.854 8.927,51.854 C13.85,51.854 17.855,47.849 17.855,42.927 C17.855,38.005 13.85,34 8.927,34 L8.927,34 Z M14.455,38.769 C15.33,39.928 15.855,41.366 15.855,42.927 C15.855,43.867 15.665,44.763 15.324,45.582 C14.772,44.82 14.151,44.084 13.475,43.374 C13.827,42.794 14.042,42.122 14.042,41.395 C14.042,40.651 13.819,39.962 13.451,39.373 C13.792,39.154 14.127,38.953 14.455,38.769 L14.455,38.769 Z M7.95,44.477 C8.585,44.944 9.361,45.229 10.208,45.229 C11.227,45.229 12.15,44.822 12.837,44.17 C13.568,44.947 14.22,45.757 14.794,46.594 C13.568,48.549 11.4,49.854 8.927,49.854 C7.655,49.854 6.467,49.504 5.441,48.904 C6.075,47.348 6.915,45.866 7.95,44.477 L7.95,44.477 Z M12.042,41.395 C12.042,42.406 11.219,43.228 10.208,43.228 C9.197,43.228 8.375,42.406 8.375,41.395 C8.375,40.384 9.197,39.561 10.208,39.561 C11.219,39.561 12.042,40.384 12.042,41.395 L12.042,41.395 Z M7.231,43.781 C6.155,45.208 5.275,46.729 4.602,48.33 C3.018,47.059 2,45.111 2,42.927 C2,41.238 2.608,39.69 3.616,38.487 C4.683,38.795 5.743,39.202 6.784,39.706 C6.53,40.218 6.375,40.786 6.375,41.395 C6.375,42.301 6.704,43.124 7.231,43.781 L7.231,43.781 Z M13.791,38.001 C13.473,38.184 13.145,38.389 12.816,38.602 C12.131,37.962 11.217,37.561 10.208,37.561 C9.065,37.561 8.049,38.074 7.346,38.87 C6.383,38.397 5.405,37.994 4.417,37.68 C5.63,36.636 7.204,36 8.927,36 C10.821,36 12.539,36.765 13.791,38.001 L13.791,38.001 Z" id="Imported-Layers" fill="#A39F9A" sketch:type="MSShapeGroup"></path>
        </g>
    </g>
</svg>