<?xml version="1.0" encoding="UTF-8" standalone="no"?>
<svg width="84px" height="96px" viewBox="0 0 84 96" version="1.1" xmlns="http://www.w3.org/2000/svg" xmlns:xlink="http://www.w3.org/1999/xlink" xmlns:sketch="http://www.bohemiancoding.com/sketch/ns">
    <!-- Generator: Sketch 3.2.2 (9983) - http://www.bohemiancoding.com/sketch -->
    <title>serica + serica</title>
    <desc>Created with Sketch.</desc>
    <defs></defs>
    <g id="Page-1" stroke="none" stroke-width="1" fill="none" fill-rule="evenodd" sketch:type="MSPage">
        <g id="serica-+-serica" sketch:type="MSLayerGroup">
            <g id="serica" fill="#6B6A65" sketch:type="MSShapeGroup">
                <g id="text3016">
                    <path d="M14.1160328,17.3225071 C14.1160171,19.2680756 13.40048,20.7852108 11.9694206,21.8739182 C10.5383338,22.9626279 8.59616277,23.5069819 6.14290194,23.5069827 C3.48518669,23.5069819 1.44079626,23.169281 0.00972421682,22.4938777 L0.00972421682,20.014039 C0.929698654,20.3971061 1.93144968,20.6995254 3.01498138,20.921297 C4.09850366,21.1430733 5.17180856,21.2539603 6.23489921,21.2539587 C7.9726237,21.2539603 9.28103361,20.9313801 10.1601329,20.2862168 C11.0392093,19.6309781 11.4787531,18.7237208 11.4787664,17.5644426 C11.4787531,16.79832 11.3203126,16.1733205 11.003445,15.6894426 C10.6967735,15.1954986 10.1754546,14.7418699 9.43948508,14.3285551 C8.71371488,13.9152581 7.60463305,13.4465086 6.11223566,12.9223053 C4.02694979,12.1864289 2.53454456,11.3144539 1.63501604,10.3063781 C0.74570317,9.29832697 0.301048228,7.98280413 0.301050112,6.3598049 C0.301048228,4.6561951 0.950142056,3.30034916 2.24833379,2.29226477 C3.54651847,1.28422219 5.26380583,0.780190452 7.40020295,0.780168 C9.62858007,0.780190452 11.6780812,1.183416 13.5487141,1.98984542 L12.7360674,4.22774865 C10.8858803,3.46163923 9.08681619,3.07857523 7.33887118,3.0785551 C5.95889877,3.07857523 4.88048321,3.37091381 4.1036206,3.95557161 C3.32674621,4.54026735 2.93831215,5.35175845 2.93831686,6.39004723 C2.93831215,7.15619226 3.0814191,7.78623174 3.36763929,8.280168 C3.65384849,8.76405368 4.1342806,9.21264155 4.80893563,9.62593394 C5.49380019,10.0291734 6.5364388,10.4777613 7.93685619,10.9717006 C10.2878961,11.7983249 11.9029641,12.6854206 12.7820665,13.632991 C13.6713619,14.5805799 14.1160171,15.8104173 14.1160328,17.3225071" id="path2984"></path>
                    <path d="M25.4164123,23.5069827 C22.9324679,23.5069819 20.9698534,22.7610155 19.5285618,21.2690795 C18.0974844,19.7771474 17.3819481,17.7055765 17.3819496,15.0543615 C17.3819481,12.3830013 18.0463747,10.2610281 19.3752327,8.68843432 C20.7143042,7.11586994 22.5082569,6.32958039 24.7570955,6.32956335 C26.862809,6.32958039 28.5289867,7.01506297 29.7556356,8.38601497 C30.9822554,9.74691561 31.5955724,11.5463086 31.5955889,13.7842003 L31.5955889,15.3719017 L20.019216,15.3719017 C20.0703225,17.3174725 20.5660858,18.7942854 21.5065114,19.8023458 C22.4571472,20.8104124 23.791112,21.3144441 25.5084103,21.3144426 C27.3176855,21.3144441 29.1065276,20.9414609 30.8749403,20.1954906 L30.8749403,22.4333938 C29.9753929,22.8164586 29.1218603,23.0886356 28.3143385,23.2499265 C27.5170136,23.4212973 26.5510395,23.5069819 25.4164123,23.5069827 M24.72643,8.43137806 C23.3771231,8.43139277 22.2987067,8.86485987 21.4911786,9.7317809 C20.6938608,10.598729 20.2236508,11.7983249 20.0805478,13.3305716 L28.8663244,13.3305716 C28.8663111,11.7479218 28.5085433,10.5382452 27.7930188,9.70153935 C27.0774699,8.8547791 26.0552747,8.43139277 24.72643,8.43137806" id="path2986"></path>
                    <path d="M43.5859506,6.32956335 C44.332143,6.32958039 45.0016811,6.39006658 45.5945665,6.51101497 L45.2419086,8.83964361 C44.5468039,8.68844903 43.9334869,8.61284361 43.4019553,8.61282968 C42.0424255,8.61284361 40.8771233,9.15719845 39.9060441,10.2458942 C38.9451744,11.3346155 38.4647422,12.6904606 38.4647477,14.3134343 L38.4647477,23.2045634 L35.9194787,23.2045634 L35.9194787,6.63198271 L38.0200926,6.63198271 L38.3114179,9.70153935 L38.4340815,9.70153935 C39.0576158,8.62292439 39.8089291,7.79127252 40.6880244,7.2065791 C41.5671048,6.62191819 42.5330797,6.32958039 43.5859506,6.32956335" id="path2988"></path>
                    <path d="M51.2830889,23.2045634 L48.7378198,23.2045634 L48.7378198,6.63198271 L51.2830889,6.63198271 L51.2830889,23.2045634 M48.523159,2.14105548 C48.5231566,1.56648 48.6662636,1.14813368 48.9524814,0.886014968 C49.2386929,0.613860387 49.5964615,0.477771097 50.0257871,0.477748645 C50.4346614,0.477771097 50.7873185,0.613860387 51.0837608,0.886014968 C51.3801921,1.15821445 51.5284105,1.57656077 51.528416,2.14105548 C51.5284105,2.705592 51.3801921,3.12897832 51.0837608,3.41121677 C50.7873185,3.68341316 50.4346614,3.81950168 50.0257871,3.81948232 C49.5964615,3.81950168 49.2386929,3.68341316 48.9524814,3.41121677 C48.6662636,3.12897832 48.5231566,2.705592 48.523159,2.14105548" id="path2990"></path>
                    <path d="M63.4267804,23.5069827 C60.9939465,23.5069819 59.1079958,22.7710963 57.7689243,21.299321 C56.4400663,19.8174697 55.7756397,17.7257381 55.7756412,15.02412 C55.7756397,12.2519535 56.4502884,10.1098181 57.7995898,8.59770813 C59.1591055,7.08562761 61.0910545,6.32958039 63.595443,6.32956335 C64.4029672,6.32958039 65.2105016,6.41526581 66.0180478,6.58661961 C66.8255704,6.75800748 67.4593308,6.95961987 67.9193328,7.19145832 L67.1373525,9.32351458 C66.5751319,9.10175458 65.9618149,8.92030297 65.2973992,8.77915974 C64.6329616,8.62796516 64.0451987,8.55236052 63.5341113,8.55234581 C60.1199689,8.55236052 58.4129029,10.6995352 58.4129076,14.9938777 C58.4129029,17.0301739 58.8268926,18.592673 59.6548759,19.6813781 C60.4930702,20.7700901 61.7299271,21.3144441 63.3654487,21.3144426 C64.7658464,21.3144441 66.2020313,21.0170655 67.6740057,20.4223053 L67.6740057,22.6450877 C66.549577,23.2196841 65.1338371,23.5069819 63.4267804,23.5069827" id="path2992"></path>
                    <path d="M82.0103069,23.2045634 L81.5043207,20.8456924 L81.3816572,20.8456924 C80.5434471,21.8839997 79.7052449,22.5896446 78.8670583,22.9626279 C78.0390695,23.3255311 77.0015361,23.5069819 75.7544658,23.5069827 C74.0882826,23.5069819 72.7798688,23.0835956 71.8292321,22.2368214 C70.8888113,21.3900488 70.4186013,20.1854129 70.4186029,18.6229099 C70.4186013,15.276144 73.1325275,13.5221133 78.5603955,13.3608132 L81.4123211,13.2700877 L81.4123211,12.2418619 C81.4123133,10.9414707 81.1260931,9.98381032 80.5536763,9.36887768 C79.9914572,8.74389213 79.0868164,8.43139277 77.8397462,8.43137806 C76.4393327,8.43139277 74.8549279,8.8547791 73.0865316,9.70153935 L72.3045544,7.78117626 C73.1325275,7.33764387 74.0371761,6.98986142 75.0184845,6.73782968 C76.0100064,6.48582968 77.0015361,6.35982194 77.9930736,6.3598049 C79.9965679,6.35982194 81.4787518,6.79832981 82.4396333,7.67532929 C83.4107047,8.55236052 83.8962482,9.95860877 83.8962639,11.8940795 L83.8962639,23.2045634 L82.0103069,23.2045634 M76.260452,21.4354103 C77.844849,21.4354119 79.0868164,21.0069848 79.9863622,20.1501275 C80.8961058,19.2932772 81.3509776,18.0936813 81.3509933,16.5513375 L81.3509933,15.0543615 L78.8057226,15.1602085 C76.7817701,15.230784 75.3200288,15.5432803 74.4204987,16.0977081 C73.5311821,16.6420699 73.0865316,17.4938834 73.0865316,18.6531523 C73.0865316,19.5604134 73.3625226,20.2509375 73.9145125,20.7247246 C74.4767159,21.1985172 75.2586931,21.4354119 76.260452,21.4354103" id="path2994"></path>
                </g>
            </g>
            <g id="serica" transform="translate(0.000000, 72.000000)" fill="#A39F9A" sketch:type="MSShapeGroup">
                <g id="text3016">
                    <path d="M14.1160328,17.3225071 C14.1160171,19.2680756 13.40048,20.7852108 11.9694206,21.8739182 C10.5383338,22.9626279 8.59616277,23.5069819 6.14290194,23.5069827 C3.48518669,23.5069819 1.44079626,23.169281 0.00972421682,22.4938777 L0.00972421682,20.014039 C0.929698654,20.3971061 1.93144968,20.6995254 3.01498138,20.921297 C4.09850366,21.1430733 5.17180856,21.2539603 6.23489921,21.2539587 C7.9726237,21.2539603 9.28103361,20.9313801 10.1601329,20.2862168 C11.0392093,19.6309781 11.4787531,18.7237208 11.4787664,17.5644426 C11.4787531,16.79832 11.3203126,16.1733205 11.003445,15.6894426 C10.6967735,15.1954986 10.1754546,14.7418699 9.43948508,14.3285551 C8.71371488,13.9152581 7.60463305,13.4465086 6.11223566,12.9223053 C4.02694979,12.1864289 2.53454456,11.3144539 1.63501604,10.3063781 C0.74570317,9.29832697 0.301048228,7.98280413 0.301050112,6.3598049 C0.301048228,4.6561951 0.950142056,3.30034916 2.24833379,2.29226477 C3.54651847,1.28422219 5.26380583,0.780190452 7.40020295,0.780168 C9.62858007,0.780190452 11.6780812,1.183416 13.5487141,1.98984542 L12.7360674,4.22774865 C10.8858803,3.46163923 9.08681619,3.07857523 7.33887118,3.0785551 C5.95889877,3.07857523 4.88048321,3.37091381 4.1036206,3.95557161 C3.32674621,4.54026735 2.93831215,5.35175845 2.93831686,6.39004723 C2.93831215,7.15619226 3.0814191,7.78623174 3.36763929,8.280168 C3.65384849,8.76405368 4.1342806,9.21264155 4.80893563,9.62593394 C5.49380019,10.0291734 6.5364388,10.4777613 7.93685619,10.9717006 C10.2878961,11.7983249 11.9029641,12.6854206 12.7820665,13.632991 C13.6713619,14.5805799 14.1160171,15.8104173 14.1160328,17.3225071" id="path2984"></path>
                    <path d="M25.4164123,23.5069827 C22.9324679,23.5069819 20.9698534,22.7610155 19.5285618,21.2690795 C18.0974844,19.7771474 17.3819481,17.7055765 17.3819496,15.0543615 C17.3819481,12.3830013 18.0463747,10.2610281 19.3752327,8.68843432 C20.7143042,7.11586994 22.5082569,6.32958039 24.7570955,6.32956335 C26.862809,6.32958039 28.5289867,7.01506297 29.7556356,8.38601497 C30.9822554,9.74691561 31.5955724,11.5463086 31.5955889,13.7842003 L31.5955889,15.3719017 L20.019216,15.3719017 C20.0703225,17.3174725 20.5660858,18.7942854 21.5065114,19.8023458 C22.4571472,20.8104124 23.791112,21.3144441 25.5084103,21.3144426 C27.3176855,21.3144441 29.1065276,20.9414609 30.8749403,20.1954906 L30.8749403,22.4333938 C29.9753929,22.8164586 29.1218603,23.0886356 28.3143385,23.2499265 C27.5170136,23.4212973 26.5510395,23.5069819 25.4164123,23.5069827 M24.72643,8.43137806 C23.3771231,8.43139277 22.2987067,8.86485987 21.4911786,9.7317809 C20.6938608,10.598729 20.2236508,11.7983249 20.0805478,13.3305716 L28.8663244,13.3305716 C28.8663111,11.7479218 28.5085433,10.5382452 27.7930188,9.70153935 C27.0774699,8.8547791 26.0552747,8.43139277 24.72643,8.43137806" id="path2986"></path>
                    <path d="M43.5859506,6.32956335 C44.332143,6.32958039 45.0016811,6.39006658 45.5945665,6.51101497 L45.2419086,8.83964361 C44.5468039,8.68844903 43.9334869,8.61284361 43.4019553,8.61282968 C42.0424255,8.61284361 40.8771233,9.15719845 39.9060441,10.2458942 C38.9451744,11.3346155 38.4647422,12.6904606 38.4647477,14.3134343 L38.4647477,23.2045634 L35.9194787,23.2045634 L35.9194787,6.63198271 L38.0200926,6.63198271 L38.3114179,9.70153935 L38.4340815,9.70153935 C39.0576158,8.62292439 39.8089291,7.79127252 40.6880244,7.2065791 C41.5671048,6.62191819 42.5330797,6.32958039 43.5859506,6.32956335" id="path2988"></path>
                    <path d="M51.2830889,23.2045634 L48.7378198,23.2045634 L48.7378198,6.63198271 L51.2830889,6.63198271 L51.2830889,23.2045634 M48.523159,2.14105548 C48.5231566,1.56648 48.6662636,1.14813368 48.9524814,0.886014968 C49.2386929,0.613860387 49.5964615,0.477771097 50.0257871,0.477748645 C50.4346614,0.477771097 50.7873185,0.613860387 51.0837608,0.886014968 C51.3801921,1.15821445 51.5284105,1.57656077 51.528416,2.14105548 C51.5284105,2.705592 51.3801921,3.12897832 51.0837608,3.41121677 C50.7873185,3.68341316 50.4346614,3.81950168 50.0257871,3.81948232 C49.5964615,3.81950168 49.2386929,3.68341316 48.9524814,3.41121677 C48.6662636,3.12897832 48.5231566,2.705592 48.523159,2.14105548" id="path2990"></path>
                    <path d="M63.4267804,23.5069827 C60.9939465,23.5069819 59.1079958,22.7710963 57.7689243,21.299321 C56.4400663,19.8174697 55.7756397,17.7257381 55.7756412,15.02412 C55.7756397,12.2519535 56.4502884,10.1098181 57.7995898,8.59770813 C59.1591055,7.08562761 61.0910545,6.32958039 63.595443,6.32956335 C64.4029672,6.32958039 65.2105016,6.41526581 66.0180478,6.58661961 C66.8255704,6.75800748 67.4593308,6.95961987 67.9193328,7.19145832 L67.1373525,9.32351458 C66.5751319,9.10175458 65.9618149,8.92030297 65.2973992,8.77915974 C64.6329616,8.62796516 64.0451987,8.55236052 63.5341113,8.55234581 C60.1199689,8.55236052 58.4129029,10.6995352 58.4129076,14.9938777 C58.4129029,17.0301739 58.8268926,18.592673 59.6548759,19.6813781 C60.4930702,20.7700901 61.7299271,21.3144441 63.3654487,21.3144426 C64.7658464,21.3144441 66.2020313,21.0170655 67.6740057,20.4223053 L67.6740057,22.6450877 C66.549577,23.2196841 65.1338371,23.5069819 63.4267804,23.5069827" id="path2992"></path>
                    <path d="M82.0103069,23.2045634 L81.5043207,20.8456924 L81.3816572,20.8456924 C80.5434471,21.8839997 79.7052449,22.5896446 78.8670583,22.9626279 C78.0390695,23.3255311 77.0015361,23.5069819 75.7544658,23.5069827 C74.0882826,23.5069819 72.7798688,23.0835956 71.8292321,22.2368214 C70.8888113,21.3900488 70.4186013,20.1854129 70.4186029,18.6229099 C70.4186013,15.276144 73.1325275,13.5221133 78.5603955,13.3608132 L81.4123211,13.2700877 L81.4123211,12.2418619 C81.4123133,10.9414707 81.1260931,9.98381032 80.5536763,9.36887768 C79.9914572,8.74389213 79.0868164,8.43139277 77.8397462,8.43137806 C76.4393327,8.43139277 74.8549279,8.8547791 73.0865316,9.70153935 L72.3045544,7.78117626 C73.1325275,7.33764387 74.0371761,6.98986142 75.0184845,6.73782968 C76.0100064,6.48582968 77.0015361,6.35982194 77.9930736,6.3598049 C79.9965679,6.35982194 81.4787518,6.79832981 82.4396333,7.67532929 C83.4107047,8.55236052 83.8962482,9.95860877 83.8962639,11.8940795 L83.8962639,23.2045634 L82.0103069,23.2045634 M76.260452,21.4354103 C77.844849,21.4354119 79.0868164,21.0069848 79.9863622,20.1501275 C80.8961058,19.2932772 81.3509776,18.0936813 81.3509933,16.5513375 L81.3509933,15.0543615 L78.8057226,15.1602085 C76.7817701,15.230784 75.3200288,15.5432803 74.4204987,16.0977081 C73.5311821,16.6420699 73.0865316,17.4938834 73.0865316,18.6531523 C73.0865316,19.5604134 73.3625226,20.2509375 73.9145125,20.7247246 C74.4767159,21.1985172 75.2586931,21.4354119 76.260452,21.4354103" id="path2994"></path>
                </g>
            </g>
        </g>
    </g>
</svg>